<?xml version="1.0" encoding="UTF-8"?>
<!DOCTYPE svg PUBLIC "-//W3C//DTD SVG 1.1//EN" "http://www.w3.org/Graphics/SVG/1.1/DTD/svg11.dtd">
<!-- Creator: CorelDRAW 2018 (64-Bit) -->
<svg xmlns="http://www.w3.org/2000/svg" xml:space="preserve" width="69mm" height="49.5mm" version="1.1" style="shape-rendering:geometricPrecision; text-rendering:geometricPrecision; image-rendering:optimizeQuality; fill-rule:evenodd; clip-rule:evenodd"
viewBox="0 0 6900 4950"
 xmlns:xlink="http://www.w3.org/1999/xlink">
 <defs>
  <style type="text/css">
   <![CDATA[
    .str0 {stroke:#1D6FA9;stroke-width:50;stroke-miterlimit:22.9256}
    .str1 {stroke:#1D6FA9;stroke-width:20;stroke-miterlimit:22.9256}
    .fil1 {fill:none}
    .fil3 {fill:#FEFEFE}
    .fil0 {fill:#1D6FA9}
    .fil2 {fill:white}
   ]]>
  </style>
 </defs>
 <g id="Layer_x0020_1">
  <metadata id="CorelCorpID_0Corel-Layer"/>
  <path class="fil0" d="M5471.16 766.84c-17.82,-24.62 -35.49,-64.52 -22.05,-97.99l-25.28 -13.84c16.31,-7.87 8.48,-4.28 12.15,-14.14 21.05,-56.27 2.4,-11.83 1.81,-50.68 -0.56,-37.33 22.57,-140.12 22.57,-140.18l-2.94 -122.37c15.77,7.16 28.95,32.5 43.88,47.74 19.09,19.47 8.9,-5.2 7.55,13.26 -0.19,2.4 -1.4,86.77 -0.65,90.92 0.18,0.96 4.46,9.38 6.36,17.02 7.04,28.11 -0.96,-3.06 0.63,19.14 2.27,31.33 39.59,98.68 63,130.22 23.39,31.49 14.84,-3.55 24.72,33.08 12.15,45.12 39.21,24.6 56.7,137.69 5.57,35.98 10.84,74 14.03,104.5 1.66,15.87 31.39,86.77 7.3,84.14 30.77,24.5 10.81,1.01 24.65,32.34 12.59,28.55 12.88,18.28 29.17,37.08 26.17,30.16 20.77,42.7 47.99,65.03 35.77,29.35 40.39,50.5 61.73,63.98 31.52,19.94 9.63,17.44 28.99,28.94 12.32,7.34 26.18,10.15 40.97,17.36l-9.28 15.72c45.11,12.37 31.08,50.28 65.25,83.77 10.8,10.58 8.96,1.37 16.95,20.86l80.41 95.05c76.52,84.64 207.28,-5.45 280.59,-20.8 58.59,-12.3 54.06,6 128.19,55.98 47.42,31.96 57.7,56.95 59.73,106.35 2.12,51.19 41.98,78 83.47,105.49 65.54,43.42 57.99,35.23 121.85,28.4 23.51,40.38 -12.75,81.65 -0.87,135.86 11.79,53.75 3.98,108.7 -0.36,167.81 -2.17,29.3 0.58,26.38 -12.53,57.2 -1.93,4.57 0.96,51.93 0.11,74.97 -2.1,56.87 -18.11,100.06 -35.32,144.27 -21.12,-21.49 -118.31,-94.14 -131.52,-96.82 -31.21,-6.28 -43.21,-21.37 -79.84,-33.71 -19.61,-6.58 -36.02,-8.78 -52.03,-14.01 -17.1,-5.57 -13.78,-11.55 -35.99,-20.28 -67.12,-26.43 -115.31,-39.64 -175.69,-71.28 -84.65,-44.41 -72.91,-49.53 -133.56,-106.9 -43.77,-41.4 -74.19,-79.6 -115.84,-122.66 -43.79,-45.33 -91.61,-61.71 -103.66,-132.16 -5.75,-33.58 -19.46,-53.61 -21.39,-83.47 -2.73,-41.8 12.12,-14.01 -5.19,-38.87 -13.82,-19.87 -9.33,-10.51 -9.93,-41.73 -1.04,-53.1 -14.22,-41.68 -10.39,-85.92 2.65,-30.53 9.38,-71.4 -3.07,-99.06 4.61,-8.9 14.54,29.83 7.58,-15.31 -3.77,-24.58 -12.25,-5.19 14.83,-18.71 -24.99,-14.09 -47.02,-37.02 -17.25,-53.03 -27.6,-15.05 -2.52,12.39 -33.08,-28.33 -13.62,-18.14 -20.45,-12.52 -26.62,-39.12 -5.6,-24.33 -21.12,-41.2 -40.17,-63.34 -17.47,-20.31 -25.86,-58.74 -51.63,-86.23 -21.96,-23.41 -47.34,-36.58 -70.47,-63.73 -47.13,-55.24 -49.36,-130.27 -88.03,-179.5 -20.31,-25.81 -19.41,-13.55 -17.61,-38.29 1.34,-18.69 -8.98,-5.26 -20.92,-21.71zm-911.8 1319.2c-11.65,4.15 -42.56,35.36 -55.56,48.5 -5.33,5.4 -49.02,34.6 -58.31,40.87 -127.13,85.94 -104.78,46.01 -133.23,60.3 -14.12,10.93 10.45,16.64 -40.44,36.46 -25.43,9.91 -30.95,14.86 -52.49,24.15l-98 59.67c-224.42,146.49 -167.39,212.64 -227.48,246.17 -23.44,13.08 -24.19,25.67 -38.82,27.42 -42.64,5.06 -128.58,80.03 -129.08,80.86 -4.1,6.87 -3.84,16.08 -22.65,39.54 -11.81,14.73 -20.91,33.57 -18.78,57.25l-2.78 -8.95 -176.41 39.25 1.6 15.58c-61.48,-4.99 -25.78,8.88 -81.87,4.97 -29.37,-2.05 -63.18,-5.86 -83.34,-6.89 -27.08,-1.38 -54.84,-20.72 -115.93,6.39 6.21,6.14 25.91,-24.79 -40.91,-1.21 -24.64,8.7 -43.01,11.21 -61.34,15.94 -23.96,6.15 -31.85,13.94 -54.64,22.67 -14.97,5.71 -19.26,4.17 -31.08,8.39 -26.75,9.52 -18.44,-14.81 -19.65,18.61 27.2,26.03 84.8,-11.11 116.64,-12.49 20.08,-0.87 29.78,-0.24 46.67,-3.37l45.05 -2.97c84.21,-7.33 168.24,21.3 245.19,17.09 69.35,-3.83 77.96,-44.75 144.56,-45.3 133.47,2.07 596.39,-74.03 503.2,-43.72 80.44,-5.48 278.07,-7.72 301.57,8.3 -293.8,12.3 637.99,-48.66 863.71,-124.81 57.95,-19.54 241.41,-171.17 173.61,-191.74l-153.97 109.88 -133.11 36.64 -586.84 78.83c-14.24,4.96 -47.03,15.75 -92.23,23.53 -10.33,35.72 -14.57,13.03 -37.53,5.8 -11.93,-3.76 -27.46,16.07 -54.73,9.15 -82.7,-20.96 -100.57,-29 -182.63,-26.69 -36.44,1.01 -184.52,22.35 -206.7,20.42l-52.81 -147.54c-10.11,11.74 0.94,32.06 -4.12,49.5 -25.01,86.42 -59.37,101.32 -61.08,132.65l-189.41 -10.23c22.79,-15.74 55.62,-73.18 92.79,-97.39l93 -56.42c26.06,-15.3 20.96,0.16 28.51,-8.06 6.29,-8.13 -2.58,-17.17 23.6,-38.87 38.39,-31.76 54.57,-95.97 81.84,-121.3 18.91,-17.64 17.19,-12.34 37.76,-34.7 20.53,-22.27 -0.12,6.09 39.02,-32.83 78.47,-78.06 345.26,-172.61 450.03,-252.42 19.27,-14.67 68.07,-56.19 72.25,-63.35l56.15 -65.78c19.08,-21.61 57.63,-48.23 72.54,-71.78 9.11,-14.38 19.1,-31.58 28.5,-42.83 18.88,-22.6 2.12,-6.08 17.27,-42.42 18.83,-45.11 46.39,-82.97 68.4,-148.59 12.04,-35.92 16.54,-91.27 61.45,-136.17 13.98,-13.95 48.94,-68.92 65.75,-72.8 -9.48,53.56 -12.99,140.52 1.76,192.12 9.31,32.65 71.77,114.83 76.28,140.41 8.02,45.26 -0.27,97.4 5.13,120.3 9.79,41.38 20.91,22.35 24.04,43.1 2.85,19.12 9.74,25.84 26.74,42.94 96.77,124.72 160.49,17.69 99.23,38.48 -21.58,-15.91 -23.61,-25.72 -40.44,-40.72 -37.5,-33.42 -11.24,-13.22 -27.75,-46.64 -14.91,-30.26 -21.9,2.1 -26.51,-48.88 -2.36,-26.14 4.93,-29.56 0.63,-39.3 -17.43,-39.38 6.73,-69.56 -14.28,-115.09 -13.02,-28.22 -39.3,-53.76 -58.81,-92.53 -34.43,-68.39 -25.67,-150.2 0.12,-208.12 12.33,-27.75 4.05,4.84 8.49,-11.69 0.12,-0.46 0.58,-14.26 3.02,-19.66 32.6,-72.2 -5.48,-48.4 39.61,-85.82 26.12,-21.68 -3.47,-1.61 12.83,-15.79 19.83,-17.29 -6.63,10.34 19.92,-6.77 -11.6,-28.97 81.89,-192.36 88.14,-198.66 30.14,-30.33 11.47,-30.94 36.05,-56.13 24.04,-24.63 72.32,-95.15 87.19,-120.9 61.3,-106.32 23.24,-36.45 65.37,-135.28 60.81,1.35 65.86,174.07 135.35,217.52 45.94,28.72 61.3,51.08 84.88,96.48 17.79,34.24 46.54,75.12 70.32,109.28 41.8,60 34.18,73 36.55,132.05 2.66,65.93 17.44,12.76 6.7,60.35 -3.98,17.65 -6.14,25.98 -1.98,55.51 15.05,107.53 27.01,164.54 52.5,268.27 14.37,58.52 47.19,68.38 92.58,94.55 35.58,20.5 66.06,66.7 90.99,90.13 87.39,82.09 73.72,99.06 198.83,167.47 64.04,35.01 194.73,63.16 276.38,97.4 42.7,17.89 212.54,119.05 219.92,148.92 7.16,13.43 -35.71,217.55 -38.36,223.63 -24.62,56.5 -40.15,141.88 -77.1,199.17 -0.79,1.26 -18.54,66.01 -27.32,98.12 -12.4,45.33 -26.94,56.26 -45.53,98.27 -12.13,27.39 -21.53,29.51 -25.73,43.91 -9.32,31.83 -0.53,14.8 -20.52,45.14 -14.34,21.77 -15.7,69.52 -41.42,92.55 -29.72,100.92 -33,213.68 -284.08,488.56 -11.12,10.12 -23.22,43.89 -27.16,56.3 -5.08,15.99 -35.18,32.1 -35.49,42.51l6.08 -55.46c-310.41,412.76 -754.68,850.58 -635.42,715.96 -3.93,0.29 -43.26,32.76 -53.48,42.05 -8.95,8.13 -55.47,38.75 -62.23,41.95 -13.87,6.59 -43.53,23.16 -54.82,29.86 -2.1,1.26 -27.97,37.64 -49.72,50.27 -15.05,8.71 -51.17,22.33 -63.42,35.31 -18.15,19.17 -30.69,43.98 -49.81,53.14 -8.59,4.1 -35.55,4.8 -56.02,21.93 -12.71,10.62 -47.39,33.77 -66.46,40.1 -26.04,-2.99 -123.58,-51.2 -141.54,-63.06 -107.34,-71.02 -90.74,-232.87 -338.89,-254.83 -89.56,-7.89 -192.98,-19.22 -264.53,-100.73 -30.53,-34.79 -58.23,-70.74 -73.55,-118.63 -29.03,-90.53 -16.76,-56.57 -62.28,-126.29 -150.98,-60.98 -158.18,-98.86 -241.3,-156.54 -69.6,-48.33 -46.98,-79.38 -80.64,-117.22 -33.61,-37.81 -76.89,-40.94 -102.72,-95.03 -19.71,-41.26 13.79,-78.37 -7.93,-144.15 -26.84,-81.38 -186.19,-102.12 -262.86,-111.4l-148.47 -11.04c-35.77,-6.59 -89.99,-37.62 -103.23,-90.68 -14.69,-58.76 -65.45,-80.43 -66.58,-115.54 -3.47,-108.2 9.65,-77.87 -51.36,-129.18 -31.78,-26.74 -91.92,-53.94 -132.14,-67.98 -155.54,-54.28 -298.55,-17.98 -379.64,-50.75l-35 -11.5c-5.45,-2.47 -26.57,-16.74 -29.35,-18.48 -17.91,-11.14 -6.5,-0.02 -27.53,-7.93 -25.32,-9.52 -5.95,-6.58 -30.82,-10.85 -26.88,-4.59 -41.09,-15.46 -69.75,-24.99 6.6,-26.79 69.8,-78.44 90.39,-92.61l19.35 -9.96c0.11,-0.08 5.25,-6.93 8.72,-11.45 10.2,-13.26 20.11,-14.24 33.57,-28.51 23.67,-25.06 15.55,-9.14 29.7,-13.33 7.51,-2.23 2.1,-13.89 24.86,-25.86l16.79 -10.48c0.15,-0.17 7.04,-11.11 11.19,-14.67l7.93 -2.89c20.48,-2.36 44.8,-22.93 71.66,-30.64 54.53,-15.59 117.34,-22.93 154.23,-48.62 6.01,-4.2 68.29,-49.04 50,-32.35l-99.47 97.26 10.18 11.03 69.83 -33.61 -62.87 63.26c35.67,31.91 53.97,-16.03 86.81,-26.52 -3.9,36.84 -18.35,46.2 13.12,74.07l16.97 -35.3 42.98 33.29 -31.53 -95.23c6.35,11.83 70.64,80.05 112.48,33.66l-86.82 -64.26 68.68 10.41 -69.21 -104.63 46.26 12.04 6.41 -9.45 -35.45 -62.96c14.25,-24.48 4.29,-1.7 12.73,-6.93 20.76,-12.85 8.3,-17.7 23.32,-37.97 11.14,-15.03 33.49,-25.76 52.18,-42.3l16.52 19.27c-11.62,-43.96 64.21,-47.1 100.12,-41.86 23.54,3.44 39.21,14.2 64.96,24.83 44.99,18.6 26.86,2.46 33.43,33.74l49.21 6.32c-28.38,2.99 16.75,17.29 -45.43,28.16 -32.15,5.62 -47.79,0.46 -38.39,40.73l85.74 -15.38 -78.89 65.12 6.61 14.08 57.17 -3.18 -23.71 30.53 58.5 -10.2 -21.68 23.78 8.91 8.8 40.72 -28.93 3.5 82.36c41.83,-14.51 20.74,-49.16 27.05,-73.57 30.77,7.99 34.97,60.22 54.11,26.92 21.32,-37.09 -13.16,-22.65 32.48,-16.42l-20.83 -47.19 62.7 9.91 7.02 -52.7 56.58 6.56 2.54 -14.68 -107.21 -30.57 -1.02 -16.98 34.95 -5.57 1.33 -13.26 -42.28 -20.45 24.24 -49.82c-2.34,-78.51 8.15,-50.25 -43.72,-116.56l39.81 -7.56 -64.87 -156.59c-25.82,5.69 2.37,-5.52 -8.97,19.12 -19.36,42.03 -19.1,53.13 -29.3,75.24 -10.72,23.25 -12.89,6.2 -29.39,38.48 -14.75,28.82 -8.24,19.71 7.88,44.3l-7.91 -3.26c-6.82,16.74 -17.62,56.28 -31.67,65.67l23.5 15.98 -24.93 31.96c-45.64,-10.06 -41.04,-12.16 -102.6,-54.6 -34.63,-28.52 -70.25,0 0.36,-34.82l-36.17 -60.71 28.55 8.15 -8.48 -35.26c85.27,8.12 11.8,-2.73 7.98,-11.02l-11.61 2.05 43.79 -39.48c11.79,-34.09 -41.35,-4.98 54.43,-91.75 4.72,-4.28 11.28,-10.07 17.22,-14.27 36.04,-25.42 128.67,-141.69 149.88,-176.44 14.04,-23 2.06,-8.53 16.28,-15.57 25.97,-12.88 11.62,-19.77 33.67,-45.92 6.84,-8.13 0.52,-0.8 9.06,-8.94l24.26 -26.1c31.28,-38.36 8.89,1.16 33.49,-31.82l47.68 -43.72c26.08,-21.03 37.13,-44.03 57.82,-69.69l61.3 -244.68c102.24,-71.33 107.59,-132.21 155.26,-265 20.47,-57.06 79.91,-45.02 125.1,-75.99 26.02,-17.84 107.35,-64.5 107.6,-96.13 5.32,3.58 94.66,-7.44 104.15,-8.33 46.87,-4.41 87.77,-60.04 162.03,-89.65 34.37,-13.67 52.84,-26.02 82.95,-43.52 7.74,-4.51 176.97,-158.77 193.74,-190.72 9.93,-18.9 50.05,-63.76 69.44,-42.8l-20.42 -23.76c40.56,-7.85 73.74,-43.11 92.03,-62.44 32.66,-34.54 40.83,-74.59 57.45,-89.97 14.06,-13.03 16.7,-45.8 41.57,-86.45 23.39,-38.22 40.24,-45.04 72.63,-75.83 34.19,-32.49 66.77,-35.41 98.04,-3.1 16.38,16.88 78.52,32.84 104.44,21.83 82.47,-35.01 118.63,-126.26 157.85,-144.63 36.55,19.02 27.22,31.29 42.29,68.19 20.13,49.28 26.36,9.59 38.97,59.59 22.74,90.27 -3.84,57.65 1.95,91.81 4.12,24.17 5.21,13.44 2.26,34.53 -4,28.53 -23.69,85.51 -31.03,133.52 -4.31,28 -0.81,34.6 -8.92,62.9 -3.11,10.82 -14.39,63.44 -15.84,75.35 -2.2,18.16 3.78,51.38 1.64,75.09 -3.23,35.64 -40.44,180.99 -70.15,204.31 -37.16,29.15 -54.25,78.78 -85.55,108.73 -16.96,16.23 -64.44,88.62 -75.77,113.67 -33.08,73.32 7.16,18.78 -57.46,127.41 -28.36,47.68 -40.8,63.45 -84.83,105.04 -27.81,26.29 -155.89,189.54 -162.23,215.28 -5.46,22.19 -12.91,50.79 -19.25,73.98 -3.69,13.48 -0.46,47.89 -13.74,74.38 -11.29,22.52 -49.83,118.46 -59.03,130.9 -26.43,35.76 -44.39,74.39 -82.98,101.74 -31.61,22.38 -59.68,61.59 -89.84,90.11zm1005.98 -1759.25l-163.08 -193.32c-81.18,-99.54 -130.23,-1.7 -203.95,46.57 -115.07,75.36 -75.55,-90.76 -236.5,-25.19 -82.15,33.49 -129.23,89.98 -173.62,150.12 -30.52,141.55 -88.06,168.31 -170.62,249.91 -120.07,118.66 -385.99,309.69 -400.67,316.15 -103.93,107.85 -665.51,315.78 -631.08,531.85 -122.45,134.67 -123.97,121.13 -266.12,103.69 -59.63,49.36 -64.95,-37.37 -226.73,194.89 -11.51,-0.66 -17.85,13.52 -32.75,51.26l-86.66 99.93c-26.99,54.37 -54.4,17.62 -167.35,240.03 -1.37,30.37 -14.76,47.23 -19.48,56.37 -5.86,11.31 -12.81,42.32 -26.46,50.96 -26.13,16.54 -89.67,52.19 -102.89,71.24 -31.16,18.09 -62,49.08 -69.21,58.79 -18.83,25.32 -9.16,3.26 -28.13,22.55 -15.32,15.6 -2.99,12.3 -17.89,27.1 -19.13,18.96 -25.69,30.29 -43.84,49.61l-36.93 36.07c-26.84,19.72 -26.18,36.34 -54.51,64.36 -57.87,57.22 -26.68,24.23 -43.44,81.24 -7.85,26.65 -186.39,138.16 -228.03,158.83 -2.01,37.54 -26.33,48.38 -62.6,62.7 -30.14,11.89 1.49,1.98 -20.94,16.98 -13.3,8.87 -10.99,-11.67 -39.29,23.1 -19.22,23.67 -14.94,26.16 -10.06,62.33 -77.6,-12.32 -130.29,-9.38 -208.46,-9.53l6.37 11.5c-20.5,-5.73 9.85,-9.66 -28.07,-14.82l-59.83 -7.74c-49.24,4.79 -14.78,8.86 -92.72,1.98 -20.39,-1.8 -52.45,-5.5 -52.56,21.33 1.23,38.83 67.99,27.13 99.54,28.55 51,2.34 118.53,-3.81 149.72,3.64 26.84,6.4 -3.86,5.94 31.66,3.65 38.1,-2.46 49.87,2.26 51.45,2.5l33.79 -5.5c-5.18,-20.49 0.75,2.87 1.1,3.19 7.02,6.6 -15.84,-4.54 3.93,2.41 21.81,7.67 22.7,-10.42 43.66,15.53 6.22,-9.39 -7.29,-25.34 17.01,-17.68 6.04,1.89 -23.09,3.38 22.58,5.24 119.34,4.91 261.1,75.4 271.27,25.71 13.05,1.61 -3.34,-1.91 3.62,8.84 14.03,21.73 18.74,20.67 27.76,-9.16 6,44.51 22.13,6.84 56.45,25.14 17.6,9.37 52.73,27.14 65.7,40.61 28.41,29.5 10.14,0.03 55.87,16.14 17.35,6.12 53.39,24.16 43.25,-18.45l-3.27 28.81c46.18,2.18 45.84,7.72 95.86,7.98 90.69,0.47 75.02,-19.64 108.97,19.39 -4.3,-37.86 131.68,4.42 142.48,10.06 59.58,31.13 98.92,13.55 110.86,107.72 -133.18,-37.3 -489.1,44.57 7.15,34.28 18.18,46.18 44.47,87.6 68.36,141.31 27.93,62.82 41.27,77.6 99.04,97.9 63.63,22.33 329.27,12.05 356.54,64.46 -26.16,7.32 -110.49,-8.75 -146.39,-11.37 -82.38,-6.1 -91.83,39.02 -39.36,39.91 360.14,6.15 174.39,56.99 253.34,154.01 52.35,64.32 70.1,51.92 142.48,162.78 10.14,15.53 65.23,75.52 65.67,76.7 19.18,22 23.36,18.09 36.3,35.76 22.64,7.47 81.15,50.68 108.86,66.33 41.77,23.56 97.81,27.33 110.92,68.78 27.73,87.75 -0.14,43.91 47.38,130.67 37.02,67.64 113.17,138.87 192.31,167.25 44.99,16.15 92.31,34.28 144.83,40.41 52.68,6.13 115.46,0.94 147.07,38.44 -28.48,19.36 -125.03,-44.88 -133.96,26.93l198.6 25.85c75.8,112.59 54.53,313.53 649.29,57.88 145.13,-89.37 298.71,-232.28 418.29,-339.5 66.41,-59.58 124.13,-127.68 190.6,-188.28 66.9,-61.05 107.94,-157.33 167.58,-215.59 28.7,-28.05 206.17,-332.63 258.83,-404.29 13.29,-18.11 22.52,-47.12 32.7,-62.48 151.43,-228.4 284.56,-516.82 357.29,-780.55 29.4,-106.7 47.46,-199.58 72.12,-306.96 22.4,-97.5 74.58,-580.34 38.97,-692.52 -36.31,-11.82 -31.59,-20.76 -92.64,-19.24 -74.2,1.9 -111.7,-20.48 -123.58,-89.42 -3.07,-17.77 -27.86,-67.75 -25.25,-74.36 7.06,-4.75 -125.51,-27.92 -67.79,-57.03 -87.14,3.69 -3.73,-7.76 -68.64,-46.83 -155.73,-93.78 -256.4,57.27 -330.21,16.18 -10.28,-5.74 -75.05,-88.26 -95.04,-113.93 -46.08,-59.2 -21.46,-64.12 -96.3,-118.35 -44.35,-32.14 -204.01,-183.49 -173.14,-242.92 -30.89,-128.7 -8.39,-155.68 -103.55,-310.78 -24.27,-39.54 -55.38,-59.8 -64.76,-111.72 -9.91,-54.83 -0.03,-93.92 -24.05,-132.42 17.7,65.03 17.7,65.03 -15.02,-42.45z"/>
  <path class="fil1 str0" d="M3141.78 4761.79l-292.94 -304.68 -492.96 -384.86 -138.06 -422.15c0,0 -190.43,-291.24 -417.55,-217.48 -227.12,73.75 -445.14,17.95 -445.14,17.95l-233.51 -124.74 -320.93 -83.56 -514 -264.2 -228.29 -46.28"/>
  <line class="fil1 str1" x1="168.45" y1="1789.93" x2="2859.35" y2= "1995.78" />
  <g id="city">
   <path class="fil0" d="M4175.31 3409.37l80.79 -2.17 0.69 136.53 -82.5 0 1.02 -134.36zm851.05 -122.5l108.89 0 1.26 163.41 -111.69 0.61 1.54 -164.02zm-966.52 125.69l62.86 -0.36 -0.09 40.71 -62.57 0.58 -0.2 -40.93zm802.16 -62.72l34.42 -0.09 -2.72 70.2 -31.18 -0.05 -0.52 -70.06zm56.02 -1.15l33.72 -0.03 0.3 71.29 -33.87 0.32 -0.15 -71.58zm1111.58 -19c0.55,-97.23 -19.67,-204.25 47.19,-202.36 44.31,1.24 45.05,37.5 44.92,78.88 -0.15,40.99 0.48,81.99 0.13,123l-92.24 0.48zm-258.65 -1.13c1.73,-109.21 -20.5,-201.23 45.57,-201.71 46.49,-0.32 47.38,38.35 47.27,80.23 -0.11,40.75 0.54,81.51 0.43,123.15l-93.27 -1.67zm-210.11 2.58c-0.35,-42.79 -0.2,-85.52 -0.7,-128.27 -0.5,-40.91 1.24,-75.82 48.4,-73.78 64.33,2.75 39.69,102.26 45.16,202.08l-92.86 -0.03zm-698.77 -43.6l88.37 -0.3 -0.39 44.16 -90.2 0.26 2.22 -44.12zm1171.64 -208.65c-0.33,-88.37 -17.26,-174.57 41.99,-173.68 56.67,0.85 40.86,92.84 40.78,181.04l-82.77 -7.36zm-65.57 -200.58l0.8 119.16c-96.55,5.64 -205.68,1.84 -301.98,2.56 -57.23,0.39 -77.18,7.9 -116.74,32.7 -30.27,18.95 -70.35,33.02 -100.18,53.58l-0.7 344.19 -117.05 10.68c10.92,-11.79 -6.1,-9.79 47.4,-10.57 -7.47,-15.77 -33.44,-42.8 -45.23,-56.82 13.07,-7.39 5.71,-1.29 15.11,-4.35l15.92 -6.25c-11.1,-12.46 -20.54,-25.68 -31.72,-36.87 15.78,-17.02 -1.85,-0.48 22.9,-10.96 -11.92,-15.24 -27.57,-36.98 -37.8,-53.52l-22.75 22.3c-9.19,11.76 -11.33,15.35 -22.39,25.01 8.19,12.33 1.02,1.87 15.01,12.38 0.97,0.71 2.71,1.99 3.51,2.58 0.81,0.58 2.56,1.54 3.59,2.6 -15.03,14.31 -18.83,23.11 -31.55,36.85l27.16 10.53c-13.66,20.84 -31.13,35.22 -42.32,57.41 20.43,-0.39 37.72,-4.71 50.55,6.38 -16.81,12.7 -83.59,11.68 -108.91,10.99l-0.67 -223.94 -150.27 -121.2c-13.6,-11.88 -38.65,-34.02 -53.37,-42.32 -31.88,15.53 -166.1,146.52 -202.51,164.45l0.06 242.66c-13.57,1.84 -102.31,9.96 -115.12,3.56 1.13,-0.67 3.02,-2.63 3.67,-1.48l48.38 -4.62 -45.82 -52.57c1.59,-0.8 12.58,0.67 24.82,-10.57l-28.9 -39.54 27.32 -5.17 -51.48 -72.76 -46.23 70.29c15.98,12.83 1.19,-2.83 24.04,9.22 -11.82,12.4 -18.35,27.1 -31.57,36.29 1.17,1.15 3.4,0.56 4.21,2.6l27.88 9.97 -45.6 52.41c18.04,1.72 42.36,-1.89 55.54,6.06 -9.92,14.5 -84.81,16.76 -124.82,23.75 -31.29,5.49 -31.46,11.6 -35.07,-12.55 3.41,-17.54 31.59,-10.83 67.79,-10.03 -15.68,-35.33 -70.24,-103.83 -76.71,-127.6l55.3 1.58 -58.82 -103.89 43.75 -1.28c-6.99,-26.53 -44.58,-91.39 -58.25,-119.18l-60.28 118.48 41.91 1.18 -58.19 103.89 56.88 0.63c-3.97,20.6 -59.62,96.53 -74.53,126.84l76.27 -0.58 0.72 31.39 -134.12 36.59c-5.17,-34.48 -2.37,-85.14 -2.45,-121.18 -0.13,-59.6 8.47,-83.64 -17.2,-108.71 -26.44,-25.84 -107.34,-106.59 -123.52,-132.06 -20.32,9.38 -22.08,17.57 -35.89,31.94l-94.06 97.29c-30.98,32.59 -20.58,50.16 -20.23,107.28 0.28,41.8 2.56,90.31 -0.55,131.32l-109.51 2 3.73 124.24 821.27 -51.33 438.92 -36.5 428.14 -63.14 334.11 0.15 184.19 -15.3 106.15 -115.38c-15.18,-31.12 -27.08,20.32 -31.7,-30.96l-0.63 -484 38.8 -0.41c-122.44,-171.87 -192.53,-37 -248.41,1.63z"/>
   <polygon class="fil0" points="6230.9,2876.62 5910.09,2881.51 6079.18,2686.06 "/>
  </g>
  <path class="fil1 str1" d="M4154.46 3833.98c122.38,63.49 244.74,126.99 354.88,151.27 110.15,24.28 208.05,9.32 294.46,23.32 86.44,14.01 161.39,56.98 261.58,88.73 100.21,31.75 225.63,52.29 328.06,69.96 102.43,17.67 181.86,32.48 261.27,47.26"/>
  <path class="fil1 str1" d="M4571.25 3997.84c62.42,-45.8 124.81,-91.6 175.13,-127.68 50.33,-36.09 88.59,-62.48 147.48,-71.51 58.9,-9.02 138.43,-0.68 182.53,-24.74 44.11,-24.05 52.77,-80.5 61.43,-136.94"/>
  <g id="_3179611627472">
   <path class="fil0" d="M5425.12 3844.43c5.95,-0.81 38.88,6.79 47.49,8.5 51.79,10.28 48.07,4.14 37.57,57.06 -3.2,16.09 -3.05,33.36 -17.07,35.49 -5.07,0.77 -39.55,-7.04 -47.48,-8.61 -11.96,-2.37 -36.79,-4.37 -42.26,-12.82 -5.48,-8.46 2.09,-31.93 4.47,-43.91 3.46,-17.41 3.11,-33.76 17.28,-35.71zm-133.6 -26.46c5.2,-0.84 58.55,10.64 71.04,13.12 8.84,1.75 14.54,1.75 18.58,8.42 4.06,6.72 1.89,11.53 0.15,20.27 -1.57,7.9 -3.13,15.79 -4.7,23.69 -9.25,46.58 -2.28,39.16 -88.4,22.16 -21.34,-4.22 -22.55,-8.64 -18.64,-28.31 1.57,-7.9 3.14,-15.8 4.71,-23.69 3.75,-18.94 3.02,-33.37 17.26,-35.66zm-110.39 201.21c8.05,-34.3 39.24,-56.7 74.49,-49.51 33.79,6.88 56.02,40.01 49.22,73.96 4.9,2.67 126.58,26.23 141.2,28.56 2.41,-2.84 3.32,-9.47 4.96,-13.25 11.29,-26.01 40.06,-42.37 69.82,-36.64 31.97,6.15 54.22,36.87 50.76,67.59 -0.53,4.69 -1.3,5.35 0.11,6.87 2.51,1.97 29.74,6.53 35.31,7.64 12.91,2.56 22.52,6.81 30.29,-0.87 5.39,-5.32 7.32,-24.38 9.05,-33.06l14.26 -71.85c2.44,-12.31 6.97,-24.01 -0.06,-31.15 -5.6,-5.69 -23.54,-7.47 -32.48,-9.24 -11.97,-2.38 -23.94,-4.75 -35.92,-7.13 -32.49,-6.45 -31.67,-7.04 -37.11,-38.33 -3.29,-18.96 -6.39,-37.01 -9.58,-55.89 -4.67,-27.61 -13.95,-24.81 -46.75,-31.32l-216.29 -42.93c-12.37,-2.46 -22.57,-6.59 -30.67,1.12 -5.11,4.87 -17,53.74 -19.78,63.88 -3.24,11.79 -3.99,21.96 -13.36,26.31 -11.87,5.53 -56.82,-12.95 -68.29,-7.95 -9.69,4.22 -9.72,16.02 -12.13,28.15 -3.63,18.29 -21.6,99.14 -18.99,105.98 4.04,10.6 14.36,10.31 26.96,12.81 8.09,1.6 28.02,6.53 34.98,6.25z"/>
   <path class="fil2" d="M5425.12 3844.43c-14.17,1.95 -13.82,18.3 -17.28,35.71 -2.38,11.98 -9.95,35.45 -4.47,43.91 5.47,8.45 30.3,10.45 42.26,12.82 7.93,1.57 42.41,9.38 47.48,8.61 14.02,-2.13 13.87,-19.4 17.07,-35.49 10.5,-52.92 14.22,-46.78 -37.57,-57.06 -8.61,-1.71 -41.54,-9.31 -47.49,-8.5z"/>
   <path class="fil2" d="M5291.52 3817.97c-14.24,2.29 -13.51,16.72 -17.26,35.66 -1.57,7.89 -3.14,15.79 -4.71,23.69 -3.91,19.67 -2.7,24.09 18.64,28.31 86.12,17 79.15,24.42 88.4,-22.16 1.57,-7.9 3.13,-15.79 4.7,-23.69 1.74,-8.74 3.91,-13.55 -0.15,-20.27 -4.04,-6.67 -9.74,-6.67 -18.58,-8.42 -12.49,-2.48 -65.84,-13.96 -71.04,-13.12z"/>
   <path class="fil0" d="M5554.69 4104.7c11.55,-28.35 -5.13,-55.89 -28.04,-64.92 -28.04,-11.06 -54.99,4.87 -64.27,27.24 -11.82,28.49 4.52,56.47 27.8,65.52 28.46,11.07 55.17,-4.93 64.51,-27.84z"/>
   <path class="fil0" d="M5192.34 4028.81c-2.57,25.5 15.97,51.56 45.45,54.12 26.47,2.3 51.2,-17.19 53.8,-45.04 2.41,-25.98 -15.8,-51.32 -44.75,-54.22 -26.09,-2.62 -51.55,15.92 -54.5,45.14z"/>
  </g>
  <path class="fil0" d="M2572.15 1360.57c3.85,-12.28 -2.27,-23.4 -10.09,-29.5 -10.99,-8.59 -22.98,-5.94 -38.38,-4.3l-157.49 15.26c-24.02,2.55 -56.29,-0.48 -60.18,25.99 -4.73,32.06 23.32,34.15 47.24,31.74l157.11 -15.04c26.48,-2.27 54.17,0.12 61.79,-24.15z"/>
  <path class="fil0" d="M1303.62 753.74c-34.01,9.82 -21.21,35.53 -10.97,61.79l54.05 139.94c8.73,23.1 14.57,56.3 45.5,50.44 31.71,-6.01 19.07,-41.44 9.83,-63.97l-54.19 -139.9c-7.69,-20.98 -16.22,-56.38 -44.22,-48.3z"/>
  <path class="fil0" d="M2064.97 754.18c-22.25,6.97 -23.33,26.33 -36.72,60.3 -9.15,23.27 -18.01,47.55 -27.36,70.94 -11.82,29.56 -41.58,88.84 -29.59,108.46 5.14,8.4 19.04,16.2 33.56,10.95 19.03,-6.88 25.89,-41.32 34.03,-61.91l54.1 -139.84c18.15,-46.38 -13.68,-53.39 -28.02,-48.9z"/>
  <path class="fil0" d="M809.67 1363.02c7.43,22.43 38.43,19.74 63.19,21.91l157.13 15.06c25.24,2.31 51.21,-3.25 44.42,-34.21 -5.33,-24.34 -35.57,-21.2 -62.1,-23.97l-156.61 -15.12c-14.76,-1.5 -27.06,-3.95 -37.08,4.32 -7.39,6.11 -13.53,18.17 -8.95,32.01z"/>
  <path class="fil0" d="M2218.72 1900.7c1.1,12.7 15.32,23.37 22.38,28.78l126.18 107.27c4.96,4.04 9.56,8.15 13.13,11.14 7.54,6.32 18.9,17.88 35.53,13.74 15.5,-3.87 39.01,-27.93 -2.23,-59.33l-139.15 -118.57c-39.09,-32.86 -57.36,-0.55 -55.84,16.97z"/>
  <path class="fil0" d="M1159.9 1908.07c11.16,-27.25 -18.62,-51.89 -48.07,-28.64l-56.02 47.07c-15.12,13.11 -105.1,87.21 -109.27,96.96 -11.52,26.97 18.47,53.05 48.37,28.79l83.91 -70.89c10.45,-9.05 17.06,-14.97 27.71,-23.77 9.81,-8.12 49.47,-40.02 53.37,-49.52z"/>
  <polyline class="fil1 str1" points="1389.94,1891.9 1962.42,1930.33 1957.27,1938.12 "/>
  <g id="_3179611624048">
   <circle class="fil3" cx="845.35" cy="4105.71" r="751.59"/>
   <path class="fil0" d="M1023.35 3579.56c-31.85,-5.22 -58.52,18.23 -62.35,45.37 -4.72,33.42 18.83,58.18 44.23,62.08 73.07,11.24 88.37,-95.93 18.12,-107.45zm445.85 488.6l0 76.47c-0.15,0.37 -0.3,0.5 -0.35,1.14 -0.05,0.65 -0.52,1.92 -0.59,2.34 -1.28,7.05 -3.5,41.63 -6.21,58.65 -3.07,19.4 -7.24,39.3 -12.53,56.78 -19.96,66.06 -58.37,128.73 -129.1,146.42 -20.64,5.16 -43.67,3.51 -65.67,3.5 -20.53,-0.01 -49.53,1.68 -69.04,-0.31 -0.7,-38.22 -0.08,-77.06 -0.08,-115.35 0,-38.97 0.46,-69.16 -12.21,-103.7 -20.35,-55.49 -59.5,-94.39 -127.14,-104.56 -32.78,-4.92 -184.44,-2.57 -228.95,-2.57 -73.66,-0.01 -148.23,7.9 -205.03,-26.47 -23.61,-14.28 -43.18,-33.3 -55.66,-60.06 -15.34,-32.88 -15.72,-59.63 -15.73,-99.86 -0.02,-77.17 -0.02,-154.34 -0.04,-231.51 -0.01,-41.73 -0.91,-63.45 21.57,-94 44.88,-60.98 127.6,-80.38 201.33,-88.41 13.11,-1.44 44.97,-1.67 54.33,-4.02l66.18 0 92.73 9.58c4.83,0.85 9.67,1.8 14.43,2.79 44.23,9.21 95.12,25.26 126.32,58.86 21.62,23.28 28.13,38.29 27.95,73.77 -0.22,45.28 -0.34,90.59 -0.38,135.86l-303.46 -0.01 0.41 42.68c73.2,1.77 148.78,0.07 222.24,0.01l167.05 -0.04c53.29,-0.01 87.5,-4.23 136.96,29.37 33.89,23.02 56.35,55.98 72.4,94.61 11.3,27.18 18.45,59.45 22.74,88.13l5.53 49.91z"/>
   <path class="fil0" d="M677.37 4523.83c-32.02,-3.96 -57.16,20.27 -60.37,47.48 -3.79,32.13 19.54,57.31 47.5,60.8 32.51,4.05 57.59,-20.78 60.78,-47.38 3.87,-32.48 -19.57,-57.39 -47.91,-60.9zm-455.88 -332.24l0 -174.92c2.21,-4.68 7.87,-41.87 10.33,-52.1 4.06,-16.81 9.12,-32.48 15.02,-47.16 15.77,-39.21 34.06,-66.25 65.51,-90.49 18.01,-13.88 40.7,-24.33 64.58,-27.97 12.24,-1.86 109.58,-2.14 123.38,-0.86 -0.01,50.84 -1.64,104.39 0.1,154.89 2.17,63.85 29.61,119.87 80.93,149.46 42.08,24.25 83.5,21.73 131.19,21.73l230.18 -0.02c51.59,-0.01 89.08,2.02 128.97,25.29 88.4,51.59 73.43,138.39 73.41,233.66 0,51.58 -0.01,103.16 -0.01,154.75 0,26.91 2.55,45.3 -6.59,70.15 -33.17,90.13 -163.34,115.77 -263.94,119.89 -93.55,3.84 -191.03,-3.71 -266.14,-40.82 -28.01,-13.85 -64.65,-45.13 -67.98,-85.81l0.52 -153.33 303.09 -0.05 0.05 -42.82c-139.26,-0.56 -278.74,-0.29 -418.01,-0.05 -36.86,0.06 -58,-2.55 -87.63,-17.03 -60.58,-29.61 -92.52,-89.81 -108.2,-153.72 -2.32,-9.45 -5.98,-36.78 -8.76,-42.67z"/>
  </g>
  <g id="_3179563726624">
   <g>
    <path class="fil0" d="M1422.15 2395.07c4.32,9.48 21.16,10.38 43.14,10.9l311.72 7.45c33.98,0.81 95.98,7.57 85.38,-16.02 -4.29,-9.53 -22.81,-10.62 -42.94,-11.05l-311.76 -7.38c-30.79,-0.74 -96.24,-7.41 -85.54,16.1z"/>
    <path class="fil0" d="M1498.39 2460.2c0.25,0.53 -12.35,-2.01 -1.05,3.54 -7.82,-4.18 -5.31,-3.78 -25.9,-4.19 -9.01,-0.18 -23.44,-0.97 -31.71,-0.17 -16.81,1.62 -26.05,11.24 -17.1,20.11 9.03,8.95 30.49,7.74 50.55,8.2 19.93,0.45 41.83,1.44 61.49,1.37 43.22,-0.16 293.12,8.12 306.24,6.82 15.52,-1.54 27.1,-10.6 17.57,-20.16 -8.73,-8.76 -31.07,-8.03 -50.68,-7.92 -12.18,0.07 -37.21,-1.1 -56.6,-1.56 -84.13,-2 -168.74,-3.57 -252.81,-6.04z"/>
    <path class="fil0" d="M1509.49 2559.52c4.69,12.25 31.19,11.42 57.48,12.04 25.71,0.61 50.48,1.15 73.47,1.76 27.03,0.72 54.11,1.2 81.18,1.93 15.32,0.41 48.83,2.09 46.51,-14.29 -1.97,-13.98 -29.23,-13.29 -55.68,-14.09l-159.55 -3.86c-24.99,-0.74 -49.16,1.51 -43.41,16.51z"/>
   </g>
   <g>
    <path class="fil0" d="M1532.93 2052.05c0.24,0.53 -12.18,-2.13 -1.08,3.54 -7.68,-4.26 -5.2,-3.84 -25.52,-4.46 -8.89,-0.27 -23.13,-1.21 -31.3,-0.49 -16.61,1.45 -25.84,10.97 -17.1,19.93 8.81,9.04 30.02,8.05 49.81,8.71 19.66,0.66 41.28,1.87 60.68,2 42.67,0.29 289.25,11.12 302.21,9.95 15.34,-1.38 26.86,-10.32 17.57,-19.98 -8.52,-8.85 -30.59,-8.34 -49.95,-8.43 -12.01,-0.06 -36.71,-1.49 -55.85,-2.15 -83.02,-2.85 -166.52,-5.29 -249.47,-8.62z"/>
    <path class="fil0" d="M1547.83 2117.45c0.21,0.52 -10.81,-2.1 -0.97,3.53 -6.81,-4.23 -4.61,-3.81 -22.67,-4.36 -7.9,-0.24 -20.55,-1.12 -27.81,-0.37 -14.77,1.51 -23.01,11.07 -15.28,20 7.8,9 26.65,7.93 44.24,8.52 17.47,0.58 36.68,1.71 53.93,1.77 37.91,0.12 257.02,10 268.55,8.78 13.64,-1.43 23.91,-10.41 15.69,-20.04 -7.54,-8.82 -27.15,-8.22 -44.36,-8.24 -10.68,-0.02 -32.62,-1.35 -49.63,-1.93 -73.77,-2.54 -147.98,-4.65 -221.69,-7.66z"/>
    <path class="fil0" d="M1551.87 2186.84c0.2,0.52 -10.11,-2.07 -0.92,3.53 -6.35,-4.21 -4.3,-3.8 -21.19,-4.3 -7.39,-0.23 -19.21,-1.08 -26.01,-0.32 -13.82,1.55 -21.55,11.13 -14.33,20.04 7.27,8.98 24.9,7.86 41.35,8.41 16.35,0.55 34.31,1.64 50.44,1.65 35.46,0.04 240.38,9.44 251.17,8.19 12.75,-1.47 22.38,-10.47 14.71,-20.07 -7.03,-8.8 -25.37,-8.17 -41.47,-8.15 -9.99,0.01 -30.51,-1.27 -46.41,-1.82 -69,-2.37 -138.4,-4.32 -207.34,-7.16z"/>
    <path class="fil0" d="M1549.82 2256.32c0.18,0.52 -9.32,-2.04 -0.86,3.54 -5.85,-4.2 -3.96,-3.8 -19.53,-4.25 -6.82,-0.21 -17.72,-1.03 -23.99,-0.25 -12.76,1.59 -19.91,11.18 -13.28,20.07 6.69,8.96 22.95,7.8 38.12,8.31 15.08,0.5 31.64,1.54 46.52,1.51 32.71,-0.06 221.71,8.79 231.66,7.52 11.77,-1.5 20.68,-10.53 13.63,-20.11 -6.47,-8.78 -23.39,-8.1 -38.23,-8.03 -9.22,0.03 -28.14,-1.19 -42.81,-1.7 -63.64,-2.19 -127.65,-3.95 -191.23,-6.61z"/>
    <path class="fil0" d="M1517.71 1985.99c0.29,0.53 -14.34,-2.21 -1.24,3.53 -9.07,-4.31 -6.15,-3.87 -30.09,-4.62 -10.47,-0.32 -27.24,-1.35 -36.85,-0.68 -19.56,1.35 -30.37,10.82 -20.03,19.84 10.44,9.09 35.4,8.22 58.72,9.01 23.16,0.78 48.62,2.13 71.48,2.38 50.24,0.54 340.71,12.88 355.97,11.79 18.05,-1.28 31.57,-10.15 20.57,-19.87 -10.09,-8.91 -36.07,-8.53 -58.87,-8.74 -14.16,-0.14 -43.25,-1.71 -65.79,-2.49 -97.8,-3.37 -196.15,-6.31 -293.87,-10.15z"/>
   </g>
  </g>
  <path class="fil0 str0" d="M2068.62 1936.2c-1.07,-1.82 -804.67,-58.72 -805.7,-60.52 -45.21,-78.92 -79.31,-190.37 -75.91,-287.46 9.72,-277.54 242.59,-494.64 520.13,-484.91 277.54,9.73 494.64,242.59 484.91,520.13 -4.21,120.06 -50.18,228.8 -123.43,312.76z"/>
  <rect class="fil3" transform="matrix(0.240166 0.161817 -0.161817 0.240166 3184.89 2238.43)" width="521.66" height="698.83"/>
  <path class="fil2" d="M1999.44 1310.9c-16.79,9.65 -23.17,38.39 -7.78,59.82 68.21,94.98 77.32,233.4 21.05,341.17 -6.51,12.49 -28.31,41.98 -29.49,55.88 -2.46,29.03 18.76,49.38 38.03,37.77 19.48,-11.74 49.25,-77.44 59.52,-106.85 40.01,-114.7 25.59,-263.58 -36.2,-357.77 -9.41,-14.32 -23.79,-42.31 -45.13,-30.02z"/>
 </g>
</svg>
