<svg xmlns="http://www.w3.org/2000/svg" xmlns:xlink="http://www.w3.org/1999/xlink" width="300" height="300" viewBox="598701.2265424645 3336595.5993924057 35232.37881519087 35232.37881519087" preserveAspectRatio="xMinYMin meet"><g transform="matrix(1,0,0,-1,0,6708423.577600002)"><path fill-rule="evenodd" fill="#66cc99" stroke="#555555" stroke-width="234.88252543460578" opacity="0.6" d="M 632628.7024385742,3354211.788800001 L 632315.2856424348,3351029.6146664596 L 631387.0796857262,3347969.729700286 L 629879.7550028206,3345149.7235647277 L 627851.2372359649,3342677.9675140963 L 625379.4811853333,3340649.44974724 L 622559.4750497749,3339142.125064335 L 619499.5900836014,3338213.919107626 L 616317.4159500599,3337900.5023114868 L 613135.2418165184,3338213.919107626 L 610075.3568503449,3339142.125064335 L 607255.3507147866,3340649.44974724 L 604783.5946641549,3342677.9675140963 L 602755.0768972992,3345149.7235647277 L 601247.7522143936,3347969.729700286 L 600319.5462576849,3351029.6146664596 L 600006.1294615456,3354211.788800001 L 600319.5462576849,3357393.9629335427 L 601247.7522143936,3360453.847899716 L 602755.0768972992,3363273.8540352746 L 604783.5946641549,3365745.610085906 L 607255.3507147866,3367774.127852762 L 610075.3568503449,3369281.4525356675 L 613135.2418165182,3370209.658492376 L 616317.4159500599,3370523.0752885155 L 619499.5900836014,3370209.658492376 L 622559.4750497749,3369281.4525356675 L 625379.4811853332,3367774.127852762 L 627851.2372359649,3365745.610085906 L 629879.7550028206,3363273.8540352746 L 631387.0796857262,3360453.8478997163 L 632315.2856424348,3357393.9629335427 L 632628.7024385742,3354211.788800001 z" /></g></svg>