<svg xmlns="http://www.w3.org/2000/svg" xmlns:xlink="http://www.w3.org/1999/xlink" width="100.0" height="100.0" viewBox="-1.08 -1.08 2.16 2.16" preserveAspectRatio="xMinYMin meet"><g transform="matrix(1,0,0,-1,0,0.0)"><path fill-rule="evenodd" fill="#66cc99" stroke="#555555" stroke-width="0.0432" opacity="0.6" d="M 1.0,0.0 L 0.9951847266721969,-0.0980171403295605 L 0.9807852804032305,-0.19509032201612808 L 0.9569403357322089,-0.2902846772544621 L 0.923879532511287,-0.3826834323650894 L 0.8819212643483553,-0.4713967368259972 L 0.8314696123025456,-0.5555702330196017 L 0.7730104533627374,-0.6343932841636449 L 0.7071067811865481,-0.7071067811865469 L 0.6343932841636463,-0.7730104533627363 L 0.5555702330196031,-0.8314696123025447 L 0.4713967368259986,-0.8819212643483545 L 0.38268343236509084,-0.9238795325112863 L 0.2902846772544636,-0.9569403357322085 L 0.19509032201612964,-0.9807852804032302 L 0.09801714032956209,-0.9951847266721967 L 1.6155445744325867e-15,-1.0 L -0.09801714032955888,-0.995184726672197 L -0.19509032201612647,-0.9807852804032308 L -0.2902846772544605,-0.9569403357322094 L -0.38268343236508784,-0.9238795325112875 L -0.4713967368259957,-0.881921264348356 L -0.5555702330196005,-0.8314696123025463 L -0.6343932841636436,-0.7730104533627385 L -0.7071067811865459,-0.7071067811865491 L -0.7730104533627353,-0.6343932841636476 L -0.8314696123025438,-0.5555702330196043 L -0.8819212643483537,-0.4713967368260002 L -0.9238795325112857,-0.38268343236509234 L -0.9569403357322079,-0.29028467725446533 L -0.9807852804032299,-0.19509032201613122 L -0.9951847266721966,-0.09801714032956392 L -1.0,-3.2310891488651735e-15 L -0.9951847266721972,0.0980171403295575 L -0.9807852804032311,0.19509032201612486 L -0.9569403357322098,0.29028467725445917 L -0.9238795325112882,0.38268343236508634 L -0.8819212643483567,0.4713967368259945 L -0.8314696123025475,0.555570233019599 L -0.7730104533627393,0.6343932841636426 L -0.7071067811865505,0.7071067811865446 L -0.6343932841636486,0.7730104533627344 L -0.5555702330196058,0.8314696123025428 L -0.4713967368260018,0.8819212643483528 L -0.3826834323650936,0.9238795325112852 L -0.29028467725446666,0.9569403357322076 L -0.19509032201613302,0.9807852804032295 L -0.09801714032956575,0.9951847266721964 L -4.624589118372729e-15,1.0 L 0.09801714032955566,0.9951847266721974 L 0.19509032201612306,0.9807852804032314 L 0.29028467725445783,0.9569403357322103 L 0.38268343236508506,0.9238795325112887 L 0.47139673682599287,0.8819212643483576 L 0.5555702330195974,0.8314696123025485 L 0.6343932841636415,0.7730104533627402 L 0.7071067811865436,0.7071067811865515 L 0.7730104533627332,0.63439328416365 L 0.8314696123025418,0.5555702330196074 L 0.8819212643483524,0.47139673682600264 L 0.9238795325112844,0.38268343236509533 L 0.956940335732207,0.29028467725446844 L 0.9807852804032291,0.19509032201613483 L 0.9951847266721963,0.0980171403295667 L 1.0,0.0 z" /></g></svg>