<svg xmlns="http://www.w3.org/2000/svg" xmlns:xlink="http://www.w3.org/1999/xlink" width="300" height="300" viewBox="605741.5015532046 3335525.78127464 26470.97825275932 37371.95270377677" preserveAspectRatio="xMinYMin meet"><g transform="matrix(1,0,0,-1,0,6708423.515253057)"><path fill-rule="evenodd" fill="#66cc99" stroke="#555555" stroke-width="249.1463513585118" opacity="0.6" d="M 607231.9750119989,3343405.344397156 L 607257.4433127774,3343479.5678109247 L 607303.6234937081,3343577.864725903 L 607403.492444805,3343763.519286651 L 607407.1876890387,3343795.257688709 L 607416.7372036343,3343859.2044499624 L 607418.8106233801,3343870.561792636 L 607426.9760483475,3343933.754032801 L 607431.7312818259,3343978.4336388987 L 607442.1554165357,3344047.5615712586 L 607450.7783412832,3344112.708679783 L 607455.9950323234,3344140.3589648623 L 607467.9786712587,3344195.337341813 L 607472.3268599657,3344212.8962010243 L 607491.6466763845,3344280.601855957 L 607496.21912031,3344294.7216979624 L 607515.4197885344,3344348.688825815 L 607524.7111461054,3344372.611201642 L 607567.9436368718,3344468.612360977 L 607575.9772873505,3344484.203139836 L 607637.3990041799,3344587.612299925 L 607646.0316851144,3344600.335597597 L 607700.7603368075,3344673.555826427 L 607761.9466424058,3344741.4724166924 L 607778.5281370399,3344758.266225912 L 607779.4589616092,3344759.2077216357 L 607801.2799175906,3344781.2496338603 L 607859.0637573157,3344835.178647768 L 607920.926315792,3344884.3755433327 L 607938.4117837277,3344897.1865451755 L 608031.5145910921,3344957.7531690593 L 608054.836977358,3344971.1434854283 L 608064.569090468,3344990.459309619 L 608068.9137138342,3344998.7094454295 L 608081.8641143598,3345021.298250461 L 608081.850723956,3345021.3055563923 L 608116.4430678247,3345084.706844938 L 608145.1453008667,3345133.923906411 L 608184.2725831174,3345196.828157115 L 608235.9397284819,3345270.7656828286 L 608235.4210276712,3345290.2757585626 L 608242.8377252348,3345390.4456574963 L 608260.2657871614,3345489.366225189 L 608287.5293814546,3345586.0394504447 L 608324.3534452737,3345679.489995542 L 608370.3664600477,3345768.775036431 L 608425.1041997317,3345852.9937749007 L 608488.0144143914,3345931.2965267464 L 608558.462401861,3346002.893294248 L 608635.7374112636,3346067.0617364678 L 608719.0598137891,3346123.154456963 L 608807.5889683804,3346170.605535375 L 608900.4317029755,3346208.9362370125 L 609296.9666363391,3346349.784099046 L 609381.7733512359,3346375.7336554206 L 609468.5456900186,3346394.0672199903 L 609556.6011397915,3346404.6405890323 L 609591.1121804258,3346407.238833156 L 609621.2947061993,3346409.576461516 L 609624.9929833434,3346409.855993775 L 609651.056431008,3346411.777383448 L 609750.3576732256,3346414.1512689404 L 609849.4045500834,3346406.662061841 L 609898.3551704475,3346400.5034878743 L 609980.4298883912,3346385.5080603934 L 610016.5941072457,3346389.9551600423 L 610047.087921451,3346391.4832839575 L 610078.7518614344,3346392.567525768 L 610105.5991254457,3346393.061218775 L 610246.1425272998,3346395.5114251524 L 610334.2317026327,3346399.004558786 L 610363.282444075,3346400.9193858574 L 610368.3482412822,3346401.2700574463 L 610385.7332201684,3346403.3260902106 L 610433.4837100426,3346411.684004489 L 610580.7562341071,3346443.9687809804 L 610596.0129670876,3346447.188875005 L 610682.253588797,3346464.689677993 L 610684.4711364686,3346465.1384202596 L 610719.7138509377,3346474.861630875 L 610782.9747700548,3346490.118400014 L 610825.2303402276,3346498.8649812206 L 610914.2875101154,3346513.1453577983 L 611057.8042887802,3346529.5607141913 L 611070.2595689707,3346530.9063570653 L 611165.9150028018,3346540.6350037954 L 611190.814402363,3346542.8533376697 L 611299.4778398921,3346551.166815785 L 611383.283290779,3346554.0523774363 L 611444.1598293852,3346553.5944690234 L 611513.1550630651,3346554.198041454 L 611599.9975112269,3346555.0831373404 L 611623.6619985548,3346555.3244454176 L 611646.3695676706,3346555.5560438586 L 612190.9989609631,3346560.9012815445 L 612281.4189051954,3346561.8284567576 L 612390.0561689743,3346562.9434233056 L 612405.6194634251,3346562.9820374018 L 612576.2598113155,3346562.0775234196 L 612623.2312782113,3346560.7244513114 L 612709.8946542835,3346556.188173318 L 612727.9206750102,3346555.08132095 L 612788.3083385312,3346550.825653496 L 612820.1521413481,3346548.5703083966 L 612878.3884518588,3346542.7285052827 L 612938.423730829,3346534.9256859515 L 613068.716813485,3346509.095478487 L 613137.5247002041,3346490.6309275464 L 613182.1076978225,3346477.5495379944 L 613252.2465686725,3346455.187305803 L 613264.7433701137,3346451.5478687794 L 613275.7505989929,3346448.2735596714 L 613310.7008151368,3346437.6581367655 L 613328.7909620211,3346431.9757389277 L 613342.0194138411,3346427.6822665664 L 613452.3412934177,3346384.4975074553 L 613497.2083047311,3346363.791201485 L 613586.3993828582,3346317.0451504756 L 613670.4369521281,3346261.566067447 L 613748.4688512762,3346197.9165237113 L 613819.7038179848,3346126.7419410255 L 613883.4195124737,3346048.7640468613 L 613938.9698422006,3345964.7735559135 L 613985.7915133955,3345875.6221520603 L 614023.4097429954,3345782.213852085 L 614051.4430730597,3345685.4958387273 L 614069.607238846,3345586.448856018 L 614077.7180513229,3345486.0772643033 L 614075.6932648913,3345385.398855782 L 614063.5534113751,3345285.434533851 L 614041.4215918233,3345187.197960897 L 614009.5222282354,3345091.6852795132 L 613968.1787878682,3344999.8650113745 L 613961.4107853766,3344986.6541836993 L 613946.5189925655,3344951.829683186 L 613928.0992938995,3344911.27782842 L 613867.6155942697,3344785.6291083028 L 613858.3698928235,3344766.923984594 L 613796.0019534351,3344643.9919416024 L 613707.301803482,3344463.6420843485 L 613701.2270016334,3344451.499329741 L 613676.5077409883,3344402.9157842663 L 613618.4931253627,3344303.501312275 L 613540.967079886,3344186.6629619226 L 613464.8544594917,3344086.302413813 L 613418.3494296725,3344032.401474972 L 613341.9646489397,3343943.9390186407 L 613279.1243827023,3343865.1658329517 L 613260.4519760027,3343842.4522922398 L 613258.6201199341,3343840.2895959774 L 613305.8025163279,3343815.7927187053 L 613316.0034543215,3343810.692596321 L 613330.7340923506,3343829.0982329804 L 613351.2633508944,3343853.9191068946 L 613363.790022626,3343867.088851656 L 613399.844905648,3343912.6790155126 L 613403.902809687,3343917.7758835354 L 613408.7427727719,3343923.8145711985 L 613439.3010515856,3343960.1397910374 L 613494.1927831202,3344022.332275602 L 613558.6382892781,3344088.8662167904 L 613628.9636323738,3344149.15166041 L 613704.5654217656,3344202.6713580433 L 613719.8722014144,3344212.475788808 L 613790.9844754024,3344253.9987781895 L 613865.2720548171,3344289.5300278673 L 613879.837720422,3344295.773399656 L 613921.5310326482,3344312.545979663 L 613936.388824095,3344318.1385320695 L 614031.8984859858,3344348.7159169465 L 614094.2639816361,3344361.976815488 L 614122.0371747738,3344390.293894519 L 614198.3021066216,3344453.9722890104 L 614280.5095334547,3344509.768496123 L 614367.847962929,3344557.1317360005 L 614459.455253149,3344595.594472945 L 614554.4271231082,3344624.7770305984 L 614651.8260790994,3344644.3913398273 L 614750.6906689751,3344654.2437823378 L 614850.0449729086,3344654.2371019335 L 614948.9082369694,3344644.371364558 L 614955.7586740374,3344643.3419069014 L 614978.2678436814,3344638.9142823243 L 615048.0472812842,3344634.679514594 L 615088.0812780424,3344628.0069801384 L 615082.6026779297,3344633.390465425 L 615071.5514804086,3344644.420700643 L 615066.6379530693,3344649.4020856884 L 615059.2266550098,3344656.5559005328 L 614988.0341833646,3344732.841309018 L 614963.6670564424,3344761.848473589 L 614934.7865937076,3344797.8863567784 L 614912.4401361827,3344827.129905323 L 614877.403041984,3344875.9550012145 L 614862.1462873643,3344898.623955221 L 614835.9096934232,3344939.737181897 L 614820.3349224033,3344965.5081259524 L 614821.0463523142,3344965.9380814065 L 614764.9661947642,3345066.003910864 L 614728.1551709033,3345143.6448055855 L 614718.7428990804,3345164.0881004627 L 614693.0113192893,3345221.673789692 L 614683.4583561495,3345243.762566081 L 614630.6023635725,3345370.130779273 L 614625.1422354253,3345381.9814190203 L 614624.0594732275,3345384.339486375 L 614590.2654166662,3345458.189558021 L 614584.3086070955,3345469.611894939 L 614553.4861674792,3345534.2613751898 L 614492.8298725293,3345674.176355111 L 614434.5812279076,3345806.363519882 L 614433.1127721145,3345809.7255018833 L 614424.0900982309,3345828.951179169 L 614304.3567255848,3346097.750424102 L 614283.3930338225,3346144.375720161 L 614272.9514901659,3346168.4375990476 L 614253.9660304048,3346213.80875035 L 614248.6986142775,3346223.7529239706 L 614246.0314912102,3346227.7025165595 L 614236.6550730125,3346240.894033412 L 614234.6858964736,3346243.7347945217 L 614231.0029048973,3346248.854635982 L 614217.5688788984,3346267.9979977645 L 614200.1685384298,3346293.4204459903 L 614149.6819578002,3346375.386812331 L 614107.310845537,3346461.827941896 L 614073.4478708399,3346551.9427518854 L 614048.4068547643,3346644.896114109 L 614032.4198619231,3346739.826594434 L 614025.6350498542,3346835.8544360218 L 614028.1152959897,3346932.0897123707 L 614039.8376149458,3347027.6405746015 L 614060.6933715383,3347121.621516562 L 614090.4892875446,3347213.1615811465 L 614128.9492328876,3347301.412431788 L 614175.7167846378,3347385.5562143163 L 614181.3641116646,3347394.655747003 L 614181.3840153094,3347394.6940167844 L 614182.1565728011,3347396.1764255157 L 614191.8495864689,3347414.7378286403 L 614203.178484967,3347436.43781569 L 614207.598761508,3347445.1157355392 L 614274.5499370798,3347628.5489104004 L 614329.3094332524,3347799.0274124234 L 614380.738488669,3347959.4549266365 L 614411.7421156712,3348043.126423068 L 614450.080959113,3348123.701092077 L 614482.9154345711,3348185.445828572 L 614531.5156378511,3348267.204088594 L 614595.8258854492,3348364.533555142 L 614636.180850453,3348421.217021688 L 614660.480083946,3348452.950672831 L 614722.5587021022,3348526.4144506515 L 614749.7626440274,3348555.6330554383 L 614810.997993035,3348615.979791198 L 614857.5140911649,3348658.036153943 L 614905.0816642217,3348698.418766027 L 614933.418583706,3348720.9927702732 L 615007.0162906278,3348774.3408374265 L 615048.295880722,3348801.489379006 L 615056.5072440183,3348806.8323499463 L 615124.5661383943,3348850.6439031954 L 615143.7961075404,3348863.127132301 L 615198.4841674496,3348898.5991637497 L 615206.4540384552,3348903.7151538176 L 615379.2587098308,3349013.489316967 L 615435.0583392783,3349048.9706465295 L 615465.3559324881,3349069.1264846176 L 615504.1484008322,3349095.1003593868 L 615691.1100380486,3349220.1907779905 L 615710.0207670169,3349232.5365397143 L 615882.0393143138,3349342.0876676734 L 615892.1505053993,3349348.8239786685 L 615965.8592879937,3349398.2102832706 L 615983.5064263763,3349409.766400662 L 616123.5037872035,3349499.347398272 L 616138.2200687769,3349508.7922249627 L 616208.1674487828,3349549.7791860616 L 616248.9206074314,3349571.4898279672 L 616291.8966569027,3349593.0744011225 L 616324.5405797831,3349608.498190329 L 616352.8784423396,3349621.3519811165 L 616399.9022283227,3349641.8054691427 L 616438.6013451968,3349657.6840041154 L 616445.9779024126,3349660.531901025 L 616448.3140742792,3349661.4304783056 L 616651.0236971441,3349739.1089384225 L 616616.6573781177,3349771.699922493 L 616566.0502744274,3349823.291646734 L 616312.7744678889,3350100.885728333 L 616221.1077775573,3350201.400738442 L 616184.8961477551,3350241.0405935002 L 616128.7141471008,3350308.22789623 L 616078.6263520485,3350380.073311062 L 616035.0169635767,3350456.0257440894 L 615974.3195880727,3350573.357360702 L 615930.5226437023,3350657.836100415 L 615893.0994836558,3350738.6339963065 L 615863.012099022,3350822.4405722674 L 615840.4990464426,3350908.5913433144 L 615825.7388272485,3350996.403237826 L 615822.1890956974,3351025.355928221 L 615817.7132886462,3351061.1685598292 L 615797.8008250335,3351220.785837678 L 615790.7880241935,3351307.73372642 L 615791.3183833798,3351385.992178002 L 615777.8958294004,3351440.605489095 L 615776.3724230326,3351448.1291324254 L 615760.4428878421,3351557.6725055706 L 615756.7183234167,3351668.305359241 L 615760.811753639,3351721.2933914503 L 615760.0308427565,3351752.4227434443 L 615767.1607236051,3351850.0824762885 L 615780.7166661059,3351928.6592231444 L 615776.4869351233,3351948.4907440688 L 615763.1268124344,3352025.935523211 L 615755.8895324384,3352104.190289666 L 615749.82927782,3352218.60767418 L 615744.9323948935,3352305.552426559 L 615744.3730550362,3352407.0055379444 L 615754.0962323932,3352507.9931930955 L 615774.0018458461,3352607.4759213645 L 615803.8850059868,3352704.429742387 L 615809.1228485828,3352718.7908891644 L 615833.5521975035,3352779.5190229523 L 615851.7642451375,3352820.832355681 L 615873.3845499357,3352866.69099031 L 615897.3095511955,3352914.272178961 L 615924.5632588929,3352964.8045725287 L 615963.5580547446,3353032.3880952154 L 615985.7881179707,3353069.074980958 L 616027.9763166227,3353135.4444647203 L 616037.2014255715,3353151.943418981 L 616041.1150245358,3353160.06637513 L 616096.5616925857,3353260.0846681385 L 616111.2252622918,3353283.2977215494 L 616141.7212138319,3353328.767765246 L 616162.3701316569,3353357.804598021 L 616184.0967482443,3353387.2039391077 L 616221.7585155502,3353436.2637990625 L 616228.8744277973,3353445.42283754 L 616256.8820936574,3353481.04377046 L 616293.4775635265,3353528.898814467 L 616308.0791236088,3353547.5316747045 L 616334.4661937233,3353580.395116381 L 616342.4717030601,3353590.236940329 L 616396.4094106498,3353655.694334075 L 616424.0651961049,3353696.894529529 L 616509.5105967585,3353831.1894623428 L 616514.5899111778,3353839.036874132 L 616530.5880526607,3353875.747644816 L 616544.8380949406,3353908.453837162 L 616580.8195247627,3353982.54490039 L 616593.1772324846,3354003.421076468 L 616621.3659330611,3354092.709007994 L 616699.6740460272,3354340.976361533 L 616708.3126813408,3354603.6174442223 L 616674.0201428196,3354833.4566158415 L 616665.0297977425,3354918.480272341 L 616663.3349894328,3355003.9611245473 L 616663.4245323994,3355007.8641873156 L 616501.4954995506,3355401.0552647635 L 616422.7602216591,3355565.9414429134 L 616334.9917809938,3355709.6221409123 L 616324.133532073,3355727.3227609713 L 616279.5393940991,3355808.169701781 L 616242.5919908733,3355892.7850335767 L 616213.6062940195,3355980.4474220783 L 616193.7644296862,3356066.360971564 L 616159.5147525176,3356127.4410182796 L 616151.890626934,3356141.2932888325 L 616059.0949671841,3356313.095216783 L 616031.2904555096,3356364.6099568293 L 616030.2279394307,3356366.5838245004 L 615813.4888867075,3356770.309971309 L 615792.373519446,3356786.8119292804 L 615497.1219131891,3357036.039182036 L 615476.0169859829,3357053.7680647234 L 615472.1200629198,3357057.058604478 L 615450.1943999291,3357075.6684985124 L 615431.5135995358,3357091.9264551066 L 615282.2450322256,3357225.1192306112 L 615281.1720726052,3357226.078023078 L 615254.3634097133,3357250.0688499603 L 615153.302594387,3357307.3931468455 L 615153.5342892016,3357307.801617043 L 615123.0319762325,3357324.1263037827 L 615040.3875663921,3357379.5775518445 L 614963.6643191692,3357442.969055416 L 614893.6221736777,3357513.672925497 L 614830.954893123,3357590.988844539 L 614776.2831931211,3357674.151003051 L 614730.1485935466,3357762.335684893 L 614693.0080548121,3357854.6694261367 L 614665.2294517027,3357950.2376666702 L 614647.0879295984,3358048.093808865 L 614638.7631791761,3358147.2685935628 L 614640.3376565843,3358246.779700533 L 614651.7957667197,3358345.6414782912 L 614673.0240176958,3358442.874706922 L 614703.8121449732,3358537.516297189 L 614743.8551940175,3358628.6288298764 L 614748.8170638867,3358638.547256086 L 614790.3282548443,3358739.1033497057 L 614798.9827077397,3358756.8177809617 L 614846.3430808658,3358842.383457193 L 614851.0449885249,3358851.8334369604 L 614857.2907570954,3358864.1716425503 L 614881.6827750364,3358911.541152947 L 614884.7863324728,3358917.51874329 L 614892.5858569286,3358932.4180694004 L 615065.3473530689,3359262.5135313123 L 615074.6096541274,3359279.7964261984 L 615123.5438024628,3359368.992968859 L 615124.309535922,3359370.3861109493 L 615149.7325240069,3359416.552617317 L 615188.1314233672,3359491.712532624 L 615199.1012115615,3359519.8157813004 L 615213.1500810506,3359558.480396456 L 615220.594794526,3359579.086557455 L 615221.4315392785,3359581.4305468234 L 615226.1998571297,3359599.975271668 L 615235.1162494032,3359634.578259247 L 615244.170274399,3359678.6070620697 L 615245.470459905,3359687.223457908 L 615251.7621499539,3359778.5807794095 L 615252.4083488566,3359787.395328838 L 615254.4354032549,3359813.465151373 L 615254.6333449279,3359815.9701415664 L 615256.0850619021,3359834.052566635 L 615257.5265593822,3359852.4697214034 L 615257.6291202778,3359853.7691932 L 615258.8524769787,3359869.1416817214 L 615271.2445066863,3360027.277780553 L 615276.1766013296,3360075.3009835877 L 615293.8193667433,3360214.0427688197 L 615308.4484809333,3360299.375308964 L 615330.4037153845,3360383.122673517 L 615349.1642698058,3360443.836512799 L 615384.4317582885,3360540.1529807425 L 615415.5609154279,3360613.309153233 L 615477.6962194206,3360735.374858774 L 615485.6558111697,3360748.671990183 L 615508.054500871,3360786.397298312 L 615576.3140222804,3360886.9071415095 L 615656.7966213807,3360991.1729324916 L 615660.002502258,3360995.322569751 L 615751.6341686801,3361098.3731074785 L 615828.00607559,3361173.170257116 L 615939.6574835279,3361282.6999555207 L 615960.7669622612,3361303.5410707085 L 615973.9756706787,3361316.3440976106 L 615975.0969228334,3361317.411086427 L 615980.260190563,3361322.585600283 L 616012.4995182677,3361354.629759612 L 616013.7712016093,3361355.8914821846 L 616075.7743492926,3361417.298866947 L 616323.3743077201,3361662.4475490404 L 616472.3014958468,3361810.005535731 L 616473.3000872803,3361811.0032035457 L 616681.9755652312,3362019.1095987805 L 616815.4474322745,3362152.50976823 L 616825.2607654266,3362161.461869085 L 616834.6676890891,3362171.7263615923 L 616974.1341037862,3362311.227531116 L 617023.8644822822,3362357.69437868 L 617053.1894828543,3362383.2823240785 L 617068.2706425447,3362396.180285894 L 617076.547220318,3362403.1177208275 L 617080.1996954308,3362406.3876187042 L 617178.8750104714,3362484.136204822 L 617209.687949151,3362505.419733593 L 617244.1539326812,3362527.58129423 L 617239.2481546834,3362545.40401704 L 617236.4242631476,3362558.2307589 L 617221.582422579,3362642.78322027 L 617217.9879993318,3362683.573643134 L 617216.9523425911,3362687.0545455273 L 617198.2739078116,3362783.9153115423 L 617196.2924878737,3362797.8589553656 L 617187.5303641919,3362889.900166045 L 617187.3064786308,3362982.3572325674 L 617187.8460660854,3362994.6620502076 L 617192.329257888,3363055.049160734 L 617194.0732686382,3363071.6957250144 L 617206.515628345,3363155.7844446967 L 617226.0544763268,3363238.5126654706 L 617252.5486302394,3363319.2826159555 L 617258.9914995315,3363336.426818713 L 617292.4774698336,3363415.1331392652 L 617332.5668234703,3363490.6899975035 L 617341.5330924095,3363505.9721036702 L 617353.4966564057,3363523.8525095033 L 617356.7837403679,3363533.0033252263 L 617364.8080574551,3363554.707759513 L 617376.3674462008,3363581.7504072227 L 617375.6521876247,3363588.5194882737 L 617370.1247021544,3363689.404843509 L 617374.6696955868,3363787.404056812 L 617370.3775733835,3363802.8823458855 L 617369.6510463507,3363802.676435409 L 617354.5717394415,3363855.8817132595 L 617345.2892081887,3363880.726666774 L 617330.0772451612,3363921.079831384 L 617321.3557277339,3363944.242888833 L 617297.4532704839,3363985.440631254 L 617253.9108048009,3364069.4021341586 L 617218.4953336915,3364157.1017618305 L 617191.5236655542,3364247.75499898 L 617173.2370749151,3364340.5509088603 L 617166.8019223241,3364383.9333803086 L 617158.0227235776,3364466.7553731785 L 617153.5115247621,3364537.2002148204 L 617153.3028541673,3364540.5466781193 L 617152.5633665706,3364552.7348151323 L 617150.5639282031,3364584.2996182847 L 617148.9052284338,3364621.384454195 L 617147.2656195092,3364684.105445932 L 617149.3865917134,3364780.3726895945 L 617160.7566128108,3364875.989651195 L 617168.7816879053,3364923.736144237 L 617188.4821218787,3365014.774927037 L 617216.5677855663,3365103.585751645 L 617252.7950030582,3365189.398080509 L 617296.8494609623,3365271.467391528 L 617348.3489354419,3365349.0816376475 L 617375.6131658372,3365386.2858923045 L 617381.0036698537,3365393.007598798 L 617415.1914531903,3365470.465689242 L 617463.6046352546,3365556.182306397 L 617520.2112651521,3365636.7233773214 L 617521.2182090727,3365637.8922668807 L 617541.6162697155,3365675.1815650417 L 617598.1885692714,3365757.7513552033 L 617662.7316242821,3365834.2522661407 L 617674.6168035618,3365845.773355679 L 617677.4131872567,3365856.607757597 L 617675.9280928334,3365910.775468991 L 617682.7067237598,3366007.719635225 L 617691.1139359853,3366057.584658528 L 617657.2811982343,3366052.8095851666 L 617561.8608887864,3366048.545310895 L 617466.4690098236,3366053.404211815 L 617371.9758423953,3366067.341959107 L 617279.2434684084,3366090.2313956427 L 617189.1179056644,3366121.8636960695 L 617102.421389454,3366161.950271967 L 617019.9448711236,3366210.125404705 L 616942.4408020528,3366265.949581973 L 616870.6162688751,3366328.913507549 L 616805.1265425712,3366398.442747721 L 616746.5691002889,3366473.902971969 L 616695.4781744268,3366554.6057401043 L 616652.3198787153,3366639.8147830605 L 616645.8645674855,3366654.2290644203 L 616602.3280119203,3366640.348575607 L 616570.3081519508,3366630.726530433 L 616521.7673194984,3366617.020335344 L 616417.2167574059,3366593.4663466844 L 616310.7459324672,3366581.236307743 L 616203.5777270983,3366580.4706879826 L 616096.9430335547,3366591.1782810134 L 616042.0990735873,3366599.6742183473 L 615950.7905307994,3366618.2111281734 L 615920.6841197127,3366627.31003822 L 615871.3187104234,3366569.9902472724 L 615798.6251125301,3366500.96315025 L 615719.3858298444,3366439.560907803 L 615700.3937879407,3366426.312387398 L 615697.4043261419,3366423.3645679066 L 615680.9995623472,3366407.552847935 L 615673.8661082642,3366400.8323423453 L 615587.5540118418,3366328.2530135717 L 615581.844219534,3366323.977207715 L 615481.3767030706,3366257.7837101044 L 615473.7354793233,3366253.3844377003 L 615352.2426381949,3366193.988886221 L 615345.2579836885,3366191.1419144906 L 615307.5513934664,3366176.6535843574 L 615300.2796718265,3366174.026795096 L 615221.2950609837,3366149.140715668 L 615140.522176493,3366130.8752611065 L 615134.097920121,3366129.699769735 L 614998.350047686,3366114.347542117 L 614991.7266320172,3366114.054229052 L 614871.8320162491,3366115.940969834 L 614862.8945700316,3366116.6190641527 L 614739.85782673,3366133.690920377 L 614731.0034742404,3366135.485985198 L 614649.1656530696,3366155.7025192403 L 614638.5632275167,3366158.8012256287 L 614553.3471515444,3366187.9316342957 L 614539.2997699425,3366193.451851092 L 614535.3151080029,3366193.830781433 L 614436.2931061691,3366213.471545308 L 614339.7559052148,3366242.995862144 L 614246.6873269969,3366282.1028461913 L 614158.035844234,3366330.39395362 L 614074.704914511,3366387.3770441315 L 613997.5437730363,3366452.471396414 L 613927.3387779887,3366525.0136263436 L 613864.8053966481,3366604.2644476066 L 613810.5809139861,3366689.416205855 L 613765.2179380198,3366779.601109604 L 613729.1787681202,3366873.9000739977 L 613727.0997133637,3366881.5897438917 L 613724.7028488808,3366887.079983884 L 613677.3952812746,3367020.4768902636 L 613669.1067611764,3367050.428682397 L 613648.6305273492,3367140.376224798 L 613636.5301377975,3367231.8279448934 L 613632.9085648584,3367324.0056034946 L 613633.0616725958,3367346.2855094345 L 613637.46206276,3367426.640158103 L 613636.4415791449,3367432.5326910536 L 613627.2395676873,3367487.3012804664 L 613598.0151271035,3367655.9086036244 L 613590.1410241396,3367710.124545385 L 613587.9321841961,3367728.944618491 L 613581.1163055584,3367843.972505768 L 613581.0839144923,3367865.0303545827 L 613587.6309003003,3367980.8202830344 L 613589.1244876937,3367993.807456666 L 613598.3919656742,3368043.662101982 L 613592.76485045,3368046.436370867 L 613506.5686535886,3368100.454739082 L 613498.9208031258,3368105.8079183972 L 613422.087824667,3368165.354786919 L 613351.399360561,3368232.080173182 L 613287.5233557281,3368305.3535799277 L 613231.0633832334,3368384.482636762 L 613182.5529410427,3368468.7196424543 L 613142.450410928,3368557.2686300715 L 613111.1347271557,3368649.2928881748 L 613088.9017958846,3368743.922867022 L 613075.9616991088,3368840.264395062 L 613072.4367095643,3368937.4071280803 L 613072.8515523531,3368970.991305412 L 613077.8102478303,3369058.8626837176 L 613079.9897267839,3369080.499537766 L 613088.5477562157,3369144.597321469 L 613097.7303577894,3369199.7199614127 L 613110.8811003909,3369283.3660990642 L 613118.0877694727,3369323.7794223344 L 613125.7582681815,3369362.2117568557 L 613136.7373104871,3369410.8659559255 L 613147.5193400343,3369453.648426001 L 613147.9827317523,3369455.4798357813 L 613169.8350017358,3369541.502278488 L 613173.5251104417,3369555.597440415 L 613194.3230746037,3369632.7414648826 L 613220.4054456245,3369715.1386988377 L 613253.5050824364,3369794.9760853457 L 613293.3747441828,3369871.657271524 L 613335.7164344469,3369945.147792407 L 613388.7310831307,3370027.54761029 L 613449.5551788829,3370104.3637045547 L 613517.6047931734,3370174.858618961 L 613575.4453416168,3370224.0761043895 L 613599.0727368989,3370257.8147171135 L 613633.9941214023,3370337.981631894 L 613682.733421972,3370424.9940916933 L 613739.8975495927,3370506.7189354906 L 613804.917910546,3370582.3432717975 L 613877.1477676152,3370651.1148889665 L 613955.868672978,3370712.3497372083 L 614040.2976143829,3370765.438732618 L 614129.5948035269,3370809.853815544 L 614222.8720291677,3370845.1532030324 L 614250.1611716627,3370852.4713063287 L 614266.6853256259,3370866.819840856 L 614346.7671763721,3370923.6086906656 L 614432.0315606005,3370972.2714183307 L 614521.6566936721,3371012.339008769 L 614530.8467161747,3371015.9172067097 L 614588.0396760723,3371038.292863016 L 614660.2609973215,3371062.7833249606 L 614718.7130912772,3371128.1627656403 L 614802.725600344,3371203.138353691 L 614841.959193193,3371234.367689193 L 614924.2592061417,3371293.3271762263 L 615012.0988505398,3371343.6631485973 L 615104.5778127885,3371384.859687092 L 615200.7482285398,3371416.4945472428 L 615299.624397844,3371438.243487132 L 615404.9627768964,3371455.878192042 L 615419.4226022005,3371458.190204323 L 615448.0619505211,3371462.554605558 L 615459.4462372954,3371466.1939829593 L 615554.6361884989,3371491.5312802875 L 615651.8571254383,3371507.3804085487 L 615750.1657031107,3371513.5875819805 L 615848.6080230211,3371510.092571725 L 615946.2288889588,3371496.9292902346 L 616042.0810753679,3371474.225462218 L 616135.2345183764,3371442.201385312 L 616224.7853403041,3371401.167792512 L 616309.8646200834,3371351.522837096 L 616389.6468244909,3371293.7482293006 L 616463.3578183847,3371228.404562238 L 616530.2823762185,3371156.1258723997 L 616589.7711219507,3371077.613487534 L 616641.2468300087,3370993.6292215916 L 616684.2100261692,3370904.9879827593 L 616718.2438340095,3370812.549866325 L 616729.1723280237,3370777.654766871 L 616748.445080833,3370717.109519697 L 616784.4951452288,3370616.9322759775 L 616798.8845535517,3370576.8593706884 L 616799.8805109946,3370574.072733256 L 616836.3368722582,3370471.5915103164 L 616877.634583738,3370356.517057559 L 616896.790093496,3370297.4299079804 L 616915.4245083338,3370233.2165401494 L 616936.8256385485,3370160.832031858 L 616960.5184480571,3370062.7369041196 L 616972.8355527559,3369997.46480192 L 616976.7547369367,3369975.3337728917 L 617007.8546529367,3369787.4440656337 L 617056.5407816585,3369544.8944820217 L 617060.7131263358,3369522.8267882033 L 617073.6037194239,3369450.18875944 L 617076.3070629977,3369435.6302084047 L 617085.6944657863,3369428.893201182 L 617087.7684980416,3369427.4007232916 L 617304.3771987268,3369271.108224381 L 617310.3868072068,3369266.737989853 L 617393.6113925087,3369205.742409781 L 617411.7409007051,3369192.9390083295 L 617493.176356497,3369135.4421852482 L 617786.3524265166,3368928.11809766 L 617790.3777248117,3368925.256602759 L 617916.590384285,3368835.0648424397 L 617924.1998091377,3368829.573016895 L 618013.950771547,3368764.155870938 L 618107.4526261112,3368703.2720747804 L 618554.7091716488,3368456.74551024 L 618577.8378757118,3368511.236333981 L 618624.1132877606,3368596.2917779074 L 618678.3979343328,3368676.4729443262 L 618740.1828511426,3368751.028067266 L 618808.8887525535,3368819.258129651 L 618883.8714628686,3368880.523417176 L 618964.4279560206,3368934.2495161677 L 619049.8029470334,3368979.932699193 L 619139.1959734546,3369017.1446479326 L 619151.8462670184,3369021.7054293975 L 619183.144121894,3369034.0171121876 L 619221.9038971639,3369049.3575440813 L 619224.8282675624,3369050.683221826 L 619237.5358907484,3369056.248739716 L 619259.3184213581,3369065.483223679 L 619302.5008375383,3369083.19030057 L 619302.7582956542,3369083.2981419126 L 619369.0198557683,3369118.7178387516 L 619543.391731057,3369200.7802028093 L 619567.3560063931,3369211.675249965 L 619658.8214875396,3369251.814623248 L 619748.9611941773,3369286.286754024 L 619842.0040506271,3369311.9094271213 L 619937.0835027561,3369328.4440059145 L 620033.3140286083,3369335.736495694 L 620129.7993857095,3369333.7189778974 L 620225.6409582155,3369322.410242665 L 620319.9461261668,3369301.9156138403 L 620411.8365788992,3369272.425968036 L 620500.4564951851,3369234.2159569077 L 620555.4993587297,3369203.8861842384 L 620640.0579273088,3369199.7895456827 L 620739.5555418563,3369184.847056143 L 620837.0480357179,3369159.982082084 L 620882.6385796026,3369143.3207480744 L 620914.9728261754,3369150.8918309645 L 621010.4855501883,3369163.7286061677 L 621106.7904008181,3369167.3117599734 L 621202.9929503038,3369161.608013972 L 621298.1997210031,3369146.6703414954 L 621391.5264835322,3369122.6374756275 L 621482.1064690143,3369089.732620727 L 621569.0984191635,3369048.2613794236 L 621651.6943994401,3368998.608914347 L 621729.1273027128,3368941.236370942 L 621878.1001981058,3368819.3127911068 L 621880.9757410103,3368816.95041814 L 621937.5230687732,3368770.318030621 L 622003.4877052434,3368716.244755894 L 622005.9813979925,3368714.278529477 L 622202.5464473509,3368560.104714248 L 622204.4713543054,3368558.5911225746 L 622408.7077101065,3368397.5910548237 L 622454.2366522358,3368362.7524207244 L 622457.0742367596,3368360.5730483434 L 622516.6003852064,3368314.68517206 L 622523.5406505876,3368309.641310811 L 622561.2671591421,3368288.1311224587 L 622584.9950591039,3368274.1661007274 L 622793.9512974354,3368147.2802567105 L 622879.6860221069,3368095.8115153606 L 622882.7547911297,3368093.872755177 L 622898.7317787533,3368085.5492843864 L 622948.4248993249,3368057.835625851 L 623034.3718122095,3368006.6447216417 L 623044.6870134431,3368000.592403901 L 623050.5979858025,3367997.0968751935 L 623159.3859031365,3367932.258565304 L 623174.3597447142,3367923.155312668 L 623199.6197226659,3367907.493906087 L 623203.770783476,3367905.0376448473 L 623230.4290410042,3367888.6954111927 L 623260.1918594203,3367869.8035313594 L 623306.2181562228,3367843.260690754 L 623352.9591764733,3367818.8806550996 L 623374.0210367372,3367807.572553533 L 623482.5316477795,3367747.6314732498 L 623539.8585860789,3367716.0045435587 L 623541.6172487178,3367715.1247167373 L 623557.5064486479,3367707.2886787048 L 623648.9980949381,3367656.0369057874 L 623778.0457740441,3367574.5750939506 L 623846.829372437,3367537.8392714737 L 623853.9372724851,3367533.537260899 L 623979.7739674844,3367471.560564544 L 623981.9742575176,3367470.4735276625 L 623995.3036418887,3367463.867883908 L 624014.1241381699,3367453.811393891 L 624027.0433506281,3367449.721095711 L 624071.0222126202,3367434.14868474 L 624197.4526420075,3367379.307270495 L 624251.8615290638,3367351.1034222404 L 624259.2109038725,3367347.2549780128 L 624516.8550843347,3367210.976834829 L 624567.4831739451,3367181.782554108 L 624808.2162454352,3367047.315891637 L 624815.5295421003,3367043.290765576 L 624876.3391152932,3367006.9582801 L 624886.8590080733,3367000.1559869894 L 624915.5260143352,3366982.639023196 L 624921.0566570396,3366979.234812272 L 624943.6971516974,3366965.1976026744 L 624952.9525816833,3366959.388948507 L 624966.7752041356,3366950.6083199927 L 624969.0787221714,3366949.20524736 L 625047.5961456256,3366896.1212635734 L 625065.7092217313,3366882.5817895313 L 625068.3985039985,3366880.564503437 L 625091.4656376372,3366863.200703526 L 625102.934501082,3366854.437127526 L 625106.0486624152,3366852.0217424314 L 625153.436043508,3366817.800204487 L 625212.17839769,3366771.8057619315 L 625253.5537792856,3366737.4619317534 L 625265.2830478051,3366727.8306628284 L 625268.9480351052,3366726.005544555 L 625395.5351505413,3366655.8028574125 L 625399.0053093309,3366654.194910777 L 625459.7990721533,3366622.195618337 L 625484.9066390654,3366608.949792581 L 625496.3574415193,3366602.209805956 L 625541.8697871983,3366578.531423225 L 625580.5928866287,3366555.9889998375 L 625644.6710514335,3366519.9924456966 L 625645.83897794,3366519.3353213095 L 625735.090673464,3366469.039813513 L 625748.4460188809,3366460.585591833 L 625759.6520047794,3366455.027196845 L 625863.278845253,3366396.66177435 L 625974.4532507365,3366334.0897139115 L 625978.8478039502,3366332.0936181564 L 626215.7255157682,3366209.8040169524 L 626315.9241936225,3366150.3776306026 L 626307.1766535761,3366155.931759681 L 626308.5625634099,3366155.102124176 L 626354.6282089187,3366130.7945849868 L 626355.9446436168,3366130.0986860883 L 626602.3419329127,3365999.61237458 L 626621.9005110906,3365988.18634908 L 626632.0921703569,3365983.004746565 L 626679.8207551816,3365957.4897360043 L 626686.712396911,3365953.9937000717 L 626690.00797941,3365952.3142253696 L 626742.1001973811,3365925.6458305297 L 626751.8453839581,3365920.589114283 L 626767.3106612351,3365912.456213981 L 626767.2691065948,3365912.3771949336 L 626801.3029945383,3365895.875040597 L 626985.7534595078,3365793.645203522 L 626985.7985505624,3365793.625387116 L 627060.1809050189,3365757.189384656 L 627064.7940072403,3365754.687665531 L 627106.0562476902,3365758.2099922807 L 627150.039979533,3365760.2703011283 L 627246.698635099,3365760.121454929 L 627342.8913832473,3365750.641314916 L 627437.7195030344,3365731.9184532575 L 627452.005673024,3365728.372668633 L 627471.1578829734,3365725.9986390877 L 627565.9940756712,3365704.736086043 L 627658.318279681,3365674.3676655814 L 627747.2584006082,3365635.18023779 L 627831.9743101052,3365587.5439670975 L 627911.6657817243,3365531.908825698 L 627985.5800498556,3365468.8003431144 L 628053.0189203518,3365398.814642049 L 628113.3453656683,3365322.6128074066 L 628165.9895422264,3365240.914641687 L 628210.4541731551,3365154.4918657322 L 628246.3192455681,3365064.160829049 L 628273.2459780055,3364970.7747985753 L 628290.980020563,3364875.2158987178 L 628299.3538574819,3364778.3867788073 L 628298.2883895016,3364681.202086672 L 628287.7936810326,3364584.5798288765 L 628268.1212781982,3364460.1529219938 L 628422.1462536674,3364374.5134046227 L 628487.0561307218,3364338.4556649784 L 628589.4480360055,3364282.2320143 L 628695.9600980306,3364223.672955918 L 628717.7782100737,3364211.699385654 L 628784.9968462795,3364171.3026901544 L 628848.8431652746,3364125.7627559053 L 628871.7307773782,3364108.043491915 L 628943.8814412524,3364052.2126199305 L 629001.2071774178,3364004.3260641536 L 629065.2115559785,3363946.668429331 L 629151.3457161083,3363869.03829846 L 629201.1250356081,3363824.1552857696 L 629204.2878421814,3363821.2913152846 L 629291.1952271844,3363742.2572381236 L 629301.256935989,3363736.850577933 L 629312.5090529296,3363730.7109900913 L 629372.6615413254,3363697.387413037 L 629432.9153635789,3363664.1833350766 L 629498.8593759596,3363627.78995181 L 629571.9955234604,3363587.5725991987 L 629596.3294808877,3363574.1849956173 L 629609.8033595581,3363574.873067756 L 629706.2923420875,3363570.4697120753 L 629801.9064057764,3363556.777958509 L 629895.7535179468,3363533.9255444556 L 629986.9581307183,3363502.1256718147 L 630074.6693494442,3363461.675017921 L 630158.0688711434,3363412.950967687 L 630373.9446772586,3363272.423573055 L 630453.5806220982,3363214.82020204 L 630527.1771906137,3363149.6774575054 L 630594.0234375937,3363077.624620452 L 630653.4736261491,3362999.3577235956 L 630704.9534655521,3362915.63282767 L 630747.9656589037,3362827.258717853 L 630782.0947070369,3362735.0890908805 L 630807.0109222524,3362640.014308303 L 630822.4736131126,3362542.95279557 L 630828.3334095278,3362444.8421700047 L 630824.5337056768,3362346.6301833973 L 630811.1112068206,3362249.2655666866 L 630788.1955747285,3362153.688865192 L 630756.0081751413,3362060.8233529143 L 630745.0192987289,3362033.5334221935 L 630703.2412200796,3361918.962529437 L 630687.6063422867,3361878.7972469726 L 630679.8528273536,3361860.0822976814 L 630672.5688315391,3361844.0884166 L 630638.744066277,3361753.065974287 L 630599.4296199261,3361661.519198908 L 630551.2006806558,3361574.3388846675 L 630491.9855331315,3361478.8613469657 L 630439.6944070822,3361402.6516590253 L 630359.7424228652,3361296.9538161317 L 630326.6048371624,3361255.481051834 L 630296.7585235174,3361220.0957918623 L 630274.0855985123,3361194.1364302384 L 630269.2506487881,3361188.789507381 L 630262.5727458389,3361180.118429011 L 630253.4769504899,3361168.486453236 L 630201.5919523807,3361103.134487293 L 630190.370215046,3361089.256242034 L 630135.7082876737,3361022.8747059763 L 630132.994285091,3361019.593081051 L 630097.9355306062,3360977.3852506992 L 630045.4766898177,3360919.0459520896 L 629988.6057345411,3360864.9987672875 L 629958.9320180825,3360838.935749096 L 629896.6692489681,3360788.5203948435 L 629830.5705246037,3360743.2509901687 L 629784.3042043573,3360714.216295815 L 629751.2166766608,3360694.3316858904 L 629738.9976377038,3360687.3058120226 L 629636.6662574678,3360636.0224453676 L 629615.5365312455,3360626.9064411046 L 629606.8291218935,3360623.198574527 L 629585.1210103161,3360614.0757400016 L 629579.8467225402,3360611.8769299686 L 629579.1876688426,3360611.604383197 L 629545.0621278429,3360566.0429818137 L 629517.5965630051,3360531.9144929033 L 629447.8213902377,3360453.9435124067 L 629370.2810092521,3360383.690129207 L 629370.2747185254,3360383.6850025584 L 629367.5425931981,3360381.0388206705 L 629347.1039832038,3360362.284572864 L 629314.0574188663,3360333.2736110133 L 629304.157899156,3360324.961205379 L 629262.0280223467,3360291.476553415 L 629252.8799251234,3360284.599066538 L 629186.1184010803,3360238.5241790153 L 629170.5730102125,3360228.7018454107 L 629132.7849302546,3360205.975521556 L 628933.225381313,3360091.8716794555 L 628926.1482530306,3360077.4574749824 L 628924.4257355161,3360074.1535646454 L 628925.0896027066,3360061.87443844 L 628929.6191982907,3360035.379289065 L 628935.8902078222,3359992.5556803555 L 628941.7810592514,3359944.1089761592 L 628946.9200586901,3359891.0737451506 L 628949.7277032814,3359855.4951833393 L 628952.3480391778,3359812.5252122297 L 628953.9074521114,3359727.3803908085 L 628948.2169301088,3359642.4116298263 L 628935.3177412477,3359558.2351288875 L 628925.7018181909,3359509.459362611 L 628896.3590460492,3359396.078080457 L 628853.9614601401,3359286.905015423 L 628843.4590570849,3359263.9455059865 L 628818.9831385475,3359210.1248677983 L 628784.7746443378,3359141.9329624427 L 628614.9455915038,3358833.3565672613 L 628609.2412754693,3358822.5526152677 L 628487.8692751189,3358597.557536928 L 628487.7496335866,3358597.6220767046 L 628475.587715739,3358574.7227430684 L 628365.2689707668,3358379.293531906 L 628351.5420090487,3358353.6024780157 L 628345.6792159553,3358342.7903158404 L 628283.3576002824,3358229.524668695 L 628282.0199762897,3358226.9988624235 L 628232.1889116198,3358133.122336527 L 628230.5877916233,3358130.1183824404 L 628223.5511302561,3358116.970454908 L 628218.7279873728,3358107.9301827624 L 628217.3551799065,3358105.3384954478 L 628210.5587797648,3358093.276283951 L 628181.2601503301,3358033.434420019 L 628123.8995710174,3357793.6948083765 L 628122.2752428157,3357787.0076551815 L 628115.2195422321,3357758.389891008 L 628109.5572902896,3357734.9497216525 L 628085.9465334582,3357636.463290371 L 628085.4098617848,3357634.001292385 L 628065.5583986647,3357559.3072706917 L 628065.8348409551,3357559.2276236103 L 628031.8369329371,3357441.226318375 L 627991.2048220005,3357326.819277191 L 627937.0078367243,3357218.179384432 L 627903.6460668165,3357160.3796724593 L 627896.9547286427,3357148.96201176 L 627889.3144534694,3357136.120695109 L 627843.7833017596,3357066.3782167686 L 627833.5691863833,3357052.071833453 L 627825.9243229845,3357041.5103434618 L 627817.312488211,3357029.774803599 L 627744.7695032588,3356930.9693838 L 627735.3123534755,3356918.299686772 L 627682.9430693855,3356849.285713918 L 627660.6410890891,3356816.3335415986 L 627644.6658885007,3356788.0274668126 L 627651.5258056148,3356783.8201141977 L 627710.4791538366,3356748.627607604 L 627749.0016967899,3356724.426164271 L 627835.9191741406,3356667.022877983 L 627874.1527369319,3356640.4738552105 L 627940.1023090282,3356592.3661132655 L 628004.9844531806,3356540.785037478 L 628084.511064996,3356471.994528126 L 628091.6774718036,3356467.273617074 L 628143.1801581754,3356429.302496816 L 628226.5101192353,3356359.207132471 L 628226.7617500994,3356359.4952180916 L 628269.327655067,3356322.315662159 L 628295.9652514785,3356300.678569127 L 628367.0243266631,3356230.04170666 L 628430.6581767254,3356152.648608573 L 628444.2060840031,3356132.322438113 L 628544.0945993337,3356051.700628691 L 628652.4274710139,3355968.288199745 L 628714.8786616292,3355916.017743146 L 628856.4956219323,3355787.326014878 L 628914.8674670955,3355729.739241484 L 628974.0075200989,3355666.4040168836 L 628975.6115040545,3355664.7344338396 L 628981.0213974916,3355659.0589191085 L 629004.9290029006,3355633.779770397 L 629017.3078069641,3355620.694042392 L 629036.7343157049,3355600.210414811 L 629038.9633529601,3355597.8524314286 L 629066.2300683067,3355568.914479247 L 629140.0934585339,3355480.897729503 L 629197.9344569871,3355403.325557859 L 629262.77679836,3355304.7126956726 L 629280.2274378175,3355274.4185608 L 629310.6499956644,3355221.662223577 L 629359.5319950999,3355125.1877699937 L 629425.9248334069,3354974.4466554318 L 629425.4817169405,3354974.2514879755 L 629440.3530790518,3354941.134016764 L 629448.7796041704,3354920.2856605067 L 629473.3773301519,3354852.4869792745 L 629476.8652283802,3354841.6717367256 L 629483.8453424869,3354819.9583201613 L 629486.7468966972,3354810.9719838854 L 629506.9325370517,3354739.4739706344 L 629509.856213768,3354727.4228576445 L 629516.337169238,3354698.893829762 L 629522.1246032312,3354671.5736110182 L 629541.9617182156,3354578.02508927 L 629542.7557987411,3354574.244365041 L 629576.2915554785,3354413.028690506 L 629612.4178779365,3354238.808766373 L 629612.9792903548,3354236.082245636 L 629666.7648979184,3353973.017315891 L 629686.6331591136,3353877.8108096793 L 629714.7471142631,3353742.5043249526 L 629722.2328071867,3353702.382561449 L 629735.0702351477,3353624.8303360636 L 629747.377081923,3353508.8017681004 L 629755.1904068879,3353343.7364146304 L 629755.1914676145,3353249.195235817 L 629749.3418759455,3353125.5572329434 L 629745.5746814593,3353045.8463768656 L 629743.3210208239,3353011.0433500856 L 629742.3990698928,3352999.8394339783 L 629740.5293035269,3352979.628906611 L 629739.3202195743,3352967.8627998475 L 629732.7137828598,3352916.626687411 L 629718.2271361017,3352823.3433027295 L 629707.6308059794,3352766.138668863 L 629643.4341124123,3352468.2399367453 L 629586.9938776226,3352206.2765299324 L 629585.2620724782,3352198.0991668925 L 629583.3400474689,3352189.222674157 L 629484.7987097288,3351743.9156169007 L 629478.9693631515,3351719.0790136433 L 629478.7086390094,3351718.028586989 L 629473.014474126,3351685.0331377382 L 629433.6636042001,3351489.5977468183 L 629429.7305447507,3351470.981351026 L 629415.5943635766,3351407.082463554 L 629320.6317829782,3350977.34614239 L 629270.4320299336,3350750.737551538 L 629243.3669441788,3350628.2256292957 L 629233.792841485,3350593.2793286713 L 629232.9421250051,3350586.8007460902 L 629231.14096549,3350576.8052317365 L 629228.3355037997,3350561.886095785 L 629198.5590546993,3350409.899279792 L 629193.9080562681,3350387.518304935 L 629170.8483117198,3350282.5880939295 L 629101.0296474849,3349964.2843576293 L 629100.5192297929,3349961.9704629583 L 629094.6021853123,3349935.2967873854 L 629092.018477239,3349922.2370918696 L 629083.9882257335,3349885.323713646 L 629082.2220701944,3349877.8844679203 L 629078.2731832583,3349858.868233342 L 629077.6489307601,3349855.884932102 L 629036.9085827031,3349662.6562731364 L 629033.9740246366,3349649.1977307657 L 629029.3361488512,3349628.6096664076 L 629023.01435439,3349599.147689605 L 629020.4558420044,3349587.559670717 L 629007.4623918151,3349530.3249782883 L 628995.56475399,3349478.1272712876 L 628926.1223658299,3349172.1961833113 L 628920.0356096802,3349142.9389408287 L 628908.9362982857,3349095.4308096576 L 628902.0525066315,3349068.904709794 L 628880.5801102516,3348980.8248775816 L 628846.3178826309,3348869.107200602 L 628818.4801062413,3348794.2518672883 L 628814.7080449229,3348784.0821468383 L 628795.0474469021,3348735.0835568197 L 628779.8668208439,3348699.9623441054 L 628753.0650567308,3348637.882074184 L 628716.6080850906,3348562.3172910013 L 628583.4613771677,3348313.57973387 L 628531.0006565438,3348226.521216559 L 628469.9734704221,3348145.2377914423 L 628401.0103097425,3348070.569222996 L 628324.823654479,3348003.2869355464 L 628242.2006127865,3347944.0860434403 L 628153.9947891401,3347893.578169603 L 628061.1174654813,3347852.28512667 L 627964.5281864782,3347820.6335259774 L 627865.2248461705,3347798.9503701087 L 627764.2333784134,3347787.4596745255 L 627662.5971576349,3347786.280153197 L 627561.3662194078,3347795.4239921262 L 627461.5864122042,3347814.7967234547 L 626889.2807134066,3347956.4351142184 L 626825.1825616322,3347972.323095178 L 626755.527921637,3347958.8693358423 L 626734.3604892942,3347951.893783022 L 626640.9789280248,3347926.0626357906 L 626545.5358698007,3347909.3896999587 L 626448.9272733656,3347902.0314904465 L 626352.0600387942,3347904.0570814456 L 626303.1325489886,3347909.849250914 L 626251.0068677132,3347857.2795040086 L 626174.2083910415,3347793.892406649 L 626091.4864982947,3347738.4575927574 L 626003.6614539817,3347691.524750076 L 625970.8730082419,3347678.0024224035 L 626028.3624185767,3347671.5617004316 L 626127.7194207802,3347655.3310915506 L 626224.9409908677,3347629.192750722 L 626319.0417642561,3347593.4115964756 L 626409.0680064065,3347548.3502796306 L 626494.1072791585,3347494.465507744 L 626573.2976885164,3347432.303416263 L 626645.8366201567,3347362.494033312 L 626710.9888741226,3347285.744894198 L 626768.0941162568,3347202.8338703695 L 626816.573570851,3347114.6012854944 L 626855.93588668,3347021.941398574 L 626885.7821169683,3346925.793340408 L 626901.1414875365,3346850.12881567 L 626918.5364883707,3346827.107661854 L 626959.8566721329,3346765.9589384208 L 626971.9785135066,3346747.58749469 L 627003.730398737,3346698.2937637544 L 627030.2575736599,3346654.707362217 L 627075.5260413357,3346575.866174104 L 627083.2955029793,3346562.083226953 L 627154.655739688,3346433.1163581884 L 627169.3388762788,3346405.5739646736 L 627178.8389811902,3346387.063618186 L 627203.9129165468,3346358.3563203285 L 627260.9767989782,3346278.364365221 L 627309.9146992002,3346193.1582534574 L 627436.650219064,3345945.011926715 L 627438.1161897298,3345942.1300852057 L 627526.6659971507,3345767.3580923863 L 627544.6391324025,3345729.981380427 L 627547.6021414273,3345723.47755612 L 627549.082878224,3345720.211822432 L 627602.8213888004,3345601.1254415 L 627645.8266140613,3345488.0270459275 L 627670.7067292716,3345408.3941304483 L 627683.47633235,3345363.9355600844 L 627700.2915346109,3345299.840364737 L 627707.8338525153,3345269.1193178203 L 627716.3580055767,3345231.8638194916 L 627725.2900018567,3345188.4149549245 L 627736.0726150878,3345129.350965634 L 627748.8252836983,3345033.422704892 L 627752.2459218043,3344936.710963099 L 627746.3024956031,3344840.1214323477 L 627731.0506644594,3344744.5586602427 L 627724.776499917,3344720.4971534214 L 627723.6704079682,3344629.8694404466 L 627723.0105355243,3344603.756927723 L 627718.3054219704,3344481.0507368315 L 627715.497259473,3344201.051936239 L 627715.4703116829,3344175.393758436 L 627715.4654118763,3344173.142105858 L 627715.3790177666,3344146.977384954 L 627710.1836758524,3344048.423820994 L 627695.2991920593,3343950.862308659 L 627670.8705382313,3343855.24307723 L 627637.1356444866,3343762.497438568 L 627594.4230818268,3343673.528716323 L 627543.1488619222,3343589.2034477494 L 627483.8123852427,3343510.342943806 L 627416.991576999,3343437.7152897585 L 627343.3372582685,3343372.027864179 L 627263.5668071304,3343313.92044923 L 627209.6895834081,3343278.6072071893 L 627186.3125020991,3343263.2974966853 L 627112.9012856606,3343214.821691569 L 627065.1306113071,3343183.309198381 L 627058.5177364625,3343178.984352627 L 626987.3318955849,3343132.8290362684 L 626968.1274315626,3343120.6849469393 L 626897.593365721,3343077.196036557 L 626889.7530444479,3343072.365061285 L 626819.6742796677,3343025.2765350114 L 626794.4655036037,3343008.882531066 L 626775.4498998887,3342996.9190576337 L 626762.5476408376,3342988.9376997785 L 626742.8490583628,3342976.9577746144 L 626713.7010299077,3342959.89855691 L 626631.2655429178,3342913.5030886433 L 626606.9631768297,3342900.264897025 L 626499.2234531078,3342843.4948806986 L 626446.4694197535,3342817.648226074 L 626432.198154128,3342811.168724068 L 626428.4372093917,3342809.4939409588 L 626428.1284380911,3342809.3274376225 L 626421.45571028,3342806.3850155137 L 626418.9534338195,3342805.2707289066 L 626416.4312034597,3342804.1693968987 L 626355.6476751267,3342777.366146014 L 626333.0742547039,3342768.462520173 L 626324.5384856804,3342764.935416981 L 626318.3948211671,3342762.420607454 L 625614.2340719176,3342476.9090088275 L 625596.1723451354,3342469.7889974606 L 625489.6861811067,3342429.001507129 L 625463.4144060096,3342419.3579515824 L 625226.978562442,3342336.3050478026 L 625150.3409379536,3342312.790131597 L 625085.748182636,3342298.513517408 L 625067.4370134285,3342291.343309794 L 625038.2593347708,3342280.4390282906 L 624947.6800315158,3342248.186364369 L 624809.1158756622,3342191.9927617484 L 624801.5212474497,3342188.948939401 L 624666.9627635849,3342135.6576054706 L 624604.4998700124,3342113.2868000795 L 624578.03052573,3342104.786549756 L 624541.9801290568,3342093.9536101697 L 624511.8520609976,3342085.5151841794 L 624500.9919157504,3342082.5392574896 L 624449.1592784269,3342068.6492020325 L 624353.0002670443,3342047.890089552 L 624266.4252701099,3342033.615304074 L 624169.1545181676,3342022.434984539 L 624138.3741404021,3342020.4171303287 L 624096.9991851925,3342018.5642336337 L 624071.3051149595,3342017.946340311 L 624012.9376592218,3342018.246631976 L 623996.0121318556,3342018.827965569 L 623946.8754514694,3342015.7933054683 L 623853.8049266721,3342018.72311624 L 623761.4104137237,3342030.29724058 L 623670.4930383168,3342050.415322654 L 623644.0664019278,3342058.907315778 L 623585.5495527787,3342069.795764597 L 623400.6032612021,3342100.19816002 L 623269.0419745728,3342115.749044856 L 623182.0606734015,3342125.876237438 L 623128.0919378786,3342124.336362082 L 623029.7706861334,3342131.2378319367 L 622932.6064192901,3342147.7848582454 L 622923.5167498878,3342150.2739429837 L 622931.3895372289,3342117.019596442 L 622944.6548146243,3342015.8830025117 L 622947.5482886988,3341913.9212154346 L 622940.0398540751,3341812.195104599 L 622922.2076328483,3341711.763087282 L 622910.7226987041,3341661.9833406834 L 622877.5397150286,3341548.99790138 L 622831.3050060525,3341440.69660136 L 622729.9724907706,3341237.3971447092 L 622720.8791070296,3341219.601094193 L 622616.8625339987,3341020.9613380725 L 622597.8364013096,3340983.5736351474 L 622596.6620811186,3340981.273366087 L 622542.9402809534,3340876.377323259 L 622526.9972027385,3340846.5048308386 L 622506.9790671734,3340810.478871603 L 622474.1025321857,3340751.2084328732 L 622454.0705118653,3340715.0360728586 L 622453.2801271018,3340713.6115927016 L 622426.7463693535,3340665.8824973465 L 622423.3739118094,3340659.8650637185 L 622397.2218006479,3340613.577239057 L 622396.2596002606,3340611.87807206 L 622382.604944146,3340587.8198803514 L 622378.5991918652,3340580.1350320843 L 622290.6330947522,3340411.5454677506 L 622289.4882596924,3340409.322819263 L 622278.3327886024,3340388.284149207 L 622271.1525170509,3340375.1235548477 L 622196.7310815859,3340238.8168919 L 622167.0266941498,3340177.9273949326 L 622143.0912975915,3340131.9295998155 L 622060.1815878487,3339982.2104173372 L 621968.2088234685,3339811.797534017 L 621966.7163358729,3339809.0424953727 L 621929.1030149453,3339739.869633557 L 621855.7461824333,3339604.0074980594 L 621769.9041026725,3339444.842492854 L 621759.4351230655,3339425.411439773 L 621745.271238477,3339399.155971696 L 621721.4496782649,3339345.439586647 L 621704.6836034359,3339312.493876144 L 621700.9179220806,3339304.794518657 L 621683.445332057,3339270.737275764 L 621657.6535027337,3339222.748598412 L 621641.7681615967,3339192.9461690076 L 621614.0225132518,3339144.2333624153 L 621613.2951181554,3339143.035643527 L 621594.6513985373,3339070.6344651645 L 621560.3189150188,3338977.081614575 L 621516.845601657,3338887.410402342 L 621464.6631856357,3338802.511340297 L 621404.2898829762,3338723.227548738 L 621336.32525221,3338650.346383525 L 621261.4442402492,3338584.5916169626 L 621180.3904795867,3338526.616250121 L 621093.9689033892,3338476.996027978 L 621003.0377518231,3338436.223721779 L 620908.5000489946,3338404.7042353954 L 620811.2946351488,3338382.7505842852 L 620712.3868431832,3338370.5807869807 L 620612.7589120653,3338368.315699978 L 620513.4002323607,3338375.977817527 L 620415.2975207383,3338393.491048249 L 620319.4250210297,3338420.6814707825 L 620255.5036707049,3338445.920035258 L 620251.6334713505,3338447.0834288336 L 620160.5770636437,3338479.326948297 L 620136.5853177442,3338489.150869656 L 620099.2201685779,3338505.346867237 L 620061.8614792594,3338522.4519254877 L 620045.5878808381,3338530.080597 L 620034.0653915005,3338535.6089032604 L 620027.8266855734,3338538.6287768316 L 620020.781987076,3338542.0689799436 L 619913.9023896026,3338591.014009421 L 619914.0355209964,3338591.3047239217 L 619888.3460871,3338602.3773432886 L 619795.1214720806,3338647.3595591416 L 619752.3547952832,3338669.277170028 L 619730.5647393104,3338681.1139388024 L 619625.9583425446,3338746.605015078 L 619609.9421890052,3338758.066115633 L 619608.4733828638,3338759.1191961765 L 619606.3372525314,3338760.6536483555 L 619567.9650378467,3338789.6414428586 L 619558.0521032196,3338797.5114690466 L 619558.5889030802,3338798.187611895 L 619517.9398664656,3338830.7406261163 L 619517.5551034149,3338830.285225208 L 619462.6456763052,3338876.677575993 L 619460.8491464282,3338878.199071586 L 619372.0896398704,3338953.5498103015 L 619366.4372051005,3338958.324029265 L 619297.4285963008,3339023.0908910586 L 619217.473027493,3339074.913489226 L 619191.7518228176,3339092.155829546 L 619173.0212816871,3339105.1367258173 L 619111.1625345014,3339151.6509059034 L 619091.1502408157,3339167.9485921348 L 619056.0508256399,3339198.6081242757 L 619039.3316950438,3339207.9348963364 L 618799.1534108318,3339288.056073874 L 618789.7649277209,3339291.2397839157 L 618789.7167938206,3339291.256372986 L 618784.8605998169,3339292.8027783744 L 618748.174233813,3339229.4031943963 L 618683.5801587311,3339113.3179581705 L 618548.8645997887,3338871.7518035388 L 618514.1166020116,3338809.444705877 L 618370.8195880897,3338552.44810442 L 618341.3612305042,3338499.4633978573 L 618340.7002799533,3338498.2764909603 L 618242.7007859105,3338322.5740550263 L 618168.2804949094,3338188.8054101104 L 618115.8951494442,3338094.2489956548 L 618111.4983280266,3338086.396230479 L 618062.727758185,3338000.203723695 L 618061.8190867599,3337998.6012689727 L 618038.7477135462,3337958.0017785444 L 618003.7335998951,3337896.2776443698 L 617970.7544787015,3337834.52010715 L 617965.4611260089,3337824.738932964 L 617890.2996345337,3337687.6801891434 L 617837.992080039,3337592.0876834807 L 617834.2678379903,3337585.3434237624 L 617783.6282081666,3337494.468714011 L 617764.4047595707,3337459.6186688896 L 617756.4853887501,3337445.161775279 L 617748.6260248165,3337430.7638287507 L 617697.4722833576,3337347.089800045 L 617638.3683632121,3337268.8288585194 L 617571.882728741,3337196.7337216926 L 617498.6548419913,3337131.4978040764 L 617419.3890123176,3337073.74854788 L 617334.8476223021,3337024.0413882416 L 617245.843795121,3336982.8544110255 L 617153.233573887,3336950.5837545698 L 617057.9076881852,3336927.5397996088 L 616960.7829869929,3336913.944184015 L 616862.7936203815,3336909.9276710763 L 616844.8749245311,3336910.0726213665 L 616780.0903952769,3336912.6987195536 L 616751.658449194,3336914.7761813267 L 616668.8200601629,3336913.895408216 L 616636.8369554691,3336914.066853295 L 616626.3403789012,3336914.29101973 L 616528.029808496,3336921.24834849 L 616430.8815582274,3336937.8492564955 L 616335.8392652549,3336963.9324929398 L 616243.8261107906,3336999.244701627 L 616155.7358528946,3337043.4428819143 L 616072.4241450713,3337096.0977204046 L 615994.700224987,3337156.6977610285 L 615923.3190540435,3337224.654373007 L 615858.9739841562,3337299.3074684422 L 615802.2900229689,3337379.931913997 L 615753.8177629213,3337465.7445743843 L 615727.635041681,3337525.077132526 L 615677.4880251493,3337518.3468654477 L 615578.45557851,3337514.9504810255 L 615479.5731930486,3337521.371910773 L 615381.8117910433,3337537.5481029237 L 615286.1312878793,3337563.3202240784 L 615193.4711666774,3337598.435218787 L 615104.7412535461,3337642.5482942886 L 615046.9443496251,3337678.824733028 L 615010.6594458336,3337677.8136659446 L 614864.8074696185,3337672.124302238 L 614855.5219447439,3337671.805288601 L 614763.3939681615,3337669.0685604783 L 614677.3399351554,3337666.593450055 L 614677.3374862222,3337666.678609428 L 614657.7561714621,3337665.359190953 L 614515.8635185572,3337662.8856220874 L 614505.014891235,3337662.6770343706 L 614487.6227039744,3337662.714788964 L 614414.3279643278,3337660.203348005 L 614386.4988859207,3337659.6374021815 L 614361.2434853184,3337659.47536577 L 614337.3226679467,3337658.0832846235 L 614196.9772231447,3337653.894439352 L 614184.1237375189,3337653.322773025 L 614106.924182286,3337650.8501696917 L 614091.2478997994,3337650.471086162 L 614019.453534223,3337649.2980949352 L 613994.9411977531,3337647.8748351648 L 613980.4982344355,3337646.07101019 L 613888.5974577089,3337643.1044737617 L 613869.0233022681,3337644.2746865815 L 613703.7832188369,3337643.936407876 L 613649.4110112442,3337642.5875446866 L 613300.982876653,3337626.2057847464 L 613300.9646544826,3337626.593357076 L 613273.7107486428,3337624.716094462 L 613266.6796015634,3337624.5316420337 L 613260.357361587,3337624.3857896784 L 613167.9259097361,3337622.5458215796 L 613165.095753674,3337622.493490702 L 613104.04020053,3337621.4509861604 L 613083.2223576254,3337620.8836764987 L 613066.3545975348,3337620.566985318 L 613028.0675369576,3337613.7478957493 L 612942.4540376852,3337606.9731700793 L 612947.1472302083,3337607.2998781377 L 612919.9592332769,3337601.1848876127 L 612912.4913291686,3337599.407870818 L 612812.8638411167,3337576.3245316455 L 612725.6076594047,3337560.1495276517 L 612637.2610605052,3337551.7739402675 L 612548.5197979147,3337551.2637295215 L 612460.082733214,3337558.622913462 L 612372.6463323425,3337573.7935365145 L 612258.3633358196,3337598.891471175 L 612149.034256449,3337629.4999138024 L 612140.2978160861,3337632.49015906 L 612108.6224384778,3337640.799777161 L 612023.1737040129,3337667.3549220664 L 611940.4408229011,3337701.442050511 L 611819.968485663,3337757.50823835 L 611727.2177299968,3337806.755031861 L 611640.1428706227,3337865.456975719 L 611559.7041646796,3337932.9667078615 L 611486.7886861421,3338008.5397343813 L 611422.2005432142,3338091.3426397704 L 611361.2209240864,3338178.6080079386 L 611331.8188360591,3338225.2996735927 L 611321.9948893017,3338230.5282680844 L 611321.9102206512,3338230.3678816943 L 611130.3784661023,3338331.4783013663 L 611106.9097396715,3338342.3680576542 L 611026.3459258812,3338386.218467718 L 611007.8637367047,3338397.497196239 L 610921.1121434639,3338444.329476387 L 610908.8369101179,3338451.067596647 L 610782.8442384206,3338521.3798788693 L 610706.3345100738,3338564.1720714704 L 610673.5127415896,3338582.467584638 L 610650.8192656718,3338593.8501893277 L 610633.5565843848,3338604.977978999 L 610389.0904078161,3338741.738494674 L 610361.1917232698,3338756.803318854 L 610279.2388475307,3338801.142745986 L 610273.450465748,3338804.299205208 L 610255.8281886263,3338813.984302382 L 610172.0902097907,3338865.522270249 L 610093.8184781736,3338925.0348509443 L 610021.7697414098,3338991.9466642668 L 609956.6405819053,3339065.6107926713 L 609899.0606821313,3339145.315035804 L 609849.5867367218,3339230.288796207 L 609808.6970702314,3339319.7105296147 L 609776.7870125928,3339412.71568782 L 609754.1650769836,3339508.405077309 L 609741.049977056,3339605.8535528495 L 609737.5685123663,3339704.1189619973 L 609743.7543424503,3339802.2512540193 L 609759.5476613963,3339899.3016651883 L 609763.8674087852,3339919.518791145 L 609787.7257549934,3340010.1586006954 L 609819.9653912091,3340098.166564061 L 609860.3030988128,3340182.7695492585 L 610018.7262542045,3340478.508420211 L 610002.497262955,3340486.923095562 L 609827.1940494608,3340581.3629814126 L 609790.5845604609,3340601.113667776 L 609722.7509579563,3340637.666842949 L 609721.087740758,3340638.56512248 L 609634.4533376722,3340685.460929953 L 609578.6786778615,3340718.0236623464 L 609559.3924221285,3340730.1350688953 L 609501.6716992104,3340769.2531422307 L 609479.6561447561,3340785.3212570637 L 609479.6824725405,3340785.3573297937 L 609461.6960517791,3340797.6766089513 L 609396.2313786099,3340851.169859538 L 609380.5939366028,3340865.0905572437 L 609346.2114038744,3340897.179071223 L 609332.3068446892,3340910.7815733035 L 609287.5853547818,3340957.4541706806 L 609272.9883003049,3340973.708640693 L 609239.0564803493,3341013.542217461 L 609229.1084829973,3341025.8592651295 L 609221.0713624022,3341035.9426864954 L 609191.2349571852,3341073.874826564 L 609189.9317210729,3341075.5352828847 L 609184.7630780232,3341082.134993291 L 609180.7009347962,3341087.3573393193 L 609166.8482835694,3341105.288581064 L 609114.836792044,3341179.3068836182 L 609100.9453517757,3341201.1098995483 L 609066.4160881144,3341259.5970479175 L 609053.6678174972,3341282.9689725526 L 609026.4435248642,3341336.6648696265 L 609019.6568665644,3341351.1131266146 L 609018.463126193,3341353.813118643 L 609017.0546210214,3341353.722423165 L 608957.091675351,3341351.664952749 L 608938.8027181224,3341351.5863959 L 608878.733611135,3341353.1337427124 L 608856.765083845,3341354.3609218267 L 608811.8702050794,3341357.8843479953 L 608794.9124527118,3341359.6001794618 L 608747.5526577693,3341365.5370869 L 608734.3453877891,3341367.513917882 L 608707.6005208063,3341371.888324639 L 608656.7839865227,3341380.9085345226 L 608657.028316737,3341382.285000799 L 608555.0383730356,3341402.806377255 L 608537.565694189,3341407.6147834826 L 608505.8288147945,3341416.915836087 L 608483.7177783361,3341423.794881898 L 608404.6863443903,3341452.0719733653 L 608376.1727664872,3341463.645690227 L 608280.4372982021,3341508.5381805333 L 608250.5394970826,3341524.538028017 L 608169.1331245914,3341573.2039859938 L 608141.0249407446,3341591.871748351 L 608111.0859758721,3341612.5500640613 L 608083.3634379455,3341632.452092467 L 607992.03607222,3341706.5271370974 L 607972.6019536554,3341724.282871537 L 607951.1281607947,3341744.4910021154 L 607930.5220111144,3341764.463611627 L 607886.2217117067,3341812.63413277 L 607839.9371318091,3341824.0229905783 L 607748.6380729697,3341856.122125054 L 607660.8693948309,3341896.8962800633 L 607577.4531276484,3341945.9635700677 L 607499.1705375517,3342002.86443708 L 607426.754809305,3342067.0659548305 L 607360.8841793914,3342137.9668200845 L 607302.1755837376,3342214.902984373 L 607251.1788795696,3342297.153873383 L 607208.3716955208,3342383.94913577 L 607174.1549582225,3342474.4758581654 L 607148.8491372761,3342567.8861788223 L 607132.6912437761,3342663.30522858 L 607125.8326104943,3342759.8393247765 L 607125.6479496408,3342768.037068804 L 607132.8674676477,3342912.583427575 L 607158.5302295242,3343121.317032987 L 607182.0290163996,3343246.2413156773 L 607185.0009126314,3343257.902966257 L 607204.8932757373,3343325.819668248 L 607231.344300685,3343405.553629964 L 607231.9750119989,3343405.344397156 z" /></g></svg>