<svg xmlns="http://www.w3.org/2000/svg" xmlns:xlink="http://www.w3.org/1999/xlink" width="300" height="300" viewBox="354410.0001404 6658160.0000404 56429.999989199976 46929.999999200925" preserveAspectRatio="xMinYMin meet"><g transform="matrix(1,0,0,-1,0,13363250.00008)"><path fill-rule="evenodd" fill="#66cc99" stroke="#555555" stroke-width="376.19999992799984" opacity="0.6" d="M 356775.54716,6685250.00004 L 356774.07651,6685259.91434 L 356750.00014,6685750.00004 L 356750.00014,6686000.00004 L 356750.00014,6686250.00004 L 356774.07651,6686740.08574 L 356846.07374,6687225.45165 L 356965.29846,6687701.42343 L 357008.70811,6687822.74527 L 357000.00014,6688000.00004 L 357000.00014,6688250.00004 L 357000.00014,6688451.59195 L 356965.29846,6688548.57665 L 356846.07374,6689024.54843 L 356774.07651,6689509.91434 L 356750.00014,6690000.00004 L 356750.00014,6690250.00004 L 356750.00014,6690500.00004 L 356774.07651,6690990.08574 L 356846.07374,6691475.45165 L 356965.29846,6691951.42343 L 357130.60248,6692413.4172 L 357340.39382,6692856.98372 L 357592.65208,6693277.8512 L 357884.94787,6693671.96646 L 358214.46623,6694035.53395 L 358578.03372,6694365.05231 L 358972.14897,6694657.3481 L 359393.01646,6694909.60636 L 359836.58298,6695119.3977 L 360298.57675,6695284.70172 L 360774.54853,6695403.92644 L 361259.91444,6695475.92367 L 361750.00014,6695500.00004 L 362000.00014,6695500.00004 L 362250.00014,6695500.00004 L 362740.08584,6695475.92367 L 363225.45175,6695403.92644 L 363701.42353,6695284.70172 L 363903.56296,6695212.37507 L 363904.4869,6695213.91657 L 364090.39382,6695606.98372 L 364154.4869,6695713.91657 L 364340.39382,6696106.98372 L 364592.65208,6696527.8512 L 364884.94787,6696921.96646 L 365214.46623,6697285.53395 L 365345.60712,6697404.39312 L 365464.46623,6697535.53394 L 365828.03372,6697865.05231 L 366222.14897,6698157.3481 L 366643.01645,6698409.60636 L 367086.58298,6698619.3977 L 367548.57675,6698784.70172 L 368024.54853,6698903.92644 L 368509.91444,6698975.92367 L 369000.00014,6699000.00004 L 369201.59205,6699000.00004 L 369298.57675,6699034.70172 L 369774.54853,6699153.92644 L 370259.91444,6699225.92367 L 370750.00014,6699250.00004 L 371000.00014,6699250.00004 L 371250.00014,6699250.00004 L 371500.00014,6699250.00004 L 371750.00014,6699250.00004 L 372240.08584,6699225.92367 L 372725.45175,6699153.92644 L 373201.42352,6699034.70172 L 373663.4173,6698869.3977 L 374106.98382,6698659.60636 L 374522.388,6698410.62267 L 374592.65208,6698527.8512 L 374884.94787,6698921.96646 L 375214.46623,6699285.53394 L 375345.60709,6699404.39309 L 375414.11469,6699479.97958 L 375592.65207,6699777.8512 L 375884.94787,6700171.96646 L 376214.46623,6700535.53394 L 376345.60709,6700654.39309 L 376464.46623,6700785.53394 L 376595.60709,6700904.39309 L 376714.46623,6701035.53394 L 377078.03372,6701365.0523 L 377472.14897,6701657.3481 L 377893.01645,6701909.60636 L 378336.58297,6702119.3977 L 378798.57675,6702284.70172 L 379030.15407,6702342.70882 L 379086.58297,6702369.3977 L 379548.57675,6702534.70172 L 379780.15407,6702592.70882 L 379836.58297,6702619.3977 L 380298.57675,6702784.70172 L 380774.54853,6702903.92644 L 381259.91443,6702975.92367 L 381750.00014,6703000.00004 L 382000.00014,6703000.00004 L 382250.00014,6703000.00004 L 382500.00014,6703000.00004 L 382750.00014,6703000.00004 L 383240.08584,6702975.92367 L 383725.45175,6702903.92644 L 384201.42352,6702784.70172 L 384663.4173,6702619.3977 L 385106.98382,6702409.60636 L 385527.8513,6702157.3481 L 385921.96656,6701865.0523 L 386285.53404,6701535.53394 L 386615.0524,6701171.96646 L 386907.3482,6700777.8512 L 387159.60646,6700356.98372 L 387369.3978,6699913.4172 L 387534.70181,6699451.42342 L 387653.92654,6698975.45165 L 387694.09636,6698704.64869 L 387784.70181,6698451.42342 L 387810.3511,6698349.02573 L 387828.03371,6698365.05231 L 388222.14897,6698657.3481 L 388643.01645,6698909.60636 L 389086.58297,6699119.3977 L 389548.57675,6699284.70172 L 390024.54852,6699403.92644 L 390509.91443,6699475.92367 L 390943.88781,6699497.24342 L 391048.57675,6699534.70172 L 391524.54852,6699653.92644 L 392009.91443,6699725.92367 L 392500.00013,6699750.00004 L 392750.00013,6699750.00004 L 393000.00013,6699750.00004 L 393375.00013,6699731.57747 L 393750.00013,6699750.00004 L 394000.00013,6699750.00004 L 394250.00013,6699750.00004 L 394500.00013,6699750.00004 L 394990.08584,6699725.92367 L 395475.45174,6699653.92644 L 395951.42352,6699534.70172 L 396413.4173,6699369.3977 L 396856.98382,6699159.60636 L 397277.8513,6698907.3481 L 397671.96655,6698615.05231 L 397799.23262,6698499.70506 L 398163.4173,6698369.3977 L 398606.98382,6698159.60636 L 398970.45164,6697941.75213 L 399225.45174,6697903.92644 L 399701.42352,6697784.70172 L 400163.41729,6697619.3977 L 400606.98382,6697409.60636 L 401027.8513,6697157.3481 L 401421.96655,6696865.05231 L 401785.53404,6696535.53394 L 402115.0524,6696171.96646 L 402407.34819,6695777.8512 L 402659.60645,6695356.98372 L 402869.3978,6694913.4172 L 403034.70181,6694451.42342 L 403153.92653,6693975.45165 L 403225.92377,6693490.08574 L 403250.00013,6693000.00004 L 403250.00013,6692750.00004 L 403225.92377,6692259.91434 L 403205.91112,6692125.00004 L 403225.92377,6691990.08574 L 403250.00013,6691500.00004 L 403250.00013,6691250.00004 L 403250.00013,6691000.00004 L 403500.00013,6691000.00004 L 403990.08583,6690975.92367 L 404475.45174,6690903.92644 L 404951.42352,6690784.70172 L 405413.41729,6690619.3977 L 405856.98382,6690409.60636 L 406277.8513,6690157.3481 L 406671.96655,6689865.05231 L 407035.53404,6689535.53395 L 407154.39318,6689404.39309 L 407285.53404,6689285.53395 L 407615.0524,6688921.96646 L 407907.34819,6688527.8512 L 408159.60645,6688106.98372 L 408369.39779,6687663.4172 L 408534.70181,6687201.42343 L 408653.92653,6686725.45165 L 408725.92377,6686240.08574 L 408750.00013,6685750.00004 L 408750.00013,6685500.00004 L 408725.92377,6685009.91434 L 408653.92653,6684524.54843 L 408534.70181,6684048.57665 L 408480.49316,6683897.07363 L 408500.00013,6683500.00004 L 408500.00013,6683250.00004 L 408500.00013,6683000.00004 L 408475.92377,6682509.91434 L 408403.92653,6682024.54843 L 408284.70181,6681548.57665 L 408119.39779,6681086.58288 L 407909.60645,6680643.01636 L 407730.02532,6680343.40334 L 407725.92377,6680259.91434 L 407653.92653,6679774.54843 L 407534.70181,6679298.57665 L 407369.39779,6678836.58288 L 407159.60645,6678393.01636 L 407095.51337,6678286.08351 L 406909.60645,6677893.01636 L 406683.53907,6677515.84572 L 406619.3978,6677336.58288 L 406409.60645,6676893.01636 L 406157.34819,6676472.14888 L 405865.0524,6676078.03362 L 405535.53404,6675714.46613 L 405416.03182,6675606.15563 L 405403.92653,6675524.54843 L 405284.70181,6675048.57666 L 405119.3978,6674586.58288 L 404909.60645,6674143.01636 L 404657.34819,6673722.14888 L 404537.80434,6673560.96265 L 404534.70181,6673548.57666 L 404369.3978,6673086.58288 L 404159.60645,6672643.01636 L 403933.53906,6672265.84571 L 403869.3978,6672086.58288 L 403659.60645,6671643.01636 L 403407.34819,6671222.14888 L 403115.0524,6670828.03362 L 402785.53404,6670464.46614 L 402421.96655,6670134.94777 L 402027.8513,6669842.65198 L 401606.98382,6669590.39372 L 401163.41729,6669380.60238 L 400701.42352,6669215.29836 L 400689.03751,6669212.19583 L 400527.8513,6669092.65198 L 400106.98382,6668840.39372 L 399663.4173,6668630.60238 L 399201.42352,6668465.29836 L 398759.70323,6668354.65319 L 398676.93405,6668179.65247 L 398653.92654,6668024.54843 L 398534.70181,6667548.57666 L 398369.3978,6667086.58288 L 398159.60646,6666643.01636 L 397907.3482,6666222.14888 L 397615.0524,6665828.03362 L 397285.53404,6665464.46614 L 396921.96656,6665134.94778 L 396527.8513,6664842.65198 L 396229.97968,6664664.1146 L 396154.39318,6664595.607 L 396035.53404,6664464.46614 L 395671.96656,6664134.94778 L 395277.8513,6663842.65198 L 394856.98382,6663590.39372 L 394413.4173,6663380.60238 L 393951.42352,6663215.29836 L 393475.45174,6663096.07364 L 392990.08584,6663024.07641 L 392556.11246,6663002.75666 L 392451.42352,6662965.29836 L 391975.45174,6662846.07364 L 391490.08584,6662774.07641 L 391000.00013,6662750.00004 L 390750.00013,6662750.00004 L 390500.00013,6662750.00004 L 390009.91443,6662774.07641 L 389524.54852,6662846.07364 L 389048.57675,6662965.29836 L 388586.58297,6663130.60238 L 388334.13783,6663250.00004 L 388250.00014,6663250.00004 L 388000.00014,6663250.00004 L 387509.91443,6663274.07641 L 387024.54853,6663346.07364 L 386548.57675,6663465.29836 L 386086.58297,6663630.60238 L 385643.01645,6663840.39372 L 385222.14897,6664092.65198 L 384828.03371,6664384.94778 L 384701.0931,6664500.00004 L 384548.40822,6664500.00004 L 384451.42352,6664465.29836 L 383975.45175,6664346.07364 L 383490.08584,6664274.07641 L 383000.00014,6664250.00004 L 382750.00014,6664250.00004 L 382500.00014,6664250.00004 L 382250.00014,6664250.00004 L 382000.00014,6664250.00004 L 381750.00014,6664250.00004 L 381259.91443,6664274.07641 L 380774.54853,6664346.07364 L 380298.57675,6664465.29836 L 379836.58297,6664630.60238 L 379393.01645,6664840.39372 L 379283.8936,6664905.79944 L 379159.60646,6664643.01636 L 378907.3482,6664222.14888 L 378615.0524,6663828.03362 L 378335.88558,6663520.0205 L 378157.3482,6663222.14888 L 377865.05241,6662828.03362 L 377535.53404,6662464.46614 L 377171.96656,6662134.94778 L 376777.8513,6661842.65198 L 376479.97968,6661664.1146 L 376171.96656,6661384.94778 L 375777.8513,6661092.65198 L 375356.98382,6660840.39372 L 374913.4173,6660630.60238 L 374451.42352,6660465.29837 L 373975.45175,6660346.07364 L 373490.08584,6660274.07641 L 373000.00014,6660250.00004 L 372750.00014,6660250.00004 L 372500.00014,6660250.00004 L 372250.00014,6660250.00004 L 371759.91444,6660274.07641 L 371274.54853,6660346.07364 L 370798.57675,6660465.29837 L 370654.09984,6660516.99303 L 370509.91444,6660524.07641 L 370024.54853,6660596.07364 L 369548.57675,6660715.29837 L 369086.58298,6660880.60238 L 368643.01645,6661090.39372 L 368222.14897,6661342.65198 L 367828.03372,6661634.94778 L 367464.46623,6661964.46614 L 367134.94787,6662328.03362 L 366842.65208,6662722.14888 L 366590.39382,6663143.01636 L 366380.60248,6663586.58288 L 366316.46122,6663765.84569 L 366090.39382,6664143.01636 L 365904.4869,6664536.08351 L 365840.39382,6664643.01636 L 365659.86813,6665024.70586 L 365476.74791,6665226.74789 L 365214.46623,6665464.46614 L 364884.94787,6665828.03362 L 364592.65208,6666222.14888 L 364340.39382,6666643.01636 L 364196.74223,6666946.74213 L 363893.01646,6667090.39372 L 363472.14897,6667342.65198 L 363078.03372,6667634.94778 L 362714.46623,6667964.46614 L 362595.60707,6668095.60701 L 362464.46623,6668214.46614 L 362134.94787,6668578.03362 L 361842.65208,6668972.14888 L 361605.73041,6669367.42881 L 361342.65208,6669722.14888 L 361108.99159,6670111.98786 L 361078.03372,6670134.94778 L 360714.46623,6670464.46614 L 360384.94787,6670828.03362 L 360360.71199,6670860.71192 L 360328.03372,6670884.94778 L 360020.02058,6671164.11461 L 359722.14898,6671342.65198 L 359328.03372,6671634.94778 L 358964.46623,6671964.46614 L 358845.60707,6672095.60701 L 358714.46623,6672214.46614 L 358384.94787,6672578.03362 L 358092.65208,6672972.14888 L 357840.39382,6673393.01636 L 357630.60248,6673836.58288 L 357465.29846,6674298.57666 L 357367.63793,6674688.45936 L 357342.65208,6674722.14888 L 357090.39382,6675143.01636 L 356880.60248,6675586.58288 L 356715.29846,6676048.57666 L 356596.07374,6676524.54843 L 356524.07651,6677009.91434 L 356500.00014,6677500.00004 L 356500.00014,6677750.00004 L 356500.00014,6678000.00004 L 356500.00014,6678250.00004 L 356524.07651,6678740.08574 L 356596.07374,6679225.45165 L 356715.29846,6679701.42343 L 356880.60248,6680163.4172 L 357058.2038,6680538.92364 L 356965.29846,6680798.57665 L 356846.07374,6681274.54843 L 356774.07651,6681759.91434 L 356750.00014,6682250.00004 L 356750.00014,6682500.00004 L 356750.00014,6682750.00004 L 356750.00014,6683000.00004 L 356750.00014,6683250.00004 L 356750.00014,6683500.00004 L 356750.00014,6683750.00004 L 356750.00014,6684000.00004 L 356750.00014,6684250.00004 L 356750.00014,6684500.00004 L 356750.00014,6684750.00004 L 356774.07651,6685240.08574 L 356775.54716,6685250.00004 z" /></g></svg>