<svg xmlns="http://www.w3.org/2000/svg" xmlns:xlink="http://www.w3.org/1999/xlink" width="300" height="300" viewBox="359810.0001407551 6663560.000044268 45629.99999087548 36129.99999341555" preserveAspectRatio="xMinYMin meet"><g transform="matrix(1,0,0,-1,0,13363250.00008195)"><path fill-rule="evenodd" fill="#66cc99" stroke="#555555" stroke-width="304.1999999391699" opacity="0.6" d="M 373000.00013851776,6665250.00004393 L 372750.0001385672,6665250.000043934 L 372250.0001386649,6665250.000043948 L 371000.00013890443,6665500.000043943 L 362250.0001403382,6675750.000042403 L 361500.0001404374,6677500.000042123 L 361500.00014042354,6678000.000042033 L 361500.00014041713,6678250.00004199 L 361750.0001400259,6690500.000039859 L 369000.0001385063,6694000.000039055 L 381750.00013590575,6698000.000038021 L 382500.0001357596,6698000.000038004 L 382750.0001357113,6698000.000037992 L 394500.0001335142,6694750.000038238 L 398250.0001328343,6693000.000038436 L 403750.0001319627,6685750.000039535 L 403750.0001319685,6685500.00003958 L 403500.0001320834,6683000.000040014 L 402750.00013228826,6680750.000040423 L 402500.0001323506,6680250.000040516 L 402000.0001324732,6679250.000040699 L 399250.000133147,6674000.000041679 L 393750.00013435184,6669000.000042696 L 392500.00013462343,6668000.000042901 L 391000.00013492256,6667750.00004299 L 373000.00013851776,6665250.00004393 z" /></g></svg>