<svg xmlns="http://www.w3.org/2000/svg" xmlns:xlink="http://www.w3.org/1999/xlink" width="300" height="300" viewBox="606821.2428350453 3336605.743449065 24311.297130670748 35212.090634097345" preserveAspectRatio="xMinYMin meet"><g transform="matrix(1,0,0,-1,0,6708423.577532227)"><g><path fill-rule="evenodd" fill="#66cc99" stroke="#555555" stroke-width="234.7472708939823" opacity="0.6" d="M 618127.3750279165,3340167.4547586096 L 616870.8826883067,3337909.8949540313 L 612472.8637706819,3338575.615364322 L 608125.3943400119,3342790.5571696023 L 609235.1410686318,3345266.6148265894 L 611375.7615842228,3345554.080665871 L 613078.1759096466,3345455.8199178698 L 611963.2515674027,3343770.311398878 L 613787.937475011,3342435.9242796013 L 616505.7083103802,3343390.18654755 L 615025.3845118945,3346858.2377590556 L 618153.956613414,3349745.6582145407 L 616756.4823930068,3351646.5842829184 L 617622.849369944,3355304.243038153 L 615638.18654172,3358181.2235991103 L 618481.4631672399,3362106.4608147065 L 618539.1326760945,3367347.9817409525 L 620060.67553599,3368336.1108918237 L 629828.3884607495,3362434.3493432705 L 626276.0501294899,3356374.071930289 L 628538.0466471266,3354491.6556712417 L 627909.033141968,3349217.671850159 L 625243.3314388639,3349815.7196551138 L 624562.9606782607,3347264.4812719715 L 626715.384469097,3344150.2792982105 L 621733.8796153939,3343314.911054607 L 620639.8715227979,3339367.948085577 L 618127.3750279165,3340167.4547586096 z" /><path fill-rule="evenodd" fill="#66cc99" stroke="#555555" stroke-width="234.7472708939823" opacity="0.6" d="M 614639.4659206639,3368040.6536466475 L 615763.9491499176,3370513.682578196 L 618496.1988673348,3367347.9510799036 L 614938.5482843437,3367113.7532153632 L 614639.4659206639,3368040.6536466475 z" /></g></g></svg>