<svg xmlns="http://www.w3.org/2000/svg" xmlns:xlink="http://www.w3.org/1999/xlink" width="300" height="300" viewBox="606821.2428350453 3336605.743449065 24311.297130670748 35212.090634097345" preserveAspectRatio="xMinYMin meet"><g transform="matrix(1,0,0,-1,0,6708423.577532227)"><path fill-rule="evenodd" fill="#66cc99" stroke="#555555" stroke-width="234.7472708939823" opacity="0.6" d="M 616870.8826883067,3337909.8949540313 L 616852.9639924563,3337910.0399043215 L 616658.1882342672,3337913.838888758 L 616647.6916576993,3337914.0630551926 L 612587.1467672049,3338550.5174296615 L 612472.8637706819,3338575.615364322 L 612362.3729074684,3338608.069491091 L 612241.9005702302,3338664.13567893 L 610737.4737215659,3339690.3504248443 L 608125.5790008655,3342782.359425575 L 608125.3943400119,3342790.5571696023 L 608151.0571018885,3342999.290775014 L 614106.4172218719,3369166.4874186995 L 614117.1992514192,3369209.269888775 L 614139.0515214027,3369295.292331482 L 614159.8494855646,3369372.4363559494 L 614202.1911758287,3369445.9268768323 L 614529.7316797214,3369893.39842639 L 615464.7367213306,3370451.968717794 L 615763.9491499176,3370513.682578196 L 621095.7754292116,3368167.3724266132 L 627300.0625922567,3364740.744153437 L 629828.3884607495,3362434.3493432705 L 628744.5585682591,3353070.084407508 L 628730.071921501,3352976.801022826 L 628453.338217077,3351686.986032595 L 628058.4207355778,3349868.960739952 L 628045.2698642459,3349808.94690789 L 627940.9984173086,3349346.6204960886 L 626715.384469097,3344150.2792982105 L 620639.8715227979,3339367.948085577 L 616870.8826883067,3337909.8949540313 z" /></g></svg>