<svg xmlns="http://www.w3.org/2000/svg" xmlns:xlink="http://www.w3.org/1999/xlink" width="100.0" height="100.0" viewBox="-1.08 -1.08 2.16 2.16" preserveAspectRatio="xMinYMin meet"><g transform="matrix(1,0,0,-1,0,0.0)"><path fill-rule="evenodd" fill="#66cc99" stroke="#555555" stroke-width="0.0432" opacity="0.6" d="M 1.0,0.0 L 0.9951847266721969,-0.0980171403295606 L 0.9807852804032304,-0.19509032201612825 L 0.9569403357322088,-0.29028467725446233 L 0.9238795325112867,-0.3826834323650898 L 0.881921264348355,-0.47139673682599764 L 0.8314696123025452,-0.5555702330196022 L 0.773010453362737,-0.6343932841636455 L 0.7071067811865476,-0.7071067811865475 L 0.6343932841636456,-0.7730104533627369 L 0.5555702330196023,-0.8314696123025451 L 0.4713967368259978,-0.8819212643483549 L 0.38268343236508984,-0.9238795325112867 L 0.2902846772544623,-0.9569403357322089 L 0.1950903220161283,-0.9807852804032304 L 0.09801714032956077,-0.9951847266721968 L 6.123233995736766e-17,-1.0 L -0.09801714032956066,-0.9951847266721969 L -0.1950903220161282,-0.9807852804032304 L -0.2902846772544622,-0.9569403357322089 L -0.3826834323650897,-0.9238795325112867 L -0.4713967368259977,-0.881921264348355 L -0.555570233019602,-0.8314696123025455 L -0.6343932841636453,-0.7730104533627371 L -0.7071067811865475,-0.7071067811865476 L -0.773010453362737,-0.6343932841636455 L -0.8314696123025453,-0.5555702330196022 L -0.8819212643483549,-0.4713967368259978 L -0.9238795325112867,-0.38268343236508984 L -0.9569403357322088,-0.29028467725446233 L -0.9807852804032304,-0.19509032201612858 L -0.9951847266721968,-0.09801714032956084 L -1.0,-1.2246467991473532e-16 L -0.9951847266721969,0.09801714032956059 L -0.9807852804032304,0.19509032201612836 L -0.9569403357322089,0.29028467725446216 L -0.9238795325112867,0.38268343236508967 L -0.881921264348355,0.47139673682599764 L -0.8314696123025455,0.555570233019602 L -0.7730104533627371,0.6343932841636453 L -0.7071067811865477,0.7071067811865475 L -0.6343932841636459,0.7730104533627367 L -0.5555702330196022,0.8314696123025452 L -0.47139673682599786,0.8819212643483549 L -0.38268343236509034,0.9238795325112865 L -0.2902846772544624,0.9569403357322088 L -0.19509032201612866,0.9807852804032303 L -0.09801714032956045,0.9951847266721969 L -1.8369701987210297e-16,1.0 L 0.09801714032956009,0.9951847266721969 L 0.19509032201612828,0.9807852804032304 L 0.2902846772544621,0.9569403357322089 L 0.38268343236509,0.9238795325112866 L 0.4713967368259976,0.881921264348355 L 0.5555702330196018,0.8314696123025456 L 0.6343932841636456,0.7730104533627369 L 0.7071067811865475,0.7071067811865477 L 0.7730104533627367,0.6343932841636459 L 0.8314696123025452,0.5555702330196022 L 0.8819212643483549,0.4713967368259979 L 0.9238795325112865,0.3826834323650904 L 0.9569403357322088,0.29028467725446244 L 0.9807852804032303,0.19509032201612872 L 0.9951847266721969,0.09801714032956052 L 1.0,0.0 z" /></g></svg>