<svg xmlns="http://www.w3.org/2000/svg" xmlns:xlink="http://www.w3.org/1999/xlink" width="300" height="300" viewBox="606821.2427959824 3336605.7434959793 24311.297208232805 35212.090608043596" preserveAspectRatio="xMinYMin meet"><g transform="matrix(1,0,0,-1,0,6708423.577600002)"><g><path fill-rule="evenodd" fill="#66cc99" stroke="#555555" stroke-width="234.74727072029063" opacity="0.6" d="M 618127.375,3340167.454800129 L 616870.8826999664,3337909.894999981 L 612472.8638000488,3338575.6153998375 L 608125.394299984,3342790.557199955 L 609235.1410999298,3345266.6147999763 L 611375.7616000175,3345554.0806999207 L 613078.1758999825,3345455.819900036 L 611963.2515997887,3343770.3113999367 L 613787.9375,3342435.924300194 L 616505.7083001137,3343390.1865000725 L 615025.3845000267,3346858.2378001213 L 618153.9566001892,3349745.658199787 L 616756.4823999405,3351646.584300041 L 617622.8494000435,3355304.2430000305 L 615638.1865000725,3358181.2235999107 L 618481.4632000923,3362106.460800171 L 618539.1326999664,3367347.9816999435 L 620060.6754999161,3368336.110899925 L 629828.3885002136,3362434.3492999077 L 626276.0500998497,3356374.071899891 L 628538.046599865,3354491.6557002068 L 627909.0331001282,3349217.6718997955 L 625243.3313999176,3349815.7196998596 L 624562.9607000351,3347264.481299877 L 626715.3845000267,3344150.279300213 L 621733.8796000481,3343314.9110999107 L 620639.8715000153,3339367.94810009 L 618127.375,3340167.454800129 z" /><path fill-rule="evenodd" fill="#66cc99" stroke="#555555" stroke-width="234.74727072029063" opacity="0.6" d="M 614938.5482997894,3367113.753200054 L 615763.9492001534,3370513.6826000214 L 618496.1989002228,3367347.9510998726 L 614938.5482997894,3367113.753200054 z" /></g></g></svg>