<svg xmlns="http://www.w3.org/2000/svg" xmlns:xlink="http://www.w3.org/1999/xlink" width="300" height="300" viewBox="606821.2427959824 3336605.7434959793 24311.297208232805 35212.090608043596" preserveAspectRatio="xMinYMin meet"><g transform="matrix(1,0,0,-1,0,6708423.577600002)"><g><path fill-rule="evenodd" fill="#66cc99" stroke="#555555" stroke-width="234.74727072029063" opacity="0.6" d="M 618127.375,3340167.454800129 L 618106.391600132,3340130.4278001785 L 617961.6194000244,3339866.741300106 L 617878.4293999672,3339722.9763998985 L 617809.7498998642,3339599.549099922 L 617675.4952998161,3339358.810400009 L 617640.7319002151,3339296.4756999016 L 617497.1168999672,3339038.908800125 L 617467.3608999252,3338985.388800144 L 617369.0970001221,3338809.2122998238 L 617293.9809999466,3338674.19299984 L 617241.1651000977,3338578.8594999313 L 617192.3944997787,3338492.666999817 L 617169.1364002228,3338451.7389001846 L 617127.6395001411,3338378.586599827 L 617088.6494002342,3338305.5727000237 L 617013.266699791,3338168.1107997894 L 616960.7383999825,3338072.1147999763 L 616909.048500061,3337979.355199814 L 616888.0756998062,3337941.333899975 L 616879.097099781,3337924.9432997704 L 616870.8826999664,3337909.894999981 L 616852.9640002251,3337910.039899826 L 616814.608300209,3337912.84250021 L 616804.37830019,3337914.842599869 L 616795.7045998573,3337915.301199913 L 616764.0180001259,3337914.964099884 L 616658.188199997,3337913.8389000893 L 616647.6916999817,3337914.063099861 L 616648.1122999191,3337929.0282998085 L 616648.2460999489,3337934.3495998383 L 616651.5064997673,3338053.3125 L 616657.0563998222,3338074.8741998672 L 616662.6062998772,3338096.4358000755 L 616688.6728000641,3338145.2529001236 L 616723.8432002068,3338188.0809001923 L 616879.7037000656,3338338.3706002235 L 616893.3326997757,3338360.792600155 L 616906.6873998642,3338391.079100132 L 616924.8434000015,3338440.043799877 L 616939.815199852,3338499.6132998466 L 616957.907599926,3338573.1772999763 L 616667.8036999702,3338694.777900219 L 616631.783299923,3338713.3485999107 L 616619.9802999496,3338718.542600155 L 616600.7937998772,3338720.8864998817 L 616535.8073000908,3338719.421500206 L 616400.3639001846,3338714.325900078 L 616171.2494997978,3338706.802400112 L 616034.5447001457,3338702.3607001305 L 615644.1146001816,3338687.0496001244 L 615644.3596000671,3338590.734600067 L 615623.6891999245,3338550.8361001015 L 615593.7383999825,3338514.83370018 L 615493.4509000778,3338600.8945999146 L 615339.5756001472,3338672.7582001686 L 615307.722799778,3338679.4040999413 L 615283.4250998497,3338682.4798002243 L 615239.8618998528,3338685.568500042 L 615186.1704998016,3338681.897600174 L 615140.5278000832,3338681.1947999 L 615053.493999958,3338679.3954000473 L 614977.2424001694,3338677.270699978 L 614825.8292999268,3338671.36439991 L 614733.7013001442,3338668.627600193 L 614648.5947999954,3338666.1802001 L 614640.3260998726,3338665.207300186 L 614631.4531002045,3338665.785999775 L 614497.5366997719,3338662.718100071 L 614485.79129982,3338662.4921998978 L 614472.8811998367,3338662.796500206 L 614380.0830998421,3338659.6167998314 L 614326.3481998444,3338659.272099972 L 614316.918200016,3338658.5110998154 L 614307.4892997742,3338657.638199806 L 614159.140299797,3338653.2104001045 L 614152.1114001274,3338652.8102002144 L 614142.7748999596,3338653.0402002335 L 614074.9119000435,3338650.337600231 L 613982.2866997719,3338648.8242998123 L 613912.603700161,3338644.7782998085 L 613902.3189997673,3338643.0103001595 L 613889.978099823,3338644.3196997643 L 613690.3576998711,3338643.910999775 L 613613.5243000984,3338642.0048999786 L 613254.018599987,3338625.102399826 L 613247.4861998558,3338624.372200012 L 613240.4549999237,3338624.187699795 L 613148.0236001015,3338622.347799778 L 613081.882999897,3338621.2184000015 L 613055.9812998772,3338620.512599945 L 613040.6711997986,3338620.3548998833 L 613027.3804998398,3338620.656899929 L 613015.046599865,3338621.304599762 L 612998.4546999931,3338623.802000046 L 612968.0384001732,3338632.2424998283 L 612941.461400032,3338640.834599972 L 612924.045800209,3338649.40899992 L 612918.6420998573,3338640.711599827 L 612900.8021001816,3338605.6166000366 L 612878.472799778,3338604.9393000603 L 612801.8734998703,3338599.606999874 L 612692.918200016,3338575.1012997627 L 612686.7743000984,3338573.6008000374 L 612587.1468000412,3338550.517399788 L 612472.8638000488,3338575.6153998375 L 612429.4752001762,3338590.466100216 L 612362.3729000092,3338608.0694999695 L 612241.9005999565,3338664.135700226 L 612180.9210000038,3338751.401000023 L 612163.1876997948,3338828.3661999702 L 612150.1238999367,3338862.3687000275 L 612142.6444001198,3338887.4510002136 L 612142.4212999344,3338899.972099781 L 612142.0679001808,3338925.2389998436 L 612142.0475001335,3338927.2355999947 L 612142.2838997841,3338942.1971001625 L 612117.7379999161,3338950.260799885 L 612070.8218998909,3338971.0581998825 L 612045.0918998718,3338982.432199955 L 611982.0027999878,3339012.2656998634 L 611974.9299998283,3339016.1870999336 L 611932.3295998573,3339038.8106999397 L 611812.9562997818,3339102.3180999756 L 611804.2557001114,3339105.551700115 L 611788.7562999725,3339114.7065000534 L 611596.3789000511,3339216.263299942 L 611584.9762001038,3339220.6916999817 L 611504.4123001099,3339264.5422000885 L 611495.1009001732,3339270.8768000603 L 611396.1543998718,3339324.292500019 L 611270.1616997719,3339394.6047000885 L 611193.8509001732,3339437.2862000465 L 611157.531899929,3339457.5310997963 L 611146.6107001305,3339462.291800022 L 611137.3913998604,3339468.963300228 L 610870.7967000008,3339618.103000164 L 610836.3292999268,3339636.714900017 L 610755.0960001945,3339680.6652998924 L 610737.4737000465,3339690.350399971 L 610740.4956998825,3339696.035399914 L 610741.7934999466,3339710.5675997734 L 610931.7463002205,3340065.164800167 L 611161.3130998611,3340490.982600212 L 611197.9549999237,3340561.396800041 L 611369.7994999886,3340876.1380000114 L 611372.2402000427,3340881.9285001755 L 610984.5016999245,3341093.899499893 L 610951.0992999077,3341111.9597001076 L 610883.2395000458,3341148.955999851 L 610790.0682997704,3341203.6560997963 L 610532.3173999786,3341339.7104001045 L 610515.768599987,3341347.856200218 L 610476.7755999565,3341367.2980999947 L 610301.4724001884,3341461.737999916 L 610295.7508001328,3341465.6730999947 L 610265.1770000458,3341481.3193001747 L 610197.1262998581,3341517.989500046 L 610110.4918999672,3341564.8853001595 L 610091.2056999207,3341576.99669981 L 610069.190100193,3341593.0648999214 L 610065.7055001259,3341595.5854997635 L 610061.1487002373,3341598.086900234 L 610045.5111999512,3341612.0075001717 L 610031.6066999435,3341625.6100997925 L 610017.0096001625,3341641.864500046 L 610007.0616002083,3341654.181600094 L 610002.184800148,3341660.999300003 L 609977.2252001762,3341692.113699913 L 609975.2656998634,3341695.2003998756 L 609972.0566000938,3341698.713399887 L 609958.2038998604,3341716.6447000504 L 609944.3125,3341738.4477000237 L 609931.5641999245,3341761.8196001053 L 609924.7775998116,3341776.26789999 L 609916.3938999176,3341796.465300083 L 609869.5927000046,3341932.54460001 L 609868.4970002174,3341935.7431998253 L 609867.3091001511,3341939.500100136 L 609828.0841999054,3342058.3671998978 L 609819.3499999046,3342085.1001000404 L 609817.6757001877,3342089.075900078 L 609816.277900219,3342093.940700054 L 609774.0664000511,3342213.2150998116 L 609720.2513999939,3342300.4586000443 L 609688.1532001495,3342342.5826001167 L 609681.5486001968,3342349.2795000076 L 609642.0339999199,3342382.466899872 L 609628.4572000504,3342391.9765000343 L 609612.478700161,3342402.1245999336 L 609580.8956999779,3342422.2010002136 L 609572.6707000732,3342425.7755999565 L 609547.3295001984,3342438.265200138 L 609541.4373002052,3342440.3143000603 L 609506.9566998482,3342451.826399803 L 609471.4337000847,3342461.228700161 L 609442.8951997757,3342465.7104001045 L 609415.3165998459,3342470.1932001114 L 609391.0682001114,3342469.4004001617 L 609366.9148001671,3342468.6086997986 L 609347.1963000298,3342467.0781998634 L 609317.7856998444,3342461.906199932 L 609301.6584000587,3342457.537899971 L 609156.1448998451,3342405.546000004 L 609148.5753998756,3342402.364500046 L 609140.3236999512,3342399.0728998184 L 609090.0736999512,3342379.84100008 L 609072.0289998055,3342374.3439002037 L 609047.7568998337,3342366.3413000107 L 609025.2871999741,3342360.576600075 L 609006.0748000145,3342356.840499878 L 608977.1325001717,3342353.222799778 L 608952.7964000702,3342351.6557002068 L 608934.5074000359,3342351.577199936 L 608912.5388998985,3342352.804399967 L 608895.5812001228,3342354.5201997757 L 608882.3738999367,3342356.4970002174 L 608831.5574002266,3342365.517199993 L 608825.2883000374,3342366.341199875 L 608820.3702998161,3342366.963500023 L 608802.897600174,3342371.771900177 L 608780.7866001129,3342378.651000023 L 608752.2729997635,3342390.224699974 L 608722.3751997948,3342406.2245001793 L 608694.2670001984,3342424.892300129 L 608666.5444998741,3342444.7943000793 L 608647.1103000641,3342462.5500998497 L 608626.5041999817,3342482.522699833 L 608602.8260998726,3342511.4390001297 L 608578.6255998611,3342544.222000122 L 608558.4008002281,3342574.6093997955 L 608536.7495999336,3342603.218699932 L 608531.9264998436,3342613.478600025 L 608494.226099968,3342658.6553001404 L 608436.1925001144,3342705.9623999596 L 608428.3439002037,3342711.752699852 L 608420.7841000557,3342716.3326001167 L 608358.9725999832,3342746.9795999527 L 608349.026599884,3342749.7635998726 L 608308.1069002151,3342761.215300083 L 608230.1079001427,3342773.522699833 L 608145.4260001183,3342780.4472999573 L 608140.5093998909,3342780.949500084 L 608125.5789999962,3342782.3593997955 L 608125.394299984,3342790.557199955 L 608151.0570998192,3342999.2908000946 L 608154.0289998055,3343010.9524002075 L 608180.4800000191,3343090.6863999367 L 608182.7273001671,3343096.9119000435 L 608184.2902998924,3343104.1286001205 L 608292.4229998589,3343305.1452999115 L 608328.4952998161,3343376.2143001556 L 608344.5693998337,3343414.7189998627 L 608355.3685998917,3343442.752699852 L 608365.1886000633,3343471.0002999306 L 608373.3249998093,3343505.1072998047 L 608379.1192002296,3343532.101799965 L 608384.8892002106,3343562.416999817 L 608387.7076001167,3343579.066500187 L 608391.7835998535,3343604.934100151 L 608400.478099823,3343679.6107001305 L 608407.2283000946,3343716.5854997635 L 608419.3877000809,3343810.6872000694 L 608420.5520000458,3343829.3246002197 L 608431.4812998772,3343901.8022999763 L 608433.4422001839,3343927.312600136 L 608438.6588997841,3343954.9629001617 L 608443.0071001053,3343972.521800041 L 608447.5795001984,3343986.641600132 L 608456.8709001541,3344010.5640001297 L 608464.9046001434,3344026.154799938 L 608473.5371999741,3344038.8780999184 L 608490.1187000275,3344055.6718997955 L 608511.9397001266,3344077.7137999535 L 608529.4251999855,3344090.5247998238 L 608563.0149002075,3344109.809999943 L 608581.1234002113,3344118.196700096 L 608591.4635000229,3344123.504000187 L 608676.6929001808,3344167.578999996 L 608734.428800106,3344197.5223999023 L 608769.0956001282,3344215.3734998703 L 608780.8340997696,3344225.2456998825 L 608806.1055002213,3344248.8793001175 L 608832.6287999153,3344291.8129000664 L 608860.9661998749,3344346.188799858 L 608865.9012999535,3344353.326600075 L 608870.0658998489,3344360.568500042 L 608892.3271999359,3344406.0144000053 L 608949.3790998459,3344524.507400036 L 608953.7238001823,3344532.7575001717 L 608959.6890997887,3344542.3485999107 L 608994.2814998627,3344605.749899864 L 609033.4086999893,3344668.6540999413 L 609096.6907000542,3344721.260799885 L 609137.0559000969,3344746.60160017 L 609165.2656002045,3344764.947999954 L 609237.7986998558,3344807.014699936 L 609243.9903001785,3344803.4204998016 L 609256.230700016,3344811.4137997627 L 609268.7541999817,3344819.625100136 L 609262.6785998344,3344830.652900219 L 609249.6210999489,3344856.897600174 L 609238.9590997696,3344883.948900223 L 609233.1490998268,3344906.497900009 L 609230.3336000443,3344927.8639001846 L 609230.070499897,3344954.236000061 L 609233.0107002258,3344978.4292001724 L 609238.361000061,3345001.0893001556 L 609250.6872000694,3345029.91809988 L 609257.5949001312,3345041.1870999336 L 609272.4580001831,3345066.161499977 L 609281.0116000175,3345086.6340999603 L 609285.4928002357,3345100.201499939 L 609285.9270000458,3345124.2575998306 L 609284.0665001869,3345146.957399845 L 609280.6286001205,3345163.112299919 L 609274.2326002121,3345177.672100067 L 609266.8074998856,3345198.329100132 L 609244.372300148,3345257.2877001762 L 609235.1410999298,3345266.6147999763 L 609631.6760001183,3345407.46269989 L 609667.2589001656,3345410.141600132 L 609698.5131998062,3345412.562300205 L 609724.5766000748,3345414.4836997986 L 609773.527299881,3345408.325099945 L 609848.8677001,3345381.0468997955 L 609878.8859000206,3345372.255899906 L 609912.087100029,3345371.926799774 L 609926.3242001534,3345372.9558000565 L 609942.1897997856,3345373.665599823 L 609989.233300209,3345375.798399925 L 610015.2946000099,3345377.944099903 L 610041.7688999176,3345386.3046998978 L 610066.6438999176,3345391.2083997726 L 610097.1377000809,3345392.736599922 L 610123.9850001335,3345393.2302999496 L 610274.6717000008,3345395.8568000793 L 610386.9376997948,3345400.3087000847 L 610430.6968998909,3345403.19299984 L 610453.0984997749,3345404.7437000275 L 610461.8495998383,3345405.39109993 L 610476.4602999687,3345407.086900234 L 610530.7743000984,3345413.5103001595 L 610626.8435997963,3345430.325699806 L 610794.8892998695,3345467.164299965 L 610881.1298999786,3345484.6651000977 L 610916.8565998077,3345491.8913998604 L 610985.6704001427,3345510.8765997887 L 611027.9258999825,3345519.6231999397 L 611171.4426999092,3345536.038499832 L 611267.0981001854,3345545.767199993 L 611375.7616000175,3345554.0806999207 L 611444.7729001045,3345553.5616002083 L 611522.6245999336,3345554.242599964 L 611610.1915001869,3345555.135099888 L 611633.8596000671,3345555.376399994 L 611656.5682001114,3345555.6080999374 L 612201.0327000618,3345560.951600075 L 612291.6770000458,3345561.8811001778 L 612400.3187999725,3345562.996099949 L 612570.9591999054,3345562.0915999413 L 612657.6226000786,3345557.5553002357 L 612718.0102000237,3345553.2996001244 L 612749.5019001961,3345551.069200039 L 612809.5371999741,3345543.2663002014 L 612878.345099926,3345524.801799774 L 612960.5121998787,3345498.6045999527 L 612985.1301999092,3345491.4351000786 L 613020.0803999901,3345480.8196997643 L 613033.3088998795,3345476.5261998177 L 613078.1758999825,3345455.819900036 L 613073.1581001282,3345447.785399914 L 613055.9134001732,3345412.364500046 L 613045.2926998138,3345387.652800083 L 613027.0588998795,3345345.0128998756 L 612966.5752000809,3345219.364200115 L 612901.3986001015,3345090.8961000443 L 612809.95870018,3344904.9758000374 L 612785.2395000458,3344856.392199993 L 612707.7133998871,3344739.553899765 L 612661.2083997726,3344685.652900219 L 612572.3656997681,3344582.7628998756 L 612497.3933000565,3344488.7814998627 L 612245.6737999916,3344191.600500107 L 612223.2143998146,3344166.7656998634 L 612199.1564998627,3344137.595699787 L 612172.0047998428,3344101.5116000175 L 612125.0130000114,3344037.1953001022 L 612079.6648001671,3343963.4665999413 L 612032.3414998055,3343884.951300144 L 612003.1479001045,3343831.1231999397 L 611973.9625000954,3343786.60379982 L 611963.2515997887,3343770.3113999367 L 611975.2813000679,3343751.481200218 L 611981.2469000816,3343742.233399868 L 611983.690100193,3343738.378200054 L 612000.1700000763,3343708.8393001556 L 612003.091700077,3343705.5482001305 L 612015.9419999123,3343681.7364001274 L 612033.766699791,3343651.7722997665 L 612039.5468001366,3343642.075099945 L 612056.6971001625,3343621.413000107 L 612069.5430002213,3343607.3572998047 L 612084.0894999504,3343587.6665000916 L 612129.8729000092,3343515.986000061 L 612204.9686999321,3343401.372200012 L 612211.6044998169,3343392.578400135 L 612320.0478000641,3343237.1883001328 L 612427.8429999352,3343144.4177999496 L 612510.3400998116,3343096.936800003 L 612566.323800087,3343063.930799961 L 612579.8631000519,3343057.4190998077 L 612740.8414001465,3342979.9439001083 L 612821.0374999046,3342941.199500084 L 612831.0131998062,3342935.649400234 L 612838.9363999367,3342932.0742998123 L 613101.109099865,3342787.6991000175 L 613110.130300045,3342780.8056998253 L 613118.7265000343,3342778.2357001305 L 613229.3154001236,3342724.182099819 L 613262.938199997,3342712.3373999596 L 613347.5286002159,3342677.1947999 L 613383.4788999557,3342654.395500183 L 613388.8197999,3342649.6925997734 L 613396.0673999786,3342647.100299835 L 613759.2095999718,3342449.25549984 L 613771.4959998131,3342443.6180000305 L 613787.9375,3342435.924300194 L 614000.0676999092,3342356.8853998184 L 614015.665500164,3342347.186800003 L 614021.6209001541,3342357.4451999664 L 614103.2347998619,3342507.366899967 L 614108.3454999924,3342516.5064001083 L 614113.6146998405,3342527.8674001694 L 614125.0626997948,3342556.251999855 L 614128.4036002159,3342577.5654001236 L 614127.8241000175,3342595.8435997963 L 614125.3376002312,3342612.8887000084 L 614118.9854998589,3342640.752099991 L 614099.3214998245,3342726.228600025 L 614096.8057999611,3342736.9491000175 L 614094.478099823,3342747.8952999115 L 614078.9008998871,3342820.4471001625 L 614066.5019001961,3342892.5755000114 L 614064.8675999641,3342900.8786997795 L 614062.9369997978,3342911.054399967 L 614049.5363998413,3342978.0781998634 L 614046.8878998756,3343019.840400219 L 614049.6585998535,3343058.5441999435 L 614053.2316999435,3343084.9611001015 L 614057.7442002296,3343114.158199787 L 614061.9271998405,3343128.5015001297 L 614066.5216999054,3343139.8548998833 L 614077.0901999474,3343160.467999935 L 614101.3137001991,3343191.7544999123 L 614121.8429999352,3343216.5753998756 L 614132.6184000969,3343226.4358000755 L 614147.4359002113,3343245.8800001144 L 614184.2031998634,3343292.370999813 L 614189.0430998802,3343298.409599781 L 614192.7529001236,3343302.543700218 L 614243.934899807,3343360.6020998955 L 614259.2417001724,3343370.4065999985 L 614273.8073000908,3343376.6498999596 L 614288.6651000977,3343382.2424998283 L 614299.714799881,3343384.0183000565 L 614309.6248998642,3343384.7842001915 L 614367.638999939,3343387.1620001793 L 614371.4904999733,3343387.649600029 L 614415.5012998581,3343403.62169981 L 614590.3378000259,3343483.5879001617 L 614592.5406999588,3343484.609000206 L 614630.7550001144,3343503.3000998497 L 614632.5665001869,3343504.5408000946 L 614668.2304000854,3343527.3007998466 L 614701.4720001221,3343551.807700157 L 614750.369699955,3343589.0055999756 L 614769.4159002304,3343608.270699978 L 614781.106400013,3343623.1311001778 L 614792.684899807,3343638.773300171 L 614800.3007001877,3343655.4751000404 L 614807.1511001587,3343654.4457001686 L 614818.1634001732,3343650.680900097 L 614850.1880002022,3343634.4977998734 L 614870.9802999496,3343634.8276000023 L 614935.4032998085,3343641.0440998077 L 614987.118999958,3343629.6192998886 L 614997.5416002274,3343626.84649992 L 615005.5467000008,3343625.3818998337 L 615076.2836999893,3343608.384200096 L 615089.79129982,3343604.981400013 L 615104.3611998558,3343601.7017002106 L 615179.252699852,3343583.535099983 L 615282.9549999237,3343553.1452999115 L 615301.4017000198,3343547.136199951 L 615322.8522000313,3343539.162799835 L 615382.3017997742,3343515.182300091 L 615446.8927001953,3343469.420100212 L 615467.0637001991,3343454.8944997787 L 615480.4415001869,3343446.60379982 L 615492.2867999077,3343436.8688001633 L 615703.9644999504,3343281.489299774 L 615719.2877998352,3343270.79309988 L 615732.1557002068,3343264.1663999557 L 615953.6392998695,3343147.0254001617 L 615962.7431998253,3343141.4689998627 L 615968.5482001305,3343138.759900093 L 616039.651599884,3343096.621799946 L 616088.7052998543,3343073.1964001656 L 616101.4725999832,3343067.1280999184 L 616106.0243000984,3343074.162899971 L 616140.3147997856,3343126.8387999535 L 616172.8600001335,3343171.1845998764 L 616208.5148000717,3343212.569200039 L 616234.3877000809,3343232.908100128 L 616249.8358001709,3343246.373600006 L 616269.3881998062,3343264.2019000053 L 616291.3249001503,3343283.0535998344 L 616314.6680002213,3343296.4911999702 L 616337.2143998146,3343312.4756999016 L 616492.5771999359,3343384.9447999 L 616505.7083001137,3343390.1865000725 L 616498.0289998055,3343406.5123000145 L 616492.4952001572,3343420.3056001663 L 616490.1840000153,3343429.4784998894 L 616489.4024000168,3343439.553800106 L 616490.1873002052,3343464.9432997704 L 616490.1684999466,3343466.715499878 L 616489.8495001793,3343487.774000168 L 616489.1149997711,3343493.418900013 L 616486.908299923,3343501.706600189 L 616483.2648000717,3343509.316599846 L 616458.8762001991,3343548.7375998497 L 616448.7487001419,3343569.2444000244 L 616422.3207001686,3343610.200799942 L 616408.35379982,3343629.1093997955 L 616362.4320998192,3343684.2610001564 L 616351.6461000443,3343694.350299835 L 616339.4205999374,3343703.1939997673 L 616311.2925000191,3343732.491499901 L 616298.2199001312,3343748.6477999687 L 616287.2058000565,3343761.4963998795 L 616270.5645999908,3343779.0514998436 L 616264.646999836,3343783.419499874 L 616245.2856998444,3343793.305900097 L 616231.2479000092,3343801.020599842 L 616191.3242998123,3343826.4246001244 L 616181.7214999199,3343833.4120001793 L 616177.4333000183,3343838.244699955 L 616161.7013998032,3343869.557799816 L 616159.452799797,3343872.8635001183 L 616156.7107000351,3343877.0415000916 L 616133.0819001198,3343899.624400139 L 616127.3534998894,3343904.106299877 L 616107.8838000298,3343916.0908999443 L 616097.6419000626,3343919.750599861 L 616093.5710000992,3343922.0390000343 L 616089.2947001457,3343925.761899948 L 616083.9436001778,3343931.357699871 L 616084.6930999756,3343933.2497000694 L 616182.5911998749,3344105.1925997734 L 616213.756000042,3344161.168900013 L 616242.8298001289,3344215.3420000076 L 616304.6331000328,3344341.6897001266 L 616345.5795001984,3344419.268099785 L 616424.3428001404,3344561.1936998367 L 616495.2604999542,3344698.3892002106 L 616578.617099762,3344851.897600174 L 616586.9306001663,3344866.0686998367 L 616595.7142000198,3344881.5609998703 L 616584.5848999023,3344887.4299001694 L 616449.2729997635,3344959.258500099 L 616320.9710001945,3345023.2828001976 L 616261.6220002174,3345056.236700058 L 616241.4794001579,3345067.4383997917 L 616156.184800148,3345115.0854997635 L 616100.9014000893,3345146.302400112 L 616061.3902001381,3345169.161600113 L 616020.4250001907,3345193.003399849 L 615921.8425002098,3345250.5928997993 L 615855.406899929,3345289.236700058 L 615836.8748998642,3345303.5527000427 L 615821.8386001587,3345315.144299984 L 615806.6950998306,3345327.0703001022 L 615800.1936001778,3345331.9822998047 L 615792.5328998566,3345337.776599884 L 615783.4906997681,3345346.661699772 L 615769.9623999596,3345360.376900196 L 615753.7245998383,3345376.050600052 L 615729.3575000763,3345405.057700157 L 615707.0110998154,3345434.301300049 L 615691.7543001175,3345456.970200062 L 615676.179500103,3345482.7411999702 L 615668.5520000458,3345494.4110999107 L 615631.7410001755,3345572.052000046 L 615606.0093998909,3345629.637700081 L 615546.2845001221,3345772.4278998375 L 615533.3755002022,3345800.4457001686 L 615488.8551001549,3345897.736100197 L 615470.9784998894,3345932.0149002075 L 615409.1315999031,3346074.676199913 L 615349.6758999825,3346209.6026000977 L 615343.659599781,3346223.499499798 L 615337.564499855,3346235.8473000526 L 615217.1222000122,3346506.2382001877 L 615195.4439997673,3346554.4526000023 L 615158.9183998108,3346641.7409000397 L 615130.8365001678,3346694.7557001114 L 615121.8917999268,3346712.6121997833 L 615097.7019000053,3346753.1444997787 L 615084.4046998024,3346773.071100235 L 615066.122399807,3346800.144299984 L 615058.5092000961,3346810.5920000076 L 615051.5661997795,3346820.6080999374 L 615042.7849001884,3346832.815299988 L 615025.3845000267,3346858.2378001213 L 615039.5799999237,3346881.111000061 L 615051.597799778,3346900.6326999664 L 615054.4275999069,3346906.089700222 L 615068.5689001083,3346933.28000021 L 615078.2881999016,3346951.891600132 L 615091.9643998146,3346978.087800026 L 615126.1887001991,3347045.277200222 L 615129.097099781,3347052.291800022 L 615220.6494998932,3347304.081299782 L 615281.4865999222,3347493.480700016 L 615333.0036001205,3347654.1824998856 L 615365.8379998207,3347715.9272999763 L 615430.1483001709,3347813.256700039 L 615454.4475002289,3347844.9903998375 L 615481.6515002251,3347874.2090001106 L 615528.1676001549,3347916.265299797 L 615556.5044999123,3347938.8393001556 L 615597.7841000557,3347965.9878997803 L 615667.451499939,3348010.8348999023 L 615688.2860999107,3348024.359799862 L 615742.660299778,3348059.628200054 L 615915.6514000893,3348169.5208001137 L 615980.3512001038,3348210.6613998413 L 616020.484000206,3348237.360300064 L 616060.5117998123,3348264.1613001823 L 616247.1921000481,3348389.0633997917 L 616427.9053001404,3348504.1518001556 L 616447.6873002052,3348517.330999851 L 616522.4861998558,3348567.4477000237 L 616663.0562000275,3348657.3951001167 L 616678.3446002007,3348667.2070999146 L 616719.097799778,3348688.9177999496 L 616751.7417001724,3348704.3415999413 L 616798.7655000687,3348724.795100212 L 616806.1420998573,3348727.643000126 L 617091.785200119,3348837.10160017 L 617103.5542001724,3348842.98939991 L 617110.2505998611,3348846.389100075 L 617117.043200016,3348849.678199768 L 617135.8022999763,3348858.9689002037 L 617211.6979999542,3348896.579899788 L 617369.6226000786,3348991.26940012 L 617550.4347000122,3349113.6904001236 L 617575.8032999039,3349134.352399826 L 617612.5216999054,3349164.458199978 L 617615.0928001404,3349166.480899811 L 617742.2895002365,3349264.0508999825 L 617895.2635998726,3349388.952700138 L 617904.8653998375,3349399.3667998314 L 617953.859000206,3349450.656300068 L 618027.048500061,3349550.981200218 L 618034.6255002022,3349561.5968999863 L 618118.7460999489,3349692.2908000946 L 618128.6859998703,3349707.360499859 L 618141.3650999069,3349726.458199978 L 618153.9566001892,3349745.658199787 L 618144.8917999268,3349755.973499775 L 618137.6915001869,3349764.099100113 L 618132.1360998154,3349770.3593001366 L 618124.0521998405,3349779.472700119 L 618101.0671000481,3349805.597199917 L 618060.6834998131,3349856.7026000023 L 618047.4791002274,3349868.6413002014 L 618034.163599968,3349880.4671001434 L 617990.0696001053,3349919.8980998993 L 617902.6960000992,3349984.2371001244 L 617842.6659998894,3350028.5868000984 L 617824.4204001427,3350043.248600006 L 617662.7508997917,3350172.9542999268 L 617642.5506000519,3350191.026000023 L 617565.4246997833,3350259.913099766 L 617389.1364998817,3350417.2957000732 L 617304.7737998962,3350497.3001999855 L 617051.498000145,3350774.894299984 L 616959.7039999962,3350875.5489001274 L 616923.2080001831,3350915.500100136 L 616862.3073000908,3351033.22480011 L 616818.3066000938,3351118.0966000557 L 616814.6146001816,3351148.209599972 L 616809.9938001633,3351185.182199955 L 616790.109099865,3351344.5774002075 L 616791.2821998596,3351351.235899925 L 616791.7702999115,3351377.5068998337 L 616795.6245999336,3351413.021800041 L 616795.9868998528,3351442.171500206 L 616798.02120018,3351467.684999943 L 616798.2190999985,3351485.5356001854 L 616795.6982998848,3351523.3034000397 L 616795.068500042,3351528.0595998764 L 616793.5592999458,3351534.2508997917 L 616787.011300087,3351552.6912999153 L 616783.5949001312,3351566.737400055 L 616768.5893998146,3351611.6877999306 L 616766.5251002312,3351615.65500021 L 616759.8000998497,3351632.872499943 L 616758.0057997704,3351639.060599804 L 616757.4710998535,3351643.817900181 L 616756.4823999405,3351646.584300041 L 616760.4899001122,3351676.6578001976 L 616760.206099987,3351685.415500164 L 616768.3968000412,3351719.4197001457 L 616770.0611000061,3351726.1950001717 L 616759.7452998161,3351728.5262999535 L 616770.5138001442,3351728.3062000275 L 616781.0033998489,3351772.754700184 L 616784.0736999512,3351782.984000206 L 616785.0399999619,3351791.196100235 L 616792.2755999565,3351834.500599861 L 616817.2098999023,3351895.283199787 L 616805.189499855,3351922.089700222 L 616801.9154000282,3351930.918399811 L 616796.2648000717,3351938.174200058 L 616786.4897999763,3351943.2795000076 L 616783.8488001823,3351974.51060009 L 616784.5620999336,3352016.0854001045 L 616754.4897999763,3352157.082399845 L 616748.3410000801,3352273.170199871 L 616743.3501000404,3352361.785099983 L 616748.5879001617,3352376.14620018 L 616766.8000001907,3352417.459599972 L 616769.0689997673,3352421.8080000877 L 616790.7249999046,3352465.0408000946 L 616829.7197999954,3352532.624300003 L 616887.0392999649,3352622.797999859 L 616924.8826999664,3352690.4804000854 L 616942.0062999725,3352726.0215001106 L 616956.6698999405,3352749.234600067 L 616977.3187999725,3352778.271399975 L 617014.9805998802,3352827.331299782 L 617047.1480998993,3352868.2428998947 L 617087.8319001198,3352921.444099903 L 617114.2189998627,3352954.3076000214 L 617183.4277000427,3353038.2975001335 L 617208.2789001465,3353070.920899868 L 617261.1873002052,3353149.7410001755 L 617353.214799881,3353294.3811001778 L 617389.0782999992,3353348.8534998894 L 617411.7649002075,3353394.6567997932 L 617447.3355998993,3353476.2807002068 L 617461.6008000374,3353509.0215997696 L 617508.6128001213,3353581.4586000443 L 617510.2953000069,3353586.4709000587 L 617575.0109000206,3353791.7748999596 L 617694.5971999168,3354170.910299778 L 617696.5612001419,3354229.896399975 L 617710.7551999092,3354661.437300205 L 617663.0718998909,3354981.0254001617 L 617666.2740998268,3355120.605000019 L 617622.8494000435,3355304.2430000305 L 617415.708799839,3355807.215400219 L 617302.9741997719,3356043.302499771 L 617187.8804998398,3356231.7157998085 L 617176.5313000679,3356250.216700077 L 617147.2129001617,3356410.613800049 L 617031.7476000786,3356616.531899929 L 616938.9519000053,3356788.333799839 L 616911.2923002243,3356839.5802998543 L 616587.6693000793,3357442.402200222 L 616437.4088001251,3357550.964700222 L 616141.2444000244,3357800.9625000954 L 616119.2248997688,3357819.459599972 L 616097.299200058,3357838.0694999695 L 615948.0307002068,3357971.2623000145 L 615841.1767001152,3358066.885000229 L 615646.6831998825,3358177.206699848 L 615642.5324001312,3358179.3793997765 L 615638.1865000725,3358181.2235999107 L 615668.1206998825,3358241.059800148 L 615678.505300045,3358267.4363999367 L 615683.521900177,3358284.562399864 L 615688.8313999176,3358300.136199951 L 615697.4857997894,3358317.8506999016 L 615715.5363998413,3358346.8604002 L 615725.4450998306,3358364.3646998405 L 615746.3452000618,3358406.370200157 L 615770.7371997833,3358453.7396998405 L 615774.7866997719,3358461.094500065 L 615778.5574002266,3358468.6784000397 L 615951.3394999504,3358798.8133001328 L 616000.2737002373,3358888.009900093 L 616033.1834998131,3358947.771999836 L 616101.4509000778,3359081.394800186 L 616134.9453001022,3359167.203400135 L 616153.3411998749,3359217.831699848 L 616161.7449998856,3359241.09250021 L 616165.1992001534,3359250.7688999176 L 616178.2649998665,3359287.043900013 L 616194.6968998909,3359350.950200081 L 616209.6458997726,3359408.9639000893 L 616229.0178999901,3359503.1679000854 L 616238.9850001335,3359569.220600128 L 616242.4093999863,3359608.3814997673 L 616249.3990998268,3359709.874499798 L 616251.4260997772,3359735.9443001747 L 616252.9579000473,3359755.0243000984 L 616254.4774999619,3359774.4390997887 L 616255.7488999367,3359790.414800167 L 616268.188199997,3359949.154200077 L 616285.8309998512,3360087.8959999084 L 616304.5914998055,3360148.609799862 L 616335.7206997871,3360221.765999794 L 616344.6016998291,3360236.602499962 L 616367.9163999557,3360275.8705000877 L 616448.3990001678,3360380.136300087 L 616451.3369002342,3360383.9390001297 L 616528.00330019,3360459.024600029 L 616641.0894999504,3360569.9618000984 L 616663.3358998299,3360591.9253997803 L 616675.2325000763,3360603.2462000847 L 616685.2168998718,3360613.3352999687 L 616717.4562001228,3360645.3793997765 L 616779.459400177,3360706.7867999077 L 617027.0813999176,3360951.957300186 L 617177.6111998558,3361101.103199959 L 617180.0795998573,3361103.5693001747 L 617388.5040001869,3361311.4246997833 L 617522.3642001152,3361445.2129998207 L 617532.7512001991,3361453.8548998833 L 617541.8625998497,3361464.7076997757 L 617681.3289999962,3361604.208799839 L 617710.6539998055,3361629.7968001366 L 617731.4173998833,3361647.200699806 L 617747.2090997696,3361661.338300228 L 617778.021999836,3361682.621799946 L 618027.5142998695,3361831.631000042 L 618041.265299797,3361839.6567001343 L 618056.6381001472,3361848.5762000084 L 618129.7090997696,3361889.490600109 L 618137.8299999237,3361893.6845998764 L 618141.1771001816,3361895.4903001785 L 618306.3994998932,3361989.621799946 L 618363.7006998062,3362022.2747998238 L 618410.8322000504,3362053.374300003 L 618461.0012998581,3362088.5096998215 L 618465.8580999374,3362092.771299839 L 618481.4632000923,3362106.460800171 L 618467.3262000084,3362142.665400028 L 618438.8706998825,3362232.577199936 L 618418.665599823,3362296.53579998 L 618415.2126002312,3362304.4776000977 L 618411.1922998428,3362312.1984000206 L 618392.7066998482,3362341.9218001366 L 618324.8604001999,3362404.3653001785 L 618360.1173000336,3362449.3003001213 L 618376.4847998619,3362481.738800049 L 618381.6174001694,3362530.451300144 L 618375.4675998688,3362556.9844999313 L 618360.5061001778,3362580.9823999405 L 618262.4004001617,3362678.121099949 L 618237.034599781,3362713.540699959 L 618215.8604998589,3362760.411600113 L 618213.0366001129,3362773.2383999825 L 618214.325799942,3362804.7302999496 L 618216.431499958,3362823.047200203 L 618216.6778001785,3362836.1305999756 L 618215.4597001076,3362850.520599842 L 618210.9538002014,3362867.2111001015 L 618201.6791000366,3362889.8359999657 L 618194.0815000534,3362908.2621002197 L 618188.327799797,3362924.6040000916 L 618186.3463997841,3362938.5475997925 L 618186.8860001564,3362950.852399826 L 618188.6300001144,3362967.4990000725 L 618195.0728001595,3362984.6431999207 L 618204.0391001701,3362999.9253001213 L 618218.5311999321,3363019.037799835 L 618236.8386001587,3363040.510799885 L 618247.320400238,3363057.698800087 L 618253.3207998276,3363071.067699909 L 618264.5416998863,3363099.6693000793 L 618294.7344999313,3363186.234799862 L 618302.7588000298,3363207.9393000603 L 618311.1259999275,3363225.0954999924 L 618355.2972998619,3363298.5089001656 L 618393.3881998062,3363365.0967998505 L 618407.1482000351,3363425.210199833 L 618404.2130999565,3363536.241399765 L 618394.9509000778,3363574.3838000298 L 618374.3977999687,3363653.076499939 L 618370.1159000397,3363693.5999999046 L 618379.3179001808,3363739.4745998383 L 618392.2610998154,3363804.0083999634 L 618393.075799942,3363808.457300186 L 618393.340400219,3363837.2727999687 L 618388.6507000923,3363853.410099983 L 618379.290500164,3363883.125500202 L 618374.5550999641,3363903.4616999626 L 618373.7214999199,3363918.19810009 L 618375.4783000946,3363933.6238999367 L 618378.4093999863,3363946.6234998703 L 618393.1006999016,3363991.672200203 L 618379.4492998123,3364000.9443998337 L 618364.5309000015,3364012.4271001816 L 618353.2583999634,3364024.378900051 L 618346.6194000244,3364034.062399864 L 618340.5514998436,3364044.413400173 L 618334.7908000946,3364061.4232997894 L 618331.7564997673,3364075.3540000916 L 618305.5753002167,3364167.730800152 L 618281.5289998055,3364232.0914998055 L 618265.7987999916,3364273.8194999695 L 618245.2245001793,3364328.461900234 L 618240.7902002335,3364338.60710001 L 618223.1504001617,3364378.9829001427 L 618200.6908998489,3364421.30700016 L 618162.4137001038,3364487.2807002068 L 618155.9784998894,3364530.6631999016 L 618151.4672999382,3364601.1079998016 L 618150.6472997665,3364614.6241998672 L 618148.5637001991,3364647.5167999268 L 618146.9240999222,3364710.2378001213 L 618154.9492001534,3364757.9843001366 L 618182.2133998871,3364795.1886000633 L 618213.9284000397,3364820.6939001083 L 618270.3056998253,3364857.5535998344 L 618292.5310997963,3364889.8340997696 L 618301.4791998863,3364924.065299988 L 618308.6399002075,3364954.404200077 L 618311.970799923,3364975.0580000877 L 618313.5097999573,3364993.0303997993 L 618312.4937000275,3365007.0935001373 L 618311.2662000656,3365013.6234002113 L 618309.05919981,3365022.134900093 L 618333.4099998474,3365035.9159998894 L 618350.0423998833,3365043.6364998817 L 618360.6726999283,3365046.190899849 L 618375.2561001778,3365047.9039998055 L 618372.7361998558,3365094.6500000954 L 618379.176199913,3365111.9025998116 L 618393.8164000511,3365151.9657001495 L 618451.0669999123,3365135.406899929 L 618510.0314998627,3365137.3805999756 L 618594.0929999352,3365181.1893000603 L 618647.8225998878,3365222.3488001823 L 618672.8984999657,3365266.0721998215 L 618767.045800209,3365248.3639001846 L 618777.7107000351,3365310.108399868 L 618779.8232002258,3365327.6486001015 L 618763.160299778,3365393.0781998634 L 618821.6125001907,3365424.4232997894 L 618853.867099762,3365453.155099869 L 618920.4299998283,3365506.6399998665 L 618903.9981999397,3365524.8614001274 L 618897.1002001762,3365531.432099819 L 618889.6521000862,3365536.2277998924 L 618880.1812000275,3365541.3362998962 L 618872.7463998795,3365544.912899971 L 618863.9704999924,3365548.0282998085 L 618855.8819999695,3365549.8288998604 L 618794.4959001541,3365558.800499916 L 618728.6911001205,3365593.879099846 L 618663.1642999649,3365630.4120001793 L 618653.2484998703,3365640.7192997932 L 618743.9230999947,3365808.6399002075 L 618756.7649002075,3365829.0613999367 L 618753.3720002174,3365831.574500084 L 618717.6764001846,3365863.5467000008 L 618707.9906997681,3365870.9797000885 L 618699.964799881,3365875.769100189 L 618675.703400135,3365889.577199936 L 618718.4756999016,3365966.5315999985 L 618756.4253001213,3366036.2204999924 L 618770.7494001389,3366061.5348000526 L 618785.1694002151,3366086.7470002174 L 618826.2744002342,3366166.885000229 L 618831.9159002304,3366186.789299965 L 618833.5377001762,3366204.98390007 L 618833.078400135,3366220.9404997826 L 618831.0964999199,3366234.888400078 L 618828.3832001686,3366246.2697000504 L 618823.2501001358,3366276.1445999146 L 618822.7291002274,3366297.750100136 L 618824.045800209,3366326.4762001038 L 618864.6726999283,3366414.703999996 L 618907.7811999321,3366496.089600086 L 618951.4793000221,3366584.2470002174 L 618997.9974999428,3366669.3267002106 L 619043.1921000481,3366752.287899971 L 619058.158299923,3366780.2695999146 L 619073.0282001495,3366808.370399952 L 619077.170800209,3366816.168700218 L 619083.623000145,3366832.097199917 L 619097.3770999908,3366865.938000202 L 619103.9839000702,3366885.079100132 L 619109.4530000687,3366903.3147997856 L 619113.3228998184,3366917.875500202 L 619121.581099987,3366944.5728001595 L 619127.2312998772,3366954.937399864 L 619133.9485998154,3366963.9916000366 L 619144.9896998405,3366982.3998999596 L 619152.6208000183,3366995.456299782 L 619160.5343999863,3367009.503200054 L 619134.3509998322,3367024.0689997673 L 618915.2687001228,3367145.8140001297 L 618843.2718000412,3367185.3687000275 L 618539.1326999664,3367347.9816999435 L 618566.6054000854,3367347.946800232 L 618594.0694999695,3367347.9117999077 L 618730.91629982,3367359.494599819 L 618917.652200222,3367374.9478001595 L 619044.8758001328,3367387.536600113 L 619164.5437002182,3367397.4942998886 L 619265.5279998779,3367411.6866002083 L 619389.5237002373,3367429.0089001656 L 619682.6925997734,3367470.585700035 L 619554.8138999939,3367849.1420998573 L 619523.1370000839,3367943.5613999367 L 619482.8232998848,3368063.1584000587 L 619478.3548998833,3368076.415599823 L 619504.6599001884,3368085.8991999626 L 619509.3505001068,3368087.727900028 L 619515.0886998177,3368090.005899906 L 619550.1809000969,3368103.8101000786 L 619602.5900001526,3368124.5527000427 L 619608.516600132,3368126.9530000687 L 619622.8558998108,3368133.206099987 L 619626.006000042,3368134.6830000877 L 619629.6381001472,3368136.2683000565 L 619638.7136001587,3368140.2484998703 L 619685.3768000603,3368159.382900238 L 619752.7753000259,3368187.6139998436 L 619779.0553002357,3368199.3214998245 L 619794.8382000923,3368213.9092001915 L 619969.210100174,3368295.97149992 L 620060.6754999161,3368336.110899925 L 620062.2490000725,3368332.6944999695 L 620065.4995999336,3368325.8541998863 L 620137.2649002075,3368176.0142998695 L 620143.4176001549,3368166.5534000397 L 620148.3812999725,3368160.8393998146 L 620157.1097998619,3368153.2870998383 L 620178.7951002121,3368137.34499979 L 620282.4291000366,3368076.759900093 L 620294.0157999992,3368071.34250021 L 620304.0411000252,3368067.461599827 L 620315.2248001099,3368064.15170002 L 620326.8548002243,3368063.396299839 L 620395.603000164,3368091.2003002167 L 620434.1579999924,3368130.310599804 L 620541.4808001518,3368204.660099983 L 620557.5022997856,3368162.7130999565 L 620576.2301001549,3368041.77339983 L 620590.6912999153,3367984.9651999474 L 620603.5095000267,3367989.872200012 L 620638.1620998383,3367999.6746997833 L 620682.8611001968,3368013.803999901 L 620733.6036000252,3368028.3355998993 L 620759.3456997871,3368036.3825001717 L 620773.1065998077,3368042.6307001114 L 620828.6932997704,3368070.7375998497 L 620873.8859000206,3368092.4106001854 L 620884.4029998779,3368096.29640007 L 620893.7850999832,3368099.0620999336 L 620899.5390000343,3368099.907400131 L 620993.7396998405,3368110.4857997894 L 621019.728099823,3368113.4366998672 L 621033.2448000908,3368116.0254001617 L 621038.4120998383,3368117.6367998123 L 621040.6118998528,3368118.4340000153 L 621045.7779998779,3368120.157000065 L 621056.3664999008,3368126.91960001 L 621069.1311001778,3368136.5995998383 L 621077.657599926,3368146.446899891 L 621080.6991000175,3368149.9147000313 L 621091.507900238,3368162.448699951 L 621095.7754001617,3368167.372399807 L 621244.7483000755,3368045.448800087 L 621302.4303002357,3367997.8807001114 L 621376.8719000816,3367936.8586001396 L 621387.8222999573,3367928.2244000435 L 621585.3937997818,3367773.261300087 L 621795.2887997627,3367607.8003997803 L 621846.5402002335,3367568.583000183 L 621917.2651000023,3367514.0622000694 L 621973.1405000687,3367473.4545998573 L 622004.189499855,3367454.632400036 L 622065.9584999084,3367419.41410017 L 622277.079199791,3367291.2139000893 L 622364.9850997925,3367238.4416999817 L 622378.4340000153,3367229.5097999573 L 622389.8440999985,3367223.0961999893 L 622436.7046999931,3367198.683499813 L 622525.476099968,3367145.8102998734 L 622538.6268000603,3367138.0942001343 L 622647.4147000313,3367073.255899906 L 622681.4688000679,3367052.1420998573 L 622694.5250000954,3367044.4165000916 L 622742.2211999893,3367014.141499996 L 622824.9836997986,3366966.4133000374 L 622890.491300106,3366932.244599819 L 622999.2382001877,3366872.172999859 L 623074.4338002205,3366830.688099861 L 623096.7536997795,3366819.521800041 L 623115.2017998695,3366810.4237999916 L 623274.9361000061,3366709.59100008 L 623375.7297000885,3366655.759300232 L 623391.8961000443,3366644.746799946 L 623408.5903000832,3366638.1707000732 L 623537.9388999939,3366574.4643001556 L 623551.2683000565,3366567.8586001396 L 623590.8148999214,3366545.1431999207 L 623637.7814002037,3366528.608500004 L 623663.1968998909,3366515.4862999916 L 623671.2006998062,3366512.8041000366 L 623693.2616000175,3366507.0707001686 L 623737.2404999733,3366491.4983000755 L 623791.6494002342,3366463.294400215 L 624049.2936000824,3366327.0163002014 L 624067.1979999542,3366315.8010001183 L 624323.295899868,3366172.751999855 L 624333.3520998955,3366167.2171998024 L 624356.0949997902,3366152.511300087 L 624363.8373999596,3366147.834499836 L 624371.4762001038,3366143.1564998627 L 624394.1142001152,3366129.333899975 L 624416.7547001839,3366115.296599865 L 624438.5300002098,3366101.46420002 L 624448.8798999786,3366095.160099983 L 624453.6280999184,3366091.2217001915 L 624466.9930000305,3366081.6206002235 L 624490.0601000786,3366064.2568001747 L 624513.9953999519,3366045.692299843 L 624536.9436001778,3366030.439400196 L 624595.6859002113,3365984.4450001717 L 624608.0036997795,3365973.6125998497 L 624707.9878997803,3365891.5124998093 L 624762.9857997894,3365862.107699871 L 624770.4883999825,3365853.547100067 L 624783.9570999146,3365851.4862999916 L 624915.1539001465,3365778.727300167 L 624921.6501002312,3365765.3894000053 L 624933.2294998169,3365769.2920999527 L 624994.0233001709,3365737.2927999496 L 625018.2821998596,3365724.4942002296 L 625026.6107001305,3365710.1813998222 L 625038.7657999992,3365714.3055000305 L 625084.1261000633,3365687.8993000984 L 625154.8998999596,3365648.1413998604 L 625244.151599884,3365597.8459000587 L 625256.2186999321,3365584.9071002007 L 625268.9096999168,3365583.7224001884 L 625372.6684999466,3365525.282700062 L 625503.3041000366,3365451.7572999 L 625511.0092000961,3365441.4217000008 L 625520.1156001091,3365443.5190000534 L 625756.9932999611,3365321.229400158 L 625769.5795998573,3365312.7277998924 L 625782.2642002106,3365304.6739001274 L 625786.2284998894,3365302.169400215 L 625818.0513000488,3365283.2509999275 L 625887.9429001808,3365246.371099949 L 626134.3401999474,3365115.8847999573 L 626147.4088997841,3365107.500699997 L 626160.6444001198,3365101.1107997894 L 626211.9770998955,3365073.669000149 L 626221.068500042,3365068.896999836 L 626234.3078999519,3365062.180799961 L 626286.4001002312,3365035.5124998093 L 626301.8653998375,3365027.379600048 L 626316.5395002365,3365021.2297000885 L 626552.1866002083,3364890.6247000694 L 626569.9468002319,3364884.07310009 L 626583.4623999596,3364878.1333999634 L 626655.2996997833,3364839.175499916 L 626659.4538002014,3364837.454899788 L 626745.5781002045,3364801.2143998146 L 626762.4967999458,3364792.1027002335 L 626773.8854999542,3364787.246099949 L 626846.7795000076,3364756.9492001534 L 626862.1378002167,3364749.923399925 L 626915.9207000732,3364734.6984000206 L 626947.3097000122,3364728.8559999466 L 626968.7691001892,3364726.3327999115 L 626995.9612002373,3364725.877500057 L 627009.673500061,3364728.25330019 L 627029.2399997711,3364731.144100189 L 627078.6614999771,3364744.2511000633 L 627152.8474998474,3364759.3053002357 L 627196.8312001228,3364761.365600109 L 627221.9763998985,3364755.1247000694 L 627250.1592998505,3364744.479499817 L 627300.0626001358,3364740.7442002296 L 627270.6357998848,3364554.6213998795 L 627257.7115998268,3364451.716700077 L 627260.3474001884,3364407.184899807 L 627271.1352000237,3364232.5114998817 L 627273.3063001633,3364219.5689001083 L 627280.5310997963,3364176.7561001778 L 627286.728000164,3364139.916900158 L 627300.633699894,3364084.5487999916 L 627325.6036000252,3364003.47660017 L 627340.9078001976,3363960.654399872 L 627361.7562999725,3363911.6791000366 L 627387.6009001732,3363854.010700226 L 627409.6399998665,3363802.1718001366 L 627411.2190999985,3363798.5315999985 L 627419.8134999275,3363778.1231999397 L 627431.5398001671,3363777.7109999657 L 627438.6538000107,3363777.571000099 L 627453.5437002182,3363777.5222001076 L 627465.5673999786,3363776.778600216 L 627474.6972999573,3363776.2242999077 L 627505.8955998421,3363754.5262999535 L 627599.5134000778,3363702.9770998955 L 627714.7871999741,3363623.6325998306 L 627936.3684000969,3363500.4310998917 L 628003.5914001465,3363463.088399887 L 628108.1333999634,3363405.684100151 L 628214.519299984,3363347.1943001747 L 628236.6737999916,3363335.0360999107 L 628259.6543998718,3363317.244800091 L 628331.8982000351,3363261.341899872 L 628395.9025001526,3363203.684299946 L 628481.8597998619,3363126.2136001587 L 628531.4875001907,3363081.4671998024 L 628709.4449000359,3362919.631700039 L 628827.91629982,3362855.9710998535 L 628889.0454998016,3362822.106500149 L 628950.277200222,3362788.3635001183 L 629016.3411998749,3362751.903699875 L 629090.1459999084,3362711.3186001778 L 629165.4896001816,3362669.8674001694 L 629239.3600001335,3362623.8639001846 L 629277.0706000328,3362603.9120998383 L 629379.8706002235,3362549.8267002106 L 629482.5696001053,3362495.6205000877 L 629510.2495999336,3362503.2681999207 L 629543.2513999939,3362515.634900093 L 629575.533299923,3362532.6399002075 L 629597.7736001015,3362553.4165000916 L 629612.5127000809,3362574.8766999245 L 629828.3885002136,3362434.3492999077 L 629825.8407001495,3362430.1015000343 L 629811.2091999054,3362391.686100006 L 629763.7534999847,3362261.545100212 L 629756.0,3362242.8302001953 L 629747.8389000893,3362226.438099861 L 629701.3740000725,3362101.4011998177 L 629642.1588997841,3362005.923600197 L 629562.2069001198,3361900.2258000374 L 629532.3605999947,3361864.840499878 L 629501.054599762,3361830.2196002007 L 629470.2951998711,3361790.279300213 L 629418.410200119,3361724.9272999763 L 629363.7483000755,3361658.545800209 L 629328.689499855,3361616.3379998207 L 629299.0157999992,3361590.2748999596 L 629252.7494997978,3361561.2402000427 L 629240.5303997993,3361554.2143998146 L 629219.4007000923,3361545.098400116 L 629197.6925997734,3361535.975500107 L 629110.7583999634,3361500.024600029 L 628992.4429001808,3361452.2943000793 L 628946.8857998848,3361428.1398000717 L 628925.9359002113,3361411.819099903 L 628914.7996997833,3361402.2635998726 L 628895.7996001244,3361383.8614001274 L 628878.2582001686,3361364.033299923 L 628870.1975002289,3361354.2994999886 L 628838.366399765,3361307.5862002373 L 628809.5760002136,3361255.591199875 L 628766.0090999603,3361193.0009999275 L 628738.5436000824,3361158.872499943 L 628704.176199913,3361130.8647999763 L 628691.4486999512,3361117.854300022 L 628671.0100998878,3361099.0999999046 L 628661.1105999947,3361090.7876000404 L 628651.9625000954,3361083.910099983 L 628636.4170999527,3361074.087800026 L 628407.5883998871,3360943.2484998703 L 628279.2795000076,3360869.4622998238 L 628266.7662000656,3360863.112400055 L 628247.6805000305,3360851.8055000305 L 628231.4709000587,3360840.412199974 L 628215.478000164,3360827.4752001762 L 628200.7550001144,3360813.0068001747 L 628184.0451002121,3360794.9670000076 L 628171.2680001259,3360778.7431998253 L 628160.6739001274,3360764.1001000404 L 628155.5652999878,3360757.2704000473 L 628136.1413998604,3360724.791800022 L 628106.8938999176,3360670.136300087 L 628050.0162000656,3360562.7165999413 L 628039.4246001244,3360539.7572999 L 628031.8084001541,3360525.149000168 L 627985.2975997925,3360442.798600197 L 627937.8934998512,3360346.03000021 L 627936.3933000565,3360342.910999775 L 627928.4114999771,3360318.9854002 L 627921.3787999153,3360295.8442001343 L 627917.2189998627,3360273.6300997734 L 627914.5998001099,3360251.099100113 L 627915.9149999619,3360204.5588002205 L 627929.1746001244,3359959.3035998344 L 627933.117000103,3359926.539199829 L 627940.1718001366,3359890.4864997864 L 627946.4429001808,3359847.662899971 L 627951.5819001198,3359794.627600193 L 627954.2021999359,3359751.657599926 L 627944.5862998962,3359702.8818998337 L 627933.6252999306,3359678.9200000763 L 627908.6930999756,3359624.0959000587 L 627733.4539999962,3359305.689599991 L 627729.131000042,3359297.321899891 L 627724.5064997673,3359289.6208000183 L 627607.7589998245,3359072.3267998695 L 627604.7554001808,3359066.3028998375 L 627601.6424999237,3359061.5064001083 L 627488.7372999191,3358860.777400017 L 627469.546599865,3358824.8605999947 L 627403.372399807,3358704.593100071 L 627398.2946000099,3358695.004799843 L 627393.8748002052,3358686.747399807 L 627348.9161000252,3358601.9816999435 L 627341.5721998215,3358588.2596998215 L 627335.741300106,3358577.3306999207 L 627333.6712999344,3358573.4226999283 L 627330.2684001923,3358568.2876000404 L 627325.6585998535,3358560.027900219 L 627253.8312001228,3358413.321899891 L 627250.2733001709,3358405.186200142 L 627248.3956999779,3358401.0655999184 L 627245.5841999054,3358394.8288998604 L 627242.0236001015,3358386.9165000916 L 627221.9334001541,3358321.394999981 L 627151.3495998383,3358026.389100075 L 627143.7305002213,3357995.486000061 L 627137.3130002022,3357968.9191999435 L 627111.0914998055,3357859.542699814 L 627108.3534998894,3357846.9822001457 L 627104.9225001335,3357836.080599785 L 627070.9246001244,3357718.0792999268 L 627037.5629000664,3357660.2795000076 L 627029.9225997925,3357647.438199997 L 627019.7084999084,3357633.1318001747 L 627011.0966000557,3357621.396299839 L 626938.69810009,3357522.7877001762 L 626936.6121997833,3357520.2112002373 L 626934.4351000786,3357517.307099819 L 626869.9616999626,3357432.2045998573 L 626816.2761998177,3357352.8818001747 L 626811.6644001007,3357343.9597001076 L 626803.9079999924,3357332.895699978 L 626665.8113999367,3357088.2058000565 L 626660.9142999649,3357079.2888998985 L 626653.015299797,3357064.1153001785 L 626564.3499999046,3356900.484700203 L 626307.4352002144,3356428.750199795 L 626292.3628001213,3356401.1947999 L 626291.3361001015,3356398.8538999557 L 626276.0500998497,3356374.071899891 L 626279.8225998878,3356372.010099888 L 626288.5145001411,3356368.7848000526 L 626293.9191999435,3356366.7417998314 L 626343.8422999382,3356348.1465997696 L 626464.8456997871,3356294.2371001244 L 626525.4837999344,3356264.12169981 L 626700.5968999863,3356179.4816999435 L 626763.8147001266,3356142.3067998886 L 626820.1458001137,3356110.5954999924 L 626832.8239998817,3356103.3173999786 L 626880.0701999664,3356075.9352002144 L 626986.9267001152,3356014.9897999763 L 627000.6918997765,3356005.6188001633 L 627052.9361000061,3355977.848400116 L 627133.809800148,3355928.246600151 L 627197.9071002007,3355889.983399868 L 627284.8245000839,3355832.5801000595 L 627350.7740998268,3355784.4724001884 L 627458.49669981,3355691.2923998833 L 627465.1034002304,3355685.490799904 L 627482.6721000671,3355671.5061998367 L 627498.257900238,3355662.380300045 L 627549.76060009,3355624.4092001915 L 627558.2255001068,3355616.3088002205 L 627568.914899826,3355606.3435001373 L 627571.0555000305,3355604.2628002167 L 627575.82310009,3355599.883699894 L 627614.8720002174,3355566.2019000053 L 627627.3832998276,3355557.0401000977 L 627607.6751999855,3355548.6013998985 L 627591.8805999756,3355542.3228998184 L 627609.831099987,3355528.2311000824 L 627732.1350998878,3355422.149000168 L 627760.8801999092,3355398.7635998726 L 627924.9422001839,3355266.3461999893 L 628042.3516998291,3355175.9450998306 L 628183.9686999321,3355047.253399849 L 628247.9555997849,3354978.727399826 L 628254.4798002243,3354971.9365000725 L 628278.4296998978,3354946.6125998497 L 628291.2880997658,3354933.019800186 L 628311.1525001526,3354912.074500084 L 628338.4193000793,3354883.1364998817 L 628396.2603001595,3354805.5643000603 L 628413.8273000717,3354775.0680999756 L 628444.366399765,3354722.109700203 L 628510.7592000961,3354571.3685998917 L 628513.2192997932,3354566.40350008 L 628521.6458001137,3354545.555099964 L 628525.133699894,3354534.739900112 L 628532.0206999779,3354513.314599991 L 628535.123000145,3354503.706799984 L 628538.046599865,3354491.6557002068 L 628543.8554000854,3354464.2350001335 L 628563.7137999535,3354370.5859999657 L 628597.2494997978,3354209.370399952 L 628633.2474999428,3354035.768700123 L 628687.4391999245,3353770.7171998024 L 628707.7217001915,3353673.5257000923 L 628735.6581001282,3353539.0721998215 L 628748.4955000877,3353461.519999981 L 628756.3088002205,3353296.4545998573 L 628750.4580001831,3353172.7909998894 L 628746.6895999908,3353093.054399967 L 628745.7677001953,3353081.850500107 L 628744.5585999489,3353070.084400177 L 628730.0718998909,3352976.8010001183 L 628665.8703999519,3352678.8800997734 L 628609.0557999611,3352415.1786999702 L 628606.9602999687,3352405.2842998505 L 628508.4190001488,3351959.9772000313 L 628503.3701000214,3351939.6359000206 L 628502.5275001526,3351937.072500229 L 628499.0879001617,3351926.835100174 L 628492.6890997887,3351882.42140007 L 628453.3382000923,3351686.986000061 L 628439.1764001846,3351622.971399784 L 628344.1883001328,3351193.1194000244 L 628294.038599968,3350966.7375998497 L 628266.910900116,3350843.942299843 L 628260.9130001068,3350854.293300152 L 628259.8224000931,3350841.1936001778 L 628255.3088002205,3350815.6545000076 L 628249.5573000908,3350773.3508000374 L 628248.7926001549,3350764.1413002014 L 628246.991399765,3350754.1458001137 L 628217.2150001526,3350602.15899992 L 628194.1125998497,3350497.034699917 L 628124.2512998581,3350178.5367999077 L 628115.845799923,3350140.6454000473 L 628111.0321002007,3350116.313799858 L 628105.9918999672,3350095.08370018 L 628099.1610999107,3350062.189400196 L 628058.4207000732,3349868.960700035 L 628052.6617999077,3349843.396399975 L 628045.2698998451,3349808.946899891 L 628032.2764000893,3349751.712200165 L 628020.4721999168,3349699.9260001183 L 627948.9272999763,3349384.7323999405 L 627940.9984002113,3349346.6205000877 L 627932.2569999695,3349312.9363999367 L 627909.0331001282,3349217.6718997955 L 627881.045800209,3349142.414299965 L 627877.1244997978,3349131.8421998024 L 627861.859000206,3349096.524600029 L 627834.9724001884,3349034.248000145 L 627701.8256998062,3348785.5103998184 L 627129.5199999809,3348927.1487998962 L 626973.5885000229,3348965.7996001244 L 626796.9977998734,3348985.361800194 L 626514.3678002357,3348930.771999836 L 626504.285900116,3348928.875100136 L 626469.1114997864,3348917.382900238 L 626421.3755002022,3348901.6518998146 L 626308.801199913,3349143.761300087 L 626241.7732000351,3349199.2895998955 L 626215.0808000565,3349236.226699829 L 626148.1034998894,3349287.4386000633 L 626138.8365998268,3349298.081299782 L 626084.0261001587,3349337.5748000145 L 625988.7381000519,3349498.8612999916 L 625847.8729000092,3349617.277999878 L 625850.2178997993,3349622.292699814 L 625871.318500042,3349653.458899975 L 625939.9070000648,3349779.3947000504 L 625963.1447000504,3349824.550499916 L 625885.0724000931,3349828.7502999306 L 625847.0472998619,3349830.857800007 L 625825.6806001663,3349831.8329000473 L 625757.1438999176,3349835.0341000557 L 625702.1726999283,3349838.5036001205 L 625544.1775999069,3349848.546000004 L 625385.673500061,3349853.2704000473 L 625243.3313999176,3349815.7196998596 L 625363.9482998848,3349373.847799778 L 625407.5471000671,3349212.96750021 L 625430.138299942,3349130.9791002274 L 625484.1188998222,3348937.7416000366 L 625576.8447999954,3348595.8628997803 L 625568.2144999504,3348593.209599972 L 625506.2223000526,3348570.7737998962 L 625460.5781998634,3348557.0574002266 L 625379.2947998047,3348529.9718999863 L 625363.9791998863,3348523.139699936 L 625347.8828001022,3348517.3049001694 L 625333.9519000053,3348515.597099781 L 625301.8453998566,3348504.6939001083 L 625292.6992001534,3348504.812699795 L 625239.5328998566,3348484.47480011 L 625236.0799999237,3348483.325799942 L 625225.0357999802,3348465.0184001923 L 625223.8105998039,3348462.570499897 L 625217.8210000992,3348448.1996998787 L 625182.2541999817,3348386.171500206 L 625144.9232997894,3348318.902400017 L 625106.4907999039,3348238.3242998123 L 625053.478700161,3348145.392199993 L 624975.3421998024,3348002.1771998405 L 624903.2418999672,3347869.8927998543 L 624877.3214998245,3347822.7143001556 L 624770.5303001404,3347626.7476000786 L 624717.7513999939,3347530.271399975 L 624658.3902001381,3347410.548399925 L 624632.1059999466,3347411.797100067 L 624650.9229001999,3347399.0496997833 L 624600.8180999756,3347320.3295001984 L 624590.7870001793,3347305.472899914 L 624562.9607000351,3347264.481299877 L 624872.779900074,3347225.557799816 L 624890.8980998993,3347223.330500126 L 624939.2216000557,3347180.1020998955 L 624956.6188001633,3347156.2431001663 L 625027.2039999962,3347059.1753997803 L 625071.1524000168,3346960.9253997803 L 625091.1986999512,3346916.375500202 L 625116.0840001106,3346860.6817002296 L 625232.315199852,3346795.5044999123 L 625331.2266001701,3346763.2715001106 L 625498.5253000259,3346708.6679000854 L 625560.7328000069,3346688.4279999733 L 625573.4289999008,3346689.4597001076 L 625612.3580999374,3346693.1234998703 L 625704.7425999641,3346701.719500065 L 625728.4436001778,3346698.9984002113 L 625828.1798000336,3346687.732699871 L 625917.0258002281,3346677.7789998055 L 625920.7688999176,3346652.9976000786 L 625932.7410998344,3346574.214600086 L 625937.7558999062,3346540.35559988 L 625977.5123000145,3346421.884399891 L 625978.9106001854,3346417.573699951 L 626007.2267999649,3346365.4711999893 L 626089.969399929,3346267.2178997993 L 626131.2895998955,3346206.069200039 L 626163.0415000916,3346156.7754001617 L 626208.309899807,3346077.93419981 L 626279.6701998711,3345948.967400074 L 626297.1996998787,3345914.8122000694 L 626339.0430002213,3345833.272099972 L 626380.9844999313,3345751.5089001656 L 626398.5995001793,3345718.2403001785 L 626419.3421001434,3345738.3169999123 L 626546.0777001381,3345490.1707000732 L 626634.6275000572,3345315.3987002373 L 626637.5904998779,3345308.894899845 L 626691.3289999962,3345189.808499813 L 626716.2090997696,3345110.175600052 L 626733.0243000984,3345046.08039999 L 626741.548500061,3345008.8249001503 L 626752.331099987,3344949.7609000206 L 626724.2971000671,3344944.007900238 L 626724.3161997795,3344934.140399933 L 626726.1953001022,3344846.487999916 L 626726.1192998886,3344836.6194000244 L 626723.7449002266,3344642.073299885 L 626718.4976000786,3344505.228099823 L 626715.5025000572,3344206.5914998055 L 626715.4709000587,3344176.4439997673 L 626715.3845000267,3344150.279300213 L 626661.5071997643,3344114.966100216 L 626636.859700203,3344098.824399948 L 626561.8659000397,3344049.3035998344 L 626514.4865999222,3344018.0493998528 L 626443.3007998466,3343971.894100189 L 626372.766699791,3343928.4052000046 L 626348.3907999992,3343913.38560009 L 626261.9492001534,3343855.3022999763 L 626242.9335999489,3343843.3387999535 L 626223.2350001335,3343831.35890007 L 626140.7994999886,3343784.963399887 L 626033.059800148,3343728.193399906 L 626018.7884998322,3343721.7139000893 L 626015.9147000313,3343720.4590001106 L 626009.2948999405,3343718.610499859 L 626004.6005997658,3343717.0078001022 L 625988.7284002304,3343707.6188998222 L 625958.6426000595,3343695.7522001266 L 625942.6433000565,3343689.14109993 L 625238.4826002121,3343403.6294999123 L 625131.9963998795,3343362.8420000076 L 624895.5605998039,3343279.78910017 L 624857.899600029,3343273.0356998444 L 624778.045899868,3343251.957499981 L 624702.8186001778,3343222.5002999306 L 624591.8867001534,3343183.000699997 L 624433.3020000458,3343118.6879000664 L 624298.7435002327,3343065.3965997696 L 624272.2740998268,3343056.896299839 L 624242.1461000443,3343048.4579000473 L 624190.3133997917,3343034.567800045 L 624103.7383999825,3343020.29309988 L 624072.9580001831,3343018.27519989 L 624047.263999939,3343017.6572999954 L 623964.7325000763,3343020.492000103 L 623958.084400177,3343021.0792999268 L 623945.6002998352,3343018.5029997826 L 623931.7699999809,3343015.6792001724 L 623915.382900238,3343025.586900234 L 623758.1395001411,3343054.845699787 L 623540.4716000557,3343090.627099991 L 623385.5588998795,3343108.938099861 L 623252.7389998436,3343124.402299881 L 623164.851099968,3343132.2849998474 L 623148.867000103,3343124.1205000877 L 623146.1641998291,3343125.311999798 L 623129.4878001213,3343135.656199932 L 622904.079100132,3343157.2862000465 L 622426.307199955,3343218.662799835 L 622179.1538000107,3343257.3587999344 L 622043.8626999855,3343278.4625000954 L 621897.203499794,3343300.1038999557 L 621801.8385000229,3343315.003900051 L 621782.6498999596,3343318.120299816 L 621755.5475001335,3343322.138400078 L 621748.8948001862,3343323.1743998528 L 621733.8796000481,3343314.9110999107 L 621730.2923998833,3343308.555799961 L 621727.5525999069,3343303.758699894 L 621719.0563998222,3343288.589900017 L 621710.7491998672,3343273.5349998474 L 621691.1472997665,3343227.4313998222 L 621678.293900013,3343197.3632998466 L 621567.8295001984,3342993.3001999855 L 621233.3896999359,3342376.657000065 L 621539.0524997711,3342211.79129982 L 621637.1572999954,3342158.9007000923 L 621739.4113001823,3342106.280499935 L 621816.0940999985,3342066.7834000587 L 621917.7136001587,3342010.7238001823 L 621939.4902000427,3341957.097899914 L 621946.4176998138,3341939.9904999733 L 621947.8049001694,3341936.572400093 L 621936.3199000359,3341886.792699814 L 621834.9874000549,3341683.4931998253 L 621728.2683000565,3341479.6925001144 L 621706.5999999046,3341437.1126999855 L 621652.8782000542,3341332.2165999413 L 621632.6796998978,3341295.8660001755 L 621599.4572000504,3341235.972000122 L 621579.2596998215,3341199.500699997 L 621552.7259001732,3341151.7715997696 L 621526.573800087,3341105.4837999344 L 621504.1009998322,3341065.888899803 L 621491.8376998901,3341042.362299919 L 621402.8406000137,3340871.797100067 L 621400.486700058,3340867.2270002365 L 621398.0278000832,3340862.7677001953 L 621393.306499958,3340854.066400051 L 621318.6616997719,3340717.350900173 L 621307.9039001465,3340697.6185998917 L 621268.2709999084,3340616.3772001266 L 621182.7389001846,3340461.9223999977 L 621088.1950998306,3340286.7458000183 L 621049.8759999275,3340216.2748999596 L 620975.7052998543,3340078.9053997993 L 620889.6498999596,3339919.34499979 L 620879.0795001984,3339899.7256999016 L 620843.4085001945,3339833.603000164 L 620830.2178001404,3339798.9875998497 L 620809.8548998833,3339758.973999977 L 620806.841700077,3339752.9590997696 L 620802.6050000191,3339744.1507000923 L 620797.8888001442,3339735.6726999283 L 620775.9972000122,3339694.643799782 L 620759.3010997772,3339663.3203001022 L 620753.8125,3339654.2828998566 L 620742.4829001427,3339660.363699913 L 620738.1472001076,3339651.1152000427 L 620701.5254001617,3339583.982800007 L 620696.7273001671,3339574.2902002335 L 620667.9639000893,3339509.9120001793 L 620659.4556999207,3339486.7602000237 L 620640.0434999466,3339369.619800091 L 620639.8715000153,3339367.94810009 L 620638.2158999443,3339369.0402002335 L 620616.9921998978,3339381.2182998657 L 620598.6255998611,3339387.6697001457 L 620570.8080000877,3339395.3427000046 L 620539.5110998154,3339404.750599861 L 620515.5194001198,3339414.574500084 L 620478.1606998444,3339431.679599762 L 620471.6669001579,3339435.378200054 L 620466.6381998062,3339437.2079000473 L 620459.7663002014,3339440.6785998344 L 620454.3362998962,3339443.60559988 L 620448.4352998734,3339446.097099781 L 620330.2656998634,3339500.2122998238 L 620322.9166998863,3339503.0151000023 L 620314.9713001251,3339507.3605999947 L 620229.6921000481,3339547.997300148 L 620207.9021000862,3339559.8340997696 L 620191.8859000206,3339571.295199871 L 620189.7498002052,3339572.8295998573 L 620179.8368000984,3339580.6996998787 L 620177.804599762,3339582.22660017 L 620170.5254998207,3339587.3541002274 L 620162.9340000153,3339594.1479001045 L 620108.0244998932,3339640.5402002335 L 620018.3102002144,3339716.701499939 L 620011.7010002136,3339722.283899784 L 620005.6616997719,3339728.7504000664 L 619958.0293002129,3339778.217599869 L 619939.4523000717,3339795.3053998947 L 619916.5373997688,3339812.793399811 L 619873.3715000153,3339841.472599983 L 619761.3650999069,3339914.0686998367 L 619742.6346001625,3339927.0496001244 L 619722.622300148,3339943.347199917 L 619707.0576000214,3339957.9204998016 L 619672.4168000221,3339991.0135998726 L 619649.7688999176,3340010.2690000534 L 619633.3744997978,3340021.623000145 L 619500.073800087,3340095.984799862 L 619487.7550997734,3340104.052599907 L 619476.529200077,3340109.4643001556 L 619465.86439991,3340115.777200222 L 619438.7611999512,3340128.7876000404 L 619395.8572001457,3340143.1753001213 L 619115.6006999016,3340236.666200161 L 619104.3919000626,3340240.529200077 L 619085.5482997894,3340246.529799938 L 619004.1847000122,3340273.247200012 L 618987.4672999382,3340278.608300209 L 618876.054599762,3340314.975399971 L 618783.0004000664,3340345.448900223 L 618626.1721000671,3340396.8348999023 L 618615.8235001564,3340400.3805999756 L 618605.9605998993,3340404.6027998924 L 618504.2164001465,3340446.1725001335 L 618452.5373001099,3340479.643000126 L 618411.1293001175,3340506.3481998444 L 618402.0194997787,3340512.1279001236 L 618396.6919999123,3340515.2803997993 L 618372.176199913,3340529.207300186 L 618358.0327000618,3340537.3681001663 L 618353.9572000504,3340531.110499859 L 618350.0743999481,3340525.422999859 L 618247.4187998772,3340366.1512999535 L 618185.8576998711,3340270.8274002075 L 618127.375,3340167.454800129 z" /><path fill-rule="evenodd" fill="#66cc99" stroke="#555555" stroke-width="234.74727072029063" opacity="0.6" d="M 614639.4658999443,3368040.653600216 L 614641.6767997742,3368049.4331998825 L 614643.5550999641,3368071.7298002243 L 614643.9903001785,3368085.2550001144 L 614643.7902002335,3368104.207399845 L 614606.0054998398,3368207.663000107 L 614604.9088997841,3368275.5967001915 L 614626.1859002113,3368334.2375998497 L 614680.4239001274,3368408.738100052 L 614655.2358999252,3368429.6407999992 L 614643.5626001358,3368443.595699787 L 614632.2481999397,3368460.327000141 L 614624.5096998215,3368474.2116999626 L 614617.5043001175,3368492.198900223 L 614614.6760001183,3368505.139699936 L 614613.9580001831,3368519.210199833 L 614613.8411998749,3368539.2701001167 L 614617.8763999939,3368584.422200203 L 614619.2950000763,3368604.4981999397 L 614619.7558999062,3368615.593699932 L 614619.4889001846,3368622.9045000076 L 614618.9402999878,3368629.105000019 L 614617.6311001778,3368634.6279001236 L 614613.5208001137,3368651.3234000206 L 614680.8144001961,3368681.297100067 L 614704.483399868,3368704.4921998978 L 614739.7926998138,3368743.768000126 L 614790.8491001129,3368801.502699852 L 614811.8955001831,3368827.1079998016 L 614821.9755001068,3368845.5068998337 L 614828.709499836,3368862.9777002335 L 614831.3439998627,3368876.52519989 L 614833.1936001778,3368892.510799885 L 614833.3224000931,3368943.938000202 L 614833.6472001076,3368958.902999878 L 614824.9092001915,3368958.810599804 L 614810.5989999771,3368958.6592001915 L 614741.5577001572,3368957.9292001724 L 614728.7786002159,3368959.0130000114 L 614720.7262997627,3368957.7090001106 L 614567.3761000633,3368956.0893001556 L 614557.4822001457,3368955.9848999977 L 614509.7641000748,3368955.481400013 L 614499.8702001572,3368955.376999855 L 614470.6908998489,3368954.0735001564 L 614395.0402002335,3368951.833899975 L 614313.663599968,3368946.100999832 L 614296.9706001282,3368944.4830999374 L 614281.8116998672,3368942.9930000305 L 614173.8259000778,3368929.4444999695 L 614126.5454998016,3368923.402100086 L 614096.9848999977,3368921.434700012 L 614080.0082998276,3368919.7026000023 L 614072.3604001999,3368925.0556998253 L 614072.7753000259,3368958.6399002075 L 614074.9548001289,3368980.2768001556 L 614084.8871998787,3369039.900899887 L 614098.74669981,3369128.055099964 L 614106.4172000885,3369166.487400055 L 614117.1992998123,3369209.269899845 L 614139.0514998436,3369295.2923002243 L 614159.8495001793,3369372.4363999367 L 614202.1911997795,3369445.92689991 L 614267.4471998215,3369496.1571002007 L 614330.9093999863,3369552.0250000954 L 614380.06580019,3369634.341899872 L 614456.190199852,3369727.800499916 L 614480.0288000107,3369762.530600071 L 614481.9307999611,3369763.7694997787 L 614502.9361000061,3369793.1395998 L 614529.7316999435,3369893.39839983 L 614640.8119001389,3369894.79460001 L 614714.5857000351,3369919.7355999947 L 614758.5261001587,3369959.768099785 L 614884.4816999435,3370080.4816999435 L 614894.429500103,3370084.355000019 L 614952.3797998428,3370107.0268998146 L 615037.6637001038,3370123.337100029 L 615122.5659999847,3370130.8807997704 L 615196.3358998299,3370155.9447999 L 615248.6620001793,3370201.277400017 L 615393.2123999596,3370369.294400215 L 615425.5030999184,3370420.73939991 L 615464.736700058,3370451.968699932 L 615570.0750999451,3370469.6034002304 L 615669.3846998215,3370484.737400055 L 615723.7505002022,3370501.057799816 L 615740.9798998833,3370506.339700222 L 615750.2649002075,3370509.21089983 L 615756.6786999702,3370511.167500019 L 615763.9492001534,3370513.6826000214 L 615775.5759000778,3370476.557899952 L 615801.2083001137,3370396.03399992 L 615843.5665998459,3370278.3270998 L 615857.7197999954,3370238.9113001823 L 615894.6430001259,3370135.1178998947 L 615936.4110999107,3370018.7325000763 L 615955.74669981,3369952.1027998924 L 615977.8611998558,3369877.3056001663 L 615990.1782999039,3369812.0335001945 L 616024.0594000816,3369607.341199875 L 616076.0973000526,3369348.0935001373 L 616089.6834998131,3369271.53579998 L 616110.9848999977,3369156.8197999 L 616112.6055998802,3369131.120299816 L 616122.543900013,3369099.638400078 L 616135.9732999802,3369065.19810009 L 616153.0251002312,3369014.727499962 L 616171.1893000603,3368969.144299984 L 616211.7595000267,3368901.637000084 L 616224.5736999512,3368880.383100033 L 616238.38560009,3368854.590300083 L 616280.8056001663,3368803.7295999527 L 616310.1531000137,3368771.673699856 L 616341.7883000374,3368741.092999935 L 616364.5595998764,3368722.160299778 L 616394.146900177,3368694.321800232 L 616502.6399998665,3368616.460100174 L 616719.2487001419,3368460.167699814 L 616809.5638999939,3368393.975299835 L 616834.9225001335,3368376.066599846 L 616916.4063000679,3368318.5356001854 L 617208.969399929,3368111.6447000504 L 617335.1820998192,3368021.452899933 L 617446.215400219,3367940.5236001015 L 617592.5641999245,3367845.2284998894 L 618141.5833997726,3367542.6105999947 L 618277.3446002007,3367467.492099762 L 618289.1326999664,3367460.9670000076 L 618438.4145998955,3367379.686999798 L 618496.1989002228,3367347.9510998726 L 618490.0464000702,3367347.9956002235 L 618452.5896000862,3367348.144999981 L 618432.2245998383,3367348.3607997894 L 618427.32310009,3367348.418900013 L 618412.6272997856,3367348.5935001373 L 618382.5181999207,3367353.030099869 L 618310.6500000954,3367363.6652998924 L 618263.4386000633,3367359.4938001633 L 618222.4278998375,3367350.848499775 L 618194.4471998215,3367344.4397997856 L 618165.3997998238,3367330.6020002365 L 618163.6827998161,3367329.8106999397 L 617963.2052001953,3367234.5243000984 L 617870.2550001144,3367179.4277000427 L 617842.1968998909,3367162.605100155 L 617787.4370999336,3367145.4928998947 L 617765.7943000793,3367139.385799885 L 617727.521999836,3367116.8035001755 L 617679.6472001076,3367094.1171998978 L 617630.9671998024,3367074.8565998077 L 617617.3849000931,3367069.3866000175 L 617593.5778999329,3367059.9338002205 L 617564.9772000313,3367048.540500164 L 617525.4088997841,3367136.893700123 L 617457.0570998192,3367257.9711999893 L 617443.5194997787,3367293.067299843 L 617348.0406999588,3367542.0942001343 L 617338.3653998375,3367567.152299881 L 617314.1490998268,3367612.442699909 L 617308.9538002014,3367622.139100075 L 617208.7561998367,3367997.9218997955 L 617152.656899929,3368034.110300064 L 617150.57310009,3368031.3235998154 L 617104.5036001205,3368002.3341999054 L 617055.3891000748,3367978.866399765 L 617078.9730000496,3367920.040699959 L 617080.3533000946,3367872.839600086 L 617059.1912999153,3367831.043900013 L 617014.3108000755,3367815.7084999084 L 616963.6600999832,3367828.2375001907 L 616930.3587999344,3367780.774000168 L 616808.91629982,3367731.5808000565 L 616711.1038999557,3367734.6326999664 L 616653.4377999306,3367729.5833001137 L 616448.0153999329,3367647.6764998436 L 616411.623000145,3367646.848499775 L 616364.047200203,3367613.973499775 L 616298.5689997673,3367593.0974998474 L 616250.0282001495,3367579.3913002014 L 616195.18419981,3367587.8871998787 L 616165.4272999763,3367613.615600109 L 616157.1975998878,3367646.562300205 L 616127.9695000648,3367721.289999962 L 616115.4938001633,3367738.2231998444 L 616092.8206000328,3367756.7129001617 L 616070.0489001274,3367766.668200016 L 616045.5597000122,3367766.1833000183 L 616003.0975999832,3367749.658800125 L 615960.4739999771,3367738.558400154 L 615936.8941001892,3367743.4060001373 L 615922.9635000229,3367752.7950000763 L 615905.3817000389,3367771.2277998924 L 615857.5935001373,3367821.2564001083 L 615835.7550001144,3367833.548500061 L 615774.0157999992,3367868.250599861 L 615734.1133999825,3367854.4159002304 L 615657.7809000015,3367852.271999836 L 615621.9590001106,3367870.0643000603 L 615507.7163000107,3367937.6803998947 L 615488.1284999847,3367964.736800194 L 615466.3673000336,3368005.522600174 L 615403.1925997734,3367985.5613999367 L 615367.0093998909,3367974.0942001343 L 615370.8843998909,3367935.006700039 L 615369.590400219,3367930.1167998314 L 615364.9836001396,3367912.2203998566 L 615320.5253000259,3367820.415599823 L 615268.48939991,3367755.580599785 L 615218.5878000259,3367705.834400177 L 615211.192800045,3367661.2006001472 L 615221.5721001625,3367579.0675997734 L 615222.2604999542,3367532.080999851 L 615222.1086001396,3367509.8014001846 L 615219.5236001015,3367491.591100216 L 615213.8775000572,3367471.5795998573 L 615205.0471000671,3367452.4272999763 L 615179.5293998718,3367404.0461001396 L 615169.5809998512,3367382.1087999344 L 615162.7112002373,3367360.307199955 L 615158.2322998047,3367338.4278001785 L 615154.7895002365,3367292.0574002266 L 615152.5752000809,3367273.8592000008 L 615147.2547998428,3367259.7231001854 L 615058.6767997742,3367197.932700157 L 614995.2741999626,3367135.4133000374 L 614988.1407999992,3367128.692800045 L 614982.4310002327,3367124.416999817 L 614974.7898001671,3367120.0177001953 L 614967.8050999641,3367117.1707000732 L 614960.5334000587,3367114.543900013 L 614954.109099865,3367113.368400097 L 614947.4857001305,3367113.075099945 L 614938.5482997894,3367113.753200054 L 614929.6939001083,3367115.5482997894 L 614919.0914998055,3367118.646999836 L 614900.9657998085,3367125.769899845 L 614863.9270000458,3367140.23059988 L 614744.6912999153,3367180.428299904 L 614680.1133999825,3367183.291999817 L 614674.8619999886,3367207.5068998337 L 614667.2918000221,3367233.1480998993 L 614657.6747999191,3367252.4404001236 L 614650.4221000671,3367265.9970998764 L 614641.173500061,3367287.18200016 L 614632.8850002289,3367317.1338000298 L 614633.0380997658,3367339.4137001038 L 614634.4310002327,3367352.9498000145 L 614640.4229001999,3367385.2670998573 L 614646.5857000351,3367438.980000019 L 614645.9142999649,3367456.8125 L 614643.8997998238,3367475.197400093 L 614640.1806001663,3367499.762599945 L 614622.6188001633,3367598.2265000343 L 614612.9892001152,3367655.5402998924 L 614583.3239998817,3367826.6905999184 L 614581.1150999069,3367845.510700226 L 614581.0826997757,3367866.568500042 L 614582.5763001442,3367879.5556998253 L 614586.0827999115,3367893.1135001183 L 614592.1378002167,3367911.248099804 L 614611.1146998405,3367960.6553001404 L 614630.668900013,3368009.304500103 L 614636.4246997833,3368027.9850997925 L 614639.4658999443,3368040.653600216 z" /></g></g></svg>