<svg xmlns="http://www.w3.org/2000/svg" xmlns:xlink="http://www.w3.org/1999/xlink" width="300" height="300" viewBox="606821.2428350453 3336605.743449065 24311.297130670748 35212.090634097345" preserveAspectRatio="xMinYMin meet"><g transform="matrix(1,0,0,-1,0,6708423.577532227)"><g><path fill-rule="evenodd" fill="#66cc99" stroke="#555555" stroke-width="234.7472708939823" opacity="0.6" d="M 618127.3750279165,3340167.4547586096 L 618106.3916232373,3340130.427814272 L 617961.6194080273,3339866.7413137318 L 617878.4293671274,3339722.976352558 L 617809.749920778,3339599.549091726 L 617675.4953216577,3339358.810428364 L 617640.7319083357,3339296.4756889623 L 617497.1169237406,3339038.9088217327 L 617467.3609277775,3338985.388773644 L 617369.0970270301,3338809.212285241 L 617293.9809641181,3338674.1930074077 L 617241.1651186579,3338578.859533345 L 617192.3945488163,3338492.667026561 L 617169.1364085581,3338451.7388757295 L 617127.6394998438,3338378.5866381247 L 617088.6493777658,3338305.5727484794 L 617013.2667459601,3338168.110750076 L 616960.7384219004,3338072.1147861346 L 616909.0484699069,3337979.355233965 L 616888.0757460437,3337941.3339408915 L 616879.097061824,3337924.943259679 L 616870.8826883067,3337909.8949540313 L 616852.9639924563,3337910.0399043215 L 616814.6082504304,3337912.8424767377 L 616804.3782617279,3337914.842595258 L 616795.7046355554,3337915.3012203597 L 616764.0179884582,3337914.9641158762 L 616658.1882342672,3337913.838888758 L 616647.6916576993,3337914.0630551926 L 616648.1122719945,3337929.028347241 L 616648.2460561617,3337934.349550147 L 616651.5064875298,3338053.3124941792 L 616657.056415555,3338074.8741563438 L 616662.6063201097,3338096.4357803166 L 616688.6727658255,3338145.252896956 L 616723.8431885572,3338188.0809283797 L 616879.70373072,3338338.3706455375 L 616893.3326554284,3338360.792641109 L 616906.6874259561,3338391.0791448085 L 616924.8434312651,3338440.043765908 L 616939.8151598978,3338499.613316975 L 616957.9076213691,3338573.1773317386 L 616667.8036997917,3338694.7778970976 L 616631.7832677276,3338713.3486335245 L 616619.9802740669,3338718.5425989283 L 616600.7938411402,3338720.8865215643 L 616535.8072954509,3338719.4215307226 L 616400.3639297424,3338714.3258558805 L 616171.249482656,3338706.802383564 L 616034.5447494034,3338702.3606512006 L 615644.1145845961,3338687.0496023237 L 615644.3596306152,3338590.734592621 L 615623.6891924666,3338550.836112266 L 615593.7383746598,3338514.8336922764 L 615493.4509131396,3338600.894612362 L 615339.5756362758,3338672.7581727826 L 615307.7228193533,3338679.404057311 L 615283.4250723433,3338682.4798479383 L 615239.8619365082,3338685.568546583 L 615186.1705321567,3338681.897567868 L 615140.5277846829,3338681.194783113 L 615053.4939583653,3338679.3953805063 L 614977.2424037469,3338677.2706556506 L 614825.8293200113,3338671.364365413 L 614733.7013434289,3338668.62763729 L 614648.5947579655,3338666.1802220703 L 614640.3261421847,3338665.2072764537 L 614631.4530652061,3338665.785963888 L 614497.5367121745,3338662.7180743623 L 614485.7913373259,3338662.4922447847 L 614472.8812309953,3338662.796544418 L 614380.0831066092,3338659.616820858 L 614326.3482028747,3338659.2720624786 L 614316.9181568875,3338658.5110541773 L 614307.489275346,3338657.638169903 L 614159.140327086,3338653.2104466427 L 614152.1114279415,3338652.8102477016 L 614142.7748737053,3338653.040212739 L 614074.9118727086,3338650.3376443684 L 613982.286710053,3338648.8243152606 L 613912.6036812885,3338644.7783096246 L 613902.3189892421,3338643.010329116 L 613889.9780813048,3338644.319680606 L 613690.3577239378,3338643.9110187693 L 613613.5242862713,3338642.0049384315 L 613254.0185756553,3338625.1023531817 L 613247.4861527398,3338624.372170605 L 613240.4550056604,3338624.1877181767 L 613148.0235538095,3338622.347750078 L 613081.883021005,3338621.2184210937 L 613055.9813445692,3338620.512571243 L 613040.6711705565,3338620.354854257 L 613027.3805330226,3338620.6569350483 L 613015.0465696119,3338621.3045717874 L 612998.4547032032,3338623.8020007834 L 612968.0383608369,3338632.2425439553 L 612941.4614269111,3338640.834571938 L 612924.0458156782,3338649.409028227 L 612918.6421112119,3338640.711639731 L 612900.8020708126,3338605.6165872235 L 612878.472829161,3338604.9393037446 L 612801.8734542951,3338599.6069776346 L 612692.9181849166,3338575.1012944244 L 612686.7742552568,3338573.600768834 L 612587.1467672049,3338550.5174296615 L 612472.8637706819,3338575.615364322 L 612429.4752024112,3338590.4660878554 L 612362.3729074684,3338608.069491091 L 612241.9005702302,3338664.13567893 L 612180.9209511024,3338751.4010470985 L 612163.1877374725,3338828.366222493 L 612150.1239308713,3338862.3687296556 L 612142.6444198261,3338887.4509747005 L 612142.4212997078,3338899.9720701724 L 612142.0679175042,3338925.2389524356 L 612142.0475118139,3338927.235592444 L 612142.2838741331,3338942.1971466015 L 612117.7380273113,3338950.2607616065 L 612070.8219079725,3338971.05817136 L 612045.0918771287,3338982.432152018 L 611982.0027511729,3339012.265650681 L 611974.9299713715,3339016.187132308 L 611932.3296305558,3339038.810677647 L 611812.9563036276,3339102.3180605494 L 611804.2557483892,3339105.55168391 L 611788.756288082,3339114.7064759694 L 611596.3789166224,3339216.263300369 L 611584.9761575311,3339220.6917452062 L 611504.4123437408,3339264.54215527 L 611495.100943286,3339270.876816963 L 611396.1544036566,3339324.2924591484 L 611270.1617319593,3339394.604741371 L 611193.8508883817,3339437.2862107316 L 611157.5319487092,3339457.53111738 L 611146.6106686969,3339462.291830825 L 611137.3913902609,3339468.963256578 L 610870.796713606,3339618.1030106633 L 610836.3292715396,3339636.7148543075 L 610755.0959986876,3339680.6653276705 L 610737.4737215659,3339690.3504248443 L 610740.4956596498,3339696.0353723024 L 610741.7934689547,3339710.567550801 L 610931.7462521298,3340065.1648411504 L 611161.3131435955,3340490.9825499603 L 611197.9549804374,3340561.396849566 L 611369.7995185264,3340876.138005972 L 611372.2402329277,3340881.9285210962 L 610984.501741983,3341093.8995157494 L 610951.0993197962,3341111.959730969 L 610883.2394707013,3341148.9560409617 L 610790.0682992372,3341203.656065597 L 610532.317422872,3341339.710438619 L 610515.7685831627,3341347.856192908 L 610476.7755714983,3341367.298064564 L 610301.4723580042,3341461.7379504144 L 610295.7507770753,3341465.67313344 L 610265.1770464552,3341481.3193443506 L 610197.1263117683,3341517.989524524 L 610110.4919086825,3341564.885331997 L 610091.2056529495,3341576.996738546 L 610069.1900984952,3341593.064853379 L 610065.7054805784,3341595.5855365167 L 610061.1486735054,3341598.086850206 L 610045.5112314983,3341612.0075479117 L 610031.6066723131,3341625.6100499923 L 610017.0096178361,3341641.864520005 L 610007.0616204841,3341654.1815676736 L 610002.1847931709,3341660.9993392206 L 609977.2252152672,3341692.113707742 L 609975.2657010257,3341695.2004074045 L 609972.0565722175,3341698.7134181485 L 609958.2039209907,3341716.644659893 L 609944.3124807224,3341738.4476758232 L 609931.5642101052,3341761.8196004583 L 609924.7775518055,3341776.2678574463 L 609916.3938963297,3341796.4652956314 L 609869.5927371135,3341932.5446413695 L 609868.4969718606,3341935.743203786 L 609867.3091302671,3341939.5001464454 L 609828.0841762666,3342058.3672053497 L 609819.3500277553,3342085.1001410005 L 609817.6757437907,3342089.075881226 L 609816.2779328541,3342093.940659583 L 609774.0664481373,3342213.215102723 L 609720.2513615872,3342300.4585603094 L 609688.1532265167,3342342.5826298567 L 609681.5485665847,3342349.2795496862 L 609642.0339894122,3342382.466879638 L 609628.4571999729,3342391.9764989386 L 609612.4786580413,3342402.1246346203 L 609580.8957109139,3342422.20097307 L 609572.6706936513,3342425.775554828 L 609547.3294545591,3342438.265150456 L 609541.4372612389,3342440.3142996863 L 609506.9567301335,3342451.82637877 L 609471.4337013082,3342461.228698285 L 609442.8952199449,3342465.710408442 L 609415.3166336359,3342470.1931695477 L 609391.0681558847,3342469.400419074 L 609366.9147903759,3342468.6086715525 L 609347.196342509,3342467.0782421883 L 609317.7857177795,3342461.9062098293 L 609301.6583546398,3342457.537865464 L 609156.144911467,3342405.5460189087 L 609148.5753621028,3342402.364477008 L 609140.3237440055,3342399.072895378 L 609090.0737371575,3342379.841013973 L 609072.0289929531,3342374.3439435363 L 609047.756933557,3342366.3413096764 L 609025.2872272334,3342360.576569959 L 609006.0747731109,3342356.8404748933 L 608977.1325458048,3342353.2227641107 L 608952.796399079,3342351.655728007 L 608934.5074418504,3342351.5771711585 L 608912.5389145603,3342352.8043502728 L 608895.5811621927,3342354.5201817392 L 608882.3738922125,3342356.4970127214 L 608831.557357929,3342365.517222605 L 608825.2883024134,3342366.3412116137 L 608820.3702783913,3342366.9635117515 L 608802.8975995447,3342371.7719179792 L 608780.7865630863,3342378.6509637902 L 608752.2729851833,3342390.224680652 L 608722.3751840638,3342406.2245281357 L 608694.267000217,3342424.892290493 L 608666.5444622904,3342444.7943188986 L 608647.1103437258,3342462.550053338 L 608626.5041940454,3342482.5226628496 L 608602.8260971021,3342511.4389943834 L 608578.6255536117,3342544.221990447 L 608558.4007640778,3342574.609351703 L 608536.7495768078,3342603.218690851 L 608531.9264704306,3342613.478639529 L 608494.226149005,3342658.6553259487 L 608436.1924675788,3342705.962398853 L 608428.3439265194,3342711.752677809 L 608420.7840835582,3342716.3326490303 L 608358.9726222969,3342746.979575239 L 608349.0266459223,3342749.763560962 L 608308.1068794153,3342761.2153084464 L 608230.1079021613,3342773.5226503783 L 608145.4260381768,3342780.4473208752 L 608140.5094382769,3342780.9494503117 L 608125.5790008655,3342782.359425575 L 608125.3943400119,3342790.5571696023 L 608151.0571018885,3342999.290775014 L 608154.0289981202,3343010.952425594 L 608180.4800230679,3343090.6863873103 L 608182.7273057404,3343096.9118558276 L 608184.2903309581,3343104.1285949526 L 608292.4230221226,3343305.145297943 L 608328.495335807,3343376.2143339887 L 608344.56938239,3343414.7190355957 L 608355.3686097912,3343442.7526828055 L 608365.1885826406,3343471.0002746014 L 608373.3249544847,3343505.107275611 L 608379.1192173366,3343532.1018229723 L 608384.8892403778,3343562.41696627 L 608387.7075959713,3343579.0665296735 L 608391.7836035346,3343604.934076604 L 608400.478066829,3343679.6107026297 L 608407.2282555943,3343716.5854671816 L 608419.3876719796,3343810.687214923 L 608420.552038719,3343829.3245823747 L 608431.4812978423,3343901.8022609986 L 608433.4422215748,3343927.312621653 L 608438.658912615,3343954.962906732 L 608443.0071013221,3343972.5217659436 L 608447.5795452476,3343986.641607949 L 608456.8709028186,3344010.563983776 L 608464.9045532973,3344026.154762635 L 608473.5372342318,3344038.878060307 L 608490.1187288659,3344055.6718695266 L 608511.9396848473,3344077.713781751 L 608529.4251527829,3344090.524783594 L 608563.0148620399,3344109.8099814537 L 608581.1233810086,3344118.1966995583 L 608591.4635187341,3344123.503992754 L 608676.6929172464,3344167.579041964 L 608734.4288468279,3344197.5223795376 L 608769.0956089111,3344215.37346856 L 608780.8341348243,3344225.2457047952 L 608806.1054646025,3344248.8792975335 L 608832.6287886127,3344291.812861266 L 608860.9662281751,3344346.18884836 L 608865.901337238,3344353.326586116 L 608870.065906296,3344360.568497377 L 608892.3271685214,3344406.014436429 L 608949.3791434004,3344524.5074127135 L 608953.7237667666,3344532.757548524 L 608959.689116688,3344542.348610263 L 608994.2814605567,3344605.7498988085 L 609033.4087428073,3344668.6541495123 L 609096.6906643629,3344721.260800695 L 609137.0559064823,3344746.6016327715 L 609165.2656375378,3344764.948010238 L 609237.7986843905,3344807.014723025 L 609243.9902868738,3344803.420464588 L 609256.2306613273,3344811.4138145237 L 609268.7541518214,3344819.625058996 L 609262.6785750207,3344830.652938515 L 609249.6210938474,3344856.897595121 L 609238.9591140957,3344883.9489168115 L 609233.149067679,3344906.497943756 L 609230.3335809098,3344927.863872464 L 609230.070482898,3344954.2359621758 L 609233.0106902743,3344978.429158503 L 609238.3609950175,3345001.0893379906 L 609250.6871869843,3345029.918080273 L 609257.5949006226,3345041.187138501 L 609272.4580110599,3345066.1615199223 L 609281.0115566881,3345086.634148282 L 609285.4928167243,3345100.2015440133 L 609285.927033895,3345124.2576003703 L 609284.0664533186,3345146.9573624227 L 609280.6285773044,3345163.1123037008 L 609274.232609808,3345177.672107042 L 609266.8075193114,3345198.3291310067 L 609244.3722696151,3345257.2876711404 L 609235.1410686318,3345266.6148265894 L 609631.6760019953,3345407.462688623 L 609667.2589378657,3345410.1416328778 L 609698.5131827754,3345412.562265591 L 609724.57663044,3345414.483655264 L 609773.527250804,3345408.325081297 L 609848.8677046949,3345381.046940591 L 609878.8858896327,3345372.255876987 L 609912.0870867315,3345371.9268188463 L 609926.3241855791,3345372.9557788437 L 609942.1898010401,3345373.665633944 L 609989.2333117016,3345375.7983799335 L 610015.2945761917,3345377.944096218 L 610041.7688517501,3345386.3046762473 L 610066.6438892889,3345391.2084357333 L 610097.1377034942,3345392.7365596485 L 610123.9849675054,3345393.230252655 L 610274.671677432,3345395.8568033148 L 610386.9376607833,3345400.308656574 L 610430.6969220847,3345403.1929691257 L 610453.0984915684,3345404.7436814103 L 610461.8496285093,3345405.3911121245 L 610476.4603304162,3345407.086913132 L 610530.7742925712,3345413.510348357 L 610626.8436093306,3345430.325654679 L 610794.8892860052,3345467.1642784905 L 610881.1299077146,3345484.665081478 L 610916.8566085643,3345491.891384845 L 610985.6703640249,3345510.876603426 L 611027.9259341977,3345519.6231846325 L 611171.4427128625,3345536.0385410255 L 611267.0981466937,3345545.7671877556 L 611375.7615842228,3345554.080665871 L 611444.7728647103,3345553.5615685857 L 611522.6246378627,3345554.2426182968 L 611610.191487661,3345555.1350972652 L 611633.8596080005,3345555.376442388 L 611656.5682109114,3345555.608051373 L 612201.0326633919,3345560.9515962307 L 612291.6770016926,3345561.8810724034 L 612400.3188338478,3345562.9960858375 L 612570.9591817381,3345562.0915718554 L 612657.6225578103,3345557.555293862 L 612718.0102213313,3345553.299626408 L 612749.5019227416,3345551.069157214 L 612809.5372017119,3345543.2663378827 L 612878.345088431,3345524.801786942 L 612960.5122033197,3345498.6046143984 L 612985.1302303694,3345491.4351191074 L 613020.0804465133,3345480.8196962015 L 613033.3088983332,3345476.52622384 L 613078.1759096466,3345455.8199178698 L 613073.1581463387,3345447.7853613966 L 613055.9133758117,3345412.36448202 L 613045.2926738343,3345387.6527551203 L 613027.0588564071,3345345.0129203866 L 612966.5751567773,3345219.3642002693 L 612901.3985761093,3345090.8961076033 L 612809.958731649,3344904.975757926 L 612785.2394710039,3344856.392212451 L 612707.7134255272,3344739.5538620986 L 612661.208395708,3344685.6529232576 L 612572.3657148522,3344582.7629075143 L 612497.3932735783,3344488.7814782234 L 612245.6737938978,3344191.6005003173 L 612223.2144185293,3344166.765671501 L 612199.1565461191,3344137.595726148 L 612172.0047864654,3344101.5116067794 L 612125.0130394484,3344037.1953331525 L 612079.6647681698,3343963.466638399 L 612032.3415407715,3343884.9512703344 L 612003.1478577014,3343831.1231533354 L 611973.9624782138,3343786.6037537158 L 611963.2515674027,3343770.311398878 L 611975.2813001188,3343751.481199199 L 611981.2469151518,3343742.233353537 L 611983.6900973694,3343738.378214745 L 612000.1700227067,3343708.8392528435 L 612003.0916649551,3343705.54821851 L 612015.9420329155,3343681.736361463 L 612033.7667157529,3343651.7722667754 L 612039.546799406,3343642.075087902 L 612056.6971195203,3343621.4129636046 L 612069.5429985092,3343607.357269082 L 612084.0894557206,3343587.6664825724 L 612129.8729028122,3343515.985967188 L 612204.968662165,3343401.372164725 L 612211.6044631156,3343392.5783861433 L 612320.0478347682,3343237.1883001137 L 612427.8429970648,3343144.4178438727 L 612510.3401050353,3343096.936813029 L 612566.3238457219,3343063.9308450753 L 612579.8631120189,3343057.419131402 L 612740.8414343075,3342979.94386228 L 612821.0375432707,3342941.199547768 L 612831.0131720551,3342935.6494295644 L 612838.9363496305,3342932.074313616 L 613101.109069897,3342787.699116547 L 613110.1303407521,3342780.8056668495 L 613118.7265015683,3342778.235721635 L 613229.3153603988,3342724.1821202068 L 613262.9382342132,3342712.3374452777 L 613347.5285831065,3342677.194823887 L 613383.4788686471,3342654.395497113 L 613388.8198437408,3342649.692604316 L 613396.0673923057,3342647.100278483 L 613759.2096081101,3342449.255465827 L 613771.4960459094,3342443.618039465 L 613787.937475011,3342435.9242796013 L 614000.0677026286,3342356.88536145 L 614015.6655099331,3342347.186842615 L 614021.6209137413,3342357.4451599363 L 614103.2347580872,3342507.366899702 L 614108.3455151804,3342516.506362655 L 614113.6147314057,3342527.867403535 L 614125.0626983354,3342556.25200262 L 614128.403567804,3342577.5653765732 L 614127.824060459,3342595.8435718585 L 614125.3376218777,3342612.888667271 L 614118.9854602572,3342640.75211179 L 614099.3214750714,3342726.2286429335 L 614096.8058322398,3342736.949132056 L 614094.4780897285,3342747.895277251 L 614078.9008951295,3342820.447091448 L 614066.5018892115,3342892.5755098686 L 614064.867566055,3342900.878661404 L 614062.9370345842,3342911.054414912 L 614049.5363654055,3342978.078235691 L 614046.8879473914,3343019.8403954073 L 614049.6586288756,3343058.5441672257 L 614053.2316726063,3343084.9611147786 L 614057.7442435753,3343114.158248344 L 614061.9271831621,3343128.501519747 L 614066.5217166282,3343139.8548990586 L 614077.0901624954,3343160.4680380537 L 614101.3137219694,3343191.754499649 L 614121.8429805132,3343216.5753735634 L 614132.6183798336,3343226.4357845522 L 614147.435886697,3343245.8799666995 L 614184.2031860572,3343292.370956599 L 614189.0431491421,3343298.409644262 L 614192.7528965845,3343302.5437166006 L 614243.9348806767,3343360.6021288265 L 614259.2416603256,3343370.406559591 L 614273.8073259305,3343376.64993138 L 614288.6651173773,3343382.242483787 L 614299.714789402,3343384.0182843674 L 614309.6249413283,3343384.7841730057 L 614367.6389882585,3343387.1620333754 L 614371.4904731683,3343387.6496362034 L 614415.5013404919,3343403.62171734 L 614590.337790803,3343483.5878858734 L 614592.5407324727,3343484.608954792 L 614630.7549575866,3343503.3001423017 L 614632.5664811624,3343504.5408169557 L 614668.2303728424,3343527.300752449 L 614701.4719845704,3343551.807746923 L 614750.3697417955,3343589.005621943 L 614769.4158699249,3343608.270694589 L 614781.1063742231,3343623.131101033 L 614792.6848920385,3343638.7732515065 L 614800.3006657608,3343655.47511632 L 614807.1511028288,3343654.4456586633 L 614818.1634011357,3343650.680883156 L 614850.1880387422,3343634.4977827393 L 614870.9802664926,3343634.82764719 L 614935.403298508,3343641.0441020085 L 614987.1190051257,3343629.619289198 L 614997.54164505,3343626.8465055684 L 615005.5467267348,3343625.381903118 L 615076.2837485324,3343608.3841964654 L 615089.7913461361,3343604.981424778 L 615104.3612278588,3343601.7016770863 L 615179.2527454625,3343583.535127974 L 615282.9550271778,3343553.1453169803 L 615301.4016640198,3343547.1362345167 L 615322.8521995273,3343539.1627543652 L 615382.3018043848,3343515.182285321 L 615446.8927216076,3343469.4200544986 L 615467.0636530137,3343454.8944738484 L 615480.44152126,3343446.6038346305 L 615492.2868180218,3343436.8688266887 L 615703.9644818928,3343281.489331298 L 615719.2878314432,3343270.7930868315 L 615732.1556572994,3343264.1663613454 L 615953.6393068964,3343147.025416201 L 615962.7431781566,3343141.468951831 L 615968.5482423002,3343138.759911217 L 616039.6515691943,3343096.6217695824 L 616088.7052994057,3343073.196378644 L 616101.472557927,3343067.1281422973 L 616106.0243448812,3343074.1628644913 L 616140.314780094,3343126.8387800865 L 616172.8599856955,3343171.1846286627 L 616208.5147515464,3343212.569221045 L 616234.387704989,3343232.9080634946 L 616249.8357778564,3343246.3736347947 L 616269.388172949,3343264.2019319055 L 616291.3249141737,3343283.053599054 L 616314.6680217029,3343296.491165092 L 616337.2144293918,3343312.4756571064 L 616492.5771968901,3343384.9448446133 L 616505.7083103802,3343390.18654755 L 616498.0290034933,3343406.512349063 L 616492.4951855821,3343420.3056186805 L 616490.1839904395,3343429.4784933496 L 616489.4023823603,3343439.5538145853 L 616490.1873441583,3343464.9432776654 L 616490.1684994942,3343466.715451353 L 616489.8494518931,3343487.7740357043 L 616489.1149576177,3343493.4188814466 L 616486.908306866,3343501.7066228637 L 616483.2648135705,3343509.316593348 L 616458.8761859395,3343548.737590169 L 616448.7487451597,3343569.2443548683 L 616422.3206650263,3343610.2007855424 L 616408.3538009449,3343629.10940566 L 616362.4321246222,3343684.2610102044 L 616351.6460636118,3343694.350281008 L 616339.4205790828,3343703.1939542466 L 616311.2925354331,3343732.491475904 L 616298.2199192536,3343748.647771998 L 616287.20581063,3343761.496349988 L 616270.5645798148,3343779.0515335645 L 616264.6470399826,3343783.4195258487 L 616245.2857067321,3343793.30593837 L 616231.2479306025,3343801.020560244 L 616191.3243198178,3343826.4246241576 L 616181.7214772907,3343833.4120165487 L 616177.4333105062,3343838.2446935065 L 616161.7013700192,3343869.557840177 L 616159.4527520034,3343872.8635203764 L 616156.7106683766,3343877.0415161955 L 616133.0818594894,3343899.624425949 L 616127.3534609244,3343904.106288132 L 616107.8837629504,3343916.0908968286 L 616097.6418839301,3343919.7506177085 L 616093.570982246,3343922.0389867807 L 616089.2946504692,3343925.7619446665 L 616083.9435794381,3343931.3576525096 L 616084.693080105,3343933.2497359007 L 616182.5912189201,3344105.1925845346 L 616213.755992519,3344161.16890179 L 616242.8298422775,3344215.3419931913 L 616304.6331075644,3344341.6897026696 L 616345.579469951,3344419.268099976 L 616424.3428098585,3344561.193695827 L 616495.2604947416,3344698.3891628846 L 616578.6171358454,3344851.8975735083 L 616586.9306449781,3344866.068676735 L 616595.7142357308,3344881.560982378 L 616584.5849377804,3344887.4299260485 L 616449.272955052,3344959.258545173 L 616320.9710212017,3345023.28282544 L 616261.6220218815,3345056.236711051 L 616241.4794408748,3345067.4383649114 L 616156.1847670401,3345115.0855194475 L 616100.9014067721,3345146.3023816464 L 616061.3902476507,3345169.1616177205 L 616020.4250182414,3345193.0034089717 L 615921.8424806759,3345250.592890159 L 615855.4069071936,3345289.236688373 L 615836.8749040419,3345303.5526797906 L 615821.8386450337,3345315.144329251 L 615806.6951345699,3345327.070340043 L 615800.1935901128,3345331.982286843 L 615792.5328603244,3345337.7766106618 L 615783.4907442948,3345346.6617451124 L 615769.9624051185,3345360.3769158656 L 615753.7246348655,3345376.050553728 L 615729.3575079433,3345405.057718299 L 615707.0110504184,3345434.3012668435 L 615691.7542957987,3345456.97022085 L 615676.1795247789,3345482.7411649055 L 615668.5519819248,3345494.411106463 L 615631.7409580639,3345572.052001185 L 615606.0093782728,3345629.637690414 L 615546.2845486179,3345772.4279330852 L 615533.375473814,3345800.4457361205 L 615488.8550587137,3345897.736093639 L 615470.9784548304,3345932.0149454456 L 615409.1315676111,3346074.676246974 L 615349.6759111057,3346209.602556661 L 615343.6595957198,3346223.4994988367 L 615337.5645280564,3346235.8473158614 L 615217.1221941964,3346506.238165831 L 615195.4439992354,3346554.4525867235 L 615158.9184084405,3346641.7408656073 L 615130.8365290512,3346694.755679225 L 615121.8918293824,3346712.6122409017 L 615097.7019147398,3346753.144469653 L 615084.4047017387,3346773.071056671 L 615066.1223761924,3346800.144324634 L 615058.5092023627,3346810.5920148636 L 615051.5661961217,3346820.6080909865 L 615042.7848523632,3346832.81531083 L 615025.3845118945,3346858.2377590556 L 615039.5800300367,3346881.110983986 L 615051.5977934944,3346900.632685222 L 615054.4276008604,3346906.0896900943 L 615068.568945736,3346933.2799952985 L 615078.2881562725,3346951.891563486 L 615091.9644031276,3346978.0877889786 L 615126.1887119605,3347045.2772071515 L 615129.097137753,3347052.291756684 L 615220.649460564,3347304.0812515635 L 615281.4865517552,3347493.48065986 L 615333.0035564499,3347654.1825225702 L 615365.838031908,3347715.927259065 L 615430.1482795061,3347813.2567256135 L 615454.4475129992,3347844.9903767565 L 615481.6514549244,3347874.2089815433 L 615528.1675530543,3347916.265344288 L 615556.5044725386,3347938.8393485346 L 615597.7840626328,3347965.987890114 L 615667.4515141842,3348010.8349199016 L 615688.2860669765,3348024.3597723776 L 615742.6602836401,3348059.628154377 L 615915.6514472192,3348169.520786694 L 615980.3512072474,3348210.661445349 L 616020.4839856307,3348237.3602586016 L 616060.5117691046,3348264.16125064 L 616247.1921120455,3348389.063394866 L 616427.9053425778,3348504.1517882575 L 616447.6872874649,3348517.330980671 L 616522.4862213029,3348567.447707612 L 616663.0562186063,3348657.3951217495 L 616678.34463785,3348667.2071431773 L 616719.0977964986,3348688.917785083 L 616751.741719379,3348704.3415742894 L 616798.7655053621,3348724.7950623157 L 616806.1420625779,3348727.6429592255 L 617091.7852128416,3348837.101601306 L 617103.5542024082,3348842.9893808616 L 617110.2505576086,3348846.3891495313 L 617117.0431663949,3348849.6781577375 L 617135.8022921876,3348858.968887678 L 617211.6979663423,3348896.579856395 L 617369.6225980576,3348991.2693982273 L 617550.4346638046,3349113.690371097 L 617575.8033150788,3349134.352358835 L 617612.5217335128,3349164.458193899 L 617615.0927536418,3349166.4809083445 L 617742.2895211553,3349264.0508964965 L 617895.2635835487,3349388.9527472043 L 617904.8653615426,3349399.3667555857 L 617953.858988506,3349450.6562939286 L 618027.0484703293,3349550.981213097 L 618034.6255004088,3349561.596910731 L 618118.7461198219,3349692.2908317233 L 618128.6859970328,3349707.360475336 L 618141.3650912244,3349726.4582325714 L 618153.956613414,3349745.6582145407 L 618144.8918268499,3349755.9735442214 L 618137.6915038632,3349764.0990983406 L 618132.1360763183,3349770.359264507 L 618124.0522390298,3349779.472741295 L 618101.0670535993,3349805.5971992053 L 618060.683501144,3349856.702564386 L 618047.479092428,3349868.641322243 L 618034.1635861208,3349880.4670969527 L 617990.0695955916,3349919.898101212 L 617902.6960366556,3349984.237081272 L 617842.6660320526,3350028.5867923615 L 617824.4204007523,3350043.248633422 L 617662.7509470826,3350172.954313883 L 617642.5506173213,3350191.0260279034 L 617565.424715875,3350259.9130589296 L 617389.1364627233,3350417.29565979 L 617304.7737879811,3350497.3002301534 L 617051.4979814426,3350774.8943117526 L 616959.7040377688,3350875.548898864 L 616923.2080138997,3350915.500072127 L 616862.3072532754,3351033.224844206 L 616818.3065758471,3351118.096559096 L 616814.6145806783,3351148.2095948346 L 616809.9937974392,3351185.1822359683 L 616790.1090645277,3351344.577427989 L 616791.2821567566,3351351.2359459638 L 616791.7703114806,3351377.506916908 L 616795.624583748,3351413.021838442 L 616795.986888998,3351442.1715030028 L 616798.0211695416,3351467.6850114376 L 616798.2191324933,3351485.535621878 L 616795.6983181349,3351523.303359493 L 616795.0685339135,3351528.0596415675 L 616793.5593368405,3351534.250897776 L 616787.0112612601,3351552.691275955 L 616783.5949066725,3351566.7374131274 L 616768.589399798,3351611.6878173035 L 616766.5250811975,3351615.6549575306 L 616759.8000719558,3351632.8724864474 L 616758.0057993745,3351639.060639588 L 616757.4710720392,3351643.8178888755 L 616756.4823930068,3351646.5842829184 L 616760.4898528855,3351676.6578210625 L 616760.2061404125,3351685.4155179723 L 616768.3967790377,3351719.419676897 L 616770.0610945248,3351726.194985116 L 616759.7452831421,3351728.526348641 L 616770.5137535669,3351728.306173811 L 616781.0033516717,3351772.7547359033 L 616784.073682373,3351782.983968957 L 616785.0400136344,3351791.1961238706 L 616792.2756200389,3351834.5006092954 L 616817.2098974963,3351895.283235734 L 616805.1895215937,3351922.0897130016 L 616801.9154369115,3351930.918400157 L 616796.2647938551,3351938.174172672 L 616786.489774663,3351943.279530504 L 616783.8488339762,3351974.510579293 L 616784.5620632963,3352016.085358095 L 616754.4897675216,3352157.082354209 L 616748.3410355294,3352273.1701882905 L 616743.3500871154,3352361.7850848483 L 616748.5879297114,3352376.1462316257 L 616766.7999773454,3352417.4595643543 L 616769.0689960782,3352421.8080209885 L 616790.7249786052,3352465.040753005 L 616829.7197744569,3352532.624275692 L 616887.0392966771,3352622.798002488 L 616924.8827497428,3352690.48039027 L 616942.0062958808,3352726.021541945 L 616956.6698655869,3352749.234595356 L 616977.3187834119,3352778.271428131 L 617014.9805507178,3352827.331288086 L 617047.1481189631,3352868.242901227 L 617087.8319025494,3352921.444137906 L 617114.2189726639,3352954.3075795826 L 617183.4277092756,3353038.2974954597 L 617208.2789498332,3353070.9208566663 L 617261.1872867242,3353149.7410306437 L 617353.2147973683,3353294.3810962816 L 617389.0783387705,3353348.853544068 L 617411.7648803769,3353394.656815603 L 617447.3356403304,3353476.2806725428 L 617461.6008170154,3353509.0216008388 L 617508.6128404312,3353581.458594194 L 617510.2953382459,3353586.4709425094 L 617575.0108665893,3353791.7748660264 L 617694.597205465,3354170.910344428 L 617696.5612443504,3354229.8963577067 L 617710.7552324905,3354661.4372524684 L 617663.0719320484,3354981.025441219 L 617666.2741276228,3355120.605028512 L 617622.849369944,3355304.243038153 L 617415.7087943826,3355807.215387554 L 617302.9741743063,3356043.302452302 L 617187.8804554532,3356231.715801506 L 617176.5312838334,3356250.216701263 L 617147.2128961979,3356410.6138491584 L 617031.7475897862,3356616.5318867187 L 616938.9519300363,3356788.3338146694 L 616911.2922569832,3356839.5803026436 L 616587.6693085532,3357442.402195361 L 616437.408795892,3357550.964722994 L 616141.2444246763,3357800.9624572587 L 616119.224894535,3357819.459638646 L 616097.2992315444,3357838.0695326803 L 615948.0306642342,3357971.262308185 L 615841.1766581822,3358066.8849795293 L 615646.6832209093,3358177.2066655797 L 615642.5324440029,3358179.379420244 L 615638.18654172,3358181.2235991103 L 615668.1206645265,3358241.059789103 L 615678.5052976764,3358267.4364210316 L 615683.521942324,3358284.5623722486 L 615688.831378465,3358300.136224691 L 615697.4858313604,3358317.850655947 L 615715.5363695996,3358346.8604140165 L 615725.445082001,3358364.3647214286 L 615746.3452014783,3358406.370162733 L 615770.7372194193,3358453.7396731297 L 615774.7866848608,3358461.094542028 L 615778.5573856505,3358468.678430944 L 615951.3395212914,3358798.813328759 L 616000.2736696268,3358888.0098714195 L 616033.1835086433,3358947.772016115 L 616101.4508525549,3359081.394798854 L 616134.9452848786,3359167.2034165026 L 616153.3411654823,3359217.831664174 L 616161.7449676815,3359241.0924789375 L 616165.1992164208,3359250.768933194 L 616178.2649654006,3359287.043884356 L 616194.696891981,3359350.9501856132 L 616209.6459134079,3359408.963858695 L 616229.0179178178,3359503.167946142 L 616238.9850493495,3359569.2206365056 L 616242.4093559147,3359608.381482725 L 616249.3990809693,3359709.874492403 L 616251.4261353676,3359735.944314938 L 616252.9579362457,3359755.0242562024 L 616254.4775209911,3359774.439085451 L 616255.748884297,3359790.41481666 L 616268.1881904723,3359949.1542158662 L 616285.830955886,3360087.896001098 L 616304.5915103073,3360148.60984038 L 616335.7206674466,3360221.7660128707 L 616344.6017339221,3360236.602541138 L 616367.9163687238,3360275.870542683 L 616448.3989678242,3360380.1363336653 L 616451.3369177813,3360383.9390217154 L 616528.0033417225,3360459.0246155644 L 616641.0895210285,3360569.9618204045 L 616663.3359114663,3360591.9253938063 L 616675.2324563254,3360603.2462017667 L 616685.2169057503,3360613.3352709124 L 616717.456233455,3360645.3794302414 L 616779.4593811383,3360706.786815004 L 617027.0814244049,3360951.9573480384 L 617177.611202241,3361101.1031906065 L 617180.0796323861,3361103.5693376474 L 617388.5039920293,3361311.424722859 L 617522.3642172962,3361445.213041916 L 617532.7512181964,3361453.8548700493 L 617541.8625587989,3361464.707679904 L 617681.328973496,3361604.2088494278 L 617710.6539740681,3361629.796794826 L 617731.4173787248,3361647.2006992847 L 617747.2090790861,3361661.3383034803 L 617778.0220177657,3361682.621832251 L 618027.5142746771,3361831.6309684315 L 618041.2652769132,3361839.656701322 L 618056.6381229435,3361848.5761707183 L 618129.709111247,3361889.4906397294 L 618137.8299815005,3361893.6845663856 L 618141.1770737817,3361895.490334593 L 618306.3994789176,3361989.621806578 L 618363.7006848736,3362022.2747869967 L 618410.832185024,3362053.3743091025 L 618461.0012591192,3362088.5096609495 L 618465.8580739804,3362092.7713094996 L 618481.4631672399,3362106.4608147065 L 618467.3262192144,3362142.6654366995 L 618438.8707063101,3362232.5772359353 L 618418.6656324532,3362296.5358017525 L 618415.2126252587,3362304.477559514 L 618411.1922994818,3362312.1984093804 L 618392.7066545453,3362341.921838284 L 618324.8603610109,3362404.365283084 L 618360.1173018162,3362449.3002591506 L 618376.4847886811,3362481.738753763 L 618381.6174121981,3362530.4513215837 L 618375.4675522133,3362556.984469135 L 618360.5061139573,3362580.9824275807 L 618262.4004116696,3362678.121109276 L 618237.0346351098,3362713.540670467 L 618215.8605229983,3362760.4116495894 L 618213.0366314625,3362773.238391449 L 618214.3258447744,3362804.7302743765 L 618216.4314976154,3362823.047213175 L 618216.6777539498,3362836.1305509782 L 618215.4596662491,3362850.520624903 L 618210.9537677822,3362867.2110837707 L 618201.6790832551,3362889.8360260455 L 618194.0814570672,3362908.2621056396 L 618188.3277962309,3362924.603967893 L 618186.346376293,3362938.547611716 L 618186.8859637476,3362950.8524293564 L 618188.6299744978,3362967.498993637 L 618195.0728437899,3362984.6431963947 L 618204.0391127291,3362999.9253025614 L 618218.5311535735,3363019.0378435613 L 618236.8385712691,3363040.5107619516 L 618247.320446173,3363057.6987915426 L 618253.3208350437,3363071.067708679 L 618264.541721436,3363099.669328662 L 618294.7344877844,3363186.234821148 L 618302.7588048717,3363207.939255435 L 618311.1260302875,3363225.0955109773 L 618355.2973439893,3363298.508879988 L 618393.3881586437,3363365.0967617333 L 618407.1481605455,3363425.2101551434 L 618404.2131195633,3363536.241405183 L 618394.950850493,3363574.383771783 L 618374.3978451604,3363653.076477492 L 618370.1159023229,3363693.60002952 L 618379.3179399496,3363739.47455791 L 618392.2611456416,3363804.0084209363 L 618393.0758161417,3363808.457281878 L 618393.340379632,3363837.272830696 L 618388.6506723212,3363853.4100807826 L 618379.2905228374,3363883.1255203 L 618374.5551447914,3363903.461701021 L 618373.721514917,3363918.1980664814 L 618375.4782962921,3363933.623878276 L 618378.4093978576,3363946.6234947196 L 618393.100743328,3363991.6722039483 L 618379.4492859354,3364000.944443126 L 618364.5309434838,3364012.427148115 L 618353.2583873891,3364024.3789315447 L 618346.6194246253,3364034.0624325494 L 618340.5514768244,3364044.4134036987 L 618334.7908317692,3364061.4232512717 L 618331.7565308356,3364075.3539678976 L 618305.5753144037,3364167.730819374 L 618281.5289803668,3364232.0915023685 L 618265.7987540411,3364273.8194773262 L 618245.2244933611,3364328.4618780925 L 618240.7902188862,3364338.607103987 L 618223.1503664599,3364378.982884094 L 618200.6908680985,3364421.3070272086 L 618162.4136813601,3364487.280732897 L 618155.9785287691,3364530.6632043454 L 618151.4673299537,3364601.1080459873 L 618150.647266836,3364614.6242181077 L 618148.5637193968,3364647.516837277 L 618146.9241104722,3364710.237829014 L 618154.9491855667,3364757.9843220566 L 618182.2134159621,3364795.1885767137 L 618213.9284203344,3364820.693910999 L 618270.3057320388,3364857.5536139747 L 618292.5310887828,3364889.8341131485 L 618301.4791552838,3364924.0653223977 L 618308.6399351088,3364954.4042055374 L 618311.9707531397,3364975.0580442464 L 618313.5097914723,3364993.030354789 L 618312.4937146503,3365007.0934796133 L 618311.2662089355,3365013.6234493586 L 618309.05919837,3365022.1349473475 L 618333.4099755073,3365035.9159995653 L 618350.042364482,3365043.6364862463 L 618360.6726807797,3365046.1909471788 L 618375.2560942762,3365047.9040043415 L 618372.7362225292,3365094.6499651307 L 618379.17618769,3365111.902641525 L 618393.8164440232,3365151.9656794746 L 618451.0669698972,3365135.406935756 L 618510.0314900575,3365137.380640373 L 618594.0929831745,3365181.189261413 L 618647.8226302132,3365222.3487885417 L 618672.898486537,3365266.0721563967 L 618767.0457602851,3365248.363946429 L 618777.7107246773,3365310.108360654 L 618779.8232128479,3365327.648571996 L 618763.1602768067,3365393.0781699913 L 618821.6124677376,3365424.4232922588 L 618853.8670692882,3365453.155131596 L 618920.4300259996,3365506.639976894 L 618903.9981631996,3365524.861439727 L 618897.1001816043,3365531.4320538896 L 618889.6520644666,3365536.22779785 L 618880.1811846219,3365541.3362977477 L 618872.7464170882,3365544.9128894997 L 618863.9704673457,3365548.0283103404 L 618855.8820177208,3365549.828911995 L 618794.4959328838,3365558.80054434 L 618728.6911445699,3365593.8790786797 L 618663.1643220562,3365630.4120432176 L 618653.2485460478,3365640.719291231 L 618743.9230881863,3365808.6399473543 L 618756.7649418575,3365829.061437114 L 618753.3719893708,3365831.5745265814 L 618717.6764426426,3365863.5466835704 L 618707.9906876208,3365870.9797264743 L 618699.9647834653,3365875.7691234085 L 618675.7033845892,3365889.577214471 L 618718.4756725183,3365966.5316022844 L 618756.4253041152,3366036.220483165 L 618770.7493742539,3366061.534770068 L 618785.1694126722,3366086.747035489 L 618826.2743649612,3366166.884961664 L 618831.9159018467,3366186.7892700993 L 618833.5376666219,3366204.98387165 L 618833.0783885801,3366220.940463568 L 618831.0964629091,3366234.888401356 L 618828.3832486178,3366246.269665172 L 618823.2501038093,3366276.144642347 L 618822.7290609571,3366297.7500857306 L 618824.0457965671,3366326.476242998 L 618864.6726566254,3366414.703976331 L 618907.7811848283,3366496.0896224524 L 618951.4793224196,3366584.246974308 L 618997.9975372946,3366669.326670776 L 619043.192130377,3366752.2879410544 L 619058.1583259854,3366780.269645484 L 619073.028220663,3366808.370447216 L 619077.1707994137,3366816.168717468 L 619083.6230201703,3366832.0971654523 L 619097.3771441131,3366865.9380175127 L 619103.9839074282,3366885.0791236986 L 619109.452967002,3366903.3148242147 L 619113.322869515,3366917.875501627 L 619121.5810533398,3366944.5727730184 L 619127.2312839796,3366954.937416075 L 619133.9485622637,3366963.9915802735 L 619144.9896827176,3366982.3998981346 L 619152.6207955339,3366995.4563493817 L 619160.5343947406,3367009.5032253047 L 619134.3509648156,3367024.0689597414 L 618915.2687002127,3367145.813957452 L 618843.2717915812,3367185.368691757 L 618539.1326760945,3367347.9817409525 L 618566.6053919655,3367347.946797228 L 618594.0694837614,3367347.9118287615 L 618730.9163368605,3367359.494619691 L 618917.6522486879,3367374.947752022 L 619044.8757510588,3367387.536632602 L 619164.5436934121,3367397.494291501 L 619265.5280087932,3367411.6866370244 L 619389.523676625,3367429.0088967667 L 619682.6925730244,3367470.5857094144 L 619554.8139137436,3367849.1420595967 L 619523.1369923096,3367943.561431067 L 619482.8232501135,3368063.1584281167 L 619478.3548871358,3368076.4155523526 L 619504.6599216557,3368085.8992464086 L 619509.3505190497,3368087.7279041363 L 619515.0887480747,3368090.0059142336 L 619550.1809078366,3368103.8100989712 L 619602.5899568638,3368124.552671435 L 619608.5166106512,3368126.95298621 L 619622.8559329882,3368133.2060668287 L 619626.0060152042,3368134.6829954083 L 619629.6380523778,3368136.2682507453 L 619638.7136383902,3368140.2485132986 L 619685.3768198027,3368159.3828882207 L 619752.775258588,3368187.6140360595 L 619779.0552832984,3368199.3214658718 L 619794.8381795549,3368213.909154483 L 619969.2100548436,3368295.9715185408 L 620060.67553599,3368336.1108918237 L 620062.2490157392,3368332.694482639 L 620065.4995907686,3368325.8542229272 L 620137.2649155764,3368176.014265187 L 620143.417589864,3368166.553378235 L 620148.3813320588,3368160.8394125546 L 620157.1098341638,3368153.287065436 L 620178.7950833903,3368137.344951441 L 620282.4290959357,3368076.759856899 L 620294.0157764691,3368071.3424767037 L 620304.0410772745,3368067.4616444223 L 620315.22480694,3368064.1516641807 L 620326.8547609377,3368063.396309026 L 620395.6030211301,3368091.200301471 L 620434.157954607,3368130.310594379 L 620541.4808476205,3368204.6601272854 L 620557.5022586673,3368162.7130715125 L 620576.2300529731,3368041.7733641756 L 620590.691286432,3367984.9652473233 L 620603.5095047932,3367989.8721840535 L 620638.1621050641,3367999.674662653 L 620682.8610978941,3368013.804038135 L 620733.6035992082,3368028.335588758 L 620759.3457390865,3368036.3824964766 L 620773.1065960062,3368042.6307425583 L 620828.6932826815,3368070.7376039736 L 620873.8858561171,3368092.410606534 L 620884.4029668098,3368096.2963938755 L 620893.7850506271,3368099.062121106 L 620899.5389759878,3368099.907398807 L 620993.7396806332,3368110.485758153 L 621019.7280726901,3368113.4366549035 L 621033.2447751072,3368116.025381901 L 621038.4120851335,3368117.6368200947 L 621040.611900677,3368118.43396877 L 621045.7779646076,3368120.156997877 L 621056.3664540832,3368126.9196267403 L 621069.1311004721,3368136.599578613 L 621077.657647266,3368146.4468953856 L 621080.6990724292,3368149.9146963833 L 621091.5078609734,3368162.4487218717 L 621095.7754292116,3368167.3724266132 L 621244.7483246046,3368045.448846778 L 621302.4303331365,3367997.8807320474 L 621376.871925582,3367936.8586314977 L 621387.8223444998,3367928.2244471298 L 621585.3937508569,3367773.261305932 L 621795.2888337461,3367607.800448421 L 621846.5401968523,3367568.58303192 L 621917.2651187512,3367514.062177624 L 621973.1404985597,3367473.454557092 L 622004.189466644,3367454.632362606 L 622065.9584751554,3367419.4140755627 L 622277.079220288,3367291.2138641234 L 622364.9850808203,3367238.441734555 L 622378.4340052055,3367229.509816973 L 622389.8441313938,3367223.096239867 L 622436.7046601707,3367198.683487496 L 622525.4760885573,3367145.810271524 L 622538.6268056005,3367138.094249678 L 622647.4147229345,3367073.255939788 L 622681.4688395719,3367052.1420905422 L 622694.5249798901,3367044.4165252307 L 622742.2212101865,3367014.141453876 L 622824.9837146758,3366966.413261139 L 622890.4913364907,3366932.244598433 L 622999.2381951693,3366872.17301535 L 623074.4337717352,3366830.68806458 L 623096.7537143151,3366819.521804663 L 623115.2017873019,3366810.423813437 L 623274.936089959,3366709.5909600523 L 623375.7296656098,3366655.759305582 L 623391.8960676794,3366644.7467904016 L 623408.5902521524,3366638.1706560277 L 623537.9388973337,3366574.464264928 L 623551.2682817047,3366567.8586211735 L 623590.8149086173,3366545.1432287614 L 623637.7814465086,3366528.608487939 L 623663.1968680557,3366515.486269147 L 623671.2007154899,3366512.804065018 L 623693.2616483663,3366507.0706964456 L 623737.2405103585,3366491.4982854747 L 623791.6493974148,3366463.29443722 L 624049.293577877,3366327.016294036 L 624067.197994229,3366315.800988176 L 624323.2958954909,3366172.751967801 L 624333.3521092781,3366167.217182321 L 624356.0950186371,3366152.5113351336 L 624363.83738564,3366147.834485705 L 624371.4762195589,3366143.1564543615 L 624394.1141977154,3366129.3338506524 L 624416.7546923732,3366115.296641055 L 624438.5299527436,3366101.4642099966 L 624448.8798799538,3366095.1600702438 L 624453.6280638496,3366091.2217456843 L 624466.9929560595,3366081.6205962016 L 624490.0600896982,3366064.2567962906 L 624513.995381584,3366045.6922644414 L 624536.9435501787,3366030.4394195424 L 624595.6859043606,3365984.444976987 L 624608.0037358104,3365973.612594844 L 624707.9878917851,3365891.5124798324 L 624762.985831913,3365862.107681952 L 624770.4884023266,3365853.5470503587 L 624783.9571436641,3365851.486342239 L 624915.1538742317,3365778.727254567 L 624921.6500766396,3365765.3894425337 L 624933.229524069,3365769.2921376633 L 624994.0232868914,3365737.2928452236 L 625018.2822005781,3365724.49423496 L 625026.6106723088,3365710.181421451 L 625038.7657989777,3365714.3055401156 L 625084.1260587318,3365687.899333087 L 625154.8999443598,3365648.1413903693 L 625244.1516398838,3365597.8458825727 L 625256.2186935047,3365584.9071119144 L 625268.9097286253,3365583.7224175655 L 625372.6685395003,3365525.2826657924 L 625503.3040554427,3365451.757348851 L 625511.0092317839,3365441.4216852416 L 625520.1156169974,3365443.5190401645 L 625756.9933288153,3365321.2294389606 L 625769.5795607691,3365312.727829998 L 625782.2641943109,3365304.6738980776 L 625786.2285427053,3365302.169394609 L 625818.0512830948,3365283.2509752037 L 625887.9429434778,3365246.3711213563 L 626134.3402327737,3365115.884809848 L 626147.408949506,3365107.5006827186 L 626160.6444092975,3365101.1107571353 L 626211.977120415,3365073.669032829 L 626221.0685483519,3365068.896986154 L 626234.3078905185,3365062.180848294 L 626286.4001084896,3365035.512453454 L 626301.8653857666,3365027.379553152 L 626316.539533865,3365021.2297483804 L 626552.1865514097,3364890.6247308506 L 626569.9468259445,3364884.073137682 L 626583.4623941052,3364878.133378845 L 626655.2996560077,3364839.1755055175 L 626659.4537576977,3364837.454870626 L 626745.578112284,3364801.214398987 L 626762.4968221129,3364792.102726954 L 626773.8854820272,3364787.246141148 L 626846.7795328147,3364756.9491953226 L 626862.1378018851,3364749.923393708 L 626915.9206647807,3364734.6983763524 L 626947.309656571,3364728.8560035266 L 626968.7691398399,3364726.332802625 L 626995.9611554374,3364725.8775296514 L 627009.6734714763,3364728.2533351355 L 627029.2400077418,3364731.1441191663 L 627078.6615189622,3364744.2510841163 L 627152.8474608778,3364759.305300947 L 627196.8311927206,3364761.3656097944 L 627221.9763540121,3364755.124656036 L 627250.1593186057,3364744.479500501 L 627300.0625922567,3364740.744153437 L 627270.6358235732,3364554.621398751 L 627257.7116062144,3364451.716662014 L 627260.347416457,3364407.184936661 L 627271.1351726267,3364232.51148292 L 627273.3063444417,3364219.568937282 L 627280.5311331411,3364176.7560738674 L 627286.7279798877,3364139.916933717 L 627300.633668626,3364084.5487923315 L 627325.6036418037,3364003.4765670937 L 627340.9077577371,3363960.654425271 L 627361.7563304707,3363911.679137252 L 627387.6009172654,3363854.010659372 L 627409.6400450373,3363802.171800042 L 627411.21909116,3363798.531645347 L 627419.8134574094,3363778.1232385496 L 627431.5398240722,3363777.7109808675 L 627438.6537956076,3363777.5710443906 L 627453.5436552574,3363777.5222415403 L 627465.5673806155,3363776.778557295 L 627474.6973446895,3363776.2242646636 L 627505.8955777861,3363754.5263485373 L 627599.5133854504,3363702.9771427433 L 627714.7871598555,3363623.6325935926 L 627936.3683666077,3363500.431096258 L 628003.5914341467,3363463.0883685034 L 628108.1333976255,3363405.6841155053 L 628214.5192524241,3363347.194285631 L 628236.6738094641,3363335.0360775855 L 628259.6544472055,3363317.2447944684 L 628331.8981533897,3363261.341925457 L 628395.9025319504,3363203.6842906345 L 628481.8597759579,3363126.2135708556 L 628531.4875209737,3363081.467195792 L 628709.4449101882,3362919.63171967 L 628827.9162750234,3362855.9711204153 L 628889.0454910184,3362822.1064509093 L 628950.2772466885,3362788.363463114 L 629016.3412037365,3362751.903660214 L 629090.1460267354,3362711.3186049107 L 629165.4896428706,3362669.867433639 L 629239.3599852524,3362623.8638938824 L 629277.0706102031,3362603.9120922238 L 629379.8706441709,3362549.82670806 L 629482.5695870977,3362495.6205125507 L 629510.2495698102,3362503.2682188367 L 629543.2514238907,3362515.634861512 L 629575.5332595757,3362532.6399294757 L 629597.7735878021,3362553.4164857934 L 629612.5126546343,3362574.876737903 L 629828.3884607495,3362434.3493432705 L 629825.8407203648,3362430.1014640387 L 629811.2091700612,3362391.6860503987 L 629763.7534996523,3362261.545108046 L 629755.9999847192,3362242.8301587547 L 629747.8388992802,3362226.438141205 L 629701.3740311904,3362101.401182559 L 629642.1588836662,3362005.923644857 L 629562.2068994492,3361900.2258019634 L 629532.3605858042,3361864.840541992 L 629501.0546188568,3361830.2195842178 L 629470.2951897454,3361790.2792882198 L 629418.4101916362,3361724.927322277 L 629363.7482642638,3361658.545786219 L 629328.6895097791,3361616.3379558674 L 629299.0157933205,3361590.274937676 L 629252.7494730741,3361561.240243322 L 629240.5304341171,3361554.2143694544 L 629219.4007078947,3361545.0983651914 L 629197.6925963173,3361535.975530666 L 629110.7584304484,3361500.0245507904 L 628992.4428653935,3361452.294314368 L 628946.885754872,3361428.139750718 L 628925.935872569,3361411.81908967 L 628914.799708995,3361402.2635964197 L 628895.7996355266,3361383.861419622 L 628878.2581673325,3361364.0333389034 L 628870.1975357066,3361354.2995118485 L 628838.3663680024,3361307.5861524353 L 628809.5759891771,3361255.59120465 L 628766.0091149528,3361193.0010371148 L 628738.543550115,3361158.8725482044 L 628704.1762398914,3361130.864795828 L 628691.4486828357,3361117.854282215 L 628671.0100728413,3361099.1000344083 L 628661.110553131,3361090.787628774 L 628651.9624559077,3361083.910141897 L 628636.41706504,3361074.0878082924 L 628407.5883578081,3360943.248493328 L 628279.2795137011,3360869.462307642 L 628266.7662288267,3360863.112365879 L 628247.6805485005,3360851.8054739214 L 628231.4709142556,3360840.4122117846 L 628215.4780066513,3360827.4751816727 L 628200.7550036875,3360813.006779589 L 628184.0450535414,3360794.966996902 L 628171.2679862322,3360778.7432165714 L 628160.6739161055,3360764.1000617095 L 628155.5653425666,3360757.270375599 L 628136.1414430098,3360724.7918325807 L 628106.8939236895,3360670.13631447 L 628050.0161962936,3360562.716598464 L 628039.4245661667,3360539.7572728996 L 628031.8084216842,3360525.1489694878 L 627985.2976459657,3360442.79857459 L 627937.8935463668,3360346.0300208437 L 627936.3933036946,3360342.9110015556 L 627928.4114565117,3360318.985444328 L 627921.3787595587,3360295.844197164 L 627917.2189842992,3360273.630138543 L 627914.5998165687,3360251.0990792215 L 627915.9149874845,3360204.558798167 L 627929.1746356457,3359959.3035791223 L 627933.1169603581,3359926.539234238 L 627940.1718433293,3359890.486460534 L 627946.4428528608,3359847.6628518244 L 627951.5818522995,3359794.6276208158 L 627954.2021881959,3359751.657649706 L 627944.586265139,3359702.88188343 L 627933.6253268005,3359678.9199610115 L 627908.6930840353,3359624.095901394 L 627733.453986239,3359305.6895498866 L 627729.1309727206,3359297.321880275 L 627724.506544169,3359289.6208423907 L 627607.7589723702,3359072.326801935 L 627604.7554010062,3359066.3029294237 L 627601.6424618385,3359061.506443782 L 627488.7373240836,3358860.7773747295 L 627469.5466429453,3358824.860553991 L 627403.3724425854,3358704.5930746077 L 627398.2946326286,3358695.004756586 L 627393.8748205338,3358686.7473538136 L 627348.9160968566,3358601.981734108 L 627341.5721669106,3358588.2596784774 L 627335.7413458715,3358577.330661797 L 627333.6712991121,3358573.422674655 L 627330.2684390194,3358568.2875722097 L 627325.6585635911,3358560.0278868577 L 627253.8311951924,3358413.321925205 L 627250.2733021043,3358405.1861522933 L 627248.3956582195,3358401.0655559297 L 627245.5841590444,3358394.828865337 L 627242.0236447356,3358386.916459381 L 627221.9333527496,3358321.395040997 L 627151.3496298164,3358026.389053836 L 627143.7304984719,3357995.4860270647 L 627137.3129613076,3357968.9191841376 L 627111.0914698861,3357859.5427193576 L 627108.353492698,3357846.9821638903 L 627104.9225396673,3357836.0805615284 L 627070.9246316494,3357718.0792562934 L 627037.5628617416,3357660.279544321 L 627029.9225865683,3357647.43822767 L 627019.7084711919,3357633.1318443543 L 627011.0966364184,3357621.3963044914 L 626938.6981024776,3357522.787680951 L 626936.6121893869,3357520.21118709 L 626934.4350900407,3357517.307086776 L 626869.9616915777,3357432.2045676177 L 626816.2761550499,3357352.881788778 L 626811.6644054238,3357343.959747589 L 626803.9079531208,3357332.8957332405 L 626665.811406163,3357088.2057736865 L 626660.9143406325,3357079.2888738574 L 626653.0152744047,3357064.115317009 L 626564.3499641153,3356900.484655845 L 626307.4351670638,3356428.750237452 L 626292.3627576996,3356401.194839482 L 626291.3361242207,3356398.853943644 L 626276.0501294899,3356374.071930289 L 626279.8225886358,3356372.0100549823 L 626288.5145020015,3356368.7847873764 L 626293.9191941976,3356366.7418198697 L 626343.8422581411,3356348.1466029654 L 626464.8456564491,3356294.237136176 L 626525.4838305679,3356264.121688104 L 626700.5969283257,3356179.4817003068 L 626763.8147409611,3356142.306835142 L 626820.1458199923,3356110.595462324 L 626832.8239663932,3356103.3173745703 L 626880.0702148713,3356075.935228084 L 626986.9267177973,3356014.989755834 L 627000.6918917969,3356005.6188036744 L 627052.9360858828,3355977.848405535 L 627133.809754479,3355928.246634057 L 627197.907056807,3355889.983417414 L 627284.8245341576,3355832.580131126 L 627350.7741062539,3355784.472389181 L 627458.4966799042,3355691.292376341 L 627465.1033540976,3355685.490794296 L 627482.672141781,3355671.5062282262 L 627498.257926432,3355662.380305404 L 627549.7606128037,3355624.409185146 L 627558.2255049878,3355616.3087583943 L 627568.9148972821,3355606.343494839 L 627571.055530663,3355604.2628074996 L 627575.8230725394,3355599.8836557446 L 627614.8719985991,3355566.2018692773 L 627627.3833451434,3355557.0400584773 L 627607.6751591287,3355548.6014026776 L 627591.8806046592,3355542.3228890114 L 627609.8311138292,3355528.2310555307 L 627732.1351452825,3355422.149001667 L 627760.8802371786,3355398.7635767423 L 627924.9421921044,3355266.3462350722 L 628042.3516971179,3355175.9451237326 L 628183.9686574211,3355047.2533954647 L 628247.95562968,3354978.7274294957 L 628254.4797681388,3354971.9364694552 L 628278.4296964961,3354946.6125697917 L 628291.2881376811,3354933.0198137346 L 628311.1525440689,3354912.0744597344 L 628338.4192594155,3354883.1365075526 L 628396.2602578687,3354805.5643359087 L 628413.827326626,3354775.0680809407 L 628444.3664080405,3354722.109677979 L 628510.7592463476,3354571.368563417 L 628513.2193147872,3354566.4034693562 L 628521.6458399057,3354545.555113099 L 628525.133738134,3354534.73987055 L 628532.0207476538,3354513.3146064095 L 628535.1229704103,3354503.7067842316 L 628538.0466471266,3354491.6556712417 L 628543.8553602333,3354464.2350021014 L 628563.71377494,3354370.58603442 L 628597.2495316773,3354209.3703598846 L 628633.2474504212,3354035.768686882 L 628687.4392311728,3353770.717167677 L 628707.7217185581,3353673.5257354584 L 628735.6580635265,3353539.072196891 L 628748.4954914876,3353461.5199715057 L 628756.3088164525,3353296.454618036 L 628750.4580106045,3353172.7909520604 L 628746.6896031428,3353093.0544303786 L 628745.7676522117,3353081.8505142713 L 628744.5585682591,3353070.084407508 L 628730.071921501,3352976.801022826 L 628665.8704420155,3352678.880082103 L 628609.0557606455,3352415.178707647 L 628606.9603181153,3352405.284295245 L 628508.4189803752,3351959.9772379887 L 628503.370100306,3351939.6358988318 L 628502.5275312057,3351937.0724709476 L 628499.0879306698,3351926.8351341053 L 628492.6890870029,3351882.421423515 L 628453.338217077,3351686.986032595 L 628439.1764349542,3351622.9714227705 L 628344.1882810163,3351193.119373993 L 628294.0386440749,3350966.7376448107 L 628266.9109475203,3350843.942310592 L 628260.9130481068,3350854.2933150595 L 628259.8224161654,3350841.1935506896 L 628255.3087530859,3350815.6544814147 L 628249.5573083633,3350773.3507933225 L 628248.7925841344,3350764.141325778 L 628246.9914246193,3350754.145811424 L 628217.2149755189,3350602.158995431 L 628194.112573158,3350497.0346758883 L 628124.2513283286,3350178.536814386 L 628115.8458460353,3350140.645412951 L 628111.0321158337,3350116.31377449 L 628105.9918739845,3350095.083709072 L 628099.1610836348,3350062.189398918 L 628058.4207355778,3349868.960739952 L 628052.6618465518,3349843.3963688076 L 628045.2698642459,3349808.94690789 L 628032.2764140567,3349751.7122154613 L 628020.4721806862,3349699.926007639 L 627948.9273271356,3349384.7324282452 L 627940.9984173086,3349346.6204960886 L 627932.2570489894,3349312.936384102 L 627909.033141968,3349217.671850159 L 627881.0457826356,3349142.414290716 L 627877.1244835928,3349131.8422157415 L 627861.858983151,3349096.524641476 L 627834.9724287963,3349034.2479739944 L 627701.8257208734,3348785.510416863 L 627129.5200220759,3348927.1488076267 L 626973.5885359596,3348965.799591096 L 626796.9978394649,3348985.3617933462 L 626514.3678485252,3348930.771950093 L 626504.2859208322,3348928.8751057633 L 626469.111469764,3348917.382850917 L 626421.37554191,3348901.651869437 L 626308.8012377945,3349143.761269566 L 626241.7731542963,3349199.289587892 L 626215.0807754621,3349236.2267135885 L 626148.1035480106,3349287.438646498 L 626138.8365817899,3349298.0812703483 L 626084.0260721048,3349337.574811553 L 625988.7381407485,3349498.8613121016 L 625847.8729459648,3349617.278030337 L 625850.2178546845,3349622.292666033 L 625871.3185425303,3349653.4589361856 L 625939.906964387,3349779.394658811 L 625963.144748261,3349824.550464334 L 625885.0723793211,3349828.7503249664 L 625847.0473074099,3349830.8578046574 L 625825.6806215666,3349831.8328969507 L 625757.1438593359,3349835.0341433757 L 625702.1726829953,3349838.5036122273 L 625544.1775889101,3349848.545965799 L 625385.6735223253,3349853.2704487327 L 625243.3314388639,3349815.7196551138 L 625363.948314592,3349373.8477505017 L 625407.5471096972,3349212.967546498 L 625430.1382508527,3349130.9791355412 L 625484.1188800728,3348937.741562598 L 625576.8447552611,3348595.8629090036 L 625568.2145378873,3348593.20955363 L 625506.2222764676,3348570.773823805 L 625460.5781903636,3348557.0573572856 L 625379.294828167,3348529.9718782203 L 625363.9791827665,3348523.139723622 L 625347.8828200204,3348517.3048627474 L 625333.951862212,3348515.597144118 L 625301.845365945,3348504.693934949 L 625292.6992242933,3348504.812741929 L 625239.5328681893,3348484.4747860506 L 625236.0799942123,3348483.3258112916 L 625225.0358386305,3348465.018427092 L 625223.8105646864,3348462.570525982 L 625217.8209569042,3348448.199716791 L 625182.2542452817,3348386.171489807 L 625144.9232920401,3348318.9024487217 L 625106.4907866297,3348238.324312737 L 625053.4786909071,3348145.3921522773 L 624975.3422101351,3348002.177247244 L 624903.2419270914,3347869.8927727886 L 624877.3214597316,3347822.7143194997 L 624770.5303240011,3347626.7476327955 L 624717.7514368093,3347530.2713557514 L 624658.3902233643,3347410.548352548 L 624632.1059860081,3347411.7970538624 L 624650.9229111113,3347399.049675234 L 624600.8181337038,3347320.329466428 L 624590.786982178,3347305.472909329 L 624562.9606782607,3347264.4812719715 L 624872.7798572337,3347225.557846666 L 624890.8981200365,3347223.3305277852 L 624939.2215591538,3347180.1020960193 L 624956.61880073,3347156.2431104556 L 625027.203996726,3347059.1754175033 L 625071.1524247198,3346960.925390824 L 625091.1987108206,3346916.3755310574 L 625116.0839654818,3346860.6817182447 L 625232.3151852872,3346795.504479426 L 625331.226559253,3346763.2715329165 L 625498.5253359792,3346708.6679453133 L 625560.7327888077,3346688.4280092204 L 625573.4289610251,3346689.4596717865 L 625612.3581388897,3346693.1235051076 L 625704.742595217,3346701.719463749 L 625728.4436025022,3346698.9983956777 L 625828.1797679542,3346687.7326531364 L 625917.0257681666,3346677.778952405 L 625920.7689137262,3346652.9975869874 L 625932.7411180802,3346574.2146045608 L 625937.755872476,3346540.3555706185 L 625977.5123302332,3346421.884386477 L 625978.9105948664,3346417.573742193 L 626007.2268351514,3346365.4712104374 L 626089.9693867872,3346267.217888619 L 626131.2895705493,3346206.0691651856 L 626163.0414557797,3346156.77543425 L 626208.3099234555,3346077.9342461373 L 626279.6701601641,3345948.9673773726 L 626297.1996980635,3345914.8121945285 L 626339.0429698977,3345833.272065864 L 626380.9845162588,3345751.508932707 L 626398.5995254942,3345718.2403042335 L 626419.3421454675,3345738.3170432113 L 626546.0776653313,3345490.1707164687 L 626634.6274727522,3345315.3987236493 L 626637.5904817771,3345308.8948993427 L 626691.3289923535,3345189.8085184107 L 626716.2091075638,3345110.1756029315 L 626733.0243098247,3345046.080407584 L 626741.548462886,3345008.8249092554 L 626752.3310761171,3344949.760919965 L 626724.2970857437,3344944.0078997524 L 626724.3161801149,3344934.14041689 L 626726.1952769508,3344846.4880468864 L 626726.1192712924,3344836.6193763595 L 626723.7448780637,3344642.073318728 L 626718.4976105154,3344505.2281170017 L 626715.5025259625,3344206.5915234084 L 626715.4708632068,3344176.444019114 L 626715.384469097,3344150.2792982105 L 626661.5072453747,3344114.96605617 L 626636.8597383955,3344098.824430673 L 626561.8658724806,3344049.3035508213 L 626514.4866204031,3344018.0493946583 L 626443.3007795255,3343971.8940783 L 626372.766713684,3343928.4051679177 L 626348.3907958159,3343913.3855994055 L 626261.9491569541,3343855.302249971 L 626242.9335532391,3343843.3387765386 L 626223.2349707643,3343831.3588513746 L 626140.7994837743,3343784.963383108 L 626033.0597600524,3343728.1933667813 L 626018.7884944269,3343721.7138647754 L 626015.9147428427,3343720.459041008 L 626009.2949062178,3343718.6104703248 L 626004.6005807269,3343717.007755686 L 625988.7284121129,3343707.6189366197 L 625958.6426347164,3343695.752214605 L 625942.643342962,3343689.1410758947 L 625238.4825937125,3343403.629477268 L 625131.9964296839,3343362.8419869365 L 624895.5605861163,3343279.7890831567 L 624857.8995811987,3343273.035680289 L 624778.0458792587,3343251.9575080094 L 624702.8186116163,3343222.5003433065 L 624591.8867211969,3343183.0007131337 L 624433.3019536751,3343118.6879090546 L 624298.7434698103,3343065.396575124 L 624272.2741255279,3343056.8963248003 L 624242.1460574687,3343048.45789881 L 624190.3134201452,3343034.567843353 L 624103.7384232108,3343020.293057875 L 624072.9580454453,3343018.2752036643 L 624047.2639752122,3343017.6573103415 L 623964.7325389334,3343020.491981035 L 623958.0844392291,3343021.0793072144 L 623945.6003215926,3343018.503025547 L 623931.7699527614,3343015.679210914 L 623915.3828746083,3343025.586855092 L 623758.1395388892,3343054.845710243 L 623540.4715971188,3343090.6270540063 L 623385.5589182646,3343108.9381338856 L 623252.7389617246,3343124.402299867 L 623164.8511364445,3343132.285003157 L 623148.8670083015,3343124.120537016 L 623146.1642101606,3343125.311969476 L 623129.4877884204,3343135.6562081496 L 622904.079059653,3343157.2861514017 L 622426.3071692915,3343218.662834807 L 622179.1538497554,3343257.3587595266 L 622043.8627327018,3343278.462528444 L 621897.2035381567,3343300.1039225287 L 621801.8384956232,3343315.00388091 L 621782.6498608598,3343318.120348229 L 621755.547501147,3343322.1383655053 L 621748.8947902764,3343323.174359763 L 621733.8796153939,3343314.911054607 L 621730.2923810254,3343308.5557867177 L 621727.5525705558,3343303.7586712497 L 621719.056397119,3343288.5898721847 L 621710.7491770389,3343273.5350130256 L 621691.1473488146,3343227.431363146 L 621678.2939037117,3343197.3632864053 L 621567.829450949,3342993.300184396 L 621233.3897285674,3342376.6569977477 L 621539.052521874,3342211.79134138 L 621637.1573085879,3342158.900729849 L 621739.4112810381,3342106.280507331 L 621816.0941359961,3342066.783412777 L 621917.7135719211,3342010.723826826 L 621939.4901753617,3341957.0979013643 L 621946.41766798,3341939.990452766 L 621947.804860174,3341936.5724211726 L 621936.3199260298,3341886.792674574 L 621834.9874107479,3341683.493217923 L 621728.2683196643,3341479.6924810936 L 621706.5999834514,3341437.112660462 L 621652.8781832863,3341332.216617634 L 621632.6796518717,3341295.86600611 L 621599.4572185638,3341235.9719753503 L 621579.259658939,3341199.5006965436 L 621552.7259011907,3341151.7716011885 L 621526.5737900292,3341105.483776527 L 621504.1010204087,3341065.8889163407 L 621491.8377198406,3341042.3623481668 L 621402.8406388236,3340871.797058962 L 621400.4867270876,3340867.2270396263 L 621398.027795791,3340862.7677341546 L 621393.306455536,3340854.066445267 L 621318.6617312606,3340717.3509150734 L 621307.9038919158,3340697.6185945165 L 621268.2710084785,3340616.377183932 L 621182.7388617551,3340461.9223785447 L 621088.1950828168,3340286.7457588413 L 621049.8759639584,3340216.2748977654 L 620975.7052740322,3340078.905439739 L 620889.6498999182,3339919.3449525405 L 620879.0795070295,3339899.7256703353 L 620843.4085304096,3339833.6029948858 L 620830.2178127412,3339798.9875575113 L 620809.85492534,3339758.974030185 L 620806.8417092161,3339752.959105931 L 620802.6049778442,3339744.1507001515 L 620797.8888413876,3339735.672676791 L 620775.9971512208,3339694.643765577 L 620759.3010514743,3339663.3202749616 L 620753.8124802553,3339654.282868119 L 620742.4829374434,3339660.3637337126 L 620738.1471567265,3339651.115242044 L 620701.5253944192,3339583.9827656923 L 620696.7273159787,3339574.290189054 L 620667.9638529724,3339509.9120173557 L 620659.4556783809,3339486.7602484887 L 620640.0434511657,3339369.619756077 L 620639.8715227979,3339367.948085577 L 620638.2159263301,3339369.0401983247 L 620616.9922182553,3339381.218294117 L 620598.6256009825,3339387.6696745884 L 620570.8079528494,3339395.342703254 L 620539.5111138644,3339404.7506272593 L 620515.5193679648,3339414.574548618 L 620478.1606786464,3339431.679606869 L 620471.6668629688,3339435.378187034 L 620466.6381893088,3339437.207913129 L 620459.7662662619,3339440.6785629876 L 620454.336281756,3339443.605589348 L 620448.4353102646,3339446.0970942853 L 620330.2656674288,3339500.212349102 L 620322.9167368115,3339503.0150897824 L 620314.9713184602,3339507.360551417 L 620229.6921217921,3339547.9973056354 L 620207.9020658194,3339559.8340744097 L 620191.88591228,3339571.2951749647 L 620189.7497819476,3339572.8296271437 L 620179.8368473204,3339580.6996533317 L 620177.8046056437,3339582.226637515 L 620170.5254610435,3339587.354088463 L 620162.933962366,3339594.1478623482 L 620108.0245352562,3339640.540213133 L 620018.3102473529,3339716.7014957834 L 620011.7010039988,3339722.2838644865 L 620005.6616554464,3339728.7503627725 L 619958.0292966274,3339778.2175956294 L 619939.4523289625,3339795.3054413437 L 619916.5373548759,3339812.7934159623 L 619873.3714557467,3339841.472593941 L 619761.3651139487,3339914.068658602 L 619742.6345728182,3339927.0495548733 L 619722.6222791325,3339943.3472411046 L 619707.0576418621,3339957.9205118646 L 619672.4168107492,3339991.0135941235 L 619649.7688509498,3340010.269032645 L 619633.3745284816,3340021.6230112454 L 619500.0738329494,3340095.984844572 L 619487.755070731,3340104.052629423 L 619476.5291883509,3340109.464314662 L 619465.8643900157,3340115.777193778 L 619438.7612181808,3340128.7876335424 L 619395.8572384589,3340143.175269641 L 619115.6006659605,3340236.666180673 L 619104.3919374858,3340240.529204098 L 619085.5482680707,3340246.529778189 L 619004.1847213863,3340273.2472191853 L 618987.4672787562,3340278.608321012 L 618876.0545691757,3340314.9753533104 L 618783.0004012387,3340345.4489356615 L 618626.1721042001,3340396.834856444 L 618615.8234739004,3340400.3805716597 L 618605.9605589004,3340404.6028334373 L 618504.216426088,3340446.172522602 L 618452.537309819,3340479.6430207673 L 618411.129281784,3340506.3482403057 L 618402.0195366355,3340512.1278716605 L 618396.6920289124,3340515.2804404185 L 618372.1761711363,3340529.2072871616 L 618358.0327382995,3340537.368138056 L 618353.9571889889,3340531.110540003 L 618350.074420053,3340525.4230244798 L 618247.4188015007,3340366.151345424 L 618185.8577181468,3340270.827380491 L 618127.3750279165,3340167.4547586096 z" /><path fill-rule="evenodd" fill="#66cc99" stroke="#555555" stroke-width="234.7472708939823" opacity="0.6" d="M 614639.4659206639,3368040.6536466475 L 614641.6767755535,3368049.433202091 L 614643.5551019183,3368071.7298389394 L 614643.9903389907,3368085.2550165136 L 614643.7902284382,3368104.2074440653 L 614606.0055404949,3368207.6630466543 L 614604.9088559407,3368275.5967386933 L 614626.1859389974,3368334.237642068 L 614680.4239041616,3368408.738136008 L 614655.2359189121,3368429.64081417 L 614643.5625873473,3368443.5956547847 L 614632.2481929917,3368460.326974747 L 614624.5096601936,3368474.21174718 L 614617.5042809003,3368492.1988976565 L 614614.6759814337,3368505.139713817 L 614613.9580413904,3368519.2101503457 L 614613.8411582669,3368539.270058116 L 614617.8764348121,3368584.4221985103 L 614619.2949898421,3368604.4981988 L 614619.7558546985,3368615.593695895 L 614619.4888691639,3368622.904506867 L 614618.9402867184,3368629.1049954467 L 614617.6310506256,3368634.627892653 L 614613.520842614,3368651.3234020225 L 614680.814366163,3368681.297074018 L 614704.4833905596,3368704.492225389 L 614739.7926934838,3368743.7680445537 L 614790.8491418601,3368801.502746605 L 614811.8954754205,3368827.1080022883 L 614821.9755106292,3368845.506936323 L 614828.7094702275,3368862.977729016 L 614831.344011742,3368876.525218292 L 614833.1935891182,3368892.5107901823 L 614833.3224271887,3368943.9379836535 L 614833.6472094391,3368958.9030205957 L 614824.9092281553,3368958.810582083 L 614810.5989511198,3368958.6592098284 L 614741.5576922148,3368957.929165486 L 614728.7785614642,3368959.0129880253 L 614720.726279631,3368957.708979763 L 614567.3760547633,3368956.0893155467 L 614557.4822151155,3368955.984892573 L 614509.7640651466,3368955.481385531 L 614499.8702265545,3368955.3770150924 L 614470.6908843184,3368954.07353246 L 614395.0402143832,3368951.8339139847 L 614313.6636294681,3368946.1009988203 L 614296.9705553083,3368944.4831312015 L 614281.8117028313,3368942.993031586 L 614173.8259207451,3368929.444461512 L 614126.5455388628,3368923.4021054073 L 614096.9848902274,3368921.434666756 L 614080.0082787473,3368919.702562575 L 614072.3604282845,3368925.0557418903 L 614072.7752710733,3368958.639919222 L 614074.9547500269,3368980.27677327 L 614084.8872234481,3369039.90085167 L 614098.7467231632,3369128.055084178 L 614106.4172218719,3369166.4874186995 L 614117.1992514192,3369209.269888775 L 614139.0515214027,3369295.292331482 L 614159.8494855646,3369372.4363559494 L 614202.1911758287,3369445.9268768323 L 614267.4472158088,3369496.1571000447 L 614330.9093745983,3369552.025034028 L 614380.0657847741,3369634.3418778013 L 614456.1901566677,3369727.8005262134 L 614480.0288372271,3369762.5306487493 L 614481.9307741674,3369763.769524438 L 614502.9360965925,3369793.1395652476 L 614529.7316797214,3369893.39842639 L 614640.8119341119,3369894.7945951414 L 614714.5857396893,3369919.735613956 L 614758.5260920178,3369959.768079108 L 614884.4816881611,3370080.481711017 L 614894.4294914905,3370084.354956091 L 614952.3797512291,3370107.026891537 L 615037.6636672951,3370123.3371196296 L 615122.5659538503,3370130.880809124 L 615196.3358850348,3370155.9448241307 L 615248.661964743,3370201.2773884963 L 615393.2123765057,3370369.2943885117 L 615425.5031284816,3370420.7393822917 L 615464.7367213306,3370451.968717794 L 615570.075100383,3370469.603422704 L 615669.3846592006,3370484.7373830276 L 615723.7504533818,3370501.0577599406 L 615740.9798502983,3370506.339654426 L 615750.2648837738,3370509.2109122104 L 615756.6787166898,3370511.1675286484 L 615763.9491499176,3370513.682578196 L 615775.5758932903,3370476.5579418284 L 615801.2082652103,3370396.0339861223 L 615843.5666009167,3370278.327086267 L 615857.719788953,3370238.911318648 L 615894.6429590611,3370135.1178654255 L 615936.4111328765,3370018.732487828 L 615955.7467442986,3369952.1028276384 L 615977.8612208206,3369877.3055859455 L 615990.1783255193,3369812.033483746 L 616024.0594401265,3369607.3412040267 L 616076.0973242047,3369348.093499463 L 616089.6835101412,3369271.535829999 L 616110.9848656029,3369156.819789606 L 616112.6055608641,3369131.1202915558 L 616122.5439214173,3369099.6384280818 L 616135.9733280136,3369065.1980919912 L 616153.025079466,3369014.727511273 L 616171.1892978854,3368969.1442582076 L 616211.7595016153,3368901.637044399 L 616224.5737385172,3368880.3830979667 L 616238.3855918754,3368854.590310299 L 616280.8056457185,3368803.7296280414 L 616310.1530697765,3368771.673735029 L 616341.7882775983,3368741.09304167 L 616364.5595805408,3368722.160332525 L 616394.1469469464,3368694.3217631527 L 616502.6399768952,3368616.460149796 L 616719.2486775804,3368460.167650886 L 616809.5638606073,3368393.9753477573 L 616834.9225417917,3368376.0665676645 L 616916.4063114157,3368318.5356330057 L 617208.9693970645,3368111.644682722 L 617335.1820565378,3368021.452922403 L 617446.2153838613,3367940.5236132946 L 617592.5642401129,3367845.228456065 L 618141.5833773531,3367542.6106338752 L 618277.3445947655,3367467.492135796 L 618289.1326776315,3367460.967047887 L 618438.4145754343,3367379.6870415118 L 618496.1988673348,3367347.9510799036 L 618490.0464446093,3367347.9955645218 L 618452.5896149798,3367348.145022919 L 618432.2246137371,3367348.360780944 L 618427.3231391213,3367348.4189420277 L 618412.627343369,3367348.593532583 L 618382.5182018036,3367353.030102341 L 618310.649963882,3367363.6653156662 L 618263.4386153439,3367359.4938309244 L 618222.4278653105,3367350.8484670487 L 618194.4472357759,3367344.439841123 L 618165.3998495539,3367330.602044837 L 618163.6828105949,3367329.8106933674 L 617963.2051848437,3367234.5242920835 L 617870.2549777993,3367179.4277048646 L 617842.1969048443,3367162.605060749 L 617787.4370689533,3367145.4928727197 L 617765.7942958811,3367139.3858083035 L 617727.5219839673,3367116.8034963594 L 617679.6472231731,3367094.1172421346 L 617630.9672431601,3367074.8566048457 L 617617.3849377765,3367069.3865696876 L 617593.5779042472,3367059.9338286174 L 617564.9771664529,3367048.54045529 L 617525.4089085085,3367136.8937480478 L 617457.0571343745,3367257.9712402155 L 617443.5195222266,3367293.067260322 L 617348.0406760576,3367542.0942018116 L 617338.3653691597,3367567.1523475745 L 617314.1490657931,3367612.442680013 L 617308.95381406,3367622.1390823205 L 617208.7561745184,3367997.921904012 L 617152.65685151,3368034.11029983 L 617150.5731457582,3368031.323565421 L 617104.503583004,3368002.3341699294 L 617055.389077707,3367978.866366418 L 617078.9729813368,3367920.040738517 L 617080.3533110017,3367872.839553348 L 617059.1913134551,3367831.0439300356 L 617014.3108305157,3367815.70851965 L 616963.6600621653,3367828.2374777375 L 616930.3588120725,3367780.774008988 L 616808.9163167964,3367731.5807795986 L 616711.1039175695,3367734.632658936 L 616653.437777418,3367729.5832609674 L 616448.0153518034,3367647.6765213343 L 616411.6230406809,3367646.848518557 L 616364.0472220673,3367613.9734872915 L 616298.5690141787,3367593.0974781467 L 616250.0281817262,3367579.3912830576 L 616195.1842217589,3367587.8872203915 L 616165.4272881047,3367613.615564677 L 616157.1975817269,3367646.5622682157 L 616127.969513485,3367721.289995544 L 616115.49376999,3367738.223231713 L 616092.8205991132,3367756.712884683 L 616070.0489149293,3367766.6682097698 L 616045.5597495451,3367766.18327707 L 616003.0976472762,3367749.6588424016 L 615960.4739692357,3367738.55843558 L 615936.8941333462,3367743.4060449465 L 615922.9635079117,3367752.795047927 L 615905.3817230036,3367771.2277986603 L 615857.5935123246,3367821.2563629467 L 615835.7549538878,3367833.548521934 L 615774.0158232081,3367868.2505738116 L 615734.1134212372,3367854.415898036 L 615657.7809031224,3367852.2719809506 L 615621.9589593224,3367870.0643250104 L 615507.7163485705,3367937.680373943 L 615488.1285312576,3367964.7368136668 L 615466.3673253219,3368005.5226227394 L 615403.1925513797,3367985.561428191 L 615367.0094192098,3367974.0942084575 L 615370.8843962185,3367935.0066664424 L 615369.5904366975,3367930.1168425255 L 615364.9836004126,3367912.220411208 L 615320.5252900536,3367820.4156432883 L 615268.4894253261,3367755.580551133 L 615218.5878433507,3367705.8343566232 L 615211.1927988693,3367661.2006363836 L 615221.57212118,3367579.067619311 L 615222.2604512562,3367532.0810196996 L 615222.108570637,3367509.801446642 L 615219.523561412,3367491.5910502775 L 615213.8774501589,3367471.579641344 L 615205.0470914654,3367452.4272626666 L 615179.5294475916,3367404.046114641 L 615169.5809668233,3367382.1088202284 L 615162.7112353162,3367360.307159334 L 615158.2322848232,3367338.4277890576 L 615154.7895134557,3367292.057423245 L 615152.5752033078,3367273.8592056837 L 615147.2548157291,3367259.723149489 L 615058.6768441261,3367197.9326864006 L 614995.2742488864,3367135.413270323 L 614988.1407948034,3367128.6927647335 L 614982.4310024956,3367124.416958877 L 614974.7897787483,3367120.0176864727 L 614967.8051242419,3367117.1707147425 L 614960.533402602,3367114.5439254814 L 614954.10914623,3367113.3684341097 L 614947.4857305612,3367113.0751210446 L 614938.5482843437,3367113.7532153632 L 614929.6939318541,3367115.548280184 L 614919.0915063012,3367118.6469865725 L 614900.9658052595,3367125.7698655664 L 614863.9270338407,3367140.2305862796 L 614744.6913208072,3367180.428323395 L 614680.1133873875,3367183.291977381 L 614674.8619903115,3367207.506859869 L 614667.2918324403,3367233.1481017442 L 614657.6748330644,3367252.440430486 L 614650.422126747,3367265.9970671735 L 614641.1734735318,3367287.1819635737 L 614632.8849534336,3367317.133755707 L 614633.0380611711,3367339.413661647 L 614634.43098835,3367352.949847153 L 614640.4228721017,3367385.267129701 L 614646.5857469081,3367438.979960209 L 614645.9143327874,3367456.8124814155 L 614643.8997509658,3367475.1974026617 L 614640.1806216587,3367499.7626348473 L 614622.6188313008,3367598.2264668276 L 614612.98917763,3367655.5402998417 L 614583.3239624829,3367826.6906252876 L 614581.1151225393,3367845.5106983935 L 614581.0827314733,3367866.5685472083 L 614582.5763188666,3367879.55572084 L 614586.0827496677,3367893.113536723 L 614592.1377907057,3367911.2480852003 L 614611.1147493747,3367960.655333017 L 614630.6689476388,3368009.3044695 L 614636.4247388944,3368027.985108998 L 614639.4659206639,3368040.6536466475 z" /></g></g></svg>