<svg xmlns="http://www.w3.org/2000/svg" xmlns:xlink="http://www.w3.org/1999/xlink" width="300" height="300" viewBox="606821.2427959824 3336605.7434959793 24311.297208232805 35212.090608043596" preserveAspectRatio="xMinYMin meet"><g transform="matrix(1,0,0,-1,0,6708423.577600002)"><path fill-rule="evenodd" fill="#66cc99" stroke="#555555" stroke-width="234.74727072029063" opacity="0.6" d="M 616870.8826999664,3337909.894999981 L 616852.9640002251,3337910.039899826 L 616658.188199997,3337913.8389000893 L 616647.6916999817,3337914.063099861 L 612587.1468000412,3338550.517399788 L 612472.8638000488,3338575.6153998375 L 612362.3729000092,3338608.0694999695 L 612241.9005999565,3338664.135700226 L 610737.4737000465,3339690.350399971 L 608125.5789999962,3342782.3593997955 L 608125.394299984,3342790.557199955 L 608151.0570998192,3342999.2908000946 L 614106.4172000885,3369166.487400055 L 614117.1992998123,3369209.269899845 L 614139.0514998436,3369295.2923002243 L 614159.8495001793,3369372.4363999367 L 614202.1911997795,3369445.92689991 L 614529.7316999435,3369893.39839983 L 615464.736700058,3370451.968699932 L 615763.9492001534,3370513.6826000214 L 621095.7754001617,3368167.372399807 L 627300.0626001358,3364740.7442002296 L 629828.3885002136,3362434.3492999077 L 628744.5585999489,3353070.084400177 L 628730.0718998909,3352976.8010001183 L 628453.3382000923,3351686.986000061 L 628058.4207000732,3349868.960700035 L 628045.2698998451,3349808.946899891 L 627940.9984002113,3349346.6205000877 L 626715.3845000267,3344150.279300213 L 620639.8715000153,3339367.94810009 L 616870.8826999664,3337909.894999981 z" /></g></svg>