<svg xmlns="http://www.w3.org/2000/svg" xmlns:xlink="http://www.w3.org/1999/xlink" width="300" height="300" viewBox="605741.5016166985 3335525.781297274 26470.978236468043 37371.95271821739" preserveAspectRatio="xMinYMin meet"><g transform="matrix(1,0,0,-1,0,6708423.515312765)"><path fill-rule="evenodd" fill="#66cc99" stroke="#555555" stroke-width="249.1463514547826" opacity="0.6" d="M 607231.9748597159,3343405.3440084103 L 607257.4432130337,3343479.5676465468 L 607303.6234818764,3343577.864766827 L 607403.4924724106,3343763.5193828205 L 607407.187782703,3343795.258207305 L 607416.73726061,3343859.204578825 L 607418.8106667969,3343870.5618386446 L 607426.9762077623,3343933.7550298898 L 607431.7313186296,3343978.434157269 L 607442.1555396491,3344047.56242467 L 607450.7783570566,3344112.70885525 L 607455.9950566568,3344140.359155276 L 607467.9786783346,3344195.3374156305 L 607472.3268786558,3344212.89631551 L 607491.6460776075,3344280.600044765 L 607496.2184777006,3344294.719844856 L 607515.4201774109,3344348.689935221 L 607524.7115773667,3344372.6123352186 L 607567.9445330058,3344468.6141216103 L 607575.9782329951,3344484.204921419 L 607637.3965529423,3344587.608655404 L 607646.029152773,3344600.331955384 L 607700.7590307323,3344673.554317484 L 607761.9469183683,3344741.4727704963 L 607778.5284184217,3344758.2665703734 L 607779.459836505,3344759.2086647884 L 607801.2808366042,3344781.2505649463 L 607859.0646165484,3344835.1793933916 L 607920.9270924011,3344884.3761193347 L 607938.4125922599,3344897.187119205 L 608031.5144936973,3344957.75310227 L 608054.837033884,3344971.1435121815 L 608064.5732809448,3344990.467336982 L 608068.9179812813,3344998.717437118 L 608081.8642089363,3345021.298871302 L 608081.8509980169,3345021.3060793155 L 608116.4433980909,3345084.707379269 L 608145.1450336304,3345133.923414644 L 608184.2722337571,3345196.827614721 L 608235.9397049793,3345270.765678864 L 608235.4210161581,3345290.273923026 L 608242.8375499953,3345390.4439758086 L 608260.2654784542,3345489.3647105317 L 608287.52897039,3345586.0381115065 L 608324.3529632208,3345679.488836494 L 608370.3659380461,3345768.7740569743 L 608425.1036679177,3345852.992970391 L 608488.0139014459,3345931.295888383 L 608558.4619344883,3346002.8928093296 L 608635.7370137083,3346067.0613887133 L 608719.0595073969,3346123.1542268847 L 608807.5887712116,3346170.605400706 L 608900.4316294749,3346208.9361731755 L 609296.9665296633,3346349.7840730892 L 609381.7736502154,3346375.7337443363 L 609468.546410971,3346394.0673507736 L 609556.6022892282,3346404.640686978 L 609591.1117174102,3346407.238769635 L 609621.2927216772,3346409.576341108 L 609624.9924898555,3346409.855990754 L 609651.0558901241,3346411.7773903473 L 609750.3575467356,3346414.1513159536 L 609849.404836809,3346406.6620664815 L 609898.3555366152,3346400.503466628 L 609980.4294596582,3346385.5081444248 L 610016.5916042783,3346389.9549981155 L 610047.0854044416,3346391.483198265 L 610078.7516213199,3346392.5675616893 L 610105.5989213726,3346393.0612617168 L 610246.1425118468,3346395.5114249643 L 610334.2316367034,3346399.0045927633 L 610363.2828360817,3346400.919444202 L 610368.3491411854,3346401.270147737 L 610385.7331004407,3346403.3260471798 L 610433.483305737,3346411.6839595176 L 610580.7564076034,3346443.9688374493 L 610596.0129642707,3346447.1888930947 L 610682.2535643798,3346464.6896932274 L 610684.4713774298,3346465.138489031 L 610719.714291035,3346474.861738693 L 610782.9740616655,3346490.1182422694 L 610825.2295615053,3346498.8648424204 L 610914.287878603,3346513.1454191664 L 611057.8046785297,3346529.560719059 L 611070.2589708659,3346530.906256359 L 611165.914371142,3346540.63495652 L 611190.8142003575,3346542.8533380106 L 611299.4777001897,3346551.166837938 L 611383.2833396032,3346554.0524112373 L 611444.1601979863,3346553.594498408 L 611513.1552249667,3346554.1980253267 L 611599.9983975844,3346555.083148869 L 611623.6609216925,3346555.324392129 L 611646.3655507413,3346555.556051556 L 612190.9989050273,3346560.901284498 L 612281.4188483782,3346561.8284839652 L 612390.0562577967,3346562.943438676 L 612405.6193460424,3346562.982051956 L 612576.2597459753,3346562.0775519484 L 612623.2315313871,3346560.724467096 L 612709.8949315603,3346556.1881673904 L 612727.921327721,3346555.081284304 L 612788.308927666,3346550.8255841928 L 612820.1499434675,3346548.570505292 L 612878.389693092,3346542.7283838526 L 612938.42499287,3346534.925484015 L 613068.7161038416,3346509.095630772 L 613137.5240037935,3346490.6311303447 L 613182.1080465489,3346477.549443308 L 613252.246957334,3346455.187171034 L 613264.7437873118,3346451.547719379 L 613275.7501245642,3346448.2736754892 L 613310.700324645,3346437.658275175 L 613328.7916950351,3346431.975489481 L 613342.0201949244,3346427.6819895343 L 613452.3412780297,3346384.497491248 L 613497.2082781327,3346363.791191466 L 613586.3993427762,3346317.0451505915 L 613670.4369005748,3346261.5660804035 L 613748.4687906622,3346197.9165518973 L 613819.703751074,3346126.741986463 L 613883.4194423328,3346048.764111158 L 613938.9697721427,3345964.773640224 L 613985.7914469189,3345875.6222570557 L 614023.4096837193,3345782.2139779273 L 614051.4430246564,3345685.4959850535 L 614069.6072049714,3345586.449021934 L 614077.7180355465,3345486.077448383 L 614075.6932706265,3345385.3990560803 L 614063.5534418102,3345285.43474792 L 614041.4216498553,3345187.198185813 L 614009.5223164074,3345091.6855119145 L 613968.1789083108,3344999.865247503 L 613961.4108553017,3344986.6543119303 L 613946.5193906631,3344951.8304919684 L 613928.0993094359,3344911.2777498746 L 613867.6156096373,3344785.629050114 L 613858.3698925603,3344766.9238985665 L 613796.0018779022,3344643.9917365503 L 613707.3016193089,3344463.641815974 L 613701.2276246843,3344451.5006582565 L 613676.5084245501,3344402.917058212 L 613618.4928654693,3344303.500864367 L 613540.9667653106,3344186.662564139 L 613464.8550041156,3344086.3031124356 L 613418.3500040012,3344032.4021128896 L 613341.964616203,3343943.9389851806 L 613279.1244830067,3343865.1659471355 L 613260.4520001038,3343842.4523110725 L 613258.6201050471,3343840.2895687968 L 613305.8070329851,3343815.790444334 L 613316.0034600544,3343810.692594175 L 613330.7343701436,3343829.0985954297 L 613351.2636698796,3343853.919495393 L 613363.7901292858,3343867.089003033 L 613399.844858236,3343912.6789813186 L 613403.9032787132,3343917.7764947144 L 613408.74317873,3343923.8150946824 L 613439.3013292858,3343960.1401170054 L 613494.1931292126,3344022.33261712 L 613558.6379177788,3344088.8658202766 L 613628.9624159493,3344149.1506678974 L 613704.5632537428,3344202.669928174 L 613719.8700541082,3344212.474428277 L 613790.9844867887,3344253.9988035145 L 613865.2744227477,3344289.531066172 L 613879.840022666,3344295.774366133 L 613921.5285659474,3344312.5450294856 L 613936.3863659543,3344318.1376293544 L 614031.8974136153,3344348.7156526777 L 614094.2639932571,3344361.976803451 L 614122.0369430087,3344390.293632535 L 614198.3012226709,3344453.9715803517 L 614280.507912253,3344509.7674724814 L 614367.8455395426,3344557.1305409 L 614459.451984219,3344595.593259009 L 614554.4229879465,3344624.7759566493 L 614651.8210804188,3344644.3905678703 L 614750.6848332419,3344654.2434744635 L 614850.0383503104,3344654.2374171913 L 614948.900900997,3344644.372455846 L 614955.751300968,3344643.343055974 L 614978.2666176267,3344638.914341588 L 615048.0468976351,3344634.6795560336 L 615088.0812682984,3344628.0069715767 L 615082.6073354016,3344633.3857997484 L 615071.5496546773,3344644.422461111 L 615066.6366640056,3344649.403327347 L 615059.2258592945,3344656.556681118 L 614988.0344992599,3344732.8409375963 L 614963.6673994979,3344761.8480377016 L 614934.7853208798,3344797.887994023 L 614912.4389206188,3344827.1315939147 L 614877.4044715579,3344875.952983716 L 614862.1476718601,3344898.621883729 L 614835.909627762,3344939.7372769015 L 614820.3348277475,3344965.50827681 L 614821.046232625,3344965.938217004 L 614764.9660932423,3345066.0041566594 L 614728.155093372,3345143.6450567944 L 614718.7430337003,3345164.087892296 L 614693.0114334157,3345221.673592331 L 614683.4585803149,3345243.7620914974 L 614630.602006512,3345370.1315079546 L 614625.1413545752,3345381.9833521405 L 614624.0593775895,3345384.339717087 L 614590.2655019657,3345458.1894505676 L 614584.308900253,3345469.6113739656 L 614553.4862443574,3345534.261256555 L 614492.8299253264,3345674.176261353 L 614434.5812256362,3345806.3635432306 L 614433.1129192321,3345809.725182221 L 614424.0899992553,3345828.9513222477 L 614304.3567475537,3346097.7504214505 L 614283.3931387874,3346144.375501171 L 614272.9514918643,3346168.4376095384 L 614253.9661006226,3346213.8085967093 L 614248.6984670897,3346223.753171049 L 614246.0317169882,3346227.702206903 L 614236.6542091434,3346240.8952615177 L 614234.6849982452,3346243.7360813706 L 614231.0020092195,3346248.8559367354 L 614217.5692923281,3346267.997452763 L 614200.1688921663,3346293.4199528964 L 614149.6822359088,3346375.3863274935 L 614107.3110532027,3346461.8274745285 L 614073.4480142813,3346551.942310264 L 614048.4069411003,3346644.8957054606 L 614032.419899026,3346739.826224844 L 614025.6350461971,3346835.85411036 L 614028.1152604838,3346932.089434237 L 614039.8375567758,3347027.640346291 L 614060.6932999929,3347121.621339048 L 614090.4892118494,3347213.161454086 L 614128.9491620386,3347301.4123535496 L 614175.7167272406,3347385.5561820203 L 614181.3640134531,3347394.6556506967 L 614181.3834092097,3347394.692944045 L 614182.1579475836,3347396.179150397 L 614191.8501065028,3347414.738777945 L 614203.1782550039,3347436.4373816834 L 614207.5987752335,3347445.115779764 L 614274.5500019392,3347628.5490345974 L 614329.3095032105,3347799.0275204713 L 614380.7385592962,3347959.45498804 L 614411.7419074721,3348043.1258037984 L 614450.0803532284,3348123.6998479115 L 614482.9147529285,3348185.4446480023 L 614531.5159869533,3348267.2047064104 L 614595.8262873035,3348364.534106473 L 614636.1800173711,3348421.2158811586 L 614660.4792174291,3348452.949580957 L 614722.5594672803,3348526.415309293 L 614749.7634672765,3348555.6339095663 L 614810.9986059002,3348615.980322914 L 614857.51470583,3348658.0366226006 L 614905.0815116093,3348698.418562439 L 614933.4184113666,3348720.9925627974 L 615007.015591271,3348774.3403110947 L 615048.2951914144,3348801.4889107193 L 615056.5072507645,3348806.832339865 L 615124.5658695645,3348850.64371923 L 615143.7956630435,3348863.1268498586 L 615198.4838676846,3348898.5990045248 L 615206.4540270122,3348903.715181974 L 615379.2590410846,3349013.4895707467 L 615435.0581900852,3349048.970522058 L 615465.3554460914,3349069.1261905655 L 615504.1484705536,3349095.100435051 L 615691.1100753923,3349220.190815929 L 615710.0206674928,3349232.536488898 L 615882.0396640038,3349342.087928032 L 615892.1509616801,3349348.824294973 L 615965.8592961527,3349398.210295519 L 615983.5064724408,3349409.7664362723 L 616123.5039855998,3349499.3475155407 L 616138.2203972514,3349508.792416676 L 616208.1667983638,3349549.7788163545 L 616248.9199979411,3349571.4895163896 L 616291.896175413,3349593.0741869425 L 616324.5400758075,3349608.497986934 L 616352.8783215786,3349621.351962596 L 616399.9021214748,3349641.805462867 L 616438.6028182765,3349657.684612772 L 616445.9794180652,3349660.5325126857 L 616448.3141767648,3349661.4305441934 L 616651.0237040543,3349739.108951452 L 616616.6578174689,3349771.6994869704 L 616566.050255106,3349823.291650802 L 616312.7744553547,3350100.8857508004 L 616221.1075984387,3350201.4008948463 L 616184.8956878262,3350241.041109965 L 616128.7138340307,3350308.228315883 L 616078.6261646872,3350380.0736129778 L 616035.016878332,3350456.025910366 L 615974.3195530879,3350573.3574745804 L 615930.5225759363,3350657.8363188556 L 615893.0994793607,3350738.634106857 L 615863.0121378986,3350822.4405659568 L 615840.4991071811,3350908.5912139583 L 615825.7388878668,3350996.4029821274 L 615822.1891692538,3351025.3554953556 L 615817.7133637707,3351061.1679445137 L 615797.800834645,3351220.786016112 L 615790.7880821784,3351307.7330843653 L 615791.3183714605,3351385.9930690248 L 615777.8953721712,3351440.6077093957 L 615776.3719723413,3351448.131409633 L 615760.4427141765,3351557.674545891 L 615756.7183685057,3351668.307132484 L 615760.8116934767,3351721.292685061 L 615760.0307367882,3351752.4175634165 L 615767.1601021097,3351850.077216421 L 615780.7166057643,3351928.659706113 L 615776.4869724021,3351948.490767087 L 615763.1268856707,3352025.935260572 L 615755.8895965648,3352104.189737345 L 615749.8292447557,3352218.607659668 L 615744.9323770921,3352305.5529872486 L 615744.3730687862,3352407.0055713044 L 615754.0961707621,3352507.9927037777 L 615774.001603718,3352607.4749302114 L 615803.8844822343,3352704.428286053 L 615809.1222823556,3352718.7893862496 L 615833.5523546054,3352779.5194149185 L 615851.7644546344,3352820.83281471 L 615873.3845176605,3352866.690916306 L 615897.3095173744,3352914.2721164287 L 615924.5633766233,3352964.804786747 L 615963.5581767141,3353032.3882866553 L 615985.7881217906,3353069.0749711017 L 616027.9761286629,3353135.444159096 L 616037.2016682685,3353151.9439097494 L 616041.1158092048,3353160.067953436 L 616096.5617108063,3353260.08464867 L 616111.2253107743,3353283.2977486267 L 616141.7213221495,3353328.7678739666 L 616162.3702221815,3353357.8046738743 L 616184.0967804899,3353387.203931384 L 616221.7585803976,3353436.2638311908 L 616228.8739356251,3353445.422160751 L 616256.8819723454,3353481.0436295494 L 616293.4778829848,3353528.899197389 L 616308.0789208285,3353547.5313871773 L 616334.4660205714,3353580.3948872956 L 616342.47162455,3353590.236832482 L 616396.4092324459,3353655.6941274125 L 616424.0654289683,3353696.8948475556 L 616509.5105125315,3353831.1893299096 L 616514.5898598628,3353839.0367949987 L 616530.588032389,3353875.747718663 L 616544.8384467984,3353908.4546826305 L 616580.8196624237,3353982.5451869583 L 616593.1772576998,3354003.421171738 L 616621.3660033697,3354092.7091588574 L 616699.6739958724,3354340.9761599456 L 616708.3126461378,3354603.6174853933 L 616674.0201164549,3354833.456535959 L 616665.0297659005,3354918.4802262494 L 616663.3349579443,3355003.961112649 L 616663.4245036658,3355007.864290531 L 616501.4954822984,3355401.0553330253 L 616422.7602233873,3355565.9415249997 L 616334.9921214975,3355709.621654536 L 616324.1341199849,3355727.3218278643 L 616279.5397868208,3355808.1689366368 L 616242.5922251716,3355892.7844626084 L 616213.6064096587,3355980.4470660733 L 616193.7644445769,3356066.3609547406 L 616159.5146882285,3356127.441164497 L 616151.8907560107,3356141.293082126 L 616059.0950559374,3356313.094982036 L 616031.2899261991,3356364.611014837 L 616030.2280116695,3356366.5837676963 L 615813.4889181078,3356770.3099311837 L 615792.3734615665,3356786.811958939 L 615497.1224311687,3357036.038766701 L 615476.0181411647,3357053.767060054 L 615472.1205775592,3357057.058133435 L 615450.1948778484,3357075.6680334327 L 615431.5133322425,3357091.926632807 L 615282.2448323913,3357225.119432852 L 615281.1719761201,3357226.0781334424 L 615254.3634059122,3357250.0688859643 L 615153.3026482841,3357307.3931386154 L 615153.5342987482,3357307.801530706 L 615123.0352235127,3357324.1243277965 L 615040.390344466,3357379.575449946 L 614963.6666381222,3357442.96689941 L 614893.6240530212,3357513.6707836925 L 614830.9563611773,3357590.986780609 L 614776.2842862649,3357674.14907498 L 614730.1493553489,3357762.333944032 L 614693.0085350577,3357854.6679163733 L 614665.2297053268,3357950.2364237336 L 614647.0880155476,3358048.0928597623 L 614638.7631592114,3358147.267956169 L 614640.3375940449,3358246.779383328 L 614651.7957252664,3358345.641480257 L 614673.0240600522,3358442.875017591 L 614703.8123316828,3358537.516896853 L 614743.855582236,3358628.6296899472 L 614748.8156023691,3358638.5443948586 L 614790.3265441635,3358739.0997795183 L 614798.9809440353,3358756.8142794687 L 614846.342193895,3358842.381692833 L 614851.0445739162,3358851.8326439424 L 614857.2906586428,3358864.1714915293 L 614881.6826583643,3358911.5409912127 L 614884.7878814652,3358917.521766518 L 614892.5866343218,3358932.4194960194 L 615065.347290812,3359262.5134245083 L 615074.6097178244,3359279.7965525785 L 615123.5439181112,3359368.993152539 L 615124.3094755744,3359370.3859744486 L 615149.7325400715,3359416.5526401782 L 615188.1314635576,3359491.712550571 L 615199.1011837568,3359519.8156463555 L 615213.1501357681,3359558.4804880796 L 615220.5943943992,3359579.085382727 L 615221.4315500924,3359581.43054296 L 615226.1997690934,3359599.974912985 L 615235.116206905,3359634.5781430625 L 615244.1702180522,3359678.6068471973 L 615245.4705579923,3359687.2242948785 L 615251.7621522709,3359778.58054663 L 615252.4082118759,3359787.39333198 L 615254.4352118263,3359813.4631323568 L 615254.633287178,3359815.9698507856 L 615256.0850507114,3359834.052918563 L 615257.5266081906,3359852.47062801 L 615257.6292922985,3359853.7716333307 L 615258.8525861402,3359869.1428589686 L 615271.2445131929,3360027.277726249 L 615276.1766400089,3360075.301197069 L 615293.8194398632,3360214.0429969006 L 615308.4484820646,3360299.375109811 L 615330.4035715249,3360383.122064479 L 615349.1640714791,3360443.8358644326 L 615384.4318890177,3360540.153272129 L 615415.5610889994,3360613.309472061 L 615477.6949873182,3360735.3727333387 L 615485.6554685759,3360748.671425035 L 615508.0551681407,3360786.3983269706 L 615576.3140320348,3360886.90707109 L 615656.7966322469,3360991.172871089 L 615659.996528876,3360995.314839249 L 615751.6340106219,3361098.372948279 L 615828.0060039277,3361173.1702119587 L 615939.6573644887,3361282.6998393657 L 615960.7666759221,3361303.540805472 L 615973.9775879727,3361316.345939159 L 615975.0968732631,3361317.411050619 L 615980.2605414029,3361322.585983898 L 616012.4998416539,3361354.6300837058 L 616013.771379422,3361355.8916608356 L 616075.7745794762,3361417.299060967 L 616323.3742342646,3361662.4474527 L 616472.302654851,3361810.0066954494 L 616473.3024514013,3361811.005560498 L 616681.9755872905,3362019.1095896177 L 616815.4473984258,3362152.509709476 L 616825.2608072024,3362161.4619166674 L 616834.6678692773,3362171.726520636 L 616974.1342694238,3362311.2276206994 L 617023.8636982212,3362357.693621824 L 617053.1886980304,3362383.2816221216 L 617068.270688896,3362396.1803084826 L 617076.5472966108,3362403.1177681345 L 617080.1998038095,3362406.3876939616 L 617178.8750742098,3362484.136231309 L 617209.6879742761,3362505.4197310265 L 617244.1539185409,3362527.581267888 L 617239.2480586246,3362545.40429878 L 617236.4241588786,3362558.2310986496 L 617221.5823812817,3362642.783304407 L 617217.9879461497,3362683.5738363955 L 617216.9524014058,3362687.0543518066 L 617198.2737763277,3362783.9162941175 L 617196.2923763148,3362797.8598938184 L 617187.5303373251,3362889.9011880667 L 617187.3065507696,3362982.3583299965 L 617187.8461511419,3362994.66313003 L 617192.3292041494,3363055.0482707443 L 617194.0732041075,3363071.6948709907 L 617206.5153267412,3363155.782744312 L 617226.053794428,3363238.5101589686 L 617252.547430468,3363319.279361668 L 617258.990230513,3363336.423561516 L 617292.477038665,3363415.1323302505 L 617332.5676314776,3363490.6914525577 L 617341.5339314883,3363505.9735527583 L 617353.496759678,3363523.8527683495 L 617356.7831712188,3363533.001731628 L 617364.8074713172,3363554.7062318265 L 617376.3674450307,3363581.750307934 L 617375.652089413,3363588.5203665122 L 617370.124698837,3363689.4050604124 L 617374.6696827244,3363787.404251446 L 617370.3775781108,3363802.8824122553 L 617369.6510089732,3363802.676489864 L 617354.5716469999,3363855.881966693 L 617345.2889995705,3363880.7272723317 L 617330.0770245552,3363921.0805611294 L 617321.3558168551,3363944.2427523644 L 617297.4533818775,3363985.4404388745 L 617253.9109837469,3364069.4017531755 L 617218.4955446391,3364157.101179667 L 617191.5238713367,3364247.754208151 L 617173.2372373986,3364340.549907153 L 617166.8020371842,3364383.932406848 L 617158.0226981391,3364466.755314997 L 617153.5114981879,3364537.200114897 L 617153.3025355893,3364540.5513881696 L 617152.56329779,3364552.736368535 L 617150.5640111101,3364584.2979690437 L 617148.9052055435,3364621.3845581003 L 617147.2656052666,3364684.105558295 L 617149.386603236,3364780.372974641 L 617160.7566831685,3364875.990103675 L 617168.7817833996,3364923.7366036903 L 617188.4821794094,3365014.775066743 L 617216.567747049,3365103.585585536 L 617252.7948129185,3365189.397630474 L 617296.8490671051,3365271.4666870423 L 617348.3482901698,3365349.0807152954 L 617375.6124899036,3365386.285015222 L 617381.0037367631,3365393.0076594637 L 617415.1912023568,3365470.465139012 L 617463.6042904315,3365556.1817109697 L 617520.2108154501,3365636.7227510083 L 617521.2178805486,3365637.891783071 L 617541.6154764566,3365675.180365296 L 617598.1877508649,3365757.7503587487 L 617662.730812933,3365834.251464553 L 617674.6167033955,3365845.773267647 L 617677.4131930547,3365856.608054344 L 617675.9281112342,3365910.7755891033 L 617682.7067532142,3366007.719737593 L 617691.1139637039,3366057.5847173696 L 617657.2799591664,3366052.809512067 L 617561.8598033987,3366048.5453592567 L 617466.4680882301,3366053.4043512414 L 617371.975090319,3366067.342158519 L 617279.2428871567,3366090.2316238377 L 617189.1174921703,3366121.8639222756 L 617102.4211363837,3366161.9504663926 L 617019.944767047,3366210.125539065 L 616942.4408316761,3366265.9496299927 L 616870.6164133316,3366328.913445438 L 616805.1267797657,3366398.4425546033 L 616746.5694052913,3366473.9026302765 L 616695.4785199106,3366554.6052359156 L 616652.3202354333,3366639.814106386 L 616645.8645939595,3366654.2290946073 L 616602.3279071508,3366640.348568499 L 616570.3083914552,3366630.726623831 L 616521.7675918374,3366617.020424185 L 616417.2171636468,3366593.4664295926 L 616310.7464727901,3366581.236356634 L 616203.5783971917,3366580.4706748235 L 616096.9438246465,3366591.1781784627 L 616042.099824307,3366599.67407814 L 615950.7908759185,3366618.211015146 L 615920.6841343183,3366627.3100192705 L 615871.3184585364,3366569.9899502215 L 615798.6247279462,3366500.962784432 L 615719.3852975183,3366439.5604982404 L 615700.393450199,3366426.3121313523 L 615697.404160684,3366423.3644827097 L 615681.001967005,3366407.555189203 L 615673.8685670416,3366400.8346892106 L 615587.5530098174,3366328.2522946224 L 615581.8432100508,3366323.9764943942 L 615481.3801805945,3366257.7857544674 L 615473.7389805289,3366253.386454846 L 615352.2437698914,3366193.9893524977 L 615345.2590696885,3366191.1423523757 L 615307.5535029772,3366176.6543404865 L 615300.2818030718,3366174.0275404262 L 615221.2961918083,3366149.1409963304 L 615140.5222518835,3366130.875249898 L 615134.0979516897,3366129.699749982 L 614998.3481636256,3366114.3474267246 L 614991.7247638911,3366114.054126573 L 614871.830957363,3366115.941026765 L 614862.893557022,3366116.619126874 L 614739.8551473552,3366133.6914513996 L 614731.0007476741,3366135.486551135 L 614649.1655347622,3366155.702564144 L 614638.5631344593,3366158.8012641906 L 614553.3461920477,3366187.9320220617 L 614539.2996762441,3366193.451915228 L 614535.3144486941,3366193.8309021955 L 614436.2925122622,3366213.4717202233 L 614339.7553802514,3366242.9960791594 L 614246.6868727708,3366282.1030931445 L 614158.0354608108,3366330.3942184676 L 614074.7046002746,3366387.37731517 L 613997.5435247641,3366452.4716624944 L 613927.33859095,3366525.0138770705 L 613864.8052647286,3366604.2646735283 L 613810.5808298325,3366689.4163986295 L 613765.2178932052,3366779.601262149 L 613729.1787533257,3366873.900180617 L 613727.0997055703,3366881.589826499 L 613724.7020044695,3366887.0820154464 L 613677.3951224751,3367020.4775965633 L 613669.106622643,3367050.429396433 L 613648.6305138392,3367140.3766049235 L 613636.5301856619,3367231.8279767283 L 613632.9086091369,3367324.005281584 L 613633.0617086738,3367346.285181658 L 613637.4620468098,3367426.640112882 L 613636.441412904,3367432.5335283717 L 613627.2395156083,3367487.3017116077 L 613598.0151543231,3367655.9086369835 L 613590.1414088017,3367710.121561253 L 613587.9325088268,3367728.9416615604 L 613581.1162835937,3367843.9720735336 L 613581.0838834625,3367865.0298733497 L 613587.6309551463,3367980.820988386 L 613589.1245555148,3367993.8081881693 L 613598.3919753027,3368043.661715242 L 613592.7723319203,3368046.432245772 L 613506.5768640843,3368100.449044318 L 613498.9289644567,3368105.802144141 L 613422.0945029772,3368165.3490045085 L 613351.40464004,3368232.0746092517 L 613287.5273498239,3368305.348443907 L 613231.0662320347,3368384.4781174087 L 613182.5548082727,3368468.7159047434 L 613142.4514805933,3368557.2658124766 L 613111.135199899,3368649.2911003814 L 613088.9018850956,3368743.9221881027 L 613075.9616268466,3368840.2648721365 L 613072.43670235,3368937.408775485 L 613072.8516021761,3368970.9929758674 L 613077.8103525629,3369058.8634170084 L 613079.9898526659,3369080.5003169565 L 613088.5475992375,3369144.596105259 L 613097.730241189,3369199.7194161713 L 613110.881086176,3369283.3661729745 L 613118.087787463,3369323.779645268 L 613125.7582877415,3369362.2119453587 L 613136.7376253997,3369410.8672732674 L 613147.5197251235,3369453.6497730576 L 613147.9826209778,3369455.47922028 L 613169.8348210091,3369541.501620659 L 613173.5251388599,3369555.5975945336 L 613194.3231391956,3369632.741694246 L 613220.4055290585,3369715.138931478 L 613253.5051856291,3369794.976319332 L 613293.3748678529,3369871.6575047937 L 613335.7165674531,3369945.148004767 L 613388.7311914312,3370027.5477513396 L 613449.5552499774,3370104.3637815206 L 613517.6048157926,3370174.858640788 L 613575.4454439946,3370224.0761979283 L 613599.0727292546,3370257.814651994 L 613633.9942379183,3370337.981799345 L 613682.7335328996,3370424.9942096556 L 613739.8976462736,3370506.7190073943 L 613804.9179849871,3370582.3433022792 L 613877.1478126402,3370651.1148837684 L 613955.8686823645,3370712.3497030553 L 614040.2975829836,3370765.438677085 L 614129.5947273734,3370809.853746905 L 614222.8719055549,3370845.153130098 L 614250.1610517412,3370852.471239477 L 614266.684458402,3370866.8191391793 L 614346.7651802233,3370923.6073990064 L 614432.0283216225,3370972.269757974 L 614521.6521310689,3371012.3372166147 L 614530.8447968469,3371015.9164957 L 614588.0404396522,3371038.2931510103 L 614660.2609339538,3371062.7832805077 L 614718.7131832449,3371128.162903682 L 614802.7260757476,3371203.138772459 L 614841.9596758873,3371234.368072481 L 614924.2596310109,3371293.3274449594 L 615012.0992005661,3371343.6633192124 L 615104.5780737438,3371384.859778189 L 615200.7483892384,3371416.494579186 L 615299.6244503419,3371438.24348162 L 615404.962850229,3371455.8781819185 L 615419.4222783421,3371458.1901325625 L 615448.0617677862,3371462.554564891 L 615459.4471972159,3371466.1942955963 L 615554.6372092956,3371491.5315098655 L 615651.8581992387,3371507.380545835 L 615750.1668208105,3371513.5876185205 L 615848.609174364,3371510.0924999956 L 615946.230062636,3371496.92910379 L 616042.082259133,3371474.225155821 L 616135.2356991781,3371442.200955059 L 616224.786504432,3371401.1672359365 L 616309.8657533277,3371351.5221532593 L 616389.647912314,3371293.747418867 L 616463.3588461009,3371228.4036275246 L 616530.283329181,3371156.1248174133 L 616589.7719857441,3371077.6123179817 L 616641.2475906439,3370993.627944871 L 616684.2106702782,3370904.986607928 L 616718.2443490376,3370812.548404047 L 616729.1724934357,3370777.654230659 L 616748.4450693582,3370717.109647445 L 616784.4952360216,3370616.9320342364 L 616798.8845598605,3370576.859365406 L 616799.8803820048,3370574.07310843 L 616836.3369473594,3370471.5914473715 L 616877.6347616195,3370356.5164822894 L 616896.790149759,3370297.4296127497 L 616915.4244476733,3370233.216571022 L 616936.8254923299,3370160.8324697213 L 616960.518438697,3370062.7368568443 L 616972.835538745,3369997.4647568725 L 616976.7547251735,3369975.333705651 L 617007.8546161336,3369787.444050743 L 617056.5407452022,3369544.8945439947 L 617060.7130836478,3369522.8268933264 L 617073.6036609749,3369450.1889981637 L 617076.3070607701,3369435.6301800376 L 617085.6946699112,3369428.893021552 L 617087.7682791083,3369427.400848214 L 617304.3769793838,3369271.108447854 L 617310.3873208116,3369266.737678894 L 617393.6114378973,3369205.742364096 L 617411.7407588342,3369192.9391112397 L 617493.1766368549,3369135.4419464716 L 617786.3523173869,3368928.118194187 L 617790.3777742587,3368925.2565867994 L 617916.5904741489,3368835.064786682 L 617924.1999015997,3368829.572958579 L 618013.9507742367,3368764.1558696907 L 618107.4525687465,3368703.2721255417 L 618554.7091565689,3368456.745502505 L 618577.838314831,3368511.2372644693 L 618624.1139249181,3368596.292851384 L 618678.3988001097,3368676.4741289974 L 618740.1839716614,3368751.0293268757 L 618808.8901489127,3368819.2594240606 L 618883.8731506501,3368880.5247030105 L 618964.4299448758,3368934.2507475177 L 619049.8052403546,3368979.9338283706 L 619139.1985681385,3369017.1456262586 L 619151.8462750914,3369021.7054359536 L 619183.1440639456,3369034.0170935583 L 619221.9036836277,3369049.357469275 L 619224.8287365044,3369050.683438527 L 619237.5363366212,3369056.2489383095 L 619259.3180799036,3369065.4830859136 L 619302.5010980212,3369083.1904261624 L 619302.7581302577,3369083.2980888356 L 619369.0201991489,3369118.7180363955 L 619543.3920992306,3369200.780336124 L 619567.3555275004,3369211.67500129 L 619658.8209272425,3369251.8144012955 L 619748.9605031033,3369286.2865472464 L 619842.0032278536,3369311.909258927 L 619937.082550683,3369328.443899931 L 620033.3129529824,3369335.736475341 L 620129.7981955961,3369333.7190659614 L 620225.63966592,3369322.4104608777 L 620319.9447471059,3369301.915982466 L 620411.835131422,3369272.4265054776 L 620500.4550003486,3369234.2166793295 L 620555.4995157704,3369203.8861171873 L 620640.0568741879,3369199.7896179995 L 620739.5543901866,3369184.8472519754 L 620837.0468012926,3369159.9824220138 L 620882.6384464,3369143.3207527637 L 620914.9687136897,3369150.891053482 L 621010.481851245,3369163.728265205 L 621106.7871571949,3369167.3117685723 L 621202.9901908628,3369161.608281605 L 621298.1974614313,3369146.670775743 L 621391.5247262863,3369122.6379838707 L 621482.1052034668,3369089.733111827 L 621569.0976219497,3369048.2617653697 L 621651.6940349985,3368998.609111846 L 621729.1273240122,3368941.236302929 L 621878.100223926,3368819.312703209 L 621880.9756539777,3368816.950422993 L 621937.5229839329,3368770.318041363 L 622003.4883282532,3368716.244192277 L 622005.9818936579,3368714.278059268 L 622202.5462138258,3368560.1049299394 L 622204.4716527994,3368558.590919994 L 622408.7075824799,3368397.591082918 L 622454.2362109859,3368362.752729218 L 622457.0739793926,3368360.5732176136 L 622516.6000707152,3368314.685416611 L 622523.5404644253,3368309.641466451 L 622561.2673711716,3368288.131040288 L 622584.9951315362,3368274.1660963823 L 622793.9514682789,3368147.2801766526 L 622879.6863769318,3368095.811279166 L 622882.7546528832,3368093.8728298172 L 622898.7304893349,3368085.549989192 L 622948.424945506,3368057.8356343806 L 623034.373961239,3368006.6434768303 L 623044.6912934858,3368000.58983983 L 623050.5979842646,3367997.0968232644 L 623159.3858842356,3367932.2585230363 L 623174.3590204641,3367923.1557076266 L 623199.6193068697,3367907.4941386594 L 623203.7707608716,3367905.0376450396 L 623230.4284055858,3367888.695802209 L 623260.1915507051,3367869.8037474263 L 623306.2184346523,3367843.260562704 L 623352.9596585849,3367818.880386039 L 623374.0209633883,3367807.572575338 L 623482.5313496306,3367747.6316252146 L 623539.8592879872,3367716.004192376 L 623541.6181326826,3367715.1242696345 L 623557.5062835776,3367707.2887528646 L 623648.9979111085,3367656.037016318 L 623778.0457871788,3367574.575122062 L 623846.8296270502,3367537.8391485545 L 623853.9369702031,3367533.5374765857 L 623979.7741438106,3367471.560514238 L 623981.9768767765,3367470.4722661776 L 623995.3062768391,3367463.8665661616 L 624014.1243051834,3367453.8113541645 L 624027.0428390701,3367449.721263451 L 624071.0217390258,3367434.148863358 L 624197.4532073071,3367379.306986679 L 624251.8621075681,3367351.1030868185 L 624259.2107634682,3367347.2550167646 L 624516.8549633163,3367210.976916751 L 624567.4829169887,3367181.782713732 L 624808.216962437,3367047.315525433 L 624815.5310134706,3367043.289968072 L 624876.3406329172,3367006.957310198 L 624886.8578812556,3367000.156699895 L 624915.5254440315,3366982.6394224684 L 624921.0590227647,3366979.2333963173 L 624943.6995228333,3366965.1960962075 L 624952.9510316788,3366959.3898968953 L 624966.7737792247,3366950.6092247213 L 624969.07735778,3366949.2061203457 L 625047.5963874337,3366896.1211275305 L 625065.7094874856,3366882.581627771 L 625068.399110033,3366880.564084365 L 625091.466210081,3366863.200284316 L 625102.9337340953,3366854.4377343454 L 625106.0479760958,3366852.022291591 L 625153.4360923957,3366817.800186011 L 625212.1783924293,3366771.8057859866 L 625253.5498349393,3366737.465151595 L 625265.2830893762,3366727.8306157077 L 625268.9473465728,3366726.005859891 L 625395.5362114521,3366655.802324582 L 625399.0051461171,3366654.1949462094 L 625459.7989464711,3366622.1956462064 L 625484.9065482683,3366608.9498053747 L 625496.3574579327,3366602.20975951 L 625541.8693533087,3366578.531636321 L 625580.592734946,3366555.989074739 L 625644.671060231,3366519.9924253034 L 625645.8388559382,3366519.3353745313 L 625735.0905558626,3366469.0398747297 L 625748.4460597028,3366460.585556627 L 625759.6516857616,3366455.027342978 L 625863.2787512477,3366396.66183923 L 625974.4535062397,3366334.089551561 L 625978.847801483,3366332.0935706003 L 626215.725501335,3366209.803970705 L 626315.9207993184,3366150.379789502 L 626307.1761379172,3366155.9320831844 L 626308.5626881109,3366155.102065481 L 626354.6289369273,3366130.794156583 L 626355.9445525291,3366130.0986899897 L 626602.3418522957,3365999.612389998 L 626621.9002586785,3365988.18647718 L 626632.0932487685,3365983.0042078085 L 626679.8203367508,3365957.489921758 L 626686.7141594106,3365953.99276243 L 626690.0068294717,3365952.3147705714 L 626742.0990297509,3365925.6464704196 L 626751.8448250038,3365920.5894502387 L 626767.3101246101,3365912.4565504775 L 626767.2685731883,3365912.377537431 L 626801.3027814705,3365895.875091757 L 626985.7531029282,3365793.6453836877 L 626985.7944357777,3365793.627219142 L 627060.180969071,3365757.189374213 L 627064.7940476359,3365754.687667522 L 627106.0564565166,3365758.209999526 L 627150.040156792,3365760.2702993993 L 627246.6979666409,3365760.121478989 L 627342.88988354,3365750.6415277445 L 627437.7172100388,3365731.919014521 L 627452.005301168,3365728.372789027 L 627471.1569841217,3365725.998843339 L 627565.9932595245,3365704.7363601546 L 627658.3175506415,3365674.367995148 L 627747.257761081,3365635.1806082693 L 627831.9737605194,3365587.544364058 L 627911.6653205818,3365531.909235063 L 627985.5796738098,3365468.8007513997 L 628053.018624312,3365398.8150365814 L 628113.3451429307,3365322.6131765335 L 628165.9893846279,3365240.9149749647 L 628210.4540712475,3365154.492154094 L 628246.3191888118,3365064.1610649526 L 628273.2459549785,3364970.774976121 L 628290.9800191823,3364875.216013746 L 628299.3538652343,3364778.3868289627 L 628298.2883936814,3364681.202071445 L 628287.7936689812,3364584.5797496093 L 628268.1212675489,3364460.1529545463 L 628422.1463447675,3364374.5133762285 L 628487.0562312858,3364338.4556219215 L 628589.4482108959,3364282.2319041966 L 628695.9603293554,3364223.6728692567 L 628717.7789157898,3364211.6990154907 L 628784.9977014022,3364171.3021455817 L 628848.8441457466,3364125.7620118284 L 628871.731082141,3364108.043225135 L 628943.8812036398,3364052.212814307 L 629001.2074532683,3364004.3258320913 L 629065.2117533858,3363946.6682321653 L 629151.3454052955,3363869.0386294336 L 629201.1255561967,3363824.154801657 L 629204.287853195,3363821.291290379 L 629291.195192349,3363742.2572480896 L 629301.2568578066,3363736.850612707 L 629312.5084105817,3363730.7113391175 L 629372.661450006,3363697.387516759 L 629432.9157853966,3363664.1831140234 L 629498.8594987128,3363627.78992133 L 629571.9960164508,3363587.5723086195 L 629596.3295426738,3363574.184930155 L 629609.8042437431,3363574.8730320497 L 629706.2930884144,3363570.4696080773 L 629801.9070101447,3363556.777812723 L 629895.7539800667,3363533.925383419 L 629986.9584540676,3363502.1255216124 L 630074.6695411664,3363461.6749037104 L 630158.0689418908,3363412.950913239 L 630373.9447420236,3363272.423513222 L 630453.5807363505,3363214.8200987685 L 630527.1773455746,3363149.677301316 L 630594.0236231425,3363077.624403217 L 630653.4738310083,3362999.3574387054 L 630704.9536774916,3362915.632470176 L 630747.9658649616,3362827.258284589 L 630782.0948937539,3362735.0885805483 L 630807.0110759164,3362640.013721539 L 630822.4737200091,3362542.952134973 L 630828.3334561954,3362444.841440138 L 630824.5336791602,3362346.6293907566 L 630811.1110949204,3362249.264719641 L 630788.1953662434,3362153.6879738895 L 630756.0078600978,3362060.8224291634 L 630745.019155106,3362033.532998901 L 630703.2412005096,3361918.962467023 L 630687.6062472103,3361878.797008847 L 630679.8527472256,3361860.08210883 L 630672.5687686672,3361844.0882432046 L 630638.7439037003,3361753.06563779 L 630599.429648277,3361661.5193375773 L 630551.2009909567,3361574.339452425 L 630491.9858906684,3361478.861852804 L 630439.6942497701,3361402.6513850875 L 630359.7422501058,3361296.953584928 L 630326.6053426563,3361255.4816484177 L 630296.7590425311,3361220.096348258 L 630274.084698036,3361194.1353766047 L 630269.2503834603,3361188.7891708077 L 630262.573065634,3361180.1188431014 L 630253.4771099223,3361168.4866532893 L 630201.5921101703,3361103.134653053 L 630190.3702089514,3361089.2562020305 L 630135.7083089079,3361022.874702263 L 630132.9936882593,3361019.592333392 L 630097.9348880388,3360977.3845330034 L 630045.4769730932,3360919.0462974403 L 629988.6071003865,3360865.000019609 L 629958.9334005307,3360838.936919748 L 629896.6701024708,3360788.5209883773 L 629830.5707695811,3360743.251101998 L 629784.3044693797,3360714.2164020813 L 629751.2109055602,3360694.3283089227 L 629738.9918055617,3360687.3025086946 L 629636.6664750259,3360636.0225843946 L 629615.5367753189,3360626.906584696 L 629606.8316483943,3360623.199674497 L 629585.1235480754,3360614.0767744877 L 629579.8458742246,3360611.876547166 L 629579.1876704664,3360611.6043525916 L 629545.0629364883,3360566.0439680736 L 629517.5974366104,3360531.915468089 L 629447.821128504,3360453.9431505213 L 629370.2793553261,3360383.6886923546 L 629370.2744724036,3360383.6847130186 L 629367.5438124656,3360381.0399415614 L 629347.1052124023,3360362.285641444 L 629314.0579390948,3360333.2739906237 L 629304.1584392017,3360324.9615907595 L 629262.0286926597,3360291.4769933876 L 629252.8805927604,3360284.5994933303 L 629186.116909785,3360238.523166911 L 629170.5715096423,3360228.700866954 L 629132.7849345444,3360205.9754957804 L 628933.2253116986,3360091.871620764 L 628926.146858556,3360077.454762159 L 628924.4257155611,3360074.1535131307 L 628925.0895610212,3360061.874745345 L 628929.6188509627,3360035.3814051882 L 628935.889951007,3359992.557805373 L 628941.7811176754,3359944.1089097112 L 628946.9201176143,3359891.0736099333 L 628949.7278045294,3359855.4942865684 L 628952.3481043455,3359812.5242863013 L 628953.9074512367,3359727.379821579 L 628948.2169242135,3359642.411419583 L 628935.3177910424,3359558.235272136 L 628925.7018910027,3359509.4595720437 L 628896.3587298461,3359396.077008107 L 628853.9604613631,3359286.9027724047 L 628843.4587082505,3359263.944834612 L 628818.9835373011,3359210.125708241 L 628784.774624837,3359141.932896712 L 628614.9458458904,3358833.3570528748 L 628609.2413221251,3358822.552670725 L 628487.8693219076,3358597.557570704 L 628487.7496893613,3358597.622105627 L 628475.5876163954,3358574.7225389574 L 628365.2687397274,3358379.293185988 L 628351.5416599168,3358353.6019512205 L 628345.6792085774,3358342.7904267306 L 628283.3575892954,3358229.524753165 L 628282.0199717545,3358226.9989587096 L 628232.189217116,3358133.12287191 L 628230.5877957132,3358130.1183499973 L 628223.5496911266,3358116.9677257626 L 628218.7289919979,3358107.932169867 L 628217.3601748333,3358105.347949082 L 628210.5605025025,3358093.2797465674 L 628181.2602048429,3358033.434485648 L 628123.8994677309,3357793.6945482222 L 628122.275576385,3357787.009175965 L 628115.2198363817,3357758.3910649084 L 628109.5574398089,3357734.950198918 L 628085.9462537703,3357636.4619791848 L 628085.40930418,3357633.9987376374 L 628065.5582857395,3357559.30738268 L 628065.8348154151,3357559.227710437 L 628031.8369154059,3357441.226410579 L 627991.205106574,3357326.8200643184 L 627937.0085876682,3357218.1807837053 L 627903.6468876102,3357160.380983786 L 627896.9537376553,3357148.9602374444 L 627889.3134373814,3357136.1189374337 L 627843.7840488111,3357066.3792169313 L 627833.569948927,3357052.072817109 L 627825.9212687517,3357041.5060981014 L 627817.309368899,3357029.7705977657 L 627744.7695649966,3356930.9694903656 L 627735.3123548864,3356918.2997110025 L 627682.943211568,3356849.2859227615 L 627660.6413212828,3356816.3338524476 L 627644.6659213046,3356788.02744215 L 627651.5258130068,3356783.820104345 L 627710.4790490706,3356748.6276785024 L 627749.0021725682,3356724.425861163 L 627835.9195724515,3356667.0225613546 L 627874.1522052035,3356640.474187164 L 627940.1018049464,3356592.366487293 L 628004.984304935,3356540.7851711586 L 628084.5112582573,3356471.9943924733 L 628091.6771383956,3356467.273838213 L 628143.1798382476,3356429.3027383597 L 628226.5099610315,3356359.2074155104 L 628226.7615237646,3356359.4954233062 L 628269.3283224702,3356322.3151095356 L 628295.9659477848,3356300.6779439775 L 628367.0248016634,3356230.041176443 L 628430.6584583786,3356152.648209222 L 628444.2061102676,3356132.322402685 L 628544.0946243487,3356051.7005811133 L 628652.4274438658,3355968.288198834 L 628714.8784798583,3355916.0178868887 L 628856.4954799613,3355787.326186907 L 628914.8680640261,3355729.7386521194 L 628974.0046383227,3355666.407049855 L 628975.6051752015,3355664.741085482 L 628981.0218479818,3355659.058507317 L 629004.9303167715,3355633.778414859 L 629017.308482306,3355620.693277825 L 629036.7334914462,3355600.2112779655 L 629038.9628152909,3355597.852995794 L 629066.2296152177,3355568.9149955916 L 629140.093595193,3355480.8975930903 L 629197.9345952731,3355403.325393269 L 629262.7772981939,3355304.711865533 L 629280.2275692468,3355274.4183060057 L 629310.6498449753,3355221.662492763 L 629359.5320578159,3355125.187631035 L 629425.924858147,3354974.446530724 L 629425.4816586634,3354974.251326796 L 629440.3537210723,3354941.1324219415 L 629448.7802213927,3354920.2840218255 L 629473.3768964998,3354852.4881874146 L 629476.86479628,3354841.6729875626 L 629483.8442116651,3354819.9616852817 L 629486.7444771591,3354810.97958512 L 629506.9339301656,3354739.4683665982 L 629509.8575298856,3354727.417266821 L 629516.3365392642,3354698.896609465 L 629522.1243744751,3354671.574875653 L 629541.9617892859,3354578.024837619 L 629542.755873874,3354574.244089649 L 629576.2915737183,3354413.0284896353 L 629612.4178424161,3354238.809189732 L 629612.979395668,3354236.0819859994 L 629666.7648963053,3353973.0172058907 L 629686.6331431697,3353877.810762704 L 629714.7470595968,3353742.504767142 L 629722.2328925146,3353702.3822700186 L 629735.0702924741,3353624.830070178 L 629747.3770982514,3353508.8016333072 L 629755.1903983841,3353343.7362331836 L 629755.1914524073,3353249.1952392994 L 629749.3418693144,3353125.557360899 L 629745.574684786,3353045.8464835365 L 629743.3213797301,3353011.047719667 L 629742.3994799346,3352999.843819807 L 629740.529205394,3352979.6274705348 L 629739.3201051475,3352967.861370605 L 629732.7137327684,3352916.6261534696 L 629718.2270327104,3352823.342753411 L 629707.6307646685,3352766.138554735 L 629643.4340934695,3352468.240061695 L 629586.9933377086,3352206.2738364204 L 629585.2608506011,3352198.0934877177 L 629583.3400512188,3352189.2227777117 L 629484.7987513988,3351743.9156778925 L 629478.9690507716,3351719.0776374824 L 629478.7085746957,3351718.0282164463 L 629473.0144597918,3351685.0329796025 L 629433.6635600955,3351489.5975795933 L 629429.73046376,3351470.981029169 L 629415.5943070487,3351407.082342052 L 629320.6318227003,3350977.3462616685 L 629270.4319551572,3350750.737367863 L 629243.3668785922,3350628.2255362426 L 629233.7925375616,3350593.2783763655 L 629232.9413944473,3350586.796577436 L 629231.1401940575,3350576.801077348 L 629228.3355354618,3350561.886372949 L 629198.5591358494,3350409.899572755 L 629193.9080765465,3350387.518289606 L 629170.8483212299,3350282.588039757 L 629101.0295890312,3349964.284206458 L 629100.5191033173,3349961.97000668 L 629094.6021934013,3349935.2969948077 L 629092.0186374421,3349922.2380060274 L 629083.9887225071,3349885.3258973393 L 629082.2222819481,3349877.885377636 L 629078.273129502,3349858.8678973746 L 629077.6489029832,3349855.884724441 L 629036.9085031457,3349662.65602428 L 629033.9737669872,3349649.196704725 L 629029.3362725835,3349628.6104304264 L 629023.0149177352,3349599.150141119 L 629020.4557013677,3349587.5588864195 L 629007.4622016118,3349530.3241866934 L 628995.5648230666,3349478.127483622 L 628926.1223351655,3349172.196134427 L 628920.0356096997,3349142.939027103 L 628908.9360366943,3349095.429871521 L 628902.0523410181,3349068.9042476905 L 628880.5800659237,3348980.8249170124 L 628846.3181436504,3348869.108064624 L 628818.4803904452,3348794.252594573 L 628814.7082917063,3348784.082752554 L 628795.0475755149,3348735.083800942 L 628779.8666930147,3348699.9619676135 L 628753.0646265936,3348637.8811702835 L 628716.6081017022,3348562.317401628 L 628583.46140132,3348313.5798013015 L 628531.000684276,3348226.521271901 L 628469.9734997966,3348145.2378349137 L 628401.0103389096,3348070.5692550787 L 628324.8236817106,3348003.286956969 L 628242.2006365061,3347944.086055158 L 628153.9948079507,3347893.5781727745 L 628061.1174781888,3347852.2851226283 L 627964.5281921125,3347820.6335162027 L 627865.2248440011,3347798.950356194 L 627764.2333679628,3347787.459658145 L 627662.5971386853,3347786.2801360693 L 627561.3661920052,3347795.4239759804 L 627461.5863766571,3347814.796709994 L 626889.2806768318,3347956.4351100717 L 626825.18245345,3347972.3231142424 L 626755.5279869261,3347958.869399398 L 626734.360363334,3347951.893785635 L 626640.9788046828,3347926.0626477925 L 626545.5357500573,3347909.3897205717 L 626448.9271580741,3347902.0315187955 L 626352.0599286723,3347904.057116577 L 626303.1326176049,3347909.849268163 L 626251.006967905,3347857.2795454054 L 626174.208499018,3347793.892444533 L 626091.4866138771,3347738.457626059 L 626003.6615768535,3347691.5247777305 L 625970.873155005,3347678.0024565244 L 626028.3624433044,3347671.5617486537 L 626127.7195976399,3347655.3311077426 L 626224.9413118032,3347629.192704632 L 626319.0422167109,3347593.4114592993 L 626409.0685735486,3347548.3500246066 L 626494.1079401784,3347494.4651107136 L 626573.2984189936,3347432.3028561934 L 626645.8373924907,3347362.493292765 L 626710.9896580203,3347285.7439597496 L 626768.0948792705,3347202.8327329583 L 626816.574278959,3347114.5999407102 L 626855.9365049009,3347021.9398468677 L 626885.782610001,3346925.7915872247 L 626901.1414547904,3346850.128901112 L 626918.5362991,3346827.10797258 L 626959.8564990665,3346765.9592728196 L 626971.9787714448,3346747.587174662 L 627003.7306716408,3346698.2933747848 L 627030.2579741448,3346654.7067078045 L 627075.5263738602,3346575.8655074527 L 627083.2951874636,3346562.083708107 L 627154.6554875277,3346433.116908371 L 627169.3394101264,3346405.5730245723 L 627178.8391568059,3346387.0633267667 L 627203.912737067,3346358.3564467845 L 627260.976614215,3346278.3645392302 L 627309.9145174103,3346193.158477356 L 627436.650117405,3345945.012177517 L 627438.1162472888,3345942.1300239037 L 627526.6660472079,3345767.3580240677 L 627544.6390704523,3345729.98155293 L 627547.602070273,3345723.477752538 L 627549.0829510685,3345720.2117016204 L 627602.8214511868,3345601.1253015883 L 627645.8266576175,3345488.026912383 L 627670.7067573909,3345408.3940126216 L 627683.4763362937,3345363.935512463 L 627700.2915366226,3345299.8403124013 L 627707.8335779377,3345269.1204677774 L 627716.3577779003,3345231.8649679376 L 627725.2900840051,3345188.4146994688 L 627736.0726839311,3345129.350699339 L 627748.8253312167,3345033.42240327 L 627752.2459415647,3344936.7106282664 L 627746.3024814104,3344840.121067335 L 627731.0506104738,3344744.5582689643 L 627724.77652444,3344720.4971022033 L 627723.6704297601,3344629.869391209 L 627723.010548555,3344603.7566707153 L 627718.3054093499,3344481.0505746896 L 627715.4972439783,3344201.0529275746 L 627715.4703507188,3344175.395820612 L 627715.4654479721,3344173.141857474 L 627715.37904794,3344146.9771579197 L 627710.183673592,3344048.4234988377 L 627695.2991387016,3343950.8618964823 L 627670.8704158944,3343855.2425828734 L 627637.1354364267,3343762.4968724963 L 627594.4227727789,3343673.528091471 L 627543.1484384201,3343589.2027793215 L 627483.8118359137,3343510.3422490414 L 627416.9908928282,3343437.714587657 L 627343.3364328301,3343372.0271751992 L 627263.5658367799,3343313.919794955 L 627209.6885365174,3343278.606594958 L 627186.313266268,3343263.2979965513 L 627112.9010317891,3343214.821554744 L 627065.1307397204,3343183.309301795 L 627058.5177969759,3343178.9844103362 L 626987.3319969004,3343132.8291106727 L 626968.1271782599,3343120.6848001215 L 626897.5930782042,3343077.195899937 L 626889.7534953885,3343072.3653665357 L 626819.6741700212,3343025.276482314 L 626794.466465195,3343008.883158869 L 626775.4508649905,3342996.919658846 L 626762.5465531738,3342988.9370333115 L 626742.8479533584,3342976.957133428 L 626713.7012560739,3342959.898716365 L 626631.2657559289,3342913.503216182 L 626606.963168865,3342900.264901064 L 626499.2234690244,3342843.494901083 L 626446.4685108894,3342817.6478283484 L 626432.1972105736,3342811.1683285316 L 626428.4379130265,3342809.494244971 L 626428.1293408478,3342809.327848222 L 626421.4750977652,3342806.3935767156 L 626418.9682118631,3342805.2772148354 L 626416.4248463898,3342804.166605364 L 626355.6468256881,3342777.36577886 L 626333.0727629004,3342768.461923138 L 626324.536374316,3342764.934586302 L 626318.3948024748,3342762.420641307 L 625614.2341026304,3342476.9090412892 L 625596.1723185019,3342469.7890074137 L 625489.6861181692,3342429.001507509 L 625463.4144164694,3342419.357978797 L 625226.9786163939,3342336.3050789596 L 625150.3409521269,3342312.7901487383 L 625085.748468478,3342298.5135959894 L 625067.437246668,3342291.343362228 L 625038.2590696531,3342280.438894587 L 624947.679944823,3342248.1863216814 L 624809.1160384091,3342191.992799956 L 624801.5210552099,3342188.948835912 L 624666.9625553968,3342135.6575356154 L 624604.5009302967,3342113.287155451 L 624578.0315298908,3342104.78685552 L 624541.9798936669,3342093.9535264773 L 624511.8518938844,3342085.5151266856 L 624500.9924396168,3342082.539387703 L 624449.1597393643,3342068.6492877007 L 624352.9992948663,3342047.889889304 L 624266.4242950571,3342033.6151891393 L 624169.1559260734,3342022.435120366 L 624138.3755262741,3342020.417220376 L 624096.9994609322,3342018.564237579 L 624071.3054606881,3342017.946337684 L 624012.937354596,3342018.2466329425 L 623996.0121886485,3342018.8279597065 L 623946.8749713233,3342015.79328676 L 623853.8042176778,3342018.723164637 L 623761.4094857898,3342030.2973984303 L 623670.4919072228,3342050.4156308584 L 623644.0661932088,3342058.907366542 L 623585.5495797928,3342069.7957463497 L 623400.6033828403,3342100.198179996 L 623269.0420673413,3342115.7489981554 L 623182.0607245112,3342125.876222187 L 623128.0815795927,3342124.336540277 L 623029.7578700221,3342131.239331402 L 622932.5913295186,3342147.7881620424 L 622923.5168969637,3342150.273237484 L 622931.3902560051,3342117.015875413 L 622944.6551073686,3342015.879804583 L 622947.5482695241,3341913.918582947 L 622940.0396406784,3341812.1930620708 L 622922.2073440684,3341711.761641179 L 622910.7223439349,3341661.9819409 L 622877.5394665857,3341548.9973067967 L 622831.3050449183,3341440.6967567257 L 622729.9725449374,3341237.397256737 L 622720.8790456896,3341219.6009793743 L 622616.8626005191,3341020.9615202006 L 622597.8366345848,3340983.5741007417 L 622596.6621995348,3340981.2736047013 L 622542.9403996844,3340876.377504657 L 622526.9974719337,3340846.505267431 L 622506.9789821666,3340810.4786266508 L 622474.1026175375,3340751.208644142 L 622454.0712765679,3340715.0373833356 L 622453.2798632033,3340713.6110479133 L 622426.746063555,3340665.881947686 L 622423.3738870174,3340659.86502022 L 622397.2217869312,3340613.577220385 L 622396.2595352362,3340611.87796318 L 622382.6050299654,3340587.8200457687 L 622378.5994369497,3340580.135492294 L 622290.6351164837,3340411.549456213 L 622289.4924486708,3340409.330965166 L 622278.3348545216,3340388.2879459667 L 622271.1546544216,3340375.1273457813 L 622196.731274449,3340238.817287081 L 622167.0265893289,3340177.9272138276 L 622143.0913948495,3340131.9298071153 L 622060.1816438166,3339982.210472902 L 621968.2087731656,3339811.797450465 L 621966.7165629572,3339809.0429228805 L 621929.1031723547,3339739.8698604465 L 621855.746141207,3339604.0073339767 L 621769.9040437251,3339444.84243057 L 621759.4351659805,3339425.411561671 L 621745.2712406452,3339399.15602553 L 621721.4498823066,3339345.4400546933 L 621704.6840889351,3339312.494858329 L 621700.9187308311,3339304.796126844 L 621683.4454150798,3339270.7373889196 L 621657.6536073127,3339222.7487368844 L 621641.7682606861,3339192.9462894285 L 621614.0211951076,3339144.231137589 L 621613.296820215,3339143.0383988037 L 621594.640526783,3339070.5996420057 L 621560.3054265392,3338977.049920376 L 621516.8300036461,3338887.381993389 L 621464.6459885965,3338802.4863038687 L 621404.2715921178,3338723.2059041746 L 621336.306359107,3338650.3280843142 L 621261.4252148799,3338584.576553799 L 621180.3717628599,3338526.6042548846 L 621093.9509002609,3338476.9868785585 L 621003.0208250971,3338436.2171476725 L 620908.4845138902,3338404.699923981 L 620811.2807547072,3338382.7481876835 L 620712.374824572,3338370.5799293886 L 620612.7489038319,3338368.315985372 L 620513.3923226644,3338375.9788376144 L 620415.2917365835,3338393.4923905493 L 620319.4213285078,3338420.6827267227 L 620255.5040450045,3338445.919896385 L 620251.63465202,3338447.0830423003 L 620160.5771228219,3338479.3268909147 L 620136.5854231264,3338489.1507911375 L 620099.2194681608,3338505.3471541186 L 620061.8607678853,3338522.4522537966 L 620045.5886086186,3338530.0802508867 L 620034.0661085804,3338535.608551172 L 620027.8263621778,3338538.628926803 L 620020.7819182641,3338542.0690088333 L 619913.9026456742,3338591.0138577297 L 619914.0357668842,3338591.3045501807 L 619888.3461158607,3338602.377321814 L 619795.1215160225,3338647.35952196 L 619752.3528655934,3338669.2782009756 L 619730.5628656315,3338681.115000597 L 619625.9595100513,3338746.6042294973 L 619609.9433099857,3338758.0653295987 L 619608.4809627613,3338759.1137674428 L 619606.344862946,3338760.648167429 L 619567.9639973224,3338789.6422561565 L 619558.0509972156,3338797.512356178 L 619558.5877987891,3338798.1884993073 L 619517.940865621,3338830.73995324 L 619517.5560529621,3338830.284492513 L 619462.64655284,3338876.676792642 L 619460.8490762064,3338878.199088279 L 619372.0872945321,3338953.5517653963 L 619366.4326301122,3338958.327925564 L 619297.4284009627,3339023.091051656 L 619217.4730271737,3339074.9135215664 L 619191.7508394885,3339092.1565425303 L 619173.020339744,3339105.137442818 L 619111.1646955855,3339151.6492134766 L 619091.152395571,3339167.946813269 L 619056.0509463282,3339198.608005542 L 619039.3313584222,3339207.935028205 L 618799.1534048391,3339288.0561066833 L 618789.7685883322,3339291.2385535003 L 618789.7174956388,3339291.2561620823 L 618784.8606142723,3339292.802798671 L 618748.174224175,3339229.403168816 L 618683.5800416431,3339113.317793527 L 618548.8646079721,3338871.751829023 L 618514.1165716053,3338809.4446768467 L 618370.819459027,3338552.44789399 L 618341.3609888601,3338499.4630398247 L 618340.7002681104,3338498.2765461635 L 618242.7008703735,3338322.5742693213 L 618168.280555446,3338188.8054477307 L 618115.8949750316,3338094.248680925 L 618111.4981612322,3338086.3959350903 L 618062.7275609133,3338000.203434976 L 618061.8191436365,3337998.6014286093 L 618038.7478711556,3337958.002095183 L 618003.7337805124,3337896.277935777 L 617970.7546396996,3337834.5203181086 L 617965.4608191224,3337824.7382839224 L 617890.2995086286,3337687.6800928013 L 617837.9922269819,3337592.088005917 L 617834.2681316712,3337585.3440039586 L 617783.6280382844,3337494.4683237597 L 617764.4048126539,3337459.618803587 L 617756.4855115965,3337445.161973216 L 617748.6253129563,3337430.762549252 L 617697.4716665245,3337347.088922931 L 617638.3679111479,3337268.828349298 L 617571.8825050485,3337196.7335363035 L 617498.6549029532,3337131.497889788 L 617419.3894058359,3337073.748844326 L 617334.8483869721,3337024.0418285797 L 617245.8449594533,3336982.8549231985 L 617153.23515569,3336950.584262656 L 617057.9096941152,3336927.540225238 L 616960.7854122812,3336913.9444478354 L 616862.7964487417,3336909.927694245 L 616844.8777490003,3336910.07259409 L 616780.0896002895,3336912.6987737142 L 616751.6587974938,3336914.7761749555 L 616668.8197631376,3336913.895416754 L 616636.8335916975,3336914.066935737 L 616626.3370916822,3336914.291135509 L 616528.0267998533,3336921.2487608846 L 616430.8788517351,3336937.849911651 L 616335.8368766323,3336963.933335485 L 616243.8240478553,3336999.2456756905 L 616155.7341156411,3337043.4439321365 L 616072.4227258689,3337096.098792924 L 615994.6991088962,3337156.6988044344 L 615923.3182192442,3337224.65533924 L 615858.973402481,3337299.308313635 L 615802.2896605325,3337379.932599239 L 615753.8175808382,3337465.745066401 L 615727.6350978856,3337525.077144289 L 615677.488212513,3337518.34688697 L 615578.45578435,3337514.9504861697 L 615479.5734155383,3337521.371896019 L 615381.8120278416,3337537.548064968 L 615286.1315361577,3337563.320159904 L 615193.4714231553,3337598.435125726 L 615104.7415145335,3337642.5481700804 L 615046.9443297625,3337678.824762608 L 615010.6593019933,3337677.813704463 L 614864.8075100656,3337672.1243390967 L 614855.5226932758,3337671.805345931 L 614763.3946934933,3337669.068546214 L 614677.3398284605,3337666.5934238075 L 614677.3373800913,3337666.6785640074 L 614657.7561189658,3337665.359214508 L 614515.8664841402,3337662.8856997015 L 614505.0208198188,3337662.6771042123 L 614487.6246199671,3337662.714816168 L 614414.3277171392,3337660.2033187407 L 614386.4977906233,3337659.637374172 L 614361.2430985284,3337659.4753697985 L 614337.3231965777,3337658.0833295756 L 614196.9774695795,3337653.8944050246 L 614184.1236892231,3337653.3227248816 L 614106.9241891392,3337650.8501248984 L 614091.2476108945,3337650.4710368584 L 614019.4533378276,3337649.298069856 L 613994.9411706649,3337647.874821302 L 613980.4980525189,3337646.070966142 L 613888.5954102272,3337643.104473049 L 613869.0220229152,3337644.274698696 L 613703.7834227717,3337643.9363915185 L 613649.4110402185,3337642.5875095525 L 613300.9826664304,3337626.205820363 L 613300.9644524984,3337626.5932194064 L 613273.717388455,3337624.7162968414 L 613266.686188523,3337624.531796624 L 613260.3566309183,3337624.385756866 L 613167.9252310961,3337622.5458568493 L 613165.0968524342,3337622.4935583733 L 613104.0397327789,3337621.4509627954 L 613083.2203678618,3337620.883652197 L 613066.3548335938,3337620.5670281244 L 613028.0681884475,3337613.747988386 L 612942.4555223758,3337606.973273271 L 612947.147187832,3337607.299873757 L 612919.9588172745,3337601.184796691 L 612912.4919150017,3337599.408027367 L 612812.8644149444,3337576.3246271177 L 612725.6080253628,3337560.1495443513 L 612637.2612105947,3337551.773916277 L 612548.5197292665,3337551.2637035707 L 612460.0824481271,3337558.6229243157 L 612372.6458382538,3337573.7936223606 L 612258.3628382614,3337598.89162241 L 612149.034948904,3337629.499722361 L 612140.2981853146,3337632.4900714094 L 612108.6224964659,3337640.7997688698 L 612023.1736329917,3337667.3549538637 L 611940.4406315803,3337701.442144956 L 611819.9683315277,3337757.5083452123 L 611727.2176583861,3337806.7551139886 L 611640.1428735214,3337865.4570172275 L 611559.7042317054,3337932.966694356 L 611486.7888047785,3338008.539653271 L 611422.2006990814,3338091.342480551 L 611361.2210991287,3338178.607780348 L 611331.8187870274,3338225.2997689634 L 611321.9950619424,3338230.5282524633 L 611321.910374675,3338230.3678307454 L 611130.3779890264,3338331.478544215 L 611106.9094195572,3338342.3682098384 L 611026.3455195633,3338386.218709945 L 611007.8633504859,3338397.497374297 L 610921.1115956245,3338444.329810962 L 610908.8374242672,3338451.067348476 L 610782.8447241673,3338521.3795485455 L 610706.3346540353,3338564.171986406 L 610673.5102830367,3338582.468913517 L 610650.8167574471,3338593.851608415 L 610633.5547520327,3338604.979049151 L 610389.0897053366,3338741.738871189 L 610361.1901924794,3338756.8042064947 L 610279.2395863325,3338801.142319302 L 610273.4508396594,3338804.298972759 L 610255.8285395114,3338813.9840728375 L 610172.0904015667,3338865.5220991713 L 610093.8185272514,3338925.034766697 L 610021.7696681372,3338991.946692429 L 609956.6404101672,3339065.6109555494 L 609899.0604388927,3339145.3153519956 L 609849.5864515201,3339230.2892802227 L 609808.6967746263,3339319.711191566 L 609776.7867395806,3339412.7165331775 L 609754.1648603849,3339508.406106729 L 609741.0498508848,3339605.854762085 L 609737.568510191,3339704.1203418765 L 609743.7544967545,3339802.2527905116 L 609759.5480029483,3339899.303339541 L 609763.8678028483,3339919.5205393434 L 609787.7261473153,3340010.1598003446 L 609819.9656836634,3340098.167234869 L 609860.303197359,3340182.769724339 L 610018.7263188738,3340478.508430406 L 610002.497207862,3340486.9231760036 L 609827.1940080939,3340581.363075925 L 609790.5856514527,3340601.1130108153 L 609722.7505622023,3340637.667025311 L 609721.087773046,3340638.565074077 L 609634.4533731551,3340685.4608741906 L 609578.677785131,3340718.0241856542 L 609559.3915850845,3340730.135585305 L 609501.670495763,3340769.2540161177 L 609479.6548960353,3340785.322216229 L 609479.6811620141,3340785.35820416 L 609461.697530605,3340797.675571462 L 609396.2353930873,3340851.1663596313 L 609380.5978928012,3340865.086959569 L 609346.2072892485,3340897.1830178853 L 609332.3027892408,3340910.785617506 L 609287.5878388217,3340957.4514851696 L 609272.9907390407,3340973.705885423 L 609239.0552369312,3341013.543715152 L 609229.107236977,3341025.8608152 L 609221.0716086936,3341035.942380019 L 609191.2352086615,3341073.874479838 L 609189.9296909526,3341075.537848005 L 609184.7610908702,3341082.137547979 L 609180.701045426,3341087.3572139395 L 609166.8483451925,3341105.288514103 L 609114.836240806,3341179.307755796 L 609100.9448409457,3341201.110755769 L 609066.4167840261,3341259.595831619 L 609053.6684839505,3341282.9677317007 L 609026.441626234,3341336.6688896557 L 609019.6550261211,3341351.1171895405 L 609018.4630966017,3341353.8130927165 L 609017.0573364445,3341353.7225701544 L 608957.0885728296,3341351.6649116226 L 608938.7995727953,3341351.586411352 L 608878.7325529009,3341353.1338282684 L 608856.7640527636,3341354.3610282997 L 608811.8717199449,3341357.8842429295 L 608794.9140201692,3341359.600042738 L 608747.5552636334,3341365.5367205776 L 608734.3479634472,3341367.5135210194 L 608707.6006031238,3341371.8882988943 L 608656.7841034137,3341380.90849867 L 608657.0284258571,3341382.284921774 L 608555.038999573,3341402.806199002 L 608537.5662999308,3341407.614599156 L 608505.8262420226,3341416.9166189088 L 608483.7152419615,3341423.7957187546 L 608404.6871074027,3341452.071714919 L 608376.1735070533,3341463.64541487 L 608280.4383825123,3341508.537627389 L 608250.5405825436,3341524.5374275944 L 608169.1325823372,3341573.2043286175 L 608141.0243827408,3341591.872128567 L 608111.0860040928,3341612.550053424 L 608083.3635037686,3341632.4520533746 L 607992.0362940358,3341706.526949957 L 607972.6020942258,3341724.2827497274 L 607951.1274245874,3341744.491719881 L 607930.521324505,3341764.4643198643 L 607886.2217276931,3341812.6340948874 L 607839.9377743084,3341824.0227730367 L 607748.6389752679,3341856.1217317223 L 607660.8705263336,3341896.8956599925 L 607577.4544504603,3341945.962676825 L 607499.1720070874,3342002.8632296734 L 607426.7563750074,3342067.0643985523 L 607360.8857855507,3342137.9648872637 L 607302.1771703967,3342214.900655029 L 607251.1803835063,3342297.151135768 L 607208.3730512932,3342383.9459867887 L 607174.1560992622,3342474.4723036727 L 607148.8499970167,3342567.882233788 L 607132.6917567999,3342663.3009171155 L 607125.8327136817,3342759.83468003 L 607125.6480136695,3342768.0324801896 L 607132.8674498533,3342912.5836387696 L 607158.5302496885,3343121.317238909 L 607182.0293447335,3343246.242637248 L 607185.0012447197,3343257.9042373607 L 607204.8931445709,3343325.8192423936 L 607231.3441447845,3343405.5532421228 L 607231.9748597159,3343405.3440084103 z" /></g></svg>