<?xml version="1.0" encoding="UTF-8"?>
<!DOCTYPE svg PUBLIC "-//W3C//DTD SVG 1.1//EN" "http://www.w3.org/Graphics/SVG/1.1/DTD/svg11.dtd">
<!-- Creator: CorelDRAW 2018 (64-Bit) -->
<svg xmlns="http://www.w3.org/2000/svg" xml:space="preserve" width="80mm" height="57mm" version="1.1" style="shape-rendering:geometricPrecision; text-rendering:geometricPrecision; image-rendering:optimizeQuality; fill-rule:evenodd; clip-rule:evenodd"
viewBox="0 0 8000 5700"
 xmlns:xlink="http://www.w3.org/1999/xlink">
 <defs>
  <style type="text/css">
   <![CDATA[
    .str0 {stroke:#879DAD;stroke-width:50;stroke-miterlimit:22.9256;stroke-opacity:0.709804}
    .str1 {stroke:#879DAD;stroke-width:25;stroke-miterlimit:22.9256;stroke-opacity:0.709804}
    .str2 {stroke:#2876AD;stroke-width:20;stroke-miterlimit:22.9256}
    .fil6 {fill:none}
    .fil3 {fill:none}
    .fil4 {fill:#FEFEFE}
    .fil5 {fill:#1D6FA9}
    .fil0 {fill:#2876AD}
    .fil1 {fill:#D2D3D3}
    .fil2 {fill:white}
   ]]>
  </style>
 </defs>
 <g id="Layer_x0020_1">
  <metadata id="CorelCorpID_0Corel-Layer"/>
  <g id="_3179612456688">
   <path class="fil0" d="M2632.73 1296.47c14.2,-2 35.92,-4.08 46.21,-11.93 30.43,-23.22 -7.38,6.83 5.23,-19.19 9.59,-19.76 40.67,-22.56 60.72,-22.96 -18.78,4.97 -32.54,30.07 -45.64,46.65 30.05,21.15 59.17,31.98 66.23,71.28 -103.29,57.78 -50.22,-30.32 -191.94,8.39 -31.06,8.48 -51.98,7.12 -59.16,0.33 -25.09,-23.78 63.94,-136.2 118.19,-105.15 6.88,33.45 -17.26,-11.73 0.16,32.58zm1480.41 -657.01c-23.66,-28 -82.44,-31.01 -121.4,-31.47 -47.77,-0.56 -218.22,30.4 -258.31,48.02l-63.77 12.54c-44.1,8.9 -17.15,4.66 -25.2,14.59l-8.62 16.41c-0.47,-1.27 -1.31,4.13 -2.54,5.87 -40.54,-7.82 -45.03,-16.89 -63.21,12.68l-23.16 -24.09c-29.13,29.85 -17.08,-2.51 -21.38,35.76 -5.32,47.21 12.99,69.52 -52.95,83.12 1.51,-1.7 3.89,-3.58 5,-4.65 22.45,-21.44 24.5,-25.48 25.76,-59.57 1.19,-32.33 18.69,-60.38 -18.64,-57.24l-50.83 23.17c-9.03,7.74 -16.7,13.03 -14.92,29.5 2.31,21.25 -0.44,1.68 14.99,27.83 -26.47,-4.79 -75.54,-17.61 -100.36,-15.72l-91.25 16.69c-78.78,7.46 -83.96,1.51 -167.79,32.11l1.01 -12.03c-0.36,-8.24 -2.68,-18.51 -28.87,-21.8l-19.41 43.15c-29.71,4.24 -35.12,-2.25 -61.86,13.28 -40.95,23.77 10.21,14.95 -38.54,21.26l-52.46 8.57c-24.22,-4.37 -15.37,-13.43 -15.62,-45.77 46.01,1.92 97.35,21.94 126.47,-16.46 -12.06,-22.35 2.27,-7.28 -21.88,-21.82 -26.46,-15.94 -66.28,-25.11 -97.33,-26.76 -3.56,-12.57 10.96,-10 -7.66,-18.5 -45.19,-20.63 -94.35,3.61 -139.59,12.19 -60.5,11.47 -117.01,37.25 -162.25,62.24 -119.03,65.73 -237.69,90.03 -264.55,179.24 45.57,9.48 48.35,-5.35 89.22,-16.36 -4.13,32.86 -11.13,59.31 -28.06,79.69 -13.19,15.87 -9.71,-7.96 -9.24,17.08 26.57,-25.43 13.97,-8.93 55.49,-20.73 45.72,-12.98 52.92,-35.43 88.34,-60.74 67.96,-48.56 22.91,-34.39 68.52,-80.18 23.89,-23.98 62.81,-37.95 92.89,-56.58 46.14,-28.56 48.03,-9.5 51.27,-7.78 -26.92,34.18 -77.05,32.36 -99.9,76.35 -33.69,64.86 65.24,18.56 96.99,38.41 -32.44,18.7 -32.97,3.92 -63.97,9.98 -60.2,11.77 -10.1,1.03 -33.49,32.78 -24.35,33.07 -13.02,-9.93 -76.06,47.38 -31.53,28.67 -173.67,59.31 -214.48,24.63 20.99,-46.39 36.2,-15.4 47.5,-63.15 -77.24,31.01 -41.05,23.19 -84.04,70.06 -14.79,16.12 -76.18,29.55 -107.63,50.22 -46.28,30.43 -89.05,45.37 -136.91,62.32l-12.2 5.36c-2.07,0.81 -4.03,1.93 -6.12,2.71 -33.18,12.45 -32.77,2.29 -58.84,22.08 12.63,22.29 57.9,50.41 2.56,93.03 -35.16,27.09 -98.34,0.56 -140.02,16.55 -28.91,16.37 -30.1,45.65 -49.55,76.36 -27.58,43.56 -10.42,32.69 -28.93,72.89 67.63,10.06 26.59,29.59 91.92,14.5 99.75,-23.04 75.46,-59.77 145.62,-104.06 42.75,-26.98 29.31,-18.53 67.57,-52.78 32.2,-6.34 40.73,-0.6 70.73,-8.12 31.93,-8.01 17.72,-12.61 54.36,-13.01 1.44,1.69 2.84,4.33 3.61,5.59l80.05 126.11c13.14,-15.28 17.94,-36.18 35.25,-45.09l12.14 -4.54c-26.96,-34.39 -82.01,-61.21 -54.37,-110.47 28.65,-1.43 11.41,-5.73 29.06,7.48l49.62 65.25c12.22,41.11 9.02,96.45 26.58,127.53 20.71,-3.22 29.53,-8.8 36.88,-28.29 6.77,-17.97 -3.04,-22.89 5.06,-52.44l41.99 -13.53c33.52,-0.51 -7.95,6.5 41.65,6.29 -27.78,27.86 -46.17,79.7 13.19,93.97 32.45,7.81 98.93,-1.57 138.86,-4.85 -12.55,55.63 -44.57,96.45 -75.96,130.32l-92.81 -1.43c-54.03,2.44 -122.11,-42.04 -153.62,-34.06 -47.89,12.12 -28.34,72.21 -96.27,37.77 -32.72,-16.58 -14.13,-11.2 -32.97,-25.39l-81.34 -41.85c10.07,-22.58 20.75,-38 34.08,-72.18 -47.4,-14.15 -183.15,3.09 -234.04,25.05 -97.05,41.89 -64.44,-28.27 -183.95,65.05 -45.88,35.83 -29.15,43.98 -59.63,80.56 -21.74,26.11 -50.77,30.68 -79.19,53.76 -159.79,129.8 -83.69,174.71 -125.06,262.99 -19.93,42.53 -34.59,22.26 -14.47,85.18 11.89,37.17 35.29,41.72 54.32,79.59 19.81,39.43 18.04,46.59 56.65,75.23 57.51,42.66 151.63,41.47 219.47,20.8 30.68,-9.35 69.57,-31.79 103.52,-10.74 32.7,20.27 0.97,17.77 38.26,27.93l46.55 4.91c48.4,51.94 0.21,79.07 12.59,135.09 8.03,36.33 82.93,101.65 101.77,219.43 16.33,102.11 -76.91,73.58 26.97,243.37 22.15,36.2 28.72,70.46 46.63,109.92 21.67,47.71 36.78,64.55 65.13,99.83 43.3,53.9 25.85,43.21 51.99,102.92 55.13,15.71 55.57,-1.3 105.22,-5.82 56,-5.1 53.09,4.32 86.75,-32.12 46.69,-50.56 65.98,-96.46 61.69,-167.8 62.31,-29.19 53.62,-43.5 33.72,-108.23 -12.44,-40.46 37.1,-69.94 64.72,-91.24 46.57,-35.9 40.17,-67.92 28.08,-130.98 -8.8,-45.95 -33.73,-84.78 -35.25,-131.08 -1.59,-48.17 31.88,-79.19 59.4,-112.55 93.8,-113.68 171.78,-147.66 199.16,-310.48 -44.1,9.68 -124.96,50 -159.53,16.97 -24.33,-23.23 -3.97,-28.7 -27.1,-55.37 -104.46,-120.47 -59.2,-85.26 -94.31,-203.8 -13.58,-45.85 -42.29,-95.13 -48.76,-144.71 0.51,-0.12 1.16,0.88 1.26,0.9 13.53,3.44 18.3,-6.63 29.66,0.88 16.24,10.75 61.39,128.26 67.87,151.63 8.62,31.08 37.85,71.19 51.2,97.28 22.02,43.07 0.71,70.86 30.09,118.69 63.52,-6.4 150.95,-64 200.32,-90.72 54.49,-29.48 76.05,-37.04 109.22,-81.21 1.02,-1.35 2.47,-3.29 3.5,-4.62l34.82 -53.47 -41.31 -38.87c-16.18,-14.22 -6.13,-3.68 -18.33,-22.78l-13.02 -21.15c-38.96,40.51 -18.73,38.33 -83.39,42.89l-26.47 -41.49c-21.4,-24.22 -36.79,-59.49 -36.31,-95.05 67.99,-11.64 32.24,13.36 69.82,46.72 33.47,29.7 58.41,19.84 83.89,26.55 33.31,8.76 10.38,28.89 85.19,35.84 129.7,12.05 92.15,-26.73 146.98,28.52 34.19,34.46 20.17,24.15 40.45,65.36 25.11,7.96 29.65,7.32 60.75,2.88 4.36,99.8 40.99,241.25 87.85,303.28 21.17,-4.82 32.33,-16.58 42.32,-33.53 10.95,-18.56 13.69,-40 16.61,-65.97 11.92,-105.83 30.79,-74.17 94.68,-144.31 18.93,-20.78 22.07,-18.8 43.23,-39.6 53.33,-52.45 8.2,-11.19 77.01,-40.6l19.77 -13.22c18.54,13.43 34.84,48.04 47.46,67.64 21.22,32.96 15.64,47.23 23.15,90.21 33.08,-0.56 35.16,-6.81 55.32,-19.13 28.02,67.57 31.75,117.79 23.57,193.7 35.11,49.07 25.08,33.72 48.7,95.5 13.64,35.66 31.51,57.74 74.71,71.27 -5.52,-26.6 -14.01,-54.7 -22.52,-81.52 -16.44,-51.86 -20.66,-26.93 -46.23,-53.26 -36.24,-37.34 -33.04,-89.48 -12.78,-133.49 1.52,-0.19 3.81,0.38 4.57,0.53 0.77,0.16 3.67,0.48 4.64,0.72 43.94,10.89 75.77,59.38 96.33,96.77 24.44,-28.17 50.23,-46.57 82.41,-66.94 0.99,-46.87 6.23,-55.15 -15.23,-95.75 -15.22,-28.79 -30.17,-36.23 -40.7,-59.39 -22.32,-49.11 20.45,-101.72 80.04,-62.2 86,-78.53 95.68,7.16 194.89,-135.43 63.08,-90.67 37.35,-118.38 -18.3,-207.66 18.08,-17.73 45.68,-32.27 57.21,-50.31 -60.3,-21.47 -38.72,30.73 -90.24,-31.51 8.92,-12.27 49.59,-43.41 64.93,-49.22 0.98,1.52 1.93,3.97 2.15,4.98 0.22,1.02 1.52,3.9 1.69,5.18 0.18,1.3 0.78,4.05 0.85,5.49 0.08,1.53 -0.12,4.42 -0.17,5.91 -0.21,6.41 -2.94,11.77 -5.21,19.72 83.22,-22.75 49.7,-21.6 79.77,18.64l31.02 19.06c-16.17,47.87 -6.33,79.86 51.28,54.31 6.85,-58.39 -19.74,-67.91 -37.76,-111.24 54.36,-24.93 29.81,-51.77 68.42,-70.45 31.07,-15.04 5.99,7.18 41.35,-9.56 76.18,-36.07 119.15,-137.93 98.43,-228.37 -41.26,-21.77 -78.28,-9.06 -110.33,-45.56 33.29,-20.41 80.46,-80.36 128.7,-85.38 100.98,-10.49 120.83,8.82 179.07,1.94 -9.11,-36.8 -11.18,-5.72 10.2,-47.62 47.1,-2.13 41.46,-2.26 77.65,10.83 17.59,-16.13 18.63,-23.62 46.03,-35.01 -6.71,47.64 -44.48,80.34 -87.95,97.76 -5.94,75.42 24.24,99.01 49.74,150.37 23.58,-16.74 19.35,-17.99 35.58,-46.95 18.91,-33.76 51.07,-57.34 25.96,-93.38 -15.38,-22.07 -23.22,1.28 -11.52,-47.41 18.84,-10.27 44.93,-13.19 69.55,-13.68 93.61,-1.86 36.11,-10.01 110.41,-39.58 20.06,-7.98 36.33,-8.98 52.59,-18.73l-45.7 -23.28 30.51 -40.31c19.39,10.02 82.08,28.31 116.76,29.45 5.66,-13.67 27.68,-29.93 8.66,-40.27 -37.78,-20.53 -58.07,-8.38 -78.5,-14.31 -8.85,-2.56 -29.8,-12.12 -41.95,-16.37 -64.82,-22.67 -130.97,-36.24 -205.11,-41.18l-8.34 22.58c-61.65,-12.59 -72.8,-7.22 -133.06,-12.08 -46.87,-3.78 -31.73,-27.2 -108.83,-27.75 -90.97,-0.65 -128.77,-42 -241.8,-30.26 -18.01,23.19 15.11,11.71 -18.71,18.82l-125.27 4.16c-53.06,-23.87 12.44,-21.85 -54.48,-38.79 -32.17,-8.14 -52.29,2.86 -77.08,4.53 -24.91,1.68 -130.7,-14.33 -170.78,-20.65l42.19 -22z"/>
   <path class="fil0" d="M6184.51 769.99c-59.46,-2.87 -153.07,-20.56 -198.19,-23.63 -159.11,-10.79 -117.31,25.05 -203.14,9.73 -54.47,-9.72 -284.81,-43.83 -335.44,-31.34 -33.45,8.27 -32.32,13.53 -50.74,33.61l-18.72 17.66 95.75 41.93c-49.3,0.87 -28.52,-12.04 -78.87,11.24 17.29,11.59 41.58,21.19 65.03,24.02 45.74,5.52 37.46,-8.9 70.52,11.64 -6.58,13.87 -33.89,19 -44.44,31.51 25.17,59.94 27.81,40.1 83.57,61.33 65.08,24.79 102.08,23.53 107.85,26.07 2.72,52.37 -28.08,51.74 -66.72,80.72 51.8,-7.75 72.38,-19.08 99.01,-48.31 62.19,-68.31 -14.31,-19.83 33.19,-82.15l25.01 31.18c14.06,-4.65 20.03,-3.8 32.45,-13.39 13.89,-10.73 0.13,-0.65 9.25,-14.49 64.08,4.73 131.83,20.92 189.92,40.24 29.16,9.7 69.91,11.65 94.54,21.75l216.25 132.24c2.46,2.18 12.76,12.79 15.44,15.88l7.9 10.13c1.98,2.19 14.35,13.06 28.82,19.96 7.04,3.35 33.56,13.54 41.52,14.27 50.05,4.57 -32.19,-1.14 19.61,-7.56 24.13,19.47 29.8,13.46 49.84,41.55 -7.87,-5.16 8.26,-4.72 -17.36,-7.77 -23.21,-2.77 -8.22,-4.04 -21.51,4.33 37.93,33.89 35.45,32.76 64.08,84.21 132.79,238.57 265.82,213.1 356.91,362.25 33.52,54.88 42.92,31.91 79.91,69.01 32.79,32.89 26.79,44.68 74.03,63.49 -42.44,-78.21 -117.48,-115.49 -160.4,-196.71 42.65,11.56 32.41,14.48 53.62,42.67 27.38,36.4 100.34,88.71 141.16,123.39 38.19,32.43 45.66,49.04 66.62,89.31 0.88,1.7 1.9,3.9 2.91,5.5 15.12,24.13 73.97,58.53 109.02,74.13 75.07,33.4 67.01,24.43 145.38,36.53 43.7,6.74 68.02,41.36 119.75,54.98 86.84,22.87 51.19,32.2 94.36,79.41 24.86,27.19 76.57,49.14 112.39,65.62l32.28 -33.27c13.78,12.81 12.77,14.15 22.48,33.12 18.71,36.58 27.37,78.54 4.56,111.81 -88.06,128.47 -46.77,71.58 -48.38,131.71 -0.82,30.76 -36.66,17.46 -15.68,76.4l189.69 296.46c13.45,-42.26 28.13,-189.35 33.82,-233.12 21.35,-164.38 -19.22,-289.75 -44.07,-460.27l-69.09 -0.52c-32.34,-1.2 -55.46,31.89 -75.21,30.18 -25.9,-2.25 -16.13,4.4 -41.8,7.48 -35.9,4.3 -52.29,-20.75 -61.8,-47.19 -38.44,-107.03 39.41,-106.35 -118.61,-114.38 -39.17,-63.92 46.69,-144.59 -58.37,-126.12 -23.3,32.76 -9.58,60.83 -66.71,64.34 -96.9,5.95 -165.04,-190.8 -118.27,-241.93 34.79,-38.03 59.72,-11.33 101.01,-13.81 46.98,-2.83 -0.99,-2.85 29.79,-16.84 24.41,-11.1 38.42,-4.11 59.71,0.34 71.63,14.97 49.01,0.17 84.11,50.37 16.23,23.22 39.84,49.3 70.79,57.21 -11.28,-60.88 -43.14,-68.93 -67.6,-118.41 -28.07,-56.81 26.69,-74.04 39.42,-116.27 -1.49,-20.75 -29.44,-46.13 -32.12,-59.56 -7.86,-39.38 -24.64,-49.36 -51.62,-83.37 -93.84,-118.23 -201.57,-223.97 -318.73,-318.06 -67.26,-54.02 -135.17,-148.74 -234.52,-147.58 44.06,27.9 71.15,53.33 105.38,78 50.8,36.63 83.44,16.93 72.95,90.85 32.09,12.09 71.21,33.66 77.23,63.91 -62.9,-11.26 -98.09,-63.59 -143.2,-79.66 -77.49,-27.6 -265.17,-42.24 -332.08,-108.05 -63.64,-62.59 15.21,-75.38 -32.19,-130.77l40.5 -23.28c-58.73,-28.4 -32.68,-40.59 -130.01,-52.03l36.26 49.34c-21.81,-6.88 -41.68,-19.88 -62.15,-25.93 -32.06,-9.48 -12.31,3.34 -53.2,-12.15 -46.28,-17.52 -76.18,-35.62 -132.03,-45.78l9.54 -37.69 -69.1 1.66c27.39,27.63 20.17,10.89 47.5,25.59 27.85,14.97 14.17,19.39 38.11,35.21 36.36,24.04 74.79,7.99 79.99,59.41 -51.59,-12.45 -30.32,-6.16 -74.93,-5 -34.87,0.92 -54.82,-9.41 -87.52,-14.69 -54.92,-8.87 -11.31,6.37 -62.3,13.73 -24.02,3.48 -77.73,6.85 -83.91,-17.53z"/>
   <path class="fil0" d="M216.82 2126.38c-11.01,-13.25 -0.48,-44.34 6.75,-62.43l-83.45 28.86c-17.26,124.69 -22.93,289.2 -11.23,415.11 29.19,314.03 71.13,181.5 150.62,278.66 25.68,31.39 37.56,121.19 48.52,168.13 10.67,45.75 88.84,279.26 118.01,317.35 115.43,150.68 35.58,77.98 99.98,93.64 27.31,81.41 -67.11,-34.33 52.04,101.55 79.17,90.27 88.25,99.7 206.95,152.07 77.47,34.17 101.59,36.69 149.05,19.84 -32.54,-23.32 -84.03,-32.7 -103.17,-45.06l-58.86 -60.81c-8.46,-19.67 -7.38,-49.68 -14.61,-69.55 -85.03,-31.04 -50.59,-12.78 -57.83,-73.22 -2.9,-24.19 -3.54,-8.96 5.08,-40.93 -46.46,-11.71 -24.84,2.74 -51.55,-29.56 20.19,-9.16 21.98,-2.26 40.76,-18.48 -18.76,-15.53 -15.47,-10.05 -28.31,-32.2 64.47,-2.85 54.06,3.16 78.99,-39.49 -13.16,-34.32 -29.61,-30.76 -55.93,-65.55l75.09 9.44c22.51,-67.58 49.03,-109.98 40.87,-193.62 -8.12,-83.36 94.6,-61.73 123.84,-106.72 40.29,-61.97 4.7,-139.07 20.54,-208.37 17.27,-75.56 62.11,-22.33 52.53,-181.15 -44.94,-34.74 -119.43,-63.34 -177.77,-72.32 -65.07,-10.03 -16.62,4.08 -47.99,-20.47 -17.11,-13.39 -15.45,-15.24 -41.7,-19.48 -62.36,-10.07 2.44,13.06 -79.46,-27.09 16.49,-41.78 -7.63,-120.49 -111.62,-133.17 -64.04,-7.8 -38.36,-15.79 -76.51,-50.43 -23.46,-21.3 -19.46,-0.77 -37.26,-31.55 -13.74,-23.74 -7.1,-4.38 4.29,-30.04l-101.89 5.36c-39.4,-1.19 -66.6,-11.69 -90.16,-39.52 -45.84,36.15 -23.04,5.91 -44.61,61.2z"/>
   <path class="fil0" d="M4608.16 3172.03c22.76,-7.16 25.95,-12.01 42.18,-28.29l3.77 35.09c0.87,0.66 2.75,2.42 3.63,3.24 1.5,1.37 5.93,6.53 7.46,8.27 40.29,45.94 14.36,41.7 47.07,61.42 32.42,19.55 42.19,5.31 70.18,8.72l10.71 2.63c1.48,0.29 3.81,1.34 5.29,1.6 79.21,14.09 104.46,-68.46 118.89,-92.46 55.78,-92.74 124.21,-159.1 21.18,-291.16 -1.02,-1.3 -2.77,-3 -3.79,-4.3l-10.58 -13.81c-0.95,-1.54 -2.03,-3.72 -2.92,-5.31 -42.86,-77.03 -41.58,-35.18 -59.54,-73.14 -6.22,-13.17 -10,-52.15 -15.02,-67.78 -11.93,-37.25 -15.92,-8.61 -35.08,-47.13 -3.6,-7.23 -16.32,-48.32 -20.97,-60.53 -35.78,61.84 -5.62,108.53 -56.52,155.55 -32.24,-10.22 -75.33,-47.64 -92.63,-67.62 12.55,-36.17 23.89,-33.22 23.21,-63.3 -48.56,2.08 -38.53,-0.68 -80.69,-15.3 -29.91,-1.27 -75.03,83.86 -75.06,83.89 -33.49,-7.26 -56.71,-37.11 -87.55,-1.7 -20.47,23.5 -7.83,34.81 -40.18,50.5 -43.3,20.99 -1.82,16.65 -47.04,52.5 -33.54,26.59 -92.01,27.37 -137.56,69.74 -38.74,36.03 -17.4,112.2 -2.36,157.9 36.46,110.85 6.77,93.44 10.87,128 49.51,38.45 50.45,7.55 104.99,-3.55 24.54,-4.99 41.74,0.01 63.41,-9.66 23.24,-10.38 10.95,-13.98 39.23,-27.16 22.82,-10.63 101.52,-23.25 126.72,-18.07 52.43,10.77 56.41,31.78 68.7,71.22z"/>
   <path class="fil0" d="M1590.14 588.5c-6.84,16.89 -22.21,-8.44 3.76,8.68 9.68,6.37 14.27,4.67 17.77,5.04l-54.08 14.84 109.73 13.76c-9.09,33.5 -8.59,37.07 -38.57,55.96 -49.76,31.36 -32.29,7.58 -7.63,41.28 -20.22,0.49 -35.95,-4.58 -48.67,8.38 -12.06,12.28 -26.02,-0.43 25.57,14.94 -117.82,40.9 -134.66,64 -179.59,168.68 95.62,70.45 115.61,-49.45 275.49,-89.21 30.13,-7.5 59.43,-11.68 87.37,-19.87 28.18,-8.25 50.86,-21.48 79.24,-27.44 68.36,-14.34 120.47,-25.34 184.6,-41.93l-39.87 -7.46c70.83,-28.41 4.24,7.23 74.17,-7.01 7,-15.46 7.59,-13.49 -3.03,-29.88 101.48,-10.26 142.2,-69.44 180.89,-83.23l95.53 -45.05c40.19,-17.43 73.78,-20.28 113.35,-33.14l-114.72 3.41c17.56,-25.28 11.72,-6.3 24.19,-28.36 -118.17,-12.18 -198.49,-2.45 -306.42,16.18 -18.67,3.22 -156.83,-3.28 -296.79,18.97 -42.89,6.83 -41.98,17.27 -83.86,25.64 -33.58,6.71 -65.6,9.23 -98.43,16.82z"/>
   <path class="fil0" d="M520.64 1412.32c27.11,-12.9 25.16,-21.77 69.73,-34.2 49.66,-13.84 38.93,2.03 68.11,-31.32 27.58,-31.53 92.67,-57.35 142.08,-61.02 -12.82,12.17 -22.84,19.52 -33.68,30.87 29.63,-5.26 54.56,-14.74 86.23,-24.65 38.59,-12.07 63.3,-7.66 74.73,-43.82 -29.43,13.96 -21.76,13.92 -63.27,16.56 -0.43,-1.24 -0.33,-4.84 -0.34,-3.91 0,0.06 -7.03,-19.7 16.92,-46.83 7.46,-8.45 5.15,-1.35 16.78,-17.4 -57.15,-15.11 -101.11,31.48 -144.97,36.64 16.5,-1.57 97.92,-53.64 145.51,-62.72 35.05,-6.7 67.98,2.45 102.7,-4.5 30.27,-6.05 52.27,-19.24 88.54,-23.48 -37.04,23.51 -94.34,53.4 -117.11,86.24l83.63 9.5c26.14,4.5 36.09,-17.15 49.08,-40.78l-36.37 -21.73c13.13,-13.52 23.24,-17.27 31.78,-25.52 27.09,-26.21 -4.06,3.24 5.7,-16.38 67.19,-28.68 23.48,-17.16 50.29,-57 -56.8,-80.95 -14.68,-18.94 16.91,-130.39 -45.29,17.86 -56.42,31.71 -109.81,40.09 7.17,-34.02 -5.67,-8 15.42,-29.71 6.94,-7.15 22.85,-14.59 30.83,-18.74l-16.33 -14.97c-36.91,-33.23 -48.01,-19.38 -149.86,64.69 -23.35,19.27 -53.15,39.96 -79.06,61.86 -73.05,61.76 -304.99,291.25 -344.17,362.62z"/>
   <path class="fil1" d="M5889.7 677.06c12.59,-17.45 8.77,-14.2 67.46,-7.77 22.08,2.43 46.54,4.29 69.53,6.57l-6.84 17.34 5.52 -0.99c36.89,-19.49 47.97,1.05 93.66,0.96 61.73,-0.11 40.8,-23.97 76.09,-6.7l151.54 67.75c-17.83,9.47 -54.49,7.08 -76.94,8.43 -27.82,1.69 -56.76,5.26 -85.21,7.34 6.18,24.38 59.89,21.01 83.91,17.53 50.99,-7.36 7.38,-22.6 62.3,-13.73 32.7,5.28 52.65,15.61 87.52,14.69 44.61,-1.16 23.34,-7.45 74.93,5 -5.2,-51.42 -43.63,-35.37 -79.99,-59.41 -23.94,-15.82 -10.26,-20.24 -38.11,-35.21 -27.33,-14.7 -20.11,2.04 -47.5,-25.59l69.1 -1.66c32.6,-22.71 -27.61,0.68 16.63,-4.68 67.42,-8.17 58.08,10.24 88.71,-27.43 -53.09,-10.37 -75.46,-16.39 -141.77,-16.39 6.15,12.18 -2.63,7.37 13.19,3.97 -19.98,-16.3 -11.04,-5.42 -38.52,-12.27 -51.68,-12.88 -31.62,-39.18 -78.55,-35.32 -30.21,2.48 -29.32,11.41 -70.53,0.92 -25.02,-6.37 -44.29,-11.39 -71.74,-16.9 -12.29,11.13 3.35,5.2 -15.14,8.27 -44.09,7.34 -42.54,-27.94 -80.54,18.45 47.37,17.49 84.6,-2.53 58.33,30.04 -41,-8.33 -59.68,14.98 -75.1,-5.36 -46.1,-16.91 3.48,9.34 -15.01,-7.16 -0.39,-0.35 -1.82,-1.9 -2.25,-2.31 -45.42,-43.91 -66.41,-34.14 -50.39,1.29 -21.21,-5.55 -19.52,-9.02 -40.79,-8.14 -74.99,3.1 -16.46,-4.19 -41.58,16.28 27.16,22.13 35.2,18.58 81.81,11.99 -13.74,24.09 -27.4,3.19 -51.86,30.02l-11.83 15.33c9.32,9.25 4.67,1.59 19.96,4.85z"/>
   <path class="fil0" d="M4781.63 2420.72c-87.76,-32.77 -64.54,-42.15 -141.22,1.92 -28.04,-34.48 -32.12,-93.33 -97.34,-44.74 118.08,74.76 -26.58,17.75 55.8,58.19 9.8,4.81 23.31,8.35 35.97,14.28 95.25,44.67 68.96,60.52 55.48,99.16 61.35,-6.56 42.67,5.98 81.3,13.88 61.69,12.62 14.93,-15.97 63.88,-24.03 50.94,-8.38 28.02,53.69 124.87,58.76 -16.45,-27.08 -27.01,-27.22 -48.21,-52.17 -32.85,-38.64 -16.52,-27.34 -9.1,-44.15 -25.92,-34.57 -81.33,-66.13 -121.43,-81.1z"/>
   <path class="fil0" d="M4290.12 2328.14c-44.45,-57.41 -17.68,-54.88 2.55,-106.84l-42.26 -27.02 -109.65 92.32c-33.85,26.29 -76.96,19.19 -47.6,88.63l23.82 45.43c45.4,5.45 77.87,23.26 115.58,18.85 24.3,-54.98 3.42,-65.89 57.56,-111.37z"/>
   <path class="fil0" d="M2724.07 2734.91c-3.98,41.78 5.42,57.42 1.17,92.71 -4.04,33.52 -16.68,24.24 -3.79,68.55 10.01,34.39 60.51,84.02 82.32,26.89 8.73,-22.86 23.01,-115.08 28.5,-144.28 13.71,-72.9 7.75,-70.13 -11.15,-137.44 -8.23,13.68 -13.41,18 -18.68,25.49 -33.88,48.1 -7.12,45.74 -78.37,68.08z"/>
   <path class="fil0" d="M1095.7 878.47c14.32,12.9 12.94,15.39 20.04,22.88 4.17,4.39 3.97,5.48 13,12.32 41.31,31.29 38.33,-0.16 53.05,-6.39 24.95,-10.56 16.64,9.01 40.07,-3.06 36.49,-30.55 15.51,-30.82 33.4,-49.45 33.47,-34.87 22.4,-0.45 45.18,9.87l68.27 -31.32c-15.34,-15.63 -14.24,-19.37 -35.37,-39.38 19.67,-13.35 30.53,-17.79 44.53,-41.34 -48.82,-19.71 -29.16,-40.22 -148.18,36.36 -28.46,18.32 -33.82,31.31 -58.81,48.58 -25.02,17.29 -50.25,25.96 -75.18,40.93z"/>
   <path class="fil2" d="M2632.73 1296.47c-17.42,-44.31 6.72,0.87 -0.16,-32.58 -54.25,-31.05 -143.28,81.37 -118.19,105.15 7.18,6.79 28.1,8.15 59.16,-0.33 141.72,-38.71 88.65,49.39 191.94,-8.39 -7.06,-39.3 -36.18,-50.13 -66.23,-71.28 13.1,-16.58 26.86,-41.68 45.64,-46.65 -20.05,0.4 -51.13,3.2 -60.72,22.96 -12.61,26.02 25.2,-4.03 -5.23,19.19 -10.29,7.85 -32.01,9.93 -46.21,11.93z"/>
   <path class="fil0" d="M6114.09 563.51c27.45,5.51 46.72,10.53 71.74,16.9 41.21,10.49 40.32,1.56 70.53,-0.92 46.93,-3.86 26.87,22.44 78.55,35.32 27.48,6.85 18.54,-4.03 38.52,12.27l83.43 -3.65 -29.78 -25.95c-40.35,-39.82 -57.93,-40.8 -118.02,-63.56 -58.4,-22.13 -159.73,-26.01 -209.03,-0.71l111.58 26.8c-41.19,-3.25 -104.72,-23.79 -134.05,-11.71l36.53 15.21z"/>
   <path class="fil0" d="M3794.51 2223.39c15,28.54 28.57,43.25 51.13,68.2 43.46,48.07 68.96,167.43 164.72,198.15 13.92,-73.62 3.14,-54.85 -42.05,-137.5 -24.2,-44.28 -55.58,-46.33 -94.59,-88.23 -27.75,-29.83 -21.16,-38.8 -79.21,-40.62z"/>
   <path class="fil0" d="M6025.37 692.21c15.88,31.62 56.79,34.76 93.07,38.69 16.63,29 6.39,-26.21 -1.24,13.53 -0.06,0.33 -0.79,2.12 -0.65,3.2l67.96 22.36c28.45,-2.08 57.39,-5.65 85.21,-7.34 22.45,-1.35 59.11,1.04 76.94,-8.43l-151.54 -67.75c-35.29,-17.27 -14.36,6.59 -76.09,6.7 -45.69,0.09 -56.77,-20.45 -93.66,-0.96z"/>
   <path class="fil0" d="M4585.55 1536.12c41.37,9.97 1.31,19.35 59.34,-0.08 20.35,-6.81 47.87,-7.02 58.64,-24.56 7.22,-11.79 9.78,-51.87 11.98,-71.96 3.35,-30.75 5.91,-37.62 -16.33,-61.94 -29.18,33.98 -18.11,55.59 -36.63,77 -35.24,40.76 -29.2,-18.51 -51.43,54.32 -64.5,-5.2 -86.51,26.62 -118.44,56.87 9.39,23.13 12.33,32.54 36.97,45.79 10.27,-41.86 14.06,-25.5 -4.76,-60.78l47.67 -8.96c-7.56,6.93 -9.16,7.08 -12.69,13.61 -6.92,12.76 -5.05,-0.42 -0.67,10.34 5.59,2.23 2.62,22.12 24.86,-6.91 10.69,-13.97 6.65,-8.97 1.49,-22.74z"/>
   <path class="fil0" d="M6432.41 678.88c1.48,1.77 3.87,2.03 4.69,5.1 6.17,23.19 88.41,51.16 131.23,54.45l184.95 18.58 -30.29 -23.33c-167.69,-90.65 -200.32,-46 -246.73,-52.89 -23.04,-3.42 -11.22,-6.45 -43.85,-1.91z"/>
   <path class="fil0" d="M2059.36 1082.12c-34.63,28.61 -38.09,8.85 -53.67,45.2 -9.96,23.24 10.69,4.59 -12.74,24.45 -2.54,2.15 -29.34,14.77 -30.64,15.09 28.75,2.2 59.46,-4.75 87.67,-9.72 56.58,-9.98 42.21,-13.68 72.71,-35.92 -1.71,-18.43 -2.61,-13.45 -3.66,-19.05 -1.41,-7.58 -3.1,-17.79 -4.82,-26.79 -5.82,-30.46 0.59,-21.79 -12.93,-41.23l35.21 -29.98 -18.99 -18.05c-0.36,-0.6 -1.11,-2.89 -1.98,-4.17 -28.6,9.06 -38.67,13.4 -52.82,32.42 -24.41,32.78 -7.93,48.47 -3.34,67.75z"/>
   <path class="fil0" d="M4323.03 2360.93c33.27,-42.39 72.36,9.87 98.44,-45.64 -45.23,10.83 -30.86,16.5 -87.17,5.83 -15.56,29.47 -61.42,77.87 -25.51,158.21 0.05,-0.01 16.33,9.6 21.98,-39.11 0.37,-3.19 1.78,-3.98 3.04,-5.76 28.56,36.45 2.09,23.72 44.52,27.04 -9.98,-28.64 -18.06,-45.15 -27.91,-69.44 8.93,-3.64 9.71,-1.51 21.5,-10.33 16.41,-12.26 1.52,0.74 13.88,-15.87 -45,7.39 -42.38,25.21 -62.77,-4.93z"/>
   <path class="fil0" d="M5165.99 3436.59c78.24,19.52 58.26,-1.11 102.18,-34.15 29.9,-22.49 14.38,-0.41 42.69,-32.11 20.04,-22.43 17.88,-18.16 28.76,-43.06 -7.22,-4.2 -14.86,-8.63 -21.77,-12.88 -89.62,87.07 -130.49,71.31 -151.86,122.2z"/>
   <path class="fil0" d="M1944.87 820.7c-8.33,11.35 -27.99,30.76 -21.15,46.4 39.63,6.35 69.26,1.22 107.78,-6.7 68.72,-14.12 35.4,-28.13 62.26,-43.77l-148.89 4.07z"/>
   <path class="fil0" d="M5371.15 3171.07c-29.32,11.03 -7.72,-2.13 -5.86,20.23 1.43,17.2 15.45,14.83 0.85,69.66l-5.38 72.27c15.56,-14.01 27.37,-27.52 44.18,-42.49 19.21,-17.12 24.65,-16.4 44.79,-36.83 -12.54,-9.33 1.19,0.13 -16.72,-7.58 -16.63,-7.16 -18.59,-4.24 -33.79,-22.53 -17.95,-21.6 -11.62,-27.1 -28.07,-52.73z"/>
   <path class="fil0" d="M6019.85 693.2l6.84 -17.34c-22.99,-2.28 -47.45,-4.14 -69.53,-6.57 -58.69,-6.43 -54.87,-9.68 -67.46,7.77 52.56,5.91 15.61,47.31 120.33,39.24 5.62,-9.77 -2.91,4.25 2.16,-9.33 7.12,-19.08 -4.01,-3.46 7.66,-13.77z"/>
   <path class="fil0" d="M4359.51 1914.23c-47.56,9.82 -39.95,21.96 -48.72,69.62 21.58,48.67 38.07,40.8 84.65,60.16 -16,-48.6 -7.1,-10.82 -47.57,-44.09l11.64 -85.69z"/>
   <path class="fil0" d="M4390.91 2167.64c15.4,17.62 9.5,22.58 27.14,44.55 23.32,-9.24 5.94,-11.14 29.33,-23.41 3.04,-27.15 1.55,-45.5 -7.57,-63.05l-75.43 29.01 -2.06 27.86 28.59 -14.96z"/>
   <path class="fil0" d="M4674.16 1364.23c21.64,-10.06 17.83,-13.04 29.39,-15.93 10.45,-2.61 62.15,7.82 69.93,-37 -37.36,-14.71 12.97,20.5 -74.07,-31.35 -7.08,68.78 -23.66,29.51 -25.25,84.28z"/>
   <path class="fil0" d="M4784.23 3377.13c47.61,-12.41 48.1,-6.45 56.9,-56.34l-66.8 -5.95 9.9 62.29z"/>
  </g>
  <g id="_3179612452048">
   <path class="fil3 str0" d="M4013.57 104.25c2155.41,0 3902.72,1057.73 3902.72,2362.5 0,1304.77 -1747.31,2362.5 -3902.72,2362.5 -2155.41,0 -3902.72,-1057.73 -3902.72,-2362.5 0,-1304.77 1747.31,-2362.5 3902.72,-2362.5z"/>
   <line class="fil3 str1" x1="4013.57" y1="104.25" x2="4013.57" y2= "4829.25" />
   <line class="fil3 str1" x1="110.85" y1="2466.75" x2="7916.29" y2= "2466.75" />
   <path class="fil3 str1" d="M3983.26 120.73c520.77,0 942.94,1065.08 942.94,2378.93 0,1313.85 -422.17,2378.93 -942.94,2378.93 -520.77,0 -942.94,-1065.08 -942.94,-2378.93 0,-1313.85 422.17,-2378.93 942.94,-2378.93z"/>
   <path class="fil3 str1" d="M3983.26 120.73c1039.63,0 1882.42,1065.08 1882.42,2378.93 0,1313.85 -842.79,2378.93 -1882.42,2378.93 -1039.62,0 -1882.41,-1065.08 -1882.41,-2378.93 0,-1313.85 842.79,-2378.93 1882.41,-2378.93z"/>
   <path class="fil3 str1" d="M3983.26 120.73c1538.78,0 2786.21,1065.08 2786.21,2378.93 0,1313.85 -1247.43,2378.93 -2786.21,2378.93 -1538.77,0 -2786.21,-1065.08 -2786.21,-2378.93 0,-1313.85 1247.44,-2378.93 2786.21,-2378.93z"/>
   <path class="fil3 str1" d="M3983.26 120.73c1995.63,0 3613.43,1065.08 3613.43,2378.93 0,1313.85 -1617.8,2378.93 -3613.43,2378.93 -1995.63,0 -3613.42,-1065.08 -3613.42,-2378.93 0,-1313.85 1617.79,-2378.93 3613.42,-2378.93z"/>
  </g>
  <g id="_3179612449328">
   <ellipse class="fil4" cx="3907.91" cy="4176.15" rx="1416.98" ry="1459.29"/>
   <g>
    <path class="fil5" d="M3491.88 3078.13c65.17,-10.69 119.75,37.28 127.59,92.83 9.66,68.39 -38.53,119.06 -90.51,127.06 -149.54,23 -180.86,-196.33 -37.08,-219.89zm-912.43 999.89l0 156.5c0.32,0.75 0.61,1.03 0.72,2.32 0.1,1.33 1.06,3.93 1.22,4.79 2.62,14.44 7.16,85.19 12.7,120.04 6.29,39.7 14.83,80.43 25.64,116.2 40.85,135.18 119.45,263.43 264.2,299.62 42.24,10.57 89.38,7.2 134.39,7.18 42.02,-0.02 101.37,3.44 141.29,-0.64 1.44,-78.22 0.16,-157.7 0.16,-236.05 0,-79.75 -0.94,-141.55 24.99,-212.23 41.64,-113.55 121.76,-193.16 260.19,-213.97 67.09,-10.08 377.46,-5.26 468.54,-5.26 150.75,-0.02 303.35,16.17 419.6,-54.18 48.31,-29.22 88.36,-68.15 113.89,-122.91 31.41,-67.29 32.17,-122.03 32.19,-204.35 0.04,-157.92 0.05,-315.85 0.09,-473.77 0.02,-85.41 1.87,-129.86 -44.15,-192.39 -91.84,-124.78 -261.12,-164.49 -412.01,-180.93 -26.82,-2.93 -92.04,-3.4 -111.18,-8.21l-135.45 0 -189.77 19.6c-9.88,1.73 -19.78,3.69 -29.53,5.71 -90.51,18.85 -194.66,51.68 -258.49,120.45 -44.26,47.64 -57.57,78.36 -57.2,150.97 0.43,92.66 0.69,185.38 0.76,278.04l621.04 -0.02 -0.84 87.35c-149.81,3.61 -304.48,0.14 -454.81,0.01l-341.86 -0.08c-109.06,-0.02 -179.08,-8.67 -280.29,60.1 -69.36,47.1 -115.33,114.57 -148.16,193.62 -23.13,55.61 -37.76,121.67 -46.55,180.35l-11.32 102.14z"/>
    <path class="fil5" d="M4199.91 5010.54c65.53,-8.1 116.97,41.48 123.55,97.16 7.76,65.76 -39.99,117.28 -97.21,124.43 -66.53,8.29 -117.86,-42.53 -124.37,-96.97 -7.93,-66.46 40.04,-117.44 98.03,-124.62zm932.95 -679.93l0 -357.96c-4.52,-9.59 -16.1,-85.68 -21.15,-106.63 -8.29,-34.4 -18.65,-66.47 -30.74,-96.51 -32.26,-80.24 -69.69,-135.57 -134.05,-185.17 -36.87,-28.42 -83.29,-49.8 -132.16,-57.24 -25.06,-3.82 -224.26,-4.38 -252.5,-1.76 0.01,104.04 3.35,213.62 -0.2,316.97 -4.45,130.67 -60.6,245.3 -165.62,305.86 -86.13,49.63 -170.89,44.48 -268.49,44.48l-471.05 -0.05c-105.58,-0.02 -182.29,4.14 -263.93,51.77 -180.91,105.56 -150.27,283.21 -150.24,478.16 0,105.56 0.02,211.13 0.02,316.69 0,55.07 -5.2,92.71 13.5,143.57 67.87,184.45 334.26,236.92 540.13,245.36 191.46,7.84 390.96,-7.6 544.65,-83.56 57.33,-28.33 132.31,-92.34 139.14,-175.6l-1.07 -313.79 -620.26 -0.09 -0.12 -87.62c285,-1.16 570.43,-0.6 855.45,-0.11 75.44,0.12 118.7,-5.22 179.34,-34.86 123.97,-60.59 189.33,-183.79 221.42,-314.58 4.75,-19.35 12.24,-75.27 17.93,-87.33z"/>
   </g>
  </g>
  <rect class="fil4" x="57.09" y="-6.17" width="7949.76" height="441.66"/>
  <line class="fil6 str2" x1="2019.5" y1="435.49" x2="6007.65" y2= "435.49" />
 </g>
</svg>
