<?xml version="1.0" encoding="UTF-8"?>
<!DOCTYPE svg PUBLIC "-//W3C//DTD SVG 1.1//EN" "http://www.w3.org/Graphics/SVG/1.1/DTD/svg11.dtd">
<!-- Creator: CorelDRAW 2018 (64-Bit) -->
<svg xmlns="http://www.w3.org/2000/svg" xml:space="preserve" width="73.5mm" height="74.5mm" version="1.1" style="shape-rendering:geometricPrecision; text-rendering:geometricPrecision; image-rendering:optimizeQuality; fill-rule:evenodd; clip-rule:evenodd"
viewBox="0 0 7350 7450"
 xmlns:xlink="http://www.w3.org/1999/xlink">
 <defs>
  <style type="text/css">
   <![CDATA[
    .fil0 {fill:#1D6FA9}
   ]]>
  </style>
 </defs>
 <g id="Layer_x0020_1">
  <metadata id="CorelCorpID_0Corel-Layer"/>
  <path class="fil0" d="M2229.66 3155.77c494.45,-66.39 889.77,297.69 948.44,725.93 63.97,467.25 -242.62,893.79 -731.9,960.92 -281.82,38.65 -465.7,-56.46 -648.26,-180.86 -515.09,-351 -415.13,-1392.28 431.72,-1505.99zm180.68 -1254.91c-498,-0.09 -394.19,-4.48 -469.28,393.1 -23.63,125.16 -38.65,120.04 -151.6,158.36 -78.79,26.68 -166.69,79.69 -228.85,97.98 -216.78,63.86 -365.9,-393.61 -604.95,-143.87 -363.69,380.02 -360.78,296.99 -182.55,555.34 158.35,229.47 153.84,149.29 41.37,418.45 -95.26,227.99 -6.33,195.95 -376.65,255.71 -240.44,38.8 -200.98,60.46 -201.28,431.08 -0.24,307.42 27.44,265.44 318.77,312.63 273.82,44.34 195.85,109.34 303.32,331.43 44.99,92.93 59.83,116.8 -6.18,213.09 -48.28,70.39 -92.35,127.22 -136.75,189.89 -120.86,170.44 -24.11,212.48 146.72,380.8 127.86,125.95 179.86,256.34 396.71,93.81 48.13,-36.07 135.76,-105.98 179.22,-129.61 91.72,-49.86 161.72,8.54 239.99,42.32 272.52,117.55 232.72,19.56 286.46,348.45 49.28,301.66 78.57,245.56 394.13,246.1 312.31,0.58 300.02,21.24 348.87,-274.24 53.41,-322.68 49.89,-204.67 303.63,-331.31 182.41,-91.05 169.08,-68.82 417.03,112.04 199.25,145.33 261.19,13.39 378.66,-104.16 282.73,-282.94 239.23,-247.41 14.78,-564.07 -74.7,-105.38 -57.88,-128.46 -1.3,-245.8 119.77,-248.38 15.6,-263 319.92,-312.95 300.81,-49.38 291.75,-21.78 291.24,-342.77 -0.46,-299.23 61.46,-353.6 -233.39,-401.52 -331.55,-53.88 -235.95,-7.69 -356.08,-276.82 -114.8,-257.19 -60.34,-228.23 81.72,-429.91 164.47,-233.47 67.85,-215.54 -85.12,-388.67 -254.28,-287.82 -275.97,-237.69 -549.09,-39.68 -158.63,115.01 -160.3,51.55 -451.93,-56.52 -104.01,-38.57 -100.2,-83.67 -119.89,-205.8 -47.46,-294.29 4.91,-332.82 -307.65,-332.88z"/>
  <path class="fil0" d="M5399.75 1538.9c324.06,-43.51 583.16,195.11 621.61,475.78 41.93,306.24 -159.02,585.8 -479.69,629.8 -184.71,25.33 -305.23,-37.01 -424.88,-118.54 -337.59,-230.05 -272.07,-912.51 282.96,-987.04zm118.42 -822.48c-326.4,-0.06 -258.36,-2.94 -307.58,257.64 -15.48,82.03 -25.33,78.68 -99.36,103.79 -51.63,17.49 -109.24,52.23 -149.98,64.22 -142.08,41.85 -239.82,-257.98 -396.49,-94.29 -238.37,249.06 -236.46,194.65 -119.65,363.97 103.79,150.4 100.83,97.85 27.12,274.26 -62.44,149.43 -4.15,128.42 -246.87,167.59 -157.58,25.43 -131.72,39.63 -131.91,282.54 -0.16,201.48 17.98,173.96 208.92,204.89 179.47,29.07 128.36,71.67 198.8,217.23 29.48,60.91 39.21,76.55 -4.05,139.66 -31.64,46.14 -60.53,83.38 -89.63,124.45 -79.21,111.71 -15.8,139.27 96.16,249.59 83.8,82.54 117.89,168 260.01,61.48 31.54,-23.64 88.98,-69.46 117.46,-84.95 60.12,-32.68 106,5.6 157.3,27.73 178.61,77.05 152.52,12.83 187.74,228.39 32.3,197.7 51.49,160.94 258.31,161.29 204.7,0.38 196.64,13.92 228.66,-179.74 35,-211.49 32.7,-134.14 199,-217.14 119.55,-59.68 110.82,-45.11 273.33,73.43 130.59,95.25 171.19,8.78 248.17,-68.27 185.31,-185.44 156.8,-162.15 9.69,-369.69 -48.96,-69.07 -37.94,-84.19 -0.85,-161.1 78.49,-162.79 10.22,-172.38 209.68,-205.11 197.15,-32.37 191.22,-14.28 190.88,-224.65 -0.3,-196.12 40.28,-231.76 -152.96,-263.17 -217.31,-35.31 -154.65,-5.04 -233.39,-181.43 -75.24,-168.56 -39.54,-149.58 53.56,-281.76 107.8,-153.02 44.47,-141.27 -55.78,-254.75 -166.66,-188.63 -180.87,-155.78 -359.88,-26 -103.97,75.38 -105.06,33.79 -296.2,-37.05 -68.17,-25.27 -65.67,-54.83 -78.58,-134.87 -31.1,-192.89 3.22,-218.14 -201.63,-218.18z"/>
  <path class="fil0" d="M5415.68 5332.66c324.07,-43.52 583.16,195.11 621.61,475.78 41.93,306.24 -159.01,585.8 -479.69,629.79 -184.7,25.33 -305.23,-37 -424.87,-118.54 -337.6,-230.05 -272.08,-912.51 282.95,-987.03zm118.42 -822.48c-326.39,-0.06 -258.36,-2.94 -307.58,257.64 -15.48,82.03 -25.33,78.68 -99.35,103.79 -51.64,17.49 -109.25,52.23 -149.99,64.22 -142.08,41.85 -239.81,-257.98 -396.49,-94.3 -238.36,249.07 -236.46,194.65 -119.65,363.97 103.79,150.4 100.83,97.85 27.12,274.26 -62.44,149.43 -4.15,128.43 -246.87,167.59 -157.58,25.44 -131.71,39.63 -131.91,282.54 -0.16,201.48 17.98,173.97 208.92,204.9 179.47,29.06 128.37,71.67 198.8,217.22 29.49,60.91 39.21,76.55 -4.05,139.66 -31.64,46.14 -60.53,83.38 -89.63,124.46 -79.21,111.71 -15.8,139.26 96.17,249.58 83.79,82.55 117.88,168.01 260,61.48 31.55,-23.64 88.98,-69.46 117.47,-84.94 60.11,-32.68 105.99,5.59 157.29,27.73 178.61,77.05 152.52,12.82 187.74,228.38 32.3,197.71 51.5,160.94 258.32,161.3 204.69,0.38 196.64,13.92 228.66,-179.74 35,-211.49 32.69,-134.15 199,-217.15 119.55,-59.67 110.81,-45.1 273.32,73.44 130.59,95.25 171.19,8.77 248.18,-68.27 185.3,-185.45 156.79,-162.16 9.69,-369.7 -48.96,-69.06 -37.94,-84.19 -0.86,-161.1 78.5,-162.79 10.23,-172.37 209.68,-205.11 197.15,-32.36 191.22,-14.28 190.88,-224.65 -0.3,-196.12 40.28,-231.76 -152.96,-263.16 -217.31,-35.32 -154.65,-5.04 -233.38,-181.43 -75.25,-168.57 -39.55,-149.59 53.56,-281.77 107.79,-153.02 44.47,-141.26 -55.79,-254.74 -166.66,-188.64 -180.87,-155.78 -359.88,-26.01 -103.97,75.38 -105.06,33.79 -296.2,-37.04 -68.17,-25.27 -65.67,-54.83 -78.57,-134.88 -31.11,-192.88 3.21,-218.13 -201.64,-218.17z"/>
  <g id="_3141977591056">
   <path class="fil0" d="M5434.28 28.51l1.69 120.37c-160.1,-5.09 -456.41,79.43 -600.4,139.8 -151.5,63.51 -248.93,119.5 -379.71,213.38 -11.81,8.47 -17.44,8.76 -28.84,17.1 -11.34,8.3 -16.8,15.86 -28.59,24.24 -148.3,105.44 -338.06,315.51 -449.03,500.34 -113.66,189.26 -180.11,359.99 -228,574.67 -5.76,25.84 -10.88,77.68 -16.97,96 105.45,-327.62 225.21,-548.15 452.57,-780.75 87.94,-90 112.49,-98 177.32,-156.44l84.93 -60.31c200.14,-137.73 461.07,-236.88 705.04,-272.68 76.94,-11.27 234.83,-28.48 314.4,-14.8l4.24 116.54c7.26,-4.72 13.04,-6.65 20.52,-11.84 20.46,-14.27 37.31,-34.41 68.31,-51.94l46.77 -30.19c17.55,-11.4 35.04,-17.33 52.3,-28.83l150.5 -75.38c14.19,-5.82 42.31,-15.37 53.32,-24.35 -80.42,-85.93 -273.13,-235.53 -400.37,-294.93z"/>
   <path class="fil0" d="M5499.99 3756.9l-1.94 -116.79 -112.31 76.69c-112.35,70.72 -151.22,89.62 -280,142.74l83.66 80.14c24.41,24.35 67.55,54.59 97.72,78.13 52.67,41.02 155.62,110.77 219.42,138.48l-1.6 -120.38c150.41,10.38 457.56,-79.88 599.19,-139.03 200.65,-83.81 338.4,-172.93 492.81,-298.45 139.84,-113.72 276.63,-267.41 391.92,-452.46 108.27,-173.86 221.51,-447.95 245.08,-670.49 -53.31,206.18 -159.99,410.61 -271.13,563.8 -84.79,116.88 -175.14,215.38 -279.11,305.65 -50.03,43.43 -165.31,128.61 -219.58,159.6l-116.77 65.94c-218.67,118.4 -592.13,215.69 -847.36,186.43z"/>
  </g>
  <g id="_3141977587088">
   <path class="fil0" d="M2181.59 3544.98c27.55,-4.52 50.63,15.77 53.94,39.26 4.09,28.92 -16.29,50.34 -38.27,53.73 -63.23,9.72 -76.47,-83.02 -15.67,-92.99zm-385.82 422.8l0 66.18c0.13,0.31 0.26,0.43 0.3,0.98 0.05,0.56 0.45,1.66 0.52,2.02 1.11,6.11 3.03,36.03 5.37,50.76 2.66,16.79 6.27,34.01 10.84,49.14 17.27,57.16 50.51,111.39 111.72,126.69 17.86,4.47 37.79,3.04 56.82,3.04 17.77,-0.01 42.86,1.45 59.75,-0.28 0.6,-33.07 0.06,-66.68 0.06,-99.81 0,-33.72 -0.4,-59.85 10.57,-89.74 17.61,-48.01 51.48,-81.67 110.02,-90.48 28.37,-4.26 159.6,-2.22 198.12,-2.22 63.74,-0.01 128.27,6.84 177.42,-22.91 20.43,-12.35 37.36,-28.81 48.16,-51.97 13.28,-28.45 13.61,-51.6 13.61,-86.41 0.02,-66.77 0.03,-133.55 0.04,-200.33 0.01,-36.11 0.79,-54.91 -18.67,-81.35 -38.83,-52.76 -110.41,-69.55 -174.21,-76.5 -11.35,-1.24 -38.92,-1.44 -47.02,-3.47l-57.27 0 -80.24 8.28c-4.18,0.73 -8.37,1.56 -12.49,2.42 -38.27,7.97 -82.31,21.85 -109.3,50.93 -18.72,20.14 -24.34,33.14 -24.19,63.84 0.19,39.17 0.3,78.38 0.33,117.56l262.6 -0.01 -0.36 36.94c-63.34,1.53 -128.75,0.06 -192.31,0.01l-144.55 -0.04c-46.12,-0.01 -75.73,-3.66 -118.52,25.41 -29.33,19.92 -48.77,48.45 -62.65,81.88 -9.78,23.51 -15.97,51.44 -19.68,76.26l-4.79 43.18z"/>
   <path class="fil0" d="M2480.97 4362.09c27.71,-3.42 49.46,17.54 52.24,41.09 3.28,27.8 -16.91,49.59 -41.1,52.61 -28.13,3.51 -49.84,-17.98 -52.59,-41 -3.36,-28.1 16.93,-49.66 41.45,-52.7zm394.49 -287.5l0 -151.36c-1.91,-4.06 -6.81,-36.23 -8.94,-45.09 -3.51,-14.55 -7.89,-28.11 -13,-40.81 -13.64,-33.93 -29.47,-57.32 -56.68,-78.3 -15.59,-12.01 -35.22,-21.05 -55.89,-24.2 -10.59,-1.62 -94.82,-1.85 -106.76,-0.75 0,44 1.41,90.33 -0.09,134.03 -1.88,55.26 -25.62,103.73 -70.03,129.33 -36.42,20.99 -72.26,18.81 -113.53,18.81l-199.18 -0.02c-44.64,-0.01 -77.08,1.75 -111.6,21.89 -76.49,44.64 -63.54,119.75 -63.53,202.19 0,44.64 0.01,89.27 0.01,133.91 0,23.29 -2.2,39.2 5.71,60.71 28.7,77.99 141.34,100.18 228.39,103.74 80.96,3.32 165.31,-3.21 230.3,-35.33 24.24,-11.98 55.95,-39.04 58.83,-74.25l-0.45 -132.68 -262.27 -0.04 -0.05 -37.05c120.51,-0.49 241.2,-0.25 361.72,-0.05 31.9,0.06 50.19,-2.2 75.83,-14.74 52.43,-25.62 80.06,-77.71 93.63,-133.01 2.01,-8.19 5.17,-31.83 7.58,-36.93z"/>
  </g>
 </g>
</svg>
