<?xml version="1.0" encoding="UTF-8"?>
<!DOCTYPE svg PUBLIC "-//W3C//DTD SVG 1.1//EN" "http://www.w3.org/Graphics/SVG/1.1/DTD/svg11.dtd">
<!-- Creator: CorelDRAW 2018 (64-Bit) -->
<svg xmlns="http://www.w3.org/2000/svg" xml:space="preserve" width="66.5mm" height="50.5mm" version="1.1" style="shape-rendering:geometricPrecision; text-rendering:geometricPrecision; image-rendering:optimizeQuality; fill-rule:evenodd; clip-rule:evenodd"
viewBox="0 0 6650 5050"
 xmlns:xlink="http://www.w3.org/1999/xlink">
 <defs>
  <style type="text/css">
   <![CDATA[
    .fil0 {fill:#1D6FA9}
   ]]>
  </style>
 </defs>
 <g id="Layer_x0020_1">
  <metadata id="CorelCorpID_0Corel-Layer"/>
  <g id="_3179667900384">
   <path class="fil0" d="M414.2 2751.72c-2.65,-7.12 0,0 0,0zm568.4 -764.48c-46.56,-33.06 -97.57,-65.99 -137.06,-97.01 -49.6,-38.93 -77.17,-65.81 -120.39,-100.23 -49.19,-39.18 -199.2,-181.6 -216.23,-231.36 -40.54,-118.39 84.87,-224.52 224.56,-197.39 115.45,22.45 168.19,158.51 244.37,192.49 -51.2,-390.07 -403.51,-330.84 -536.37,-172.94 -179.98,213.95 -121.79,885.67 -83.79,1176.96 36.48,279.58 105.09,212.69 159.85,299.01 69.77,109.99 26.93,1025.88 8.41,1251.65 -6.01,73.09 -6.08,136.82 36.12,188.14 28.84,35.11 87.23,72.11 167.9,73.88 203.47,4.45 219.97,-147.8 228.28,-253.13 32.78,-415.54 41.89,-860.26 40.69,-1276.15l-16.34 -853.92z"/>
   <path class="fil0" d="M646.3 1387.06c-68.79,16.13 -122.44,66.03 -114.16,139.47 6.27,55.52 69.46,109.27 105.05,145.12 191.8,193.19 339.6,311.46 634.36,389.25 76.74,20.25 371.26,87.24 446.74,72.17 145.47,-29.05 167.81,-221.46 -19.5,-257.64 -210.48,-40.66 -444.48,-62.8 -602.7,-185.52 -133.64,-103.65 -147.06,-113.92 -265.73,-237.56 -42.08,-43.83 -92.17,-86.85 -184.06,-65.29z"/>
   <path class="fil0" d="M717.58 463.18c-479.04,123.28 -299.21,828.13 175.9,717.8 172.85,-40.13 319.18,-223.43 272.33,-439.44 -38.79,-178.76 -225.64,-335.66 -448.23,-278.36z"/>
  </g>
  <g id="_3179667898688">
   <path class="fil0" d="M3976.89 758.86c101.09,-16.58 185.76,57.85 197.93,144.01 14.98,106.11 -59.77,184.71 -140.41,197.12 -231.99,35.68 -280.57,-304.58 -57.52,-341.13zm-1415.49 1551.18l0 242.77c0.49,1.17 0.95,1.6 1.11,3.61 0.16,2.06 1.65,6.09 1.9,7.42 4.06,22.41 11.11,132.17 19.7,186.23 9.75,61.59 23,124.77 39.77,180.26 63.38,209.72 185.31,408.68 409.87,464.83 65.52,16.39 138.65,11.16 208.48,11.13 65.19,-0.03 157.26,5.34 219.2,-1 2.22,-121.33 0.24,-244.65 0.24,-366.19 0,-123.72 -1.46,-219.59 38.77,-329.24 64.6,-176.15 188.89,-299.65 403.64,-331.95 104.08,-15.63 585.56,-8.15 726.86,-8.15 233.86,-0.03 470.6,25.09 650.94,-84.05 74.95,-45.33 137.08,-105.73 176.69,-190.67 48.72,-104.4 49.91,-189.32 49.94,-317.02 0.05,-244.99 0.08,-489.99 0.13,-734.99 0.03,-132.49 2.9,-201.45 -68.49,-298.45 -142.47,-193.57 -405.08,-255.19 -639.16,-280.68 -41.61,-4.55 -142.79,-5.29 -172.48,-12.74l-210.13 0 -294.39 30.4c-15.34,2.69 -30.7,5.72 -45.82,8.86 -140.41,29.24 -301.98,80.18 -401.01,186.85 -68.66,73.92 -89.31,121.58 -88.74,234.22 0.68,143.74 1.09,287.59 1.19,431.33l963.43 -0.03 -1.3 135.5c-232.39,5.61 -472.35,0.22 -705.56,0.03l-530.34 -0.13c-169.18,-0.03 -277.81,-13.44 -434.82,93.23 -107.6,73.08 -178.91,177.75 -229.85,300.38 -35.88,86.27 -58.58,188.75 -72.21,279.79l-17.56 158.45z"/>
   <path class="fil0" d="M5075.28 3756.69c101.66,-12.57 181.46,64.35 191.67,150.73 12.03,102.01 -62.05,181.95 -150.81,193.03 -103.21,12.87 -182.84,-65.98 -192.95,-150.44 -12.3,-103.09 62.13,-182.19 152.09,-193.32zm1447.33 -1054.8l0 -555.32c-7.02,-14.87 -24.99,-132.93 -32.82,-165.41 -12.87,-53.38 -28.94,-103.13 -47.69,-149.73 -50.04,-124.48 -108.11,-210.32 -207.95,-287.27 -57.2,-44.08 -129.22,-77.25 -205.03,-88.79 -38.88,-5.93 -347.91,-6.8 -391.72,-2.73 0.03,161.4 5.2,331.4 -0.3,491.72 -6.91,202.73 -94.02,380.56 -256.94,474.5 -133.61,77 -265.1,69.01 -416.51,69.01l-730.76 -0.08c-163.8,-0.03 -282.8,6.42 -409.44,80.31 -280.66,163.76 -233.13,439.35 -233.08,741.79 0,163.76 0.03,327.52 0.03,491.29 0,85.43 -8.07,143.82 20.95,222.72 105.29,286.16 518.55,367.55 837.92,380.64 297.02,12.16 606.5,-11.79 844.94,-129.63 88.93,-43.94 205.25,-143.25 215.84,-272.41l-1.65 -486.8 -962.24 -0.13 -0.19 -135.94c442.14,-1.79 884.94,-0.92 1327.11,-0.16 117.02,0.19 184.14,-8.1 278.21,-54.09 192.32,-93.99 293.71,-285.12 343.49,-488.01 7.37,-30.02 18.99,-116.78 27.83,-135.48z"/>
  </g>
 </g>
</svg>
