<?xml version="1.0" encoding="UTF-8"?>
<!DOCTYPE svg PUBLIC "-//W3C//DTD SVG 1.1//EN" "http://www.w3.org/Graphics/SVG/1.1/DTD/svg11.dtd">
<!-- Creator: CorelDRAW 2018 (64-Bit) -->
<svg xmlns="http://www.w3.org/2000/svg" xml:space="preserve" width="69mm" height="49.5mm" version="1.1" style="shape-rendering:geometricPrecision; text-rendering:geometricPrecision; image-rendering:optimizeQuality; fill-rule:evenodd; clip-rule:evenodd"
viewBox="0 0 6900 4950"
 xmlns:xlink="http://www.w3.org/1999/xlink">
 <defs>
  <style type="text/css">
   <![CDATA[
    .str0 {stroke:#1D6FA9;stroke-width:50;stroke-miterlimit:22.9256}
    .str1 {stroke:#1D6FA9;stroke-width:20;stroke-miterlimit:22.9256}
    .fil1 {fill:none}
    .fil3 {fill:#FEFEFE}
    .fil0 {fill:#1D6FA9}
    .fil2 {fill:white}
   ]]>
  </style>
 </defs>
 <g id="Layer_x0020_1">
  <metadata id="CorelCorpID_0Corel-Layer"/>
  <path class="fil0" d="M5471.16 766.84c-42.88,-59.24 -32.47,-117.74 -33.37,-176.65 -0.56,-37.33 22.57,-140.12 22.57,-140.18l-2.94 -122.37c15.77,7.16 28.95,32.5 43.88,47.74 19.09,19.47 8.9,-5.2 7.55,13.26 -0.19,2.4 -1.4,86.77 -0.65,90.92 0.18,0.96 4.46,9.38 6.36,17.02 7.04,28.11 -0.96,-3.06 0.63,19.14 2.27,31.33 39.59,98.68 63,130.22 23.39,31.49 14.84,-3.55 24.72,33.08 12.15,45.12 39.21,24.6 56.7,137.69 5.57,35.98 10.84,74 14.03,104.5 4.53,43.35 15.77,79.85 31.95,116.48 12.59,28.55 12.88,18.28 29.17,37.08 26.17,30.16 20.77,42.7 47.99,65.03 35.77,29.35 40.39,50.5 61.73,63.98 31.52,19.94 9.63,17.44 28.99,28.94 24.19,14.41 104.43,114.63 113.89,137.71l80.41 95.05c76.52,84.64 207.28,-5.45 280.59,-20.8 58.59,-12.3 54.06,6 128.19,55.98 47.42,31.96 57.7,56.95 59.73,106.35 2.12,51.19 41.98,78 83.47,105.49 65.54,43.42 57.99,35.23 121.85,28.4 23.51,40.38 -12.75,81.65 -0.87,135.86 11.79,53.75 3.98,108.7 -0.36,167.81 -3.59,48.56 -10.41,77.65 -12.42,132.17 -2.1,56.87 -18.11,100.06 -35.32,144.27 -21.12,-21.49 -118.31,-94.14 -131.52,-96.82 -31.21,-6.28 -43.21,-21.37 -79.84,-33.71 -39.82,-13.36 -53.77,-20.83 -88.02,-34.29 -67.12,-26.43 -115.31,-39.64 -175.69,-71.28 -84.65,-44.41 -72.91,-49.53 -133.56,-106.9 -43.77,-41.4 -74.19,-79.6 -115.84,-122.66 -43.79,-45.33 -91.61,-61.71 -103.66,-132.16 -7.83,-45.72 -35.64,-118.43 -36.51,-164.07 -1.55,-78.96 -0.53,-245.93 -41.38,-300.36 -30.83,-41.06 -32.47,-62.57 -66.79,-102.46 -17.47,-20.31 -25.86,-58.74 -51.63,-86.23 -21.96,-23.41 -47.34,-36.58 -70.47,-63.73 -47.13,-55.24 -49.36,-130.27 -88.03,-179.5 -23.62,-30.02 -14.68,-27.14 -38.53,-60zm-911.8 1319.2c-11.65,4.15 -42.56,35.36 -55.56,48.5 -5.33,5.4 -49.02,34.6 -58.31,40.87 -2.79,1.88 -156.35,90.01 -173.67,96.76 -25.43,9.91 -30.95,14.86 -52.49,24.15l-98 59.67c-224.42,146.49 -167.39,212.64 -227.48,246.17 -23.44,13.08 -24.19,25.67 -38.82,27.42 -42.64,5.06 -128.58,80.03 -129.08,80.86 -4.1,6.87 -3.84,16.08 -22.65,39.54 -11.81,14.73 -14.21,35.54 -19.07,48.74l-2.49 -0.44 -176.41 39.25 -18.38 7.09c-36.51,7.5 -33.25,14.02 -61.89,13.46 -29.37,-2.05 -63.18,-5.86 -83.34,-6.89 -42.71,-2.17 -127.83,-5.06 -156.84,5.18 -24.64,8.7 -43.01,11.21 -61.34,15.94 -23.96,6.15 -31.85,13.94 -54.64,22.67 -14.97,5.71 -19.26,4.17 -31.08,8.39 -26.75,9.52 -18.44,-14.81 -19.65,18.61 27.2,26.03 84.8,-11.11 116.64,-12.49 20.08,-0.87 29.78,-0.24 46.67,-3.37l45.05 -2.97c84.21,-7.33 168.24,21.3 245.19,17.09 69.35,-3.83 77.96,-44.75 144.56,-45.3 319.97,4.96 1445.44,-84.98 1668.48,-160.23 57.95,-19.54 241.41,-171.17 173.61,-191.74l-153.97 109.88 -133.11 36.64 -586.84 78.83c-41.02,14.29 -144.15,48.72 -184.49,38.48 -82.7,-20.96 -100.57,-29 -182.63,-26.69 -36.44,1.01 -184.52,22.35 -206.7,20.42 -43.12,12.8 -72.66,14.53 -126.66,27.53l-180.76 -3.15c22.79,-15.74 55.62,-73.18 92.79,-97.39l93 -56.42c57.23,-33.6 9.11,-11.29 52.11,-46.93 38.39,-31.76 54.57,-95.97 81.84,-121.3 18.91,-17.64 17.19,-12.34 37.76,-34.7 20.53,-22.27 -0.12,6.09 39.02,-32.83 78.47,-78.06 345.26,-172.61 450.03,-252.42 19.27,-14.67 68.07,-56.19 72.25,-63.35l56.15 -65.78c19.08,-21.61 57.63,-48.23 72.54,-71.78 9.11,-14.38 19.1,-31.58 28.5,-42.83 18.88,-22.6 2.12,-6.08 17.27,-42.42 18.83,-45.11 46.39,-82.97 68.4,-148.59 12.04,-35.92 16.54,-91.27 61.45,-136.17 13.98,-13.95 48.94,-68.92 65.75,-72.8 -9.48,53.56 -12.99,140.52 1.76,192.12 9.31,32.65 71.77,114.83 76.28,140.41 8.02,45.26 -0.27,97.4 5.13,120.3 3.52,14.88 37.92,73.1 50.78,86.04 96.77,124.72 160.49,17.69 99.23,38.48 -21.58,-15.91 -23.61,-25.72 -40.44,-40.72 -18.56,-16.54 -52.28,-73.59 -54.26,-95.52 -2.36,-26.14 4.93,-29.56 0.63,-39.3 -17.43,-39.38 6.73,-69.56 -14.28,-115.09 -13.02,-28.22 -39.3,-53.76 -58.81,-92.53 -34.43,-68.39 -25.67,-150.2 0.12,-208.12 12.33,-27.75 4.05,4.84 8.49,-11.69 0.12,-0.46 0.58,-14.26 3.02,-19.66 27.31,-60.49 132.23,-278.55 160.5,-307.04 30.14,-30.33 11.47,-30.94 36.05,-56.13 24.04,-24.63 72.32,-95.15 87.19,-120.9 61.3,-106.32 23.24,-36.45 65.37,-135.28 60.81,1.35 65.86,174.07 135.35,217.52 45.94,28.72 61.3,51.08 84.88,96.48 17.79,34.24 46.54,75.12 70.32,109.28 41.8,60 34.18,73 36.55,132.05 1.1,27.41 1.65,94.05 4.72,115.86 15.05,107.53 27.01,164.54 52.5,268.27 14.37,58.52 47.19,68.38 92.58,94.55 35.58,20.5 66.06,66.7 90.99,90.13 87.39,82.09 73.72,99.06 198.83,167.47 64.04,35.01 194.73,63.16 276.38,97.4 42.7,17.89 212.54,119.05 219.92,148.92 7.16,13.43 -35.71,217.55 -38.36,223.63 -24.62,56.5 -40.15,141.88 -77.1,199.17 -0.79,1.26 -18.54,66.01 -27.32,98.12 -12.4,45.33 -26.94,56.26 -45.53,98.27 -7.99,18.04 -84.35,178.63 -87.67,181.6 -93.44,317.28 -797.28,1192.45 -1091.78,1331.87 -4.57,2.17 -247.08,168.16 -273.79,190.51 -12.71,10.62 -80.08,23.49 -99.15,29.82 -26.04,-2.99 -90.89,-40.92 -108.85,-52.78 -107.34,-71.02 -90.74,-232.87 -338.89,-254.83 -89.56,-7.89 -192.98,-19.22 -264.53,-100.73 -30.53,-34.79 -58.23,-70.74 -73.55,-118.63 -29.03,-90.53 -16.76,-56.57 -62.28,-126.29 -150.98,-60.98 -158.18,-98.86 -241.3,-156.54 -69.6,-48.33 -46.98,-79.38 -80.64,-117.22 -33.61,-37.81 -76.89,-40.94 -102.72,-95.03 -19.71,-41.26 13.79,-78.37 -7.93,-144.15 -26.84,-81.38 -186.19,-102.12 -262.86,-111.4l-148.47 -11.04c-35.77,-6.59 -89.99,-37.62 -103.23,-90.68 -14.69,-58.76 -65.45,-80.43 -66.58,-115.54 -3.47,-108.2 9.65,-77.87 -51.36,-129.18 -31.78,-26.74 -91.92,-53.94 -132.14,-67.98 -155.54,-54.28 -298.55,-17.98 -379.64,-50.75l-35 -11.5c-5.45,-2.47 -26.57,-16.74 -29.35,-18.48 -17.91,-11.14 -6.5,-0.02 -27.53,-7.93 -25.32,-9.52 -5.95,-6.58 -30.82,-10.85 -26.88,-4.59 -41.09,-15.46 -69.75,-24.99 14.8,-60.06 283.93,-231.72 314.16,-240.4 96.38,-68.93 123.34,54.26 328.65,-222.81 11.14,-15.03 33.49,-25.76 52.18,-42.3 84.42,-101.49 84.32,-90.12 152.06,-176.98 115.41,-174.62 280.44,-374.29 435.11,-516.11 26.08,-21.03 37.13,-44.03 57.82,-69.69l61.3 -244.68c45.77,-29.4 107.59,-132.21 155.26,-265 20.47,-57.06 79.91,-45.02 125.1,-75.99 26.02,-17.84 107.94,-65.66 127.98,-79.83 29.78,-3.99 74.28,-23.74 83.77,-24.63 46.87,-4.41 87.77,-60.04 162.03,-89.65 34.37,-13.67 52.84,-26.02 82.95,-43.52 7.74,-4.51 176.97,-158.77 193.74,-190.72 24.27,-27.91 58.48,-39.21 81.62,-67.14 18.43,-16 41.14,-42.53 59.43,-61.86 32.66,-34.54 40.83,-74.59 57.45,-89.97 14.06,-13.03 16.7,-45.8 41.57,-86.45 23.39,-38.22 40.24,-45.04 72.63,-75.83 34.19,-32.49 66.77,-35.41 98.04,-3.1 16.38,16.88 78.52,32.84 104.44,21.83 82.47,-35.01 118.63,-126.26 157.85,-144.63 36.55,19.02 27.22,31.29 42.29,68.19 20.13,49.28 26.36,9.59 38.97,59.59 22.76,90.34 -13.25,171.11 -26.82,259.86 -4.31,28 -0.81,34.6 -8.92,62.9 -3.11,10.82 -14.39,63.44 -15.84,75.35 -2.2,18.16 3.78,51.38 1.64,75.09 -3.23,35.64 -40.44,180.99 -70.15,204.31 -37.16,29.15 -54.25,78.78 -85.55,108.73 -16.96,16.23 -64.44,88.62 -75.77,113.67 -33.08,73.32 7.16,18.78 -57.46,127.41 -28.36,47.68 -40.8,63.45 -84.83,105.04 -27.81,26.29 -155.89,189.54 -162.23,215.28 -5.46,22.19 -12.91,50.79 -19.25,73.98 -3.69,13.48 -0.46,47.89 -13.74,74.38 -11.29,22.52 -49.83,118.46 -59.03,130.9 -26.43,35.76 -44.39,74.39 -82.98,101.74 -31.61,22.38 -59.68,61.59 -89.84,90.11zm1005.98 -1759.25l-163.08 -193.32c-81.18,-99.54 -130.23,-1.7 -203.95,46.57 -115.07,75.36 -75.55,-90.76 -236.5,-25.19 -82.15,33.49 -129.23,89.98 -173.62,150.12 -30.52,141.55 -88.06,168.31 -170.62,249.91 -120.07,118.66 -385.99,309.69 -400.67,316.15 -103.93,107.85 -665.51,315.78 -631.08,531.85 -122.45,134.67 -123.97,121.13 -266.12,103.69 -59.63,49.36 -64.95,-37.37 -226.73,194.89 -11.51,-0.66 -17.85,13.52 -32.75,51.26l-86.66 99.93c-26.99,54.37 -54.4,17.62 -167.35,240.03 -0.8,17.77 -32.07,98.55 -45.94,107.33 -26.13,16.54 -89.67,52.19 -102.89,71.24 -31.16,18.09 -62,49.08 -69.21,58.79 -34.25,46.08 -84.56,94.08 -126.79,135.33 -26.84,19.72 -26.18,36.34 -54.51,64.36 -57.87,57.22 -26.68,24.23 -43.44,81.24 -7.85,26.65 -186.39,138.16 -228.03,158.83 -49.63,39.17 -93.12,66.29 -122.83,102.78 -19.22,23.67 -14.94,26.16 -10.06,62.33 -111.03,-17.63 -177.47,-6.04 -289.99,-20.59 -49.24,4.79 -14.78,8.86 -92.72,1.98 -20.39,-1.8 -52.45,-5.5 -52.56,21.33 1.23,38.83 67.99,27.13 99.54,28.55 41.44,1.9 253.96,-5.12 267.72,7.48 11.33,10.66 379.09,20.19 446.28,56.03 72.41,38.56 51.63,32.11 121.57,56.75 7.48,2.64 114.98,18.23 135.84,18.34 65.37,0.34 195.36,0.15 251.45,29.45 59.58,31.13 98.92,13.55 110.86,107.72 -133.18,-37.3 -489.1,44.57 7.15,34.28 18.18,46.18 44.47,87.6 68.36,141.31 27.93,62.82 41.27,77.6 99.04,97.9 63.63,22.33 329.27,12.05 356.54,64.46 -26.16,7.32 -110.49,-8.75 -146.39,-11.37 -82.38,-6.1 -91.83,39.02 -39.36,39.91 360.14,6.15 174.39,56.99 253.34,154.01 52.35,64.32 70.1,51.92 142.48,162.78 10.14,15.53 65.23,75.52 65.67,76.7 19.18,22 23.36,18.09 36.3,35.76 22.64,7.47 81.15,50.68 108.86,66.33 41.77,23.56 97.81,27.33 110.92,68.78 27.73,87.75 -0.14,43.91 47.38,130.67 37.02,67.64 113.17,138.87 192.31,167.25 44.99,16.15 92.31,34.28 144.83,40.41 52.68,6.13 115.46,0.94 147.07,38.44 -28.48,19.36 -125.03,-44.88 -133.96,26.93l198.6 25.85c75.8,112.59 54.53,313.53 649.29,57.88 145.13,-89.37 298.71,-232.28 418.29,-339.5 66.41,-59.58 124.13,-127.68 190.6,-188.28 66.9,-61.05 107.94,-157.33 167.58,-215.59 28.7,-28.05 206.17,-332.63 258.83,-404.29 13.29,-18.11 22.52,-47.12 32.7,-62.48 151.43,-228.4 284.56,-516.82 357.29,-780.55 29.4,-106.7 47.46,-199.58 72.12,-306.96 22.4,-97.5 74.58,-580.34 38.97,-692.52 -36.31,-11.82 -31.59,-20.76 -92.64,-19.24 -74.2,1.9 -111.7,-20.48 -123.58,-89.42 -3.07,-17.77 -27.86,-67.75 -25.25,-74.36 7.05,-4.74 -114.37,-90.58 -136.43,-103.86 -155.73,-93.78 -256.4,57.27 -330.21,16.18 -10.28,-5.74 -75.05,-88.26 -95.04,-113.93 -46.08,-59.2 -21.46,-64.12 -96.3,-118.35 -44.35,-32.14 -204.01,-183.49 -173.14,-242.92 -30.89,-128.7 -8.39,-155.68 -103.55,-310.78 -24.27,-39.54 -55.38,-59.8 -64.76,-111.72 -26.7,-147.74 0.86,-43.72 -39.07,-174.87z"/>
  <path class="fil1 str0" d="M3141.78 4761.79l-292.94 -304.68 -492.96 -384.86 -138.06 -422.15c0,0 -190.43,-291.24 -417.55,-217.48 -227.12,73.75 -445.14,17.95 -445.14,17.95l-233.51 -124.74 -320.93 -83.56 -514 -264.2 -228.29 -46.28"/>
  <line class="fil1 str0" x1="168.45" y1="1789.93" x2="2859.35" y2= "1995.78" />
  <g id="city">
   <path class="fil0" d="M4175.31 3409.37l80.79 -2.17 0.69 136.53 -82.5 0 1.02 -134.36zm851.05 -122.5l108.89 0 1.26 163.41 -111.69 0.61 1.54 -164.02zm-966.52 125.69l62.86 -0.36 -0.09 40.71 -62.57 0.58 -0.2 -40.93zm802.16 -62.72l34.42 -0.09 -2.72 70.2 -31.18 -0.05 -0.52 -70.06zm56.02 -1.15l33.72 -0.03 0.3 71.29 -33.87 0.32 -0.15 -71.58zm1111.58 -19c0.55,-97.23 -19.67,-204.25 47.19,-202.36 44.31,1.24 45.05,37.5 44.92,78.88 -0.15,40.99 0.48,81.99 0.13,123l-92.24 0.48zm-258.65 -1.13c1.73,-109.21 -20.5,-201.23 45.57,-201.71 46.49,-0.32 47.38,38.35 47.27,80.23 -0.11,40.75 0.54,81.51 0.43,123.15l-93.27 -1.67zm-210.11 2.58c-0.35,-42.79 -0.2,-85.52 -0.7,-128.27 -0.5,-40.91 1.24,-75.82 48.4,-73.78 64.33,2.75 39.69,102.26 45.16,202.08l-92.86 -0.03zm-698.77 -43.6l88.37 -0.3 -0.39 44.16 -90.2 0.26 2.22 -44.12zm1171.64 -208.65c-0.33,-88.37 -17.26,-174.57 41.99,-173.68 56.67,0.85 40.86,92.84 40.78,181.04l-82.77 -7.36zm-65.57 -200.58l0.8 119.16c-96.55,5.64 -205.68,1.84 -301.98,2.56 -57.23,0.39 -77.18,7.9 -116.74,32.7 -30.27,18.95 -70.35,33.02 -100.18,53.58l-0.7 344.19 -117.05 10.68c10.92,-11.79 -6.1,-9.79 47.4,-10.57 -7.47,-15.77 -33.44,-42.8 -45.23,-56.82 13.07,-7.39 5.71,-1.29 15.11,-4.35l15.92 -6.25c-11.1,-12.46 -20.54,-25.68 -31.72,-36.87 15.78,-17.02 -1.85,-0.48 22.9,-10.96 -11.92,-15.24 -27.57,-36.98 -37.8,-53.52l-22.75 22.3c-9.19,11.76 -11.33,15.35 -22.39,25.01 8.19,12.33 1.02,1.87 15.01,12.38 0.97,0.71 2.71,1.99 3.51,2.58 0.81,0.58 2.56,1.54 3.59,2.6 -15.03,14.31 -18.83,23.11 -31.55,36.85l27.16 10.53c-13.66,20.84 -31.13,35.22 -42.32,57.41 20.43,-0.39 37.72,-4.71 50.55,6.38 -16.81,12.7 -83.59,11.68 -108.91,10.99l-0.67 -223.94 -150.27 -121.2c-13.6,-11.88 -38.65,-34.02 -53.37,-42.32 -31.88,15.53 -166.1,146.52 -202.51,164.45l0.06 242.66c-13.57,1.84 -102.31,9.96 -115.12,3.56 1.13,-0.67 3.02,-2.63 3.67,-1.48l48.38 -4.62 -45.82 -52.57c1.59,-0.8 12.58,0.67 24.82,-10.57l-28.9 -39.54 27.32 -5.17 -51.48 -72.76 -46.23 70.29c15.98,12.83 1.19,-2.83 24.04,9.22 -11.82,12.4 -18.35,27.1 -31.57,36.29 1.17,1.15 3.4,0.56 4.21,2.6l27.88 9.97 -45.6 52.41c18.04,1.72 42.36,-1.89 55.54,6.06 -9.92,14.5 -84.81,16.76 -124.82,23.75 -31.29,5.49 -31.46,11.6 -35.07,-12.55 3.41,-17.54 31.59,-10.83 67.79,-10.03 -15.68,-35.33 -70.24,-103.83 -76.71,-127.6l55.3 1.58 -58.82 -103.89 43.75 -1.28c-6.99,-26.53 -44.58,-91.39 -58.25,-119.18l-60.28 118.48 41.91 1.18 -58.19 103.89 56.88 0.63c-3.97,20.6 -59.62,96.53 -74.53,126.84l76.27 -0.58 0.72 31.39 -134.12 36.59c-5.17,-34.48 -2.37,-85.14 -2.45,-121.18 -0.13,-59.6 8.47,-83.64 -17.2,-108.71 -26.44,-25.84 -107.34,-106.59 -123.52,-132.06 -20.32,9.38 -22.08,17.57 -35.89,31.94l-94.06 97.29c-30.98,32.59 -20.58,50.16 -20.23,107.28 0.28,41.8 2.56,90.31 -0.55,131.32l-109.51 2 3.73 124.24 821.27 -51.33 438.92 -36.5 428.14 -63.14 334.11 0.15 184.19 -15.3 106.15 -115.38c-15.18,-31.12 -27.08,20.32 -31.7,-30.96l-0.63 -484 38.8 -0.41c-122.44,-171.87 -192.53,-37 -248.41,1.63z"/>
   <polygon class="fil0" points="6230.9,2876.62 5910.09,2881.51 6079.18,2686.06 "/>
  </g>
  <path class="fil1 str1" d="M4154.46 3833.98c122.38,63.49 244.74,126.99 354.88,151.27 110.15,24.28 208.05,9.32 294.46,23.32 86.44,14.01 161.39,56.98 261.58,88.73 100.21,31.75 225.63,52.29 328.06,69.96 102.43,17.67 181.86,32.48 261.27,47.26"/>
  <path class="fil1 str1" d="M4571.25 3997.84c62.42,-45.8 124.81,-91.6 175.13,-127.68 50.33,-36.09 88.59,-62.48 147.48,-71.51 58.9,-9.02 138.43,-0.68 182.53,-24.74 44.11,-24.05 52.77,-80.5 61.43,-136.94"/>
  <g id="_3141971141376">
   <path class="fil0" d="M5425.12 3844.43c5.95,-0.81 38.88,6.79 47.49,8.5 51.79,10.28 48.07,4.14 37.57,57.06 -3.2,16.09 -3.05,33.36 -17.07,35.49 -5.07,0.77 -39.55,-7.04 -47.48,-8.61 -11.96,-2.37 -36.79,-4.37 -42.26,-12.82 -5.48,-8.46 2.09,-31.93 4.47,-43.91 3.46,-17.41 3.11,-33.76 17.28,-35.71zm-133.6 -26.46c5.2,-0.84 58.55,10.64 71.04,13.12 8.84,1.75 14.54,1.75 18.58,8.42 4.06,6.72 1.89,11.53 0.15,20.27 -1.57,7.9 -3.13,15.79 -4.7,23.69 -9.25,46.58 -2.28,39.16 -88.4,22.16 -21.34,-4.22 -22.55,-8.64 -18.64,-28.31 1.57,-7.9 3.14,-15.8 4.71,-23.69 3.75,-18.94 3.02,-33.37 17.26,-35.66zm-110.39 201.21c8.05,-34.3 39.24,-56.7 74.49,-49.51 33.79,6.88 56.02,40.01 49.22,73.96 4.9,2.67 126.58,26.23 141.2,28.56 2.41,-2.84 3.32,-9.47 4.96,-13.25 11.29,-26.01 40.06,-42.37 69.82,-36.64 31.97,6.15 54.22,36.87 50.76,67.59 -0.53,4.69 -1.3,5.35 0.11,6.87 2.51,1.97 29.74,6.53 35.31,7.64 12.91,2.56 22.52,6.81 30.29,-0.87 5.39,-5.32 7.32,-24.38 9.05,-33.06l14.26 -71.85c2.44,-12.31 6.97,-24.01 -0.06,-31.15 -5.6,-5.69 -23.54,-7.47 -32.48,-9.24 -11.97,-2.38 -23.94,-4.75 -35.92,-7.13 -32.49,-6.45 -31.67,-7.04 -37.11,-38.33 -3.29,-18.96 -6.39,-37.01 -9.58,-55.89 -4.67,-27.61 -13.95,-24.81 -46.75,-31.32l-216.29 -42.93c-12.37,-2.46 -22.57,-6.59 -30.67,1.12 -5.11,4.87 -17,53.74 -19.78,63.88 -3.24,11.79 -3.99,21.96 -13.36,26.31 -11.87,5.53 -56.82,-12.95 -68.29,-7.95 -9.69,4.22 -9.72,16.02 -12.13,28.15 -3.63,18.29 -21.6,99.14 -18.99,105.98 4.04,10.6 14.36,10.31 26.96,12.81 8.09,1.6 28.02,6.53 34.98,6.25z"/>
   <path class="fil2" d="M5425.12 3844.43c-14.17,1.95 -13.82,18.3 -17.28,35.71 -2.38,11.98 -9.95,35.45 -4.47,43.91 5.47,8.45 30.3,10.45 42.26,12.82 7.93,1.57 42.41,9.38 47.48,8.61 14.02,-2.13 13.87,-19.4 17.07,-35.49 10.5,-52.92 14.22,-46.78 -37.57,-57.06 -8.61,-1.71 -41.54,-9.31 -47.49,-8.5z"/>
   <path class="fil2" d="M5291.52 3817.97c-14.24,2.29 -13.51,16.72 -17.26,35.66 -1.57,7.89 -3.14,15.79 -4.71,23.69 -3.91,19.67 -2.7,24.09 18.64,28.31 86.12,17 79.15,24.42 88.4,-22.16 1.57,-7.9 3.13,-15.79 4.7,-23.69 1.74,-8.74 3.91,-13.55 -0.15,-20.27 -4.04,-6.67 -9.74,-6.67 -18.58,-8.42 -12.49,-2.48 -65.84,-13.96 -71.04,-13.12z"/>
   <path class="fil0" d="M5554.69 4104.7c11.55,-28.35 -5.13,-55.89 -28.04,-64.92 -28.04,-11.06 -54.99,4.87 -64.27,27.24 -11.82,28.49 4.52,56.47 27.8,65.52 28.46,11.07 55.17,-4.93 64.51,-27.84z"/>
   <path class="fil0" d="M5192.34 4028.81c-2.57,25.5 15.97,51.56 45.45,54.12 26.47,2.3 51.2,-17.19 53.8,-45.04 2.41,-25.98 -15.8,-51.32 -44.75,-54.22 -26.09,-2.62 -51.55,15.92 -54.5,45.14z"/>
  </g>
  <path class="fil0" d="M2572.15 1360.57c3.85,-12.28 -2.27,-23.4 -10.09,-29.5 -10.99,-8.59 -22.98,-5.94 -38.38,-4.3l-157.49 15.26c-24.02,2.55 -56.29,-0.48 -60.18,25.99 -4.73,32.06 23.32,34.15 47.24,31.74l157.11 -15.04c26.48,-2.27 54.17,0.12 61.79,-24.15z"/>
  <path class="fil0" d="M1303.62 753.74c-34.01,9.82 -21.21,35.53 -10.97,61.79l54.05 139.94c8.73,23.1 14.57,56.3 45.5,50.44 31.71,-6.01 19.07,-41.44 9.83,-63.97l-54.19 -139.9c-7.69,-20.98 -16.22,-56.38 -44.22,-48.3z"/>
  <path class="fil0" d="M2064.97 754.18c-22.25,6.97 -23.33,26.33 -36.72,60.3 -9.15,23.27 -18.01,47.55 -27.36,70.94 -11.82,29.56 -41.58,88.84 -29.59,108.46 5.14,8.4 19.04,16.2 33.56,10.95 19.03,-6.88 25.89,-41.32 34.03,-61.91l54.1 -139.84c18.15,-46.38 -13.68,-53.39 -28.02,-48.9z"/>
  <path class="fil0" d="M809.67 1363.02c7.43,22.43 38.43,19.74 63.19,21.91l157.13 15.06c25.24,2.31 51.21,-3.25 44.42,-34.21 -5.33,-24.34 -35.57,-21.2 -62.1,-23.97l-156.61 -15.12c-14.76,-1.5 -27.06,-3.95 -37.08,4.32 -7.39,6.11 -13.53,18.17 -8.95,32.01z"/>
  <path class="fil0" d="M2274.95 1765.51c6.2,11.13 23.55,15.04 32.2,17.08l159.05 46.17c6.18,1.65 12.06,3.52 16.55,4.78 9.46,2.68 24.56,8.57 38.04,-2.02 12.55,-9.88 24.14,-41.45 -26.34,-53.21l-175.52 -51.16c-49.12,-13.96 -52.54,23 -43.98,38.36z"/>
  <path class="fil0" d="M1073.56 1755.35c24.12,-16.9 12.35,-53.73 -25,-50.05l-72.56 9.37c-19.8,2.87 -135.55,16.66 -144.33,22.62 -24.25,16.48 -13.09,54.62 25.18,50.35l108.89 -14.37c13.69,-1.97 22.45,-3.38 36.16,-5.05 12.65,-1.53 63.25,-6.97 71.66,-12.87z"/>
  <g id="_3178015690000">
   <circle class="fil3" cx="845.35" cy="4105.71" r="751.59"/>
   <path class="fil0" d="M1023.35 3579.56c-31.85,-5.22 -58.52,18.23 -62.35,45.37 -4.72,33.42 18.83,58.18 44.23,62.08 73.07,11.24 88.37,-95.93 18.12,-107.45zm445.85 488.6l0 76.47c-0.15,0.37 -0.3,0.5 -0.35,1.14 -0.05,0.65 -0.52,1.92 -0.59,2.34 -1.28,7.05 -3.5,41.63 -6.21,58.65 -3.07,19.4 -7.24,39.3 -12.53,56.78 -19.96,66.06 -58.37,128.73 -129.1,146.42 -20.64,5.16 -43.67,3.51 -65.67,3.5 -20.53,-0.01 -49.53,1.68 -69.04,-0.31 -0.7,-38.22 -0.08,-77.06 -0.08,-115.35 0,-38.97 0.46,-69.16 -12.21,-103.7 -20.35,-55.49 -59.5,-94.39 -127.14,-104.56 -32.78,-4.92 -184.44,-2.57 -228.95,-2.57 -73.66,-0.01 -148.23,7.9 -205.03,-26.47 -23.61,-14.28 -43.18,-33.3 -55.66,-60.06 -15.34,-32.88 -15.72,-59.63 -15.73,-99.86 -0.02,-77.17 -0.02,-154.34 -0.04,-231.51 -0.01,-41.73 -0.91,-63.45 21.57,-94 44.88,-60.98 127.6,-80.38 201.33,-88.41 13.11,-1.44 44.97,-1.67 54.33,-4.02l66.18 0 92.73 9.58c4.83,0.85 9.67,1.8 14.43,2.79 44.23,9.21 95.12,25.26 126.32,58.86 21.62,23.28 28.13,38.29 27.95,73.77 -0.22,45.28 -0.34,90.59 -0.38,135.86l-303.46 -0.01 0.41 42.68c73.2,1.77 148.78,0.07 222.24,0.01l167.05 -0.04c53.29,-0.01 87.5,-4.23 136.96,29.37 33.89,23.02 56.35,55.98 72.4,94.61 11.3,27.18 18.45,59.45 22.74,88.13l5.53 49.91z"/>
   <path class="fil0" d="M677.37 4523.83c-32.02,-3.96 -57.16,20.27 -60.37,47.48 -3.79,32.13 19.54,57.31 47.5,60.8 32.51,4.05 57.59,-20.78 60.78,-47.38 3.87,-32.48 -19.57,-57.39 -47.91,-60.9zm-455.88 -332.24l0 -174.92c2.21,-4.68 7.87,-41.87 10.33,-52.1 4.06,-16.81 9.12,-32.48 15.02,-47.16 15.77,-39.21 34.06,-66.25 65.51,-90.49 18.01,-13.88 40.7,-24.33 64.58,-27.97 12.24,-1.86 109.58,-2.14 123.38,-0.86 -0.01,50.84 -1.64,104.39 0.1,154.89 2.17,63.85 29.61,119.87 80.93,149.46 42.08,24.25 83.5,21.73 131.19,21.73l230.18 -0.02c51.59,-0.01 89.08,2.02 128.97,25.29 88.4,51.59 73.43,138.39 73.41,233.66 0,51.58 -0.01,103.16 -0.01,154.75 0,26.91 2.55,45.3 -6.59,70.15 -33.17,90.13 -163.34,115.77 -263.94,119.89 -93.55,3.84 -191.03,-3.71 -266.14,-40.82 -28.01,-13.85 -64.65,-45.13 -67.98,-85.81l0.52 -153.33 303.09 -0.05 0.05 -42.82c-139.26,-0.56 -278.74,-0.29 -418.01,-0.05 -36.86,0.06 -58,-2.55 -87.63,-17.03 -60.58,-29.61 -92.52,-89.81 -108.2,-153.72 -2.32,-9.45 -5.98,-36.78 -8.76,-42.67z"/>
  </g>
  <g id="_3178015682288">
   <path class="fil0" d="M1532.93 2052.05c0.24,0.53 -12.18,-2.13 -1.08,3.54 -7.68,-4.26 -5.2,-3.84 -25.52,-4.46 -8.89,-0.27 -23.13,-1.21 -31.3,-0.49 -16.61,1.45 -25.84,10.97 -17.1,19.93 8.81,9.04 30.02,8.05 49.81,8.71 19.66,0.66 41.28,1.87 60.68,2 42.67,0.29 289.25,11.12 302.21,9.95 15.34,-1.38 26.86,-10.32 17.57,-19.98 -8.52,-8.85 -30.59,-8.34 -49.95,-8.43 -12.01,-0.06 -36.71,-1.49 -55.85,-2.15 -83.02,-2.85 -166.52,-5.29 -249.47,-8.62z"/>
   <path class="fil0" d="M1547.83 2117.45c0.21,0.52 -10.81,-2.1 -0.97,3.53 -6.81,-4.23 -4.61,-3.81 -22.67,-4.36 -7.9,-0.24 -20.55,-1.12 -27.81,-0.37 -14.77,1.51 -23.01,11.07 -15.28,20 7.8,9 26.65,7.93 44.24,8.52 17.47,0.58 36.68,1.71 53.93,1.77 37.91,0.12 257.02,10 268.55,8.78 13.64,-1.43 23.91,-10.41 15.69,-20.04 -7.54,-8.82 -27.15,-8.22 -44.36,-8.24 -10.68,-0.02 -32.62,-1.35 -49.63,-1.93 -73.77,-2.54 -147.98,-4.65 -221.69,-7.66z"/>
   <path class="fil0" d="M1551.87 2186.84c0.2,0.52 -10.11,-2.07 -0.92,3.53 -6.35,-4.21 -4.3,-3.8 -21.19,-4.3 -7.39,-0.23 -19.21,-1.08 -26.01,-0.32 -13.82,1.55 -21.55,11.13 -14.33,20.04 7.27,8.98 24.9,7.86 41.35,8.41 16.35,0.55 34.31,1.64 50.44,1.65 35.46,0.04 240.38,9.44 251.17,8.19 12.75,-1.47 22.38,-10.47 14.71,-20.07 -7.03,-8.8 -25.37,-8.17 -41.47,-8.15 -9.99,0.01 -30.51,-1.27 -46.41,-1.82 -69,-2.37 -138.4,-4.32 -207.34,-7.16z"/>
   <path class="fil0" d="M1549.82 2256.32c0.18,0.52 -9.32,-2.04 -0.86,3.54 -5.85,-4.2 -3.96,-3.8 -19.53,-4.25 -6.82,-0.21 -17.72,-1.03 -23.99,-0.25 -12.76,1.59 -19.91,11.18 -13.28,20.07 6.69,8.96 22.95,7.8 38.12,8.31 15.08,0.5 31.64,1.54 46.52,1.51 32.71,-0.06 221.71,8.79 231.66,7.52 11.77,-1.5 20.68,-10.53 13.63,-20.11 -6.47,-8.78 -23.39,-8.1 -38.23,-8.03 -9.22,0.03 -28.14,-1.19 -42.81,-1.7 -63.64,-2.19 -127.65,-3.95 -191.23,-6.61z"/>
   <path class="fil0" d="M1517.71 1985.99c0.29,0.53 -14.34,-2.21 -1.24,3.53 -9.07,-4.31 -6.15,-3.87 -30.09,-4.62 -10.47,-0.32 -27.24,-1.35 -36.85,-0.68 -19.56,1.35 -30.37,10.82 -20.03,19.84 10.44,9.09 35.4,8.22 58.72,9.01 23.16,0.78 48.62,2.13 71.48,2.38 50.24,0.54 340.71,12.88 355.97,11.79 18.05,-1.28 31.57,-10.15 20.57,-19.87 -10.09,-8.91 -36.07,-8.53 -58.87,-8.74 -14.16,-0.14 -43.25,-1.71 -65.79,-2.49 -97.8,-3.37 -196.15,-6.31 -293.87,-10.15z"/>
  </g>
  <path class="fil0" d="M2077.59 1928.91c-1.07,-1.82 -813.65,-51.43 -814.67,-53.23 -45.19,-78.91 -79.31,-190.37 -75.91,-287.46 9.72,-277.54 242.59,-494.64 520.13,-484.91 277.54,9.73 494.61,242.59 484.91,520.13 -4.2,120.04 -41.21,221.51 -114.46,305.47z"/>
  <rect class="fil3" transform="matrix(0.240166 0.161817 -0.161817 0.240166 3184.89 2238.43)" width="521.66" height="698.83"/>
  <path class="fil2" d="M1999.44 1310.9c-16.79,9.65 -23.17,38.39 -7.78,59.82 68.21,94.98 77.32,233.4 21.05,341.17 -6.51,12.49 -28.31,41.98 -29.49,55.88 -2.46,29.03 18.76,49.38 38.03,37.77 19.48,-11.74 49.25,-77.44 59.52,-106.85 40.01,-114.7 25.59,-263.58 -36.2,-357.77 -9.41,-14.32 -23.79,-42.31 -45.13,-30.02z"/>
  <rect class="fil3" transform="matrix(0.982093 0.531294 -0.531294 0.982093 3407.41 2045.97)" width="347.19" height="609.36"/>
  <path class="fil0" d="M3225.15 2426.5l91.89 0.45c-5.97,18.9 -68.72,83.88 -81.95,94.17l-58 49.84 91.41 0.22c-16.52,34.07 -138,141.86 -139.35,144.5l238.02 0.32 0.26 96.34 47.23 0.12 1.42 -95.8 237.34 -0.8c-38.05,-20.62 -128.39,-114.43 -139.36,-144.78l89.43 0.44c-4.74,-7.39 -48.1,-33.9 -75.22,-63.83 -11.72,-12.93 -56.15,-63.23 -62.14,-80.91l89.48 0.12c-13.87,-15.29 -28.7,-18.23 -53.06,-47.81 -38.2,-46.37 -74.62,-95.94 -97.67,-153.56 -3.28,-8.21 -9.29,-29.13 -13.29,-36.46 -7.39,10.33 -22.2,52.88 -29.78,68.53 -11.7,24.17 -22.64,45.77 -37.36,65.44 -15.15,20.25 -53.95,63.38 -72.5,78.81 -8.51,7.07 -20.31,16.41 -26.8,24.65z"/>
  <path class="fil0" d="M2720.01 2796.43l53.71 0.26c-3.49,11.05 -40.17,49.03 -47.9,55.04l-33.9 29.14 53.43 0.12c-9.66,19.92 -80.66,82.92 -81.45,84.46l139.12 0.19 0.15 56.31 27.61 0.07 0.83 -55.99 138.72 -0.47c-22.24,-12.05 -75.04,-66.89 -81.45,-84.63l52.27 0.26c-2.77,-4.32 -28.11,-19.82 -43.96,-37.31 -6.85,-7.56 -32.82,-36.95 -36.32,-47.29l52.3 0.07c-8.11,-8.94 -16.78,-10.65 -31.02,-27.94 -22.33,-27.11 -43.62,-56.08 -57.09,-89.76 -1.92,-4.8 -5.43,-17.02 -7.77,-21.31 -4.32,6.04 -12.97,30.91 -17.4,40.06 -6.84,14.12 -13.24,26.75 -21.84,38.25 -8.85,11.83 -31.53,37.04 -42.37,46.06 -4.98,4.13 -11.88,9.59 -15.67,14.41z"/>
 </g>
</svg>
